<svg width="329.853mm" height="168.859mm" viewBox="0 0 329.853 168.859" xmlns="http://www.w3.org/2000/svg"><g id="svgGroup" stroke-linecap="round" fill-rule="evenodd" font-size="9pt" stroke="#000" stroke-width="0.25mm" fill="none" style="stroke:#000;stroke-width:0.25mm;fill:none"><path d="M 0.046 70.841 L 11.56 5.541 A 3 3 0 0 1 15.035 3.108 L 30.166 5.776 A 3 3 0 0 0 31.409 5.734 L 54.206 0.088 A 3 3 0 0 1 54.927 0 L 274.926 0 A 3 3 0 0 1 275.647 0.088 L 298.444 5.734 A 3 3 0 0 0 299.686 5.776 L 314.818 3.108 A 3 3 0 0 1 318.293 5.541 L 329.807 70.841 A 3 3 0 0 1 329.31 73.083 L 315.113 93.359 A 3 3 0 0 1 313.803 94.41 L 256.996 117.925 A 3 3 0 0 0 256.464 118.212 L 240.331 129.118 A 3 3 0 0 1 239.918 129.352 L 219.686 138.786 A 3 3 0 0 0 218.889 139.329 L 188.625 168.036 A 3 3 0 0 1 186.56 168.859 L 143.293 168.859 A 3 3 0 0 1 141.228 168.036 L 110.964 139.329 A 3 3 0 0 0 110.167 138.786 L 89.935 129.352 A 3 3 0 0 1 89.522 129.118 L 73.389 118.212 A 3 3 0 0 0 72.856 117.925 L 16.05 94.41 A 3 3 0 0 1 14.74 93.359 L 0.543 73.083 A 3 3 0 0 1 0.046 70.841 Z" vector-effect="non-scaling-stroke"/></g></svg>