<svg width="326.236mm" height="153.343mm" viewBox="0 0 326.236 153.343" xmlns="http://www.w3.org/2000/svg"><g id="svgGroup" stroke-linecap="round" fill-rule="evenodd" font-size="9pt" stroke="#000" stroke-width="0.25mm" fill="none" style="stroke:#000;stroke-width:0.25mm;fill:none"><path d="M 0.046 65.441 L 6.916 26.478 A 3 3 0 0 1 8.153 24.539 L 28.862 10.079 A 3 3 0 0 1 29.442 9.763 L 52.726 0.224 A 3 3 0 0 1 53.863 0 L 272.373 0 A 3 3 0 0 1 273.51 0.224 L 296.794 9.763 A 3 3 0 0 1 297.374 10.079 L 318.083 24.539 A 3 3 0 0 1 319.32 26.478 L 326.19 65.441 A 3 3 0 0 1 325.695 67.68 L 311.539 87.954 A 3 3 0 0 1 310.123 89.049 L 263.131 106.485 A 3 3 0 0 1 262.659 106.618 L 220.205 114.858 A 3 3 0 0 0 218.271 116.153 L 194.678 151.993 A 3 3 0 0 1 192.172 153.343 L 134.063 153.343 A 3 3 0 0 1 131.558 151.993 L 107.965 116.153 A 3 3 0 0 0 106.031 114.858 L 63.576 106.618 A 3 3 0 0 1 63.104 106.485 L 16.113 89.049 A 3 3 0 0 1 14.697 87.954 L 0.54 67.68 A 3 3 0 0 1 0.046 65.441 Z" vector-effect="non-scaling-stroke"/></g></svg>