<svg width="329.801mm" height="154.212mm" viewBox="0 0 329.801 154.212" xmlns="http://www.w3.org/2000/svg"><g id="svgGroup" stroke-linecap="round" fill-rule="evenodd" font-size="9pt" stroke="#000" stroke-width="0.25mm" fill="none" style="stroke:#000;stroke-width:0.25mm;fill:none"><path d="M 0.046 79.596 L 6.78 41.404 A 3 3 0 0 1 7.365 40.085 L 31.38 9.151 A 3 3 0 0 1 32.613 8.215 L 52.12 0.224 A 3 3 0 0 1 53.257 0 L 276.544 0 A 3 3 0 0 1 277.681 0.224 L 297.189 8.215 A 3 3 0 0 1 298.421 9.151 L 322.437 40.085 A 3 3 0 0 1 323.022 41.404 L 329.756 79.596 A 3 3 0 0 1 327.818 82.939 L 263.711 106.028 A 3 3 0 0 0 263.049 106.364 L 227.627 130.267 A 3 3 0 0 1 227.567 130.306 L 190.997 153.738 A 3 3 0 0 1 189.379 154.212 L 140.423 154.212 A 3 3 0 0 1 138.804 153.738 L 102.234 130.306 A 3 3 0 0 1 102.175 130.267 L 66.752 106.364 A 3 3 0 0 0 66.091 106.028 L 1.983 82.939 A 3 3 0 0 1 0.046 79.596 Z" vector-effect="non-scaling-stroke"/></g></svg>