<svg width="331.225mm" height="159.567mm" viewBox="0 0 331.225 159.567" xmlns="http://www.w3.org/2000/svg"><g id="svgGroup" stroke-linecap="round" fill-rule="evenodd" font-size="9pt" stroke="#000" stroke-width="0.25mm" fill="none" style="stroke:#000;stroke-width:0.25mm;fill:none"><path d="M 0.046 65.441 L 9.909 9.502 A 3 3 0 0 1 13.392 7.07 L 28.275 9.735 A 3 3 0 0 0 29.941 9.558 L 52.726 0.224 A 3 3 0 0 1 53.863 0 L 277.362 0 A 3 3 0 0 1 278.5 0.224 L 301.284 9.558 A 3 3 0 0 0 302.95 9.735 L 317.833 7.07 A 3 3 0 0 1 321.316 9.502 L 331.18 65.441 A 3 3 0 0 1 330.685 67.68 L 316.553 87.919 A 3 3 0 0 1 315.064 89.04 L 257.78 108.62 A 3 3 0 0 0 257.07 108.973 L 241.017 119.826 A 3 3 0 0 1 240.605 120.059 L 220.372 129.494 A 3 3 0 0 0 219.575 130.036 L 189.311 158.743 A 3 3 0 0 1 187.246 159.567 L 143.979 159.567 A 3 3 0 0 1 141.914 158.743 L 111.65 130.036 A 3 3 0 0 0 110.853 129.494 L 90.621 120.059 A 3 3 0 0 1 90.209 119.826 L 74.155 108.973 A 3 3 0 0 0 73.445 108.62 L 16.162 89.04 A 3 3 0 0 1 14.672 87.919 L 0.54 67.68 A 3 3 0 0 1 0.046 65.441 Z" vector-effect="non-scaling-stroke"/></g></svg>