0
SECTION
2
HEADER
9
$INSUNITS
70
4
0
ENDSEC
0
SECTION
2
TABLES
0
TABLE
2
LTYPE
0
LTYPE
72
65
70
64
2
CONTINUOUS
3
______
73
0
40
0
0
ENDTAB
0
TABLE
2
LAYER
0
ENDTAB
0
ENDSEC
0
SECTION
2
ENTITIES
0
LINE
8
0
10
-9.924183
20
12.0097666
11
-6.7630903
21
77.5314053
0
LINE
8
0
10
-5.2265958
20
80.0075902
11
24.2788672
21
96.4450775
0
LINE
8
0
10
25.0218781
20
96.737382
11
48.1279747
21
102.4246352
0
LINE
8
0
10
48.844984
20
102.5115788
11
267.254465
21
102.5115788
0
LINE
8
0
10
267.9714743
20
102.4246352
11
291.0775709
21
96.737382
0
LINE
8
0
10
291.8205818
20
96.4450775
11
321.3260448
21
80.0075902
0
LINE
8
0
10
322.8625393
20
77.5314053
11
326.023632
21
12.0097666
0
LINE
8
0
10
323.5402853
20
8.9094157
11
307.9969794
21
6.2108671
0
LINE
8
0
10
306.9418713
20
5.8125253
11
278.7699172
21
-11.4630963
0
LINE
8
0
10
277.8253762
20
-11.840097
11
248.4093762
21
-18.0926608
0
LINE
8
0
10
247.8663995
20
-18.2632686
11
225.6986431
21
-27.6210563
0
LINE
8
0
10
225.1465956
20
-27.7935775
11
198.1022855
21
-33.4547327
0
LINE
8
0
10
197.4876212
20
-33.5183765
11
118.6118278
21
-33.5183765
0
LINE
8
0
10
117.9971635
20
-33.4547327
11
90.9528534
21
-27.7935775
0
LINE
8
0
10
90.4008059
20
-27.6210563
11
68.2330495
21
-18.2632686
0
LINE
8
0
10
67.6900728
20
-18.0926608
11
38.2740728
21
-11.840097
0
LINE
8
0
10
37.3295318
20
-11.4630963
11
9.1575777
21
5.8125253
0
LINE
8
0
10
8.1024696
20
6.2108671
11
-7.4408363
21
8.9094157
0
ARC
8
0
10
-3.7665756
20
77.3868383
40
3
50
119.1221673
51
177.2379039
0
ARC
8
0
10
25.7388874
20
93.8243256
40
3
50
103.8277101
51
119.1221673
0
ARC
8
0
10
48.844984
20
99.5115788
40
3
50
90
51
103.8277101
0
ARC
8
0
10
267.254465
20
99.5115788
40
3
50
76.1722899
51
90
0
ARC
8
0
10
290.3605616
20
93.8243256
40
3
50
60.8778327
51
76.1722899
0
ARC
8
0
10
319.8660246
20
77.3868383
40
3
50
2.7620961
51
60.8778327
0
ARC
8
0
10
323.0271173
20
11.8651996
40
3
50
279.8492229
51
2.7620961
0
ARC
8
0
10
308.5101474
20
3.2550832
40
3
50
99.8492229
51
121.5174822
0
ARC
8
0
10
277.2016411
20
-8.9056542
40
3
50
282.0000005
51
301.5174822
0
ARC
8
0
10
249.0331113
20
-21.0271036
40
3
50
102.0000005
51
112.8863146
0
ARC
8
0
10
224.5319313
20
-24.8572213
40
3
50
281.8229487
51
292.8863146
0
ARC
8
0
10
197.4876212
20
-30.5183765
40
3
50
270
51
281.8229487
0
ARC
8
0
10
118.6118278
20
-30.5183765
40
3
50
258.1770513
51
270
0
ARC
8
0
10
91.5675177
20
-24.8572213
40
3
50
247.1136854
51
258.1770513
0
ARC
8
0
10
67.0663377
20
-21.0271036
40
3
50
67.1136854
51
77.9999995
0
ARC
8
0
10
38.8978079
20
-8.9056542
40
3
50
238.4825178
51
257.9999995
0
ARC
8
0
10
7.5893016
20
3.2550832
40
3
50
58.4825178
51
80.1507771
0
ARC
8
0
10
-6.9276683
20
11.8651996
40
3
50
177.2379039
51
260.1507771
0
ENDSEC
0
EOF