<svg width="321.124mm" height="157.151mm" viewBox="0 0 321.124 157.151" xmlns="http://www.w3.org/2000/svg"><g id="svgGroup" stroke-linecap="round" fill-rule="evenodd" font-size="9pt" stroke="#000" stroke-width="0.25mm" fill="none" style="stroke:#000;stroke-width:0.25mm;fill:none"><path d="M 0.161 56.867 L 18.902 2.03 A 3 3 0 0 1 22.269 0.047 L 38.433 2.941 A 3 3 0 0 0 38.441 2.942 L 56.89 6.195 A 3 3 0 0 0 57.411 6.241 L 263.713 6.241 A 3 3 0 0 0 264.234 6.195 L 282.683 2.942 A 3 3 0 0 0 282.69 2.941 L 298.854 0.047 A 3 3 0 0 1 302.222 2.03 L 320.962 56.867 A 3 3 0 0 1 320.802 59.189 L 311.097 78.422 A 3 3 0 0 1 309.788 79.74 L 253.305 108.713 A 3 3 0 0 0 253.082 108.84 L 236.429 119.269 A 3 3 0 0 1 236.009 119.488 L 215.459 128.211 A 3 3 0 0 0 214.644 128.725 L 183.351 156.398 A 3 3 0 0 1 181.364 157.151 L 139.76 157.151 A 3 3 0 0 1 137.772 156.398 L 106.479 128.725 A 3 3 0 0 0 105.664 128.211 L 85.115 119.488 A 3 3 0 0 1 84.695 119.269 L 68.042 108.84 A 3 3 0 0 0 67.819 108.713 L 11.335 79.74 A 3 3 0 0 1 10.026 78.422 L 0.322 59.189 A 3 3 0 0 1 0.161 56.867 Z" vector-effect="non-scaling-stroke"/></g></svg>