<svg width="323.826mm" height="134.741mm" viewBox="0 0 323.826 134.741" xmlns="http://www.w3.org/2000/svg"><g id="svgGroup" stroke-linecap="round" fill-rule="evenodd" font-size="9pt" stroke="#000" stroke-width="0.25mm" fill="none" style="stroke:#000;stroke-width:0.25mm;fill:none"><path d="M 0.003 90.502 L 3.165 24.98 A 3 3 0 0 1 4.701 22.504 L 34.207 6.067 A 3 3 0 0 1 34.95 5.774 L 58.056 0.087 A 3 3 0 0 1 58.773 0 L 265.053 0 A 3 3 0 0 1 265.77 0.087 L 288.876 5.774 A 3 3 0 0 1 289.619 6.067 L 319.125 22.504 A 3 3 0 0 1 320.661 24.98 L 323.822 90.502 A 3 3 0 0 1 321.339 93.602 L 305.58 96.338 A 3 3 0 0 0 304.904 96.54 L 252.004 119.37 A 3 3 0 0 1 251.982 119.379 L 229.562 128.844 A 3 3 0 0 1 229.01 129.016 L 201.965 134.677 A 3 3 0 0 1 201.351 134.741 L 122.475 134.741 A 3 3 0 0 1 121.86 134.677 L 94.816 129.016 A 3 3 0 0 1 94.264 128.844 L 71.844 119.379 A 3 3 0 0 1 71.822 119.37 L 18.922 96.54 A 3 3 0 0 0 18.246 96.338 L 2.487 93.602 A 3 3 0 0 1 0.003 90.502 Z" vector-effect="non-scaling-stroke"/></g></svg>