<svg width="352.694mm" height="158.144mm" viewBox="0 0 352.694 158.144" xmlns="http://www.w3.org/2000/svg"><g id="svgGroup" stroke-linecap="round" fill-rule="evenodd" font-size="9pt" stroke="#000" stroke-width="0.25mm" fill="none" style="stroke:#000;stroke-width:0.25mm;fill:none"><path d="M 0.003 90.502 L 3.165 24.98 A 3 3 0 0 1 4.701 22.504 L 34.207 6.067 A 3 3 0 0 1 34.95 5.774 L 58.056 0.087 A 3 3 0 0 1 58.773 0 L 293.921 0 A 3 3 0 0 1 294.638 0.087 L 317.744 5.774 A 3 3 0 0 1 318.487 6.067 L 347.993 22.504 A 3 3 0 0 1 349.529 24.98 L 352.69 90.502 A 3 3 0 0 1 350.207 93.602 L 334.452 96.337 A 3 3 0 0 0 333.768 96.542 L 281.982 119.075 A 3 3 0 0 1 281.409 119.258 L 248.884 126.171 A 3 3 0 0 0 247.582 126.806 L 226.792 144.222 A 3 3 0 0 1 226.671 144.319 L 209.126 157.54 A 3 3 0 0 1 207.321 158.144 L 145.373 158.144 A 3 3 0 0 1 143.568 157.54 L 125.97 144.279 A 3 3 0 0 1 125.951 144.265 L 102.311 126.151 A 3 3 0 0 0 101.11 125.598 L 71.285 119.258 A 3 3 0 0 1 70.712 119.075 L 18.925 96.542 A 3 3 0 0 0 18.242 96.337 L 2.487 93.602 A 3 3 0 0 1 0.003 90.502 Z" vector-effect="non-scaling-stroke"/></g></svg>