<svg width="329.853mm" height="171.329mm" viewBox="0 0 329.853 171.329" xmlns="http://www.w3.org/2000/svg"><g id="svgGroup" stroke-linecap="round" fill-rule="evenodd" font-size="9pt" stroke="#000" stroke-width="0.25mm" fill="none" style="stroke:#000;stroke-width:0.25mm;fill:none"><path d="M 0.046 73.311 L 11.998 5.525 A 3 3 0 0 1 15.474 3.091 L 30.607 5.76 A 3 3 0 0 0 31.845 5.718 L 54.733 0.087 A 3 3 0 0 1 55.45 0 L 274.403 0 A 3 3 0 0 1 275.12 0.087 L 298.008 5.718 A 3 3 0 0 0 299.246 5.76 L 314.379 3.091 A 3 3 0 0 1 317.855 5.525 L 329.807 73.311 A 3 3 0 0 1 329.31 75.553 L 315.113 95.829 A 3 3 0 0 1 313.803 96.88 L 256.996 120.395 A 3 3 0 0 0 256.464 120.682 L 240.331 131.588 A 3 3 0 0 1 239.918 131.822 L 219.686 141.256 A 3 3 0 0 0 218.889 141.799 L 188.625 170.505 A 3 3 0 0 1 186.56 171.329 L 143.293 171.329 A 3 3 0 0 1 141.228 170.505 L 110.964 141.799 A 3 3 0 0 0 110.167 141.256 L 89.935 131.822 A 3 3 0 0 1 89.522 131.588 L 73.389 120.682 A 3 3 0 0 0 72.856 120.395 L 16.05 96.88 A 3 3 0 0 1 14.74 95.829 L 0.543 75.553 A 3 3 0 0 1 0.046 73.311 Z" vector-effect="non-scaling-stroke"/></g></svg>