<svg width="322.376mm" height="166.014mm" viewBox="0 0 322.376 166.014" xmlns="http://www.w3.org/2000/svg"><g id="svgGroup" stroke-linecap="round" fill-rule="evenodd" font-size="9pt" stroke="#000" stroke-width="0.25mm" fill="none" style="stroke:#000;stroke-width:0.25mm;fill:none"><path d="M 0.046 90.333 L 11.997 22.552 A 3 3 0 0 1 13.228 20.618 L 33.771 6.193 A 3 3 0 0 1 34.779 5.735 L 57.734 0.087 A 3 3 0 0 1 58.451 0 L 263.925 0 A 3 3 0 0 1 264.641 0.087 L 287.597 5.735 A 3 3 0 0 1 288.604 6.193 L 309.148 20.618 A 3 3 0 0 1 310.379 22.552 L 322.33 90.333 A 3 3 0 0 1 319.889 93.81 L 304.482 96.485 A 3 3 0 0 0 303.807 96.686 L 250.906 119.517 A 3 3 0 0 1 250.884 119.526 L 228.998 128.765 A 3 3 0 0 0 227.701 129.818 L 203.463 164.725 A 3 3 0 0 1 200.998 166.014 L 121.377 166.014 A 3 3 0 0 1 118.913 164.725 L 94.675 129.818 A 3 3 0 0 0 93.378 128.765 L 71.491 119.526 A 3 3 0 0 1 71.469 119.517 L 18.569 96.686 A 3 3 0 0 0 17.894 96.485 L 2.487 93.81 A 3 3 0 0 1 0.046 90.333 Z" vector-effect="non-scaling-stroke"/></g></svg>