<svg width="323.081mm" height="165.867mm" viewBox="0 0 323.081 165.867" xmlns="http://www.w3.org/2000/svg"><g id="svgGroup" stroke-linecap="round" fill-rule="evenodd" font-size="9pt" stroke="#000" stroke-width="0.25mm" fill="none" style="stroke:#000;stroke-width:0.25mm;fill:none"><path d="M 0.003 90.502 L 3.165 24.98 A 3 3 0 0 1 4.701 22.504 L 34.207 6.067 A 3 3 0 0 1 34.95 5.774 L 58.056 0.087 A 3 3 0 0 1 58.773 0 L 264.308 0 A 3 3 0 0 1 265.025 0.087 L 288.131 5.774 A 3 3 0 0 1 288.874 6.067 L 318.38 22.504 A 3 3 0 0 1 319.916 24.98 L 323.077 90.502 A 3 3 0 0 1 320.594 93.602 L 304.835 96.338 A 3 3 0 0 0 304.159 96.54 L 251.259 119.37 A 3 3 0 0 1 251.237 119.379 L 229.351 128.618 A 3 3 0 0 0 228.053 129.671 L 203.815 164.578 A 3 3 0 0 1 201.351 165.867 L 121.73 165.867 A 3 3 0 0 1 119.266 164.578 L 95.028 129.671 A 3 3 0 0 0 93.73 128.618 L 71.844 119.379 A 3 3 0 0 1 71.822 119.37 L 18.922 96.54 A 3 3 0 0 0 18.246 96.338 L 2.487 93.602 A 3 3 0 0 1 0.003 90.502 Z" vector-effect="non-scaling-stroke"/></g></svg>