<svg width="321.666mm" height="157.15mm" viewBox="0 0 321.666 157.15" xmlns="http://www.w3.org/2000/svg"><g id="svgGroup" stroke-linecap="round" fill-rule="evenodd" font-size="9pt" stroke="#000" stroke-width="0.25mm" fill="none" style="stroke:#000;stroke-width:0.25mm;fill:none"><path d="M 0.046 64.675 L 6.781 26.478 A 3 3 0 0 1 8.018 24.539 L 28.726 10.079 A 3 3 0 0 1 29.307 9.763 L 52.591 0.224 A 3 3 0 0 1 53.728 0 L 267.939 0 A 3 3 0 0 1 269.076 0.224 L 292.36 9.763 A 3 3 0 0 1 292.94 10.079 L 313.649 24.539 A 3 3 0 0 1 314.886 26.478 L 321.621 64.675 A 3 3 0 0 1 320.263 67.736 L 258.552 106.517 A 3 3 0 0 0 258.385 106.63 L 223.598 131.915 A 3 3 0 0 1 223.539 131.957 L 187.856 156.618 A 3 3 0 0 1 186.151 157.15 L 135.516 157.15 A 3 3 0 0 1 133.81 156.618 L 98.127 131.957 A 3 3 0 0 1 98.069 131.915 L 63.282 106.63 A 3 3 0 0 0 63.114 106.517 L 1.404 67.736 A 3 3 0 0 1 0.046 64.675 Z" vector-effect="non-scaling-stroke"/></g></svg>