<svg width="329.853mm" height="159.567mm" viewBox="0 0 329.853 159.567" xmlns="http://www.w3.org/2000/svg"><g id="svgGroup" stroke-linecap="round" fill-rule="evenodd" font-size="9pt" stroke="#000" stroke-width="0.25mm" fill="none" style="stroke:#000;stroke-width:0.25mm;fill:none"><path d="M 0.046 61.549 L 9.91 5.605 A 3 3 0 0 1 13.385 3.171 L 28.508 5.838 A 3 3 0 0 0 29.767 5.791 L 52.223 0.092 A 3 3 0 0 1 52.961 0 L 276.892 0 A 3 3 0 0 1 277.63 0.092 L 300.086 5.791 A 3 3 0 0 0 301.345 5.838 L 316.467 3.171 A 3 3 0 0 1 319.943 5.605 L 329.807 61.549 A 3 3 0 0 1 329.31 63.791 L 315.113 84.067 A 3 3 0 0 1 313.803 85.118 L 256.996 108.633 A 3 3 0 0 0 256.464 108.92 L 240.331 119.826 A 3 3 0 0 1 239.918 120.059 L 219.686 129.494 A 3 3 0 0 0 218.889 130.036 L 188.625 158.743 A 3 3 0 0 1 186.56 159.567 L 143.293 159.567 A 3 3 0 0 1 141.228 158.743 L 110.964 130.036 A 3 3 0 0 0 110.167 129.494 L 89.935 120.059 A 3 3 0 0 1 89.522 119.826 L 73.389 108.92 A 3 3 0 0 0 72.856 108.633 L 16.05 85.118 A 3 3 0 0 1 14.74 84.067 L 0.543 63.791 A 3 3 0 0 1 0.046 61.549 Z" vector-effect="non-scaling-stroke"/></g></svg>