<svg width="329.853mm" height="161.767mm" viewBox="0 0 329.853 161.767" xmlns="http://www.w3.org/2000/svg"><g id="svgGroup" stroke-linecap="round" fill-rule="evenodd" font-size="9pt" stroke="#000" stroke-width="0.25mm" fill="none" style="stroke:#000;stroke-width:0.25mm;fill:none"><path d="M 0.046 63.75 L 10.301 5.59 A 3 3 0 0 1 13.776 3.156 L 28.901 5.823 A 3 3 0 0 0 30.156 5.777 L 52.692 0.091 A 3 3 0 0 1 53.426 0 L 276.426 0 A 3 3 0 0 1 277.16 0.091 L 299.697 5.777 A 3 3 0 0 0 300.952 5.823 L 316.077 3.156 A 3 3 0 0 1 319.552 5.59 L 329.807 63.75 A 3 3 0 0 1 329.31 65.991 L 315.113 86.268 A 3 3 0 0 1 313.803 87.319 L 256.996 110.834 A 3 3 0 0 0 256.464 111.12 L 240.331 122.027 A 3 3 0 0 1 239.918 122.26 L 219.686 131.695 A 3 3 0 0 0 218.889 132.237 L 188.625 160.944 A 3 3 0 0 1 186.56 161.767 L 143.293 161.767 A 3 3 0 0 1 141.228 160.944 L 110.964 132.237 A 3 3 0 0 0 110.167 131.695 L 89.935 122.26 A 3 3 0 0 1 89.522 122.027 L 73.389 111.12 A 3 3 0 0 0 72.856 110.834 L 16.05 87.319 A 3 3 0 0 1 14.74 86.268 L 0.543 65.991 A 3 3 0 0 1 0.046 63.75 Z" vector-effect="non-scaling-stroke"/></g></svg>