<svg width="360.995mm" height="138.691mm" viewBox="0 0 360.995 138.691" xmlns="http://www.w3.org/2000/svg"><g id="svgGroup" stroke-linecap="round" fill-rule="evenodd" font-size="9pt" stroke="#000" stroke-width="0.25mm" fill="none" style="stroke:#000;stroke-width:0.25mm;fill:none"><path d="M 0.003 90.502 L 3.165 24.98 A 3 3 0 0 1 4.701 22.504 L 34.207 6.067 A 3 3 0 0 1 34.95 5.774 L 58.056 0.087 A 3 3 0 0 1 58.773 0 L 302.223 0 A 3 3 0 0 1 302.94 0.087 L 326.046 5.774 A 3 3 0 0 1 326.789 6.067 L 356.294 22.504 A 3 3 0 0 1 357.831 24.98 L 360.992 90.502 A 3 3 0 0 1 358.509 93.602 L 342.676 96.351 A 3 3 0 0 0 342.136 96.498 L 270.635 123.303 A 3 3 0 0 0 270.521 123.349 L 248.147 132.794 A 3 3 0 0 1 247.595 132.966 L 220.55 138.628 A 3 3 0 0 1 219.936 138.691 L 141.06 138.691 A 3 3 0 0 1 140.445 138.628 L 113.401 132.966 A 3 3 0 0 1 112.849 132.794 L 90.474 123.349 A 3 3 0 0 0 90.36 123.303 L 18.859 96.498 A 3 3 0 0 0 18.319 96.351 L 2.487 93.602 A 3 3 0 0 1 0.003 90.502 Z" vector-effect="non-scaling-stroke"/></g></svg>