<svg width="321.362mm" height="157.191mm" viewBox="0 0 321.362 157.191" xmlns="http://www.w3.org/2000/svg"><g id="svgGroup" stroke-linecap="round" fill-rule="evenodd" font-size="9pt" stroke="#000" stroke-width="0.25mm" fill="none" style="stroke:#000;stroke-width:0.25mm;fill:none"><path d="M 4.026 35.064 L 18.897 1.776 A 3 3 0 0 1 22.164 0.047 L 38.553 2.981 A 3 3 0 0 0 38.56 2.983 L 57.009 6.236 A 3 3 0 0 0 57.53 6.281 L 263.832 6.281 A 3 3 0 0 0 264.353 6.236 L 282.802 2.983 A 3 3 0 0 0 282.81 2.981 L 299.198 0.047 A 3 3 0 0 1 302.466 1.776 L 317.336 35.064 A 3 3 0 0 1 317.552 35.767 L 321.317 57.12 A 3 3 0 0 1 321.041 58.992 L 311.217 78.463 A 3 3 0 0 1 309.908 79.781 L 253.424 108.753 A 3 3 0 0 0 253.201 108.88 L 236.548 119.31 A 3 3 0 0 1 236.128 119.529 L 215.579 128.251 A 3 3 0 0 0 214.763 128.765 L 183.471 156.439 A 3 3 0 0 1 181.483 157.191 L 139.879 157.191 A 3 3 0 0 1 137.892 156.439 L 106.599 128.765 A 3 3 0 0 0 105.784 128.251 L 85.234 119.529 A 3 3 0 0 1 84.814 119.31 L 68.161 108.88 A 3 3 0 0 0 67.938 108.753 L 11.455 79.781 A 3 3 0 0 1 10.146 78.463 L 0.322 58.992 A 3 3 0 0 1 0.046 57.12 L 3.811 35.767 A 3 3 0 0 1 4.026 35.064 Z" vector-effect="non-scaling-stroke"/></g></svg>