<svg width="326.236mm" height="153.343mm" viewBox="0 0 326.236 153.343" xmlns="http://www.w3.org/2000/svg"><g id="svgGroup" stroke-linecap="round" fill-rule="evenodd" font-size="9pt" stroke="#000" stroke-width="0.25mm" fill="none" style="stroke:#000;stroke-width:0.25mm;fill:none"><path d="M 0.046 65.441 L 9.909 9.502 A 3 3 0 0 1 13.392 7.07 L 28.275 9.735 A 3 3 0 0 0 29.941 9.558 L 52.726 0.224 A 3 3 0 0 1 53.863 0 L 272.373 0 A 3 3 0 0 1 273.51 0.224 L 296.294 9.558 A 3 3 0 0 0 297.96 9.735 L 312.843 7.07 A 3 3 0 0 1 316.327 9.502 L 326.19 65.441 A 3 3 0 0 1 325.695 67.68 L 311.539 87.954 A 3 3 0 0 1 310.123 89.049 L 263.323 106.414 A 3 3 0 0 0 262.543 106.845 L 243.348 121.537 A 3 3 0 0 1 242.648 121.937 L 222.08 130.247 A 3 3 0 0 0 221.298 130.711 L 194.62 152.66 A 3 3 0 0 1 192.714 153.343 L 133.522 153.343 A 3 3 0 0 1 131.616 152.66 L 104.938 130.711 A 3 3 0 0 0 104.156 130.247 L 83.588 121.937 A 3 3 0 0 1 82.888 121.537 L 63.692 106.845 A 3 3 0 0 0 62.913 106.414 L 16.113 89.049 A 3 3 0 0 1 14.697 87.954 L 0.54 67.68 A 3 3 0 0 1 0.046 65.441 Z" vector-effect="non-scaling-stroke"/></g></svg>