<svg width="321.936mm" height="157.15mm" viewBox="0 0 321.936 157.15" xmlns="http://www.w3.org/2000/svg"><g id="svgGroup" stroke-linecap="round" fill-rule="evenodd" font-size="9pt" stroke="#000" stroke-width="0.25mm" fill="none" style="stroke:#000;stroke-width:0.25mm;fill:none"><path d="M 0.046 65.441 L 6.916 26.478 A 3 3 0 0 1 8.153 24.539 L 28.862 10.079 A 3 3 0 0 1 29.442 9.763 L 52.726 0.224 A 3 3 0 0 1 53.863 0 L 268.074 0 A 3 3 0 0 1 269.211 0.224 L 292.495 9.763 A 3 3 0 0 1 293.075 10.079 L 313.784 24.539 A 3 3 0 0 1 315.021 26.478 L 321.891 65.441 A 3 3 0 0 1 321.396 67.68 L 307.24 87.954 A 3 3 0 0 1 305.824 89.049 L 258.988 106.427 A 3 3 0 0 0 258.268 106.813 L 223.733 131.915 A 3 3 0 0 1 223.674 131.957 L 187.991 156.618 A 3 3 0 0 1 186.286 157.15 L 135.651 157.15 A 3 3 0 0 1 133.945 156.618 L 98.262 131.957 A 3 3 0 0 1 98.204 131.915 L 63.668 106.813 A 3 3 0 0 0 62.948 106.427 L 16.113 89.049 A 3 3 0 0 1 14.697 87.954 L 0.54 67.68 A 3 3 0 0 1 0.046 65.441 Z" vector-effect="non-scaling-stroke"/></g></svg>