0
SECTION
2
HEADER
9
$INSUNITS
70
4
0
ENDSEC
0
SECTION
2
TABLES
0
TABLE
2
LTYPE
0
LTYPE
72
65
70
64
2
CONTINUOUS
3
______
73
0
40
0
0
ENDTAB
0
TABLE
2
LAYER
0
ENDTAB
0
ENDSEC
0
SECTION
2
ENTITIES
0
LINE
8
0
10
-9.924183
20
12.0097666
11
-6.7630903
21
77.5314053
0
LINE
8
0
10
-5.2265958
20
80.0075902
11
24.2788672
21
96.4450775
0
LINE
8
0
10
25.0218781
20
96.737382
11
48.1279747
21
102.4246352
0
LINE
8
0
10
48.844984
20
102.5115788
11
283.9933814
21
102.5115788
0
LINE
8
0
10
284.7103907
20
102.4246352
11
307.8164873
21
96.737382
0
LINE
8
0
10
308.5594982
20
96.4450775
11
338.0649612
21
80.0075902
0
LINE
8
0
10
339.6014557
20
77.5314053
11
342.7625484
21
12.0097666
0
LINE
8
0
10
340.2792017
20
8.9094157
11
324.5243723
21
6.1741434
0
LINE
8
0
10
323.840627
20
5.96925
11
272.0541798
21
-16.5630496
0
LINE
8
0
10
271.4810016
20
-16.7466019
11
238.9567756
21
-23.6598395
0
LINE
8
0
10
237.6539828
20
-24.2946106
11
216.8645046
21
-41.7107961
0
LINE
8
0
10
216.7434217
20
-41.8070309
11
199.198315
21
-55.0282171
0
LINE
8
0
10
197.3928699
20
-55.6323106
11
135.4454955
21
-55.6323106
0
LINE
8
0
10
133.6400504
20
-55.0282171
11
116.042784
21
-41.7677257
0
LINE
8
0
10
116.0235981
20
-41.7531469
11
92.3830202
21
-23.6391655
0
LINE
8
0
10
91.1821243
20
-23.0860504
11
61.3573638
21
-16.7466019
0
LINE
8
0
10
60.7841856
20
-16.5630496
11
8.9977384
21
5.96925
0
LINE
8
0
10
8.3139931
20
6.1741434
11
-7.4408363
21
8.9094157
0
ARC
8
0
10
-3.7665756
20
77.3868383
40
3
50
119.1221673
51
177.2379039
0
ARC
8
0
10
25.7388874
20
93.8243256
40
3
50
103.8277101
51
119.1221673
0
ARC
8
0
10
48.844984
20
99.5115788
40
3
50
90
51
103.8277101
0
ARC
8
0
10
283.9933814
20
99.5115788
40
3
50
76.1722899
51
90
0
ARC
8
0
10
307.099478
20
93.8243256
40
3
50
60.8778327
51
76.1722899
0
ARC
8
0
10
336.604941
20
77.3868383
40
3
50
2.7620961
51
60.8778327
0
ARC
8
0
10
339.7660337
20
11.8651996
40
3
50
279.8492229
51
2.7620961
0
ARC
8
0
10
325.0375403
20
3.2183595
40
3
50
99.8492229
51
113.5138727
0
ARC
8
0
10
270.8572665
20
-13.8121591
40
3
50
282.0000005
51
293.5138727
0
ARC
8
0
10
239.5805107
20
-26.5942823
40
3
50
102.0000005
51
129.9542678
0
ARC
8
0
10
214.9379767
20
-39.4111243
40
3
50
306.9999993
51
309.9542678
0
ARC
8
0
10
197.3928699
20
-52.6323106
40
3
50
270
51
306.9999993
0
ARC
8
0
10
135.4454955
20
-52.6323106
40
3
50
233.0000007
51
270
0
ARC
8
0
10
117.848229
20
-39.3718192
40
3
50
232.5397907
51
233.0000007
0
ARC
8
0
10
90.5583892
20
-26.0204932
40
3
50
52.5397907
51
77.9999995
0
ARC
8
0
10
61.9810989
20
-13.8121591
40
3
50
246.4861273
51
257.9999995
0
ARC
8
0
10
7.8008251
20
3.2183595
40
3
50
66.4861273
51
80.1507771
0
ARC
8
0
10
-6.9276683
20
11.8651996
40
3
50
177.2379039
51
260.1507771
0
ENDSEC
0
EOF