<svg width="322.376mm" height="165.867mm" viewBox="0 0 322.376 165.867" xmlns="http://www.w3.org/2000/svg"><g id="svgGroup" stroke-linecap="round" fill-rule="evenodd" font-size="9pt" stroke="#000" stroke-width="0.25mm" fill="none" style="stroke:#000;stroke-width:0.25mm;fill:none"><path d="M 0.046 90.187 L 11.971 22.553 A 3 3 0 0 1 13.202 20.619 L 33.745 6.194 A 3 3 0 0 1 34.752 5.736 L 57.703 0.087 A 3 3 0 0 1 58.42 0 L 263.956 0 A 3 3 0 0 1 264.673 0.087 L 287.623 5.736 A 3 3 0 0 1 288.63 6.194 L 309.174 20.619 A 3 3 0 0 1 310.405 22.553 L 322.33 90.187 A 3 3 0 0 1 319.889 93.663 L 304.482 96.338 A 3 3 0 0 0 303.807 96.54 L 250.906 119.37 A 3 3 0 0 1 250.884 119.379 L 228.998 128.618 A 3 3 0 0 0 227.701 129.671 L 203.463 164.578 A 3 3 0 0 1 200.998 165.867 L 121.377 165.867 A 3 3 0 0 1 118.913 164.578 L 94.675 129.671 A 3 3 0 0 0 93.378 128.618 L 71.491 119.379 A 3 3 0 0 1 71.469 119.37 L 18.569 96.54 A 3 3 0 0 0 17.894 96.338 L 2.487 93.663 A 3 3 0 0 1 0.046 90.187 Z" vector-effect="non-scaling-stroke"/></g></svg>