<svg width="340.75mm" height="159.567mm" viewBox="0 0 340.75 159.567" xmlns="http://www.w3.org/2000/svg"><g id="svgGroup" stroke-linecap="round" fill-rule="evenodd" font-size="9pt" stroke="#000" stroke-width="0.25mm" fill="none" style="stroke:#000;stroke-width:0.25mm;fill:none"><path d="M 0.046 65.441 L 9.909 9.502 A 3 3 0 0 1 13.392 7.07 L 28.275 9.735 A 3 3 0 0 0 29.941 9.558 L 52.726 0.224 A 3 3 0 0 1 53.863 0 L 286.887 0 A 3 3 0 0 1 288.025 0.224 L 310.809 9.558 A 3 3 0 0 0 312.475 9.735 L 327.358 7.07 A 3 3 0 0 1 330.841 9.502 L 340.705 65.441 A 3 3 0 0 1 340.21 67.68 L 326.078 87.919 A 3 3 0 0 1 324.589 89.04 L 267.305 108.62 A 3 3 0 0 0 266.595 108.973 L 250.542 119.826 A 3 3 0 0 1 250.13 120.059 L 229.897 129.494 A 3 3 0 0 0 229.1 130.036 L 198.836 158.743 A 3 3 0 0 1 196.771 159.567 L 143.979 159.567 A 3 3 0 0 1 141.914 158.743 L 111.65 130.036 A 3 3 0 0 0 110.853 129.494 L 90.621 120.059 A 3 3 0 0 1 90.209 119.826 L 74.155 108.973 A 3 3 0 0 0 73.445 108.62 L 16.162 89.04 A 3 3 0 0 1 14.672 87.919 L 0.54 67.68 A 3 3 0 0 1 0.046 65.441 Z" vector-effect="non-scaling-stroke"/></g></svg>