<svg width="329.801mm" height="154.212mm" viewBox="0 0 329.801 154.212" xmlns="http://www.w3.org/2000/svg"><g id="svgGroup" stroke-linecap="round" fill-rule="evenodd" font-size="9pt" stroke="#000" stroke-width="0.25mm" fill="none" style="stroke:#000;stroke-width:0.25mm;fill:none"><path d="M 0.046 79.596 L 6.78 41.404 A 3 3 0 0 1 7.365 40.085 L 31.38 9.151 A 3 3 0 0 1 32.613 8.215 L 52.12 0.224 A 3 3 0 0 1 53.257 0 L 276.544 0 A 3 3 0 0 1 277.681 0.224 L 297.189 8.215 A 3 3 0 0 1 298.421 9.151 L 322.437 40.085 A 3 3 0 0 1 323.022 41.404 L 329.756 79.596 A 3 3 0 0 1 327.818 82.939 L 263.711 106.028 A 3 3 0 0 0 263.049 106.364 L 227.627 130.267 A 3 3 0 0 1 227.567 130.306 L 190.997 153.738 A 3 3 0 0 1 189.379 154.212 L 140.423 154.212 A 3 3 0 0 1 138.804 153.738 L 102.234 130.306 A 3 3 0 0 1 102.175 130.267 L 66.752 106.364 A 3 3 0 0 0 66.091 106.028 L 1.983 82.939 A 3 3 0 0 1 0.046 79.596 Z M 5.513 61.547 L 23.781 64.768 L 27.002 46.5 L 8.734 43.279 L 5.513 61.547 Z M 23.877 66.816 L 42.145 70.037 L 45.366 51.769 L 27.098 48.548 L 23.877 66.816 Z M 30.475 29.393 L 48.744 32.614 L 51.965 14.346 L 33.697 11.125 L 30.475 29.393 Z M 44.672 58.297 L 62.94 61.519 L 66.161 43.25 L 47.893 40.029 L 44.672 58.297 Z M 51.271 20.875 L 69.539 24.096 L 72.76 5.828 L 54.492 2.607 L 51.271 20.875 Z M 64.252 56.673 L 82.52 59.894 L 85.741 41.626 L 67.473 38.404 L 64.252 56.673 Z M 67.551 37.961 L 85.819 41.183 L 89.04 22.914 L 70.772 19.693 L 67.551 37.961 Z M 70.85 19.25 L 89.118 22.471 L 92.34 4.203 L 74.071 0.982 L 70.85 19.25 Z M 78.622 84.592 L 96.89 87.813 L 100.111 69.545 L 81.843 66.324 L 78.622 84.592 Z M 85.22 47.169 L 103.489 50.391 L 106.71 32.122 L 88.442 28.901 L 85.22 47.169 Z M 96.986 89.861 L 115.254 93.082 L 118.475 74.814 L 100.207 71.593 L 96.986 89.861 Z M 100.285 71.15 L 118.553 74.371 L 121.774 56.103 L 103.506 52.882 L 100.285 71.15 Z M 103.584 52.438 L 121.853 55.66 L 125.074 37.391 L 106.806 34.17 L 103.584 52.438 Z M 106.884 33.727 L 125.152 36.948 L 128.373 18.68 L 110.105 15.459 L 106.884 33.727 Z M 69.049 104.33 L 87.317 107.551 L 90.538 89.283 L 72.27 86.062 L 69.049 104.33 Z M 306.02 64.768 L 324.289 61.547 L 321.067 43.279 L 302.799 46.5 L 306.02 64.768 Z M 281.058 32.614 L 299.326 29.393 L 296.105 11.125 L 277.837 14.346 L 281.058 32.614 Z M 247.282 59.894 L 265.55 56.673 L 262.329 38.404 L 244.06 41.626 L 247.282 59.894 Z M 243.982 41.183 L 262.251 37.961 L 259.029 19.693 L 240.761 22.914 L 243.982 41.183 Z M 240.683 22.471 L 258.951 19.25 L 255.73 0.982 L 237.462 4.203 L 240.683 22.471 Z M 223.014 31.679 L 241.282 28.458 L 238.061 10.19 L 219.792 13.411 L 223.014 31.679 Z M 211.248 74.371 L 229.516 71.15 L 226.295 52.882 L 208.027 56.103 L 211.248 74.371 Z M 204.649 36.948 L 222.918 33.727 L 219.697 15.459 L 201.428 18.68 L 204.649 36.948 Z M 2.213 80.258 L 20.482 83.479 L 23.703 65.211 L 5.435 61.99 L 2.213 80.258 Z M 20.578 85.527 L 38.846 88.748 L 42.067 70.48 L 23.799 67.259 L 20.578 85.527 Z M 27.176 48.104 L 45.444 51.326 L 48.666 33.057 L 30.397 29.836 L 27.176 48.104 Z M 41.373 77.009 L 59.641 80.23 L 62.862 61.962 L 44.594 58.741 L 41.373 77.009 Z M 47.971 39.586 L 66.239 42.807 L 69.461 24.539 L 51.192 21.318 L 47.971 39.586 Z M 88.52 28.458 L 106.788 31.679 L 110.009 13.411 L 91.741 10.19 L 88.52 28.458 Z M 309.32 83.479 L 327.588 80.258 L 324.367 61.99 L 306.099 65.211 L 309.32 83.479 Z M 290.956 88.748 L 309.224 85.527 L 306.003 67.259 L 287.734 70.48 L 290.956 88.748 Z M 287.656 70.037 L 305.925 66.816 L 302.703 48.548 L 284.435 51.769 L 287.656 70.037 Z M 284.357 51.326 L 302.625 48.104 L 299.404 29.836 L 281.136 33.057 L 284.357 51.326 Z M 266.861 61.519 L 285.129 58.297 L 281.908 40.029 L 263.64 43.25 L 266.861 61.519 Z M 250.581 78.605 L 268.849 75.384 L 265.628 57.116 L 247.36 60.337 L 250.581 78.605 Z M 232.911 87.813 L 251.18 84.592 L 247.959 66.324 L 229.69 69.545 L 232.911 87.813 Z M 229.612 69.102 L 247.88 65.881 L 244.659 47.613 L 226.391 50.834 L 229.612 69.102 Z M 226.313 50.391 L 244.581 47.169 L 241.36 28.901 L 223.092 32.122 L 226.313 50.391 Z M 214.547 93.082 L 232.816 89.861 L 229.594 71.593 L 211.326 74.814 L 214.547 93.082 Z M 207.949 55.66 L 226.217 52.438 L 222.996 34.17 L 204.728 37.391 L 207.949 55.66 Z M 242.484 107.551 L 260.753 104.33 L 257.531 86.062 L 239.263 89.283 L 242.484 107.551 Z M 60.952 75.384 L 79.22 78.605 L 82.442 60.337 L 64.173 57.116 L 60.952 75.384 Z M 81.921 65.881 L 100.189 69.102 L 103.41 50.834 L 85.142 47.613 L 81.921 65.881 Z M 263.562 42.807 L 281.83 39.586 L 278.609 21.318 L 260.341 24.539 L 263.562 42.807 Z M 270.161 80.23 L 288.429 77.009 L 285.208 58.741 L 266.939 61.962 L 270.161 80.23 Z M 260.263 24.096 L 278.531 20.875 L 275.31 2.607 L 257.041 5.828 L 260.263 24.096 Z M 219.851 115.56 L 237.282 109.215 L 230.938 91.784 L 213.507 98.129 L 219.851 115.56 Z M 92.519 109.215 L 109.95 115.56 L 116.295 98.129 L 98.863 91.784 L 92.519 109.215 Z M 198.959 122.284 L 215.024 113.009 L 205.749 96.944 L 189.684 106.219 L 198.959 122.284 Z M 185.318 141.158 L 201.383 131.883 L 192.108 115.818 L 176.043 125.093 L 185.318 141.158 Z M 114.778 113.009 L 130.843 122.284 L 140.118 106.219 L 124.053 96.944 L 114.778 113.009 Z M 128.418 131.883 L 144.483 141.158 L 153.758 125.093 L 137.693 115.818 L 128.418 131.883 Z M 208.459 138.738 L 224.524 129.463 L 215.249 113.399 L 199.184 122.674 L 208.459 138.738 Z M 105.278 129.463 L 121.343 138.738 L 130.618 122.674 L 114.553 113.399 L 105.278 129.463 Z" vector-effect="non-scaling-stroke"/></g></svg>