<svg width="321.666mm" height="157.15mm" viewBox="0 0 321.666 157.15" xmlns="http://www.w3.org/2000/svg"><g id="svgGroup" stroke-linecap="round" fill-rule="evenodd" font-size="9pt" stroke="#000" stroke-width="0.25mm" fill="none" style="stroke:#000;stroke-width:0.25mm;fill:none"><path d="M 0.046 64.675 L 6.781 26.478 A 3 3 0 0 1 8.018 24.539 L 28.726 10.079 A 3 3 0 0 1 29.307 9.763 L 52.591 0.224 A 3 3 0 0 1 53.728 0 L 267.939 0 A 3 3 0 0 1 269.076 0.224 L 292.36 9.763 A 3 3 0 0 1 292.94 10.079 L 313.649 24.539 A 3 3 0 0 1 314.886 26.478 L 321.621 64.675 A 3 3 0 0 1 320.263 67.736 L 302.546 78.87 L 300.74 68.629 L 282.472 71.851 L 285.589 89.527 L 258.552 106.517 A 3 3 0 0 0 258.385 106.63 L 223.598 131.915 A 3 3 0 0 1 223.539 131.957 L 187.856 156.618 A 3 3 0 0 1 186.151 157.15 L 135.516 157.15 A 3 3 0 0 1 133.81 156.618 L 98.127 131.957 A 3 3 0 0 1 98.069 131.915 L 63.282 106.63 A 3 3 0 0 0 63.114 106.517 L 36.078 89.527 L 39.194 71.851 L 20.926 68.629 L 19.12 78.87 L 1.404 67.736 A 3 3 0 0 1 0.046 64.675 Z M 24.304 49.475 L 42.572 52.696 L 45.793 34.428 L 27.525 31.207 L 24.304 49.475 Z M 5.601 46.126 L 23.869 49.347 L 27.09 31.079 L 8.822 27.858 L 5.601 46.126 Z M 297.797 49.347 L 316.065 46.126 L 312.844 27.858 L 294.576 31.079 L 297.797 49.347 Z M 282.394 71.407 L 300.662 68.186 L 297.441 49.918 L 279.173 53.139 L 282.394 71.407 Z M 279.095 52.696 L 297.363 49.475 L 294.142 31.207 L 275.873 34.428 L 279.095 52.696 Z M 2.302 64.838 L 20.57 68.059 L 23.791 49.791 L 5.523 46.569 L 2.302 64.838 Z M 21.004 68.186 L 39.273 71.407 L 42.494 53.139 L 24.226 49.918 L 21.004 68.186 Z M 27.603 30.763 L 45.871 33.985 L 49.092 15.716 L 30.824 12.495 L 27.603 30.763 Z M 301.097 68.059 L 319.365 64.838 L 316.144 46.569 L 297.875 49.791 L 301.097 68.059 Z M 275.795 33.985 L 294.063 30.763 L 290.842 12.495 L 272.574 15.716 L 275.795 33.985 Z M 101.198 131.221 L 116.929 141.051 L 126.759 125.319 L 111.028 115.489 L 101.198 131.221 Z M 111.267 115.108 L 126.998 124.938 L 136.828 109.206 L 121.097 99.376 L 111.267 115.108 Z M 124.24 134.446 L 139.971 144.276 L 149.801 128.545 L 134.07 118.715 L 124.24 134.446 Z M 204.737 141.051 L 220.468 131.221 L 210.638 115.489 L 194.907 125.319 L 204.737 141.051 Z M 194.669 124.938 L 210.4 115.108 L 200.57 99.376 L 184.839 109.206 L 194.669 124.938 Z M 181.695 144.276 L 197.426 134.446 L 187.596 118.715 L 171.865 128.545 L 181.695 144.276 Z M 215.314 117.489 L 232.513 110.54 L 225.564 93.34 L 208.365 100.289 L 215.314 117.489 Z M 89.154 110.54 L 106.353 117.489 L 113.302 100.289 L 96.103 93.34 L 89.154 110.54 Z M 39.163 76.568 L 57.307 80.424 L 61.164 62.28 L 43.019 58.423 L 39.163 76.568 Z M 43.113 57.983 L 61.257 61.84 L 65.114 43.695 L 46.97 39.838 L 43.113 57.983 Z M 47.063 39.398 L 65.208 43.255 L 69.065 25.11 L 50.92 21.253 L 47.063 39.398 Z M 51.013 20.813 L 69.158 24.67 L 73.015 6.525 L 54.87 2.669 L 51.013 20.813 Z M 58.787 75.627 L 76.932 79.484 L 80.788 61.339 L 62.644 57.483 L 58.787 75.627 Z M 62.737 57.042 L 80.882 60.899 L 84.739 42.755 L 66.594 38.898 L 62.737 57.042 Z M 66.688 38.458 L 84.832 42.314 L 88.689 24.17 L 70.544 20.313 L 66.688 38.458 Z M 70.638 19.873 L 88.782 23.73 L 92.639 5.585 L 74.495 1.728 L 70.638 19.873 Z M 76.124 85.446 L 94.269 89.303 L 98.126 71.159 L 79.981 67.302 L 76.124 85.446 Z M 65.868 104.838 L 84.013 108.695 L 87.87 90.55 L 69.725 86.693 L 65.868 104.838 Z M 244.735 79.484 L 262.88 75.627 L 259.023 57.483 L 240.878 61.339 L 244.735 79.484 Z M 240.785 60.899 L 258.929 57.042 L 255.072 38.898 L 236.928 42.755 L 240.785 60.899 Z M 236.834 42.314 L 254.979 38.458 L 251.122 20.313 L 232.978 24.17 L 236.834 42.314 Z M 232.884 23.73 L 251.029 19.873 L 247.172 1.728 L 229.027 5.585 L 232.884 23.73 Z M 227.398 89.303 L 245.542 85.446 L 241.685 67.302 L 223.541 71.159 L 227.398 89.303 Z M 223.447 70.718 L 241.592 66.862 L 237.735 48.717 L 219.59 52.574 L 223.447 70.718 Z M 219.497 52.134 L 237.642 48.277 L 233.785 30.132 L 215.64 33.989 L 219.497 52.134 Z M 215.547 33.549 L 233.691 29.692 L 229.834 11.547 L 211.69 15.404 L 215.547 33.549 Z M 209.229 95.21 L 227.373 91.353 L 223.516 73.208 L 205.372 77.065 L 209.229 95.21 Z M 205.278 76.625 L 223.423 72.768 L 219.566 54.624 L 201.422 58.48 L 205.278 76.625 Z M 201.328 58.04 L 219.473 54.183 L 215.616 36.039 L 197.471 39.896 L 201.328 58.04 Z M 197.378 39.455 L 215.522 35.599 L 211.666 17.454 L 193.521 21.311 L 197.378 39.455 Z M 237.653 108.695 L 255.798 104.838 L 251.941 86.693 L 233.797 90.55 L 237.653 108.695 Z M 80.075 66.862 L 98.219 70.718 L 102.076 52.574 L 83.931 48.717 L 80.075 66.862 Z M 84.025 48.277 L 102.17 52.134 L 106.026 33.989 L 87.882 30.132 L 84.025 48.277 Z M 87.975 29.692 L 106.12 33.549 L 109.977 15.404 L 91.832 11.547 L 87.975 29.692 Z M 94.293 91.353 L 112.438 95.21 L 116.295 77.065 L 98.15 73.208 L 94.293 91.353 Z M 98.244 72.768 L 116.388 76.625 L 120.245 58.48 L 102.1 54.624 L 98.244 72.768 Z M 102.194 54.183 L 120.338 58.04 L 124.195 39.896 L 106.051 36.039 L 102.194 54.183 Z M 106.144 35.599 L 124.289 39.455 L 128.146 21.311 L 110.001 17.454 L 106.144 35.599 Z M 264.359 80.424 L 282.504 76.568 L 278.647 58.423 L 260.503 62.28 L 264.359 80.424 Z M 260.409 61.84 L 278.554 57.983 L 274.697 39.838 L 256.552 43.695 L 260.409 61.84 Z M 256.459 43.255 L 274.603 39.398 L 270.747 21.253 L 252.602 25.11 L 256.459 43.255 Z M 252.508 24.67 L 270.653 20.813 L 266.796 2.669 L 248.652 6.525 L 252.508 24.67 Z" vector-effect="non-scaling-stroke"/></g></svg>