<svg width="331.225mm" height="159.567mm" viewBox="0 0 331.225 159.567" xmlns="http://www.w3.org/2000/svg"><g id="svgGroup" stroke-linecap="round" fill-rule="evenodd" font-size="9pt" stroke="#000" stroke-width="0.25mm" fill="none" style="stroke:#000;stroke-width:0.25mm;fill:none"><path d="M 0.046 65.441 L 9.909 9.502 A 3 3 0 0 1 13.392 7.07 L 28.275 9.735 A 3 3 0 0 0 29.941 9.558 L 52.726 0.224 A 3 3 0 0 1 53.863 0 L 277.362 0 A 3 3 0 0 1 278.5 0.224 L 301.284 9.558 A 3 3 0 0 0 302.95 9.735 L 317.833 7.07 A 3 3 0 0 1 321.316 9.502 L 331.18 65.441 A 3 3 0 0 1 330.685 67.68 L 316.553 87.919 A 3 3 0 0 1 315.064 89.04 L 257.78 108.62 A 3 3 0 0 0 257.07 108.973 L 241.017 119.826 A 3 3 0 0 1 240.605 120.059 L 220.372 129.494 A 3 3 0 0 0 219.575 130.036 L 189.311 158.743 A 3 3 0 0 1 187.246 159.567 L 143.979 159.567 A 3 3 0 0 1 141.914 158.743 L 111.65 130.036 A 3 3 0 0 0 110.853 129.494 L 90.621 120.059 A 3 3 0 0 1 90.209 119.826 L 74.155 108.973 A 3 3 0 0 0 73.445 108.62 L 16.162 89.04 A 3 3 0 0 1 14.672 87.919 L 0.54 67.68 A 3 3 0 0 1 0.046 65.441 Z M 24.439 49.475 L 42.707 52.696 L 45.928 34.428 L 27.66 31.207 L 24.439 49.475 Z M 5.736 46.126 L 24.004 49.347 L 27.225 31.079 L 8.957 27.858 L 5.736 46.126 Z M 9.035 27.415 L 27.304 30.636 L 30.525 12.368 L 12.257 9.147 L 9.035 27.415 Z M 17.84 86.898 L 36.108 90.119 L 39.329 71.851 L 21.061 68.629 L 17.84 86.898 Z M 307.221 49.347 L 325.489 46.126 L 322.268 27.858 L 304 31.079 L 307.221 49.347 Z M 291.818 71.407 L 310.086 68.186 L 306.865 49.918 L 288.597 53.139 L 291.818 71.407 Z M 288.519 52.696 L 306.787 49.475 L 303.566 31.207 L 285.297 34.428 L 288.519 52.696 Z M 2.437 64.838 L 20.705 68.059 L 23.926 49.791 L 5.658 46.569 L 2.437 64.838 Z M 21.139 68.186 L 39.408 71.407 L 42.629 53.139 L 24.361 49.918 L 21.139 68.186 Z M 27.738 30.763 L 46.006 33.985 L 49.227 15.716 L 30.959 12.495 L 27.738 30.763 Z M 310.521 68.059 L 328.789 64.838 L 325.568 46.569 L 307.299 49.791 L 310.521 68.059 Z M 303.922 30.636 L 322.19 27.415 L 318.969 9.147 L 300.701 12.368 L 303.922 30.636 Z M 295.117 90.119 L 313.385 86.898 L 310.164 68.629 L 291.896 71.851 L 295.117 90.119 Z M 285.219 33.985 L 303.487 30.763 L 300.266 12.495 L 281.998 15.716 L 285.219 33.985 Z M 133.645 136.352 L 148.84 146.992 L 159.48 131.797 L 144.285 121.157 L 133.645 136.352 Z M 182.385 146.992 L 197.58 136.352 L 186.94 121.157 L 171.745 131.797 L 182.385 146.992 Z M 199.901 131.821 L 215.096 121.181 L 204.456 105.986 L 189.261 116.625 L 199.901 131.821 Z M 116.13 121.181 L 131.325 131.821 L 141.965 116.625 L 126.769 105.986 L 116.13 121.181 Z M 113.961 97.385 L 129.862 106.939 L 139.416 91.039 L 123.515 81.485 L 113.961 97.385 Z M 201.364 106.939 L 217.264 97.385 L 207.71 81.485 L 191.81 91.039 L 201.364 106.939 Z M 39.298 76.568 L 57.442 80.424 L 61.299 62.28 L 43.154 58.423 L 39.298 76.568 Z M 43.248 57.983 L 61.393 61.84 L 65.249 43.695 L 47.105 39.838 L 43.248 57.983 Z M 47.198 39.398 L 65.343 43.255 L 69.2 25.11 L 51.055 21.253 L 47.198 39.398 Z M 51.149 20.813 L 69.293 24.67 L 73.15 6.525 L 55.005 2.669 L 51.149 20.813 Z M 58.922 75.627 L 77.067 79.484 L 80.923 61.339 L 62.779 57.483 L 58.922 75.627 Z M 62.872 57.042 L 81.017 60.899 L 84.874 42.755 L 66.729 38.898 L 62.872 57.042 Z M 66.823 38.458 L 84.967 42.314 L 88.824 24.17 L 70.679 20.313 L 66.823 38.458 Z M 70.773 19.873 L 88.918 23.73 L 92.774 5.585 L 74.63 1.728 L 70.773 19.873 Z M 76.259 85.446 L 94.404 89.303 L 98.261 71.159 L 80.116 67.302 L 76.259 85.446 Z M 250.209 60.899 L 268.353 57.042 L 264.496 38.898 L 246.352 42.755 L 250.209 60.899 Z M 246.258 42.314 L 264.403 38.458 L 260.546 20.313 L 242.401 24.17 L 246.258 42.314 Z M 242.308 23.73 L 260.453 19.873 L 256.596 1.728 L 238.451 5.585 L 242.308 23.73 Z M 236.822 89.303 L 254.966 85.446 L 251.109 67.302 L 232.965 71.159 L 236.822 89.303 Z M 232.871 70.718 L 251.016 66.862 L 247.159 48.717 L 229.014 52.574 L 232.871 70.718 Z M 228.921 52.134 L 247.066 48.277 L 243.209 30.132 L 225.064 33.989 L 228.921 52.134 Z M 224.971 33.549 L 243.115 29.692 L 239.258 11.547 L 221.114 15.404 L 224.971 33.549 Z M 218.653 95.21 L 236.797 91.353 L 232.94 73.208 L 214.796 77.065 L 218.653 95.21 Z M 214.702 76.625 L 232.847 72.768 L 228.99 54.624 L 210.845 58.48 L 214.702 76.625 Z M 210.752 58.04 L 228.897 54.183 L 225.04 36.039 L 206.895 39.896 L 210.752 58.04 Z M 206.802 39.455 L 224.946 35.599 L 221.089 17.454 L 202.945 21.311 L 206.802 39.455 Z M 236.589 110.873 L 254.733 107.016 L 250.876 88.872 L 232.732 92.728 L 236.589 110.873 Z M 80.21 66.862 L 98.354 70.718 L 102.211 52.574 L 84.066 48.717 L 80.21 66.862 Z M 84.16 48.277 L 102.305 52.134 L 106.161 33.989 L 88.017 30.132 L 84.16 48.277 Z M 88.11 29.692 L 106.255 33.549 L 110.112 15.404 L 91.967 11.547 L 88.11 29.692 Z M 94.428 91.353 L 112.573 95.21 L 116.43 77.065 L 98.285 73.208 L 94.428 91.353 Z M 98.379 72.768 L 116.523 76.625 L 120.38 58.48 L 102.235 54.624 L 98.379 72.768 Z M 102.329 54.183 L 120.474 58.04 L 124.33 39.896 L 106.186 36.039 L 102.329 54.183 Z M 106.279 35.599 L 124.424 39.455 L 128.281 21.311 L 110.136 17.454 L 106.279 35.599 Z M 76.492 107.016 L 94.637 110.873 L 98.494 92.728 L 80.349 88.872 L 76.492 107.016 Z M 269.833 61.84 L 287.978 57.983 L 284.121 39.838 L 265.976 43.695 L 269.833 61.84 Z M 261.932 24.67 L 280.077 20.813 L 276.22 2.669 L 258.075 6.525 L 261.932 24.67 Z M 273.783 80.424 L 291.928 76.568 L 288.071 58.423 L 269.926 62.28 L 273.783 80.424 Z M 265.883 43.255 L 284.027 39.398 L 280.17 21.253 L 262.026 25.11 L 265.883 43.255 Z M 254.159 79.484 L 272.303 75.627 L 268.447 57.483 L 250.302 61.339 L 254.159 79.484 Z M 218.583 121.488 L 235.395 113.648 L 227.555 96.836 L 210.743 104.676 L 218.583 121.488 Z M 95.831 113.648 L 112.643 121.488 L 120.482 104.676 L 103.67 96.836 L 95.831 113.648 Z" vector-effect="non-scaling-stroke"/></g></svg>