<svg width="326.236mm" height="153.343mm" viewBox="0 0 326.236 153.343" xmlns="http://www.w3.org/2000/svg"><g id="svgGroup" stroke-linecap="round" fill-rule="evenodd" font-size="9pt" stroke="#000" stroke-width="0.25mm" fill="none" style="stroke:#000;stroke-width:0.25mm;fill:none"><path d="M 0.046 65.441 L 6.916 26.478 A 3 3 0 0 1 8.153 24.539 L 9.738 23.432 L 9.035 27.415 L 27.304 30.636 L 30.525 12.368 L 26.58 11.672 L 28.862 10.079 A 3 3 0 0 1 29.442 9.763 L 52.726 0.224 A 3 3 0 0 1 53.863 0 L 272.373 0 A 3 3 0 0 1 273.51 0.224 L 296.794 9.763 A 3 3 0 0 1 297.374 10.079 L 299.656 11.672 L 295.711 12.368 L 298.932 30.636 L 317.2 27.415 L 316.498 23.432 L 318.083 24.539 A 3 3 0 0 1 319.32 26.478 L 326.19 65.441 A 3 3 0 0 1 325.695 67.68 L 311.539 87.954 A 3 3 0 0 1 310.123 89.049 L 263.131 106.485 A 3 3 0 0 1 262.659 106.618 L 236.52 111.691 L 230.988 97.999 L 213.789 104.948 L 218.299 116.111 A 3 3 0 0 0 218.271 116.153 L 194.678 151.993 A 3 3 0 0 1 192.172 153.343 L 134.063 153.343 A 3 3 0 0 1 131.558 151.993 L 107.965 116.153 A 3 3 0 0 0 107.936 116.111 L 112.447 104.948 L 95.247 97.999 L 89.715 111.691 L 63.576 106.618 A 3 3 0 0 1 63.104 106.485 L 16.113 89.049 A 3 3 0 0 1 14.697 87.954 L 0.54 67.68 A 3 3 0 0 1 0.046 65.441 Z M 24.439 49.475 L 42.707 52.696 L 45.928 34.428 L 27.66 31.207 L 24.439 49.475 Z M 5.736 46.126 L 24.004 49.347 L 27.225 31.079 L 8.957 27.858 L 5.736 46.126 Z M 17.84 86.898 L 36.108 90.119 L 39.329 71.851 L 21.061 68.629 L 17.84 86.898 Z M 302.231 49.347 L 320.5 46.126 L 317.278 27.858 L 299.01 31.079 L 302.231 49.347 Z M 286.828 71.407 L 305.096 68.186 L 301.875 49.918 L 283.607 53.139 L 286.828 71.407 Z M 283.529 52.696 L 301.797 49.475 L 298.576 31.207 L 280.308 34.428 L 283.529 52.696 Z M 2.437 64.838 L 20.705 68.059 L 23.926 49.791 L 5.658 46.569 L 2.437 64.838 Z M 21.139 68.186 L 39.408 71.407 L 42.629 53.139 L 24.361 49.918 L 21.139 68.186 Z M 27.738 30.763 L 46.006 33.985 L 49.227 15.716 L 30.959 12.495 L 27.738 30.763 Z M 305.531 68.059 L 323.799 64.838 L 320.578 46.569 L 302.31 49.791 L 305.531 68.059 Z M 290.127 90.119 L 308.396 86.898 L 305.174 68.629 L 286.906 71.851 L 290.127 90.119 Z M 280.229 33.985 L 298.498 30.763 L 295.276 12.495 L 277.008 15.716 L 280.229 33.985 Z M 39.298 76.568 L 57.442 80.424 L 61.299 62.28 L 43.154 58.423 L 39.298 76.568 Z M 43.248 57.983 L 61.393 61.84 L 65.249 43.695 L 47.105 39.838 L 43.248 57.983 Z M 47.198 39.398 L 65.343 43.255 L 69.2 25.11 L 51.055 21.253 L 47.198 39.398 Z M 51.149 20.813 L 69.293 24.67 L 73.15 6.525 L 55.005 2.669 L 51.149 20.813 Z M 58.922 75.627 L 77.067 79.484 L 80.923 61.339 L 62.779 57.483 L 58.922 75.627 Z M 62.872 57.042 L 81.017 60.899 L 84.874 42.755 L 66.729 38.898 L 62.872 57.042 Z M 66.823 38.458 L 84.967 42.314 L 88.824 24.17 L 70.679 20.313 L 66.823 38.458 Z M 70.773 19.873 L 88.918 23.73 L 92.774 5.585 L 74.63 1.728 L 70.773 19.873 Z M 76.259 85.446 L 94.404 89.303 L 98.261 71.159 L 80.116 67.302 L 76.259 85.446 Z M 66.003 104.838 L 84.148 108.695 L 88.005 90.55 L 69.86 86.693 L 66.003 104.838 Z M 249.169 79.484 L 267.314 75.627 L 263.457 57.483 L 245.312 61.339 L 249.169 79.484 Z M 245.219 60.899 L 263.363 57.042 L 259.507 38.898 L 241.362 42.755 L 245.219 60.899 Z M 241.268 42.314 L 259.413 38.458 L 255.556 20.313 L 237.412 24.17 L 241.268 42.314 Z M 237.318 23.73 L 255.463 19.873 L 251.606 1.728 L 233.461 5.585 L 237.318 23.73 Z M 231.832 89.303 L 249.976 85.446 L 246.12 67.302 L 227.975 71.159 L 231.832 89.303 Z M 227.881 70.718 L 246.026 66.862 L 242.169 48.717 L 224.025 52.574 L 227.881 70.718 Z M 223.931 52.134 L 242.076 48.277 L 238.219 30.132 L 220.074 33.989 L 223.931 52.134 Z M 219.981 33.549 L 238.125 29.692 L 234.269 11.547 L 216.124 15.404 L 219.981 33.549 Z M 213.663 95.21 L 231.807 91.353 L 227.951 73.208 L 209.806 77.065 L 213.663 95.21 Z M 209.712 76.625 L 227.857 72.768 L 224 54.624 L 205.856 58.48 L 209.712 76.625 Z M 205.762 58.04 L 223.907 54.183 L 220.05 36.039 L 201.905 39.896 L 205.762 58.04 Z M 201.812 39.455 L 219.956 35.599 L 216.1 17.454 L 197.955 21.311 L 201.812 39.455 Z M 242.088 108.695 L 260.232 104.838 L 256.375 86.693 L 238.231 90.55 L 242.088 108.695 Z M 80.21 66.862 L 98.354 70.718 L 102.211 52.574 L 84.066 48.717 L 80.21 66.862 Z M 84.16 48.277 L 102.305 52.134 L 106.161 33.989 L 88.017 30.132 L 84.16 48.277 Z M 88.11 29.692 L 106.255 33.549 L 110.112 15.404 L 91.967 11.547 L 88.11 29.692 Z M 94.428 91.353 L 112.573 95.21 L 116.43 77.065 L 98.285 73.208 L 94.428 91.353 Z M 98.379 72.768 L 116.523 76.625 L 120.38 58.48 L 102.235 54.624 L 98.379 72.768 Z M 102.329 54.183 L 120.474 58.04 L 124.33 39.896 L 106.186 36.039 L 102.329 54.183 Z M 106.279 35.599 L 124.424 39.455 L 128.281 21.311 L 110.136 17.454 L 106.279 35.599 Z M 268.793 80.424 L 286.938 76.568 L 283.081 58.423 L 264.937 62.28 L 268.793 80.424 Z M 264.843 61.84 L 282.988 57.983 L 279.131 39.838 L 260.986 43.695 L 264.843 61.84 Z M 256.942 24.67 L 275.087 20.813 L 271.23 2.669 L 253.086 6.525 L 256.942 24.67 Z M 260.893 43.255 L 279.037 39.398 L 275.181 21.253 L 257.036 25.11 L 260.893 43.255 Z M 110.448 114.932 L 124.233 127.344 L 136.646 113.559 L 122.86 101.147 L 110.448 114.932 Z M 126.206 129.188 L 139.992 141.601 L 152.404 127.815 L 138.619 115.403 L 126.206 129.188 Z M 114.597 93.101 L 128.382 105.513 L 140.795 91.728 L 127.009 79.315 L 114.597 93.101 Z M 202.002 127.344 L 215.788 114.932 L 203.375 101.147 L 189.59 113.559 L 202.002 127.344 Z M 186.244 141.601 L 200.029 129.188 L 187.617 115.403 L 173.831 127.815 L 186.244 141.601 Z M 197.853 105.513 L 211.639 93.101 L 199.226 79.315 L 185.441 91.728 L 197.853 105.513 Z" vector-effect="non-scaling-stroke"/></g></svg>