<svg width="340.75mm" height="159.567mm" viewBox="0 0 340.75 159.567" xmlns="http://www.w3.org/2000/svg"><g id="svgGroup" stroke-linecap="round" fill-rule="evenodd" font-size="9pt" stroke="#000" stroke-width="0.25mm" fill="none" style="stroke:#000;stroke-width:0.25mm;fill:none"><path d="M 0.046 65.441 L 9.909 9.502 A 3 3 0 0 1 13.392 7.07 L 28.275 9.735 A 3 3 0 0 0 29.941 9.558 L 52.726 0.224 A 3 3 0 0 1 53.863 0 L 286.887 0 A 3 3 0 0 1 288.025 0.224 L 310.809 9.558 A 3 3 0 0 0 312.475 9.735 L 327.358 7.07 A 3 3 0 0 1 330.841 9.502 L 340.705 65.441 A 3 3 0 0 1 340.21 67.68 L 326.078 87.919 A 3 3 0 0 1 324.589 89.04 L 267.305 108.62 A 3 3 0 0 0 266.595 108.973 L 250.542 119.826 A 3 3 0 0 1 250.13 120.059 L 229.897 129.494 A 3 3 0 0 0 229.1 130.036 L 198.836 158.743 A 3 3 0 0 1 196.771 159.567 L 143.979 159.567 A 3 3 0 0 1 141.914 158.743 L 111.65 130.036 A 3 3 0 0 0 110.853 129.494 L 90.621 120.059 A 3 3 0 0 1 90.209 119.826 L 74.155 108.973 A 3 3 0 0 0 73.445 108.62 L 16.162 89.04 A 3 3 0 0 1 14.672 87.919 L 0.54 67.68 A 3 3 0 0 1 0.046 65.441 Z M 24.439 49.475 L 42.707 52.696 L 45.928 34.428 L 27.66 31.207 L 24.439 49.475 Z M 5.736 46.126 L 24.004 49.347 L 27.225 31.079 L 8.957 27.858 L 5.736 46.126 Z M 9.035 27.415 L 27.304 30.636 L 30.525 12.368 L 12.257 9.147 L 9.035 27.415 Z M 17.84 86.898 L 36.108 90.119 L 39.329 71.851 L 21.061 68.629 L 17.84 86.898 Z M 316.746 49.347 L 335.014 46.126 L 331.793 27.858 L 313.525 31.079 L 316.746 49.347 Z M 301.343 71.407 L 319.611 68.186 L 316.39 49.918 L 298.122 53.139 L 301.343 71.407 Z M 298.044 52.696 L 316.312 49.475 L 313.091 31.207 L 294.822 34.428 L 298.044 52.696 Z M 2.437 64.838 L 20.705 68.059 L 23.926 49.791 L 5.658 46.569 L 2.437 64.838 Z M 21.139 68.186 L 39.408 71.407 L 42.629 53.139 L 24.361 49.918 L 21.139 68.186 Z M 27.738 30.763 L 46.006 33.985 L 49.227 15.716 L 30.959 12.495 L 27.738 30.763 Z M 320.046 68.059 L 338.314 64.838 L 335.093 46.569 L 316.824 49.791 L 320.046 68.059 Z M 313.447 30.636 L 331.715 27.415 L 328.494 9.147 L 310.226 12.368 L 313.447 30.636 Z M 304.642 90.119 L 322.91 86.898 L 319.689 68.629 L 301.421 71.851 L 304.642 90.119 Z M 294.744 33.985 L 313.012 30.763 L 309.791 12.495 L 291.523 15.716 L 294.744 33.985 Z M 133.645 136.352 L 148.84 146.992 L 159.48 131.797 L 144.285 121.157 L 133.645 136.352 Z M 191.91 146.992 L 207.105 136.352 L 196.465 121.157 L 181.27 131.797 L 191.91 146.992 Z M 209.426 131.821 L 224.621 121.181 L 213.981 105.986 L 198.786 116.625 L 209.426 131.821 Z M 116.13 121.181 L 131.325 131.821 L 141.965 116.625 L 126.769 105.986 L 116.13 121.181 Z M 39.298 76.568 L 57.442 80.424 L 61.299 62.28 L 43.154 58.423 L 39.298 76.568 Z M 43.248 57.983 L 61.393 61.84 L 65.249 43.695 L 47.105 39.838 L 43.248 57.983 Z M 47.198 39.398 L 65.343 43.255 L 69.2 25.11 L 51.055 21.253 L 47.198 39.398 Z M 51.149 20.813 L 69.293 24.67 L 73.15 6.525 L 55.005 2.669 L 51.149 20.813 Z M 58.922 75.627 L 77.067 79.484 L 80.923 61.339 L 62.779 57.483 L 58.922 75.627 Z M 62.872 57.042 L 81.017 60.899 L 84.874 42.755 L 66.729 38.898 L 62.872 57.042 Z M 66.823 38.458 L 84.967 42.314 L 88.824 24.17 L 70.679 20.313 L 66.823 38.458 Z M 70.773 19.873 L 88.918 23.73 L 92.774 5.585 L 74.63 1.728 L 70.773 19.873 Z M 76.259 85.446 L 94.404 89.303 L 98.261 71.159 L 80.116 67.302 L 76.259 85.446 Z M 246.347 89.303 L 264.491 85.446 L 260.634 67.302 L 242.49 71.159 L 246.347 89.303 Z M 242.396 70.718 L 260.541 66.862 L 256.684 48.717 L 238.539 52.574 L 242.396 70.718 Z M 238.446 52.134 L 256.591 48.277 L 252.734 30.132 L 234.589 33.989 L 238.446 52.134 Z M 234.496 33.549 L 252.64 29.692 L 248.783 11.547 L 230.639 15.404 L 234.496 33.549 Z M 228.178 95.21 L 246.322 91.353 L 242.465 73.208 L 224.321 77.065 L 228.178 95.21 Z M 224.227 76.625 L 242.372 72.768 L 238.515 54.624 L 220.37 58.48 L 224.227 76.625 Z M 220.277 58.04 L 238.422 54.183 L 234.565 36.039 L 216.42 39.896 L 220.277 58.04 Z M 216.327 39.455 L 234.471 35.599 L 230.614 17.454 L 212.47 21.311 L 216.327 39.455 Z M 246.114 110.873 L 264.258 107.016 L 260.401 88.872 L 242.257 92.728 L 246.114 110.873 Z M 80.21 66.862 L 98.354 70.718 L 102.211 52.574 L 84.066 48.717 L 80.21 66.862 Z M 84.16 48.277 L 102.305 52.134 L 106.161 33.989 L 88.017 30.132 L 84.16 48.277 Z M 88.11 29.692 L 106.255 33.549 L 110.112 15.404 L 91.967 11.547 L 88.11 29.692 Z M 94.428 91.353 L 112.573 95.21 L 116.43 77.065 L 98.285 73.208 L 94.428 91.353 Z M 98.379 72.768 L 116.523 76.625 L 120.38 58.48 L 102.235 54.624 L 98.379 72.768 Z M 102.329 54.183 L 120.474 58.04 L 124.33 39.896 L 106.186 36.039 L 102.329 54.183 Z M 106.279 35.599 L 124.424 39.455 L 128.281 21.311 L 110.136 17.454 L 106.279 35.599 Z M 76.492 107.016 L 94.637 110.873 L 98.494 92.728 L 80.349 88.872 L 76.492 107.016 Z M 255.783 42.314 L 273.928 38.458 L 270.071 20.313 L 251.926 24.17 L 255.783 42.314 Z M 283.308 80.424 L 301.453 76.568 L 297.596 58.423 L 279.451 62.28 L 283.308 80.424 Z M 279.358 61.84 L 297.503 57.983 L 293.646 39.838 L 275.501 43.695 L 279.358 61.84 Z M 275.408 43.255 L 293.552 39.398 L 289.695 21.253 L 271.551 25.11 L 275.408 43.255 Z M 271.457 24.67 L 289.602 20.813 L 285.745 2.669 L 267.6 6.525 L 271.457 24.67 Z M 263.684 79.484 L 281.828 75.627 L 277.972 57.483 L 259.827 61.339 L 263.684 79.484 Z M 259.734 60.899 L 277.878 57.042 L 274.021 38.898 L 255.877 42.755 L 259.734 60.899 Z M 251.833 23.73 L 269.978 19.873 L 266.121 1.728 L 247.976 5.585 L 251.833 23.73 Z M 209.576 106.538 L 226.388 98.698 L 218.548 81.886 L 201.736 89.726 L 209.576 106.538 Z M 114.363 98.698 L 131.175 106.538 L 139.014 89.726 L 122.202 81.886 L 114.363 98.698 Z M 228.108 121.488 L 244.92 113.648 L 237.08 96.836 L 220.268 104.676 L 228.108 121.488 Z M 95.831 113.648 L 112.643 121.488 L 120.482 104.676 L 103.67 96.836 L 95.831 113.648 Z" vector-effect="non-scaling-stroke"/></g></svg>