<svg width="300.578mm" height="150.923mm" viewBox="0 0 300.578 150.923" xmlns="http://www.w3.org/2000/svg"><g id="svgGroup" stroke-linecap="round" fill-rule="evenodd" font-size="9pt" stroke="#000" stroke-width="0.25mm" fill="none" style="stroke:#000;stroke-width:0.25mm;fill:none"><path d="M 84.664 111.245 L 100.888 120.238 L 109.881 104.014 L 93.657 95.021 L 84.664 111.245 Z M 199.69 120.238 L 215.914 111.245 L 206.921 95.021 L 190.697 104.014 L 199.69 120.238 Z M 283.038 74.557 L 300.578 68.518 L 294.538 50.978 L 276.999 57.017 L 283.038 74.557 Z M 276.853 56.592 L 294.392 50.553 L 288.353 33.013 L 270.813 39.053 L 276.853 56.592 Z M 253.353 46.704 L 270.892 40.665 L 264.853 23.125 L 247.314 29.165 L 253.353 46.704 Z M 0 68.518 L 17.539 74.557 L 23.579 57.017 L 6.039 50.978 L 0 68.518 Z M 17.314 76.594 L 34.853 82.634 L 40.892 65.094 L 23.353 59.055 L 17.314 76.594 Z M 23.5 58.63 L 41.039 64.669 L 47.078 47.129 L 29.539 41.09 L 23.5 58.63 Z M 29.685 40.665 L 47.225 46.704 L 53.264 29.165 L 35.725 23.125 L 29.685 40.665 Z M 35.871 22.7 L 53.41 28.739 L 59.45 11.2 L 41.91 5.16 L 35.871 22.7 Z M 39.185 71.434 L 56.725 77.473 L 62.764 59.934 L 45.225 53.895 L 39.185 71.434 Z M 45.371 53.469 L 62.911 59.508 L 68.95 41.969 L 51.41 35.93 L 45.371 53.469 Z M 51.557 35.504 L 69.096 41.544 L 75.136 24.004 L 57.596 17.965 L 51.557 35.504 Z M 57.743 17.539 L 75.282 23.579 L 81.321 6.039 L 63.782 0 L 57.743 17.539 Z M 64.964 54.927 L 82.503 60.967 L 88.543 43.427 L 71.003 37.388 L 64.964 54.927 Z M 71.15 36.962 L 88.689 43.002 L 94.728 25.462 L 77.189 19.423 L 71.15 36.962 Z M 74.79 84.751 L 92.329 90.79 L 98.368 73.251 L 80.829 67.212 L 74.79 84.751 Z M 62.247 102.748 L 79.786 108.787 L 85.826 91.248 L 68.286 85.209 L 62.247 102.748 Z M 265.725 82.634 L 283.264 76.594 L 277.225 59.055 L 259.685 65.094 L 265.725 82.634 Z M 259.539 64.669 L 277.078 58.63 L 271.039 41.09 L 253.5 47.129 L 259.539 64.669 Z M 247.167 28.739 L 264.707 22.7 L 258.667 5.16 L 241.128 11.2 L 247.167 28.739 Z M 243.853 77.473 L 261.392 71.434 L 255.353 53.895 L 237.814 59.934 L 243.853 77.473 Z M 237.667 59.508 L 255.206 53.469 L 249.167 35.93 L 231.628 41.969 L 237.667 59.508 Z M 231.481 41.544 L 249.021 35.504 L 242.981 17.965 L 225.442 24.004 L 231.481 41.544 Z M 225.296 23.579 L 242.835 17.539 L 236.796 0 L 219.256 6.039 L 225.296 23.579 Z M 224.26 78.931 L 241.8 72.892 L 235.76 55.353 L 218.221 61.392 L 224.26 78.931 Z M 218.074 60.967 L 235.614 54.927 L 229.575 37.388 L 212.035 43.427 L 218.074 60.967 Z M 211.889 43.002 L 229.428 36.962 L 223.389 19.423 L 205.849 25.462 L 211.889 43.002 Z M 205.703 25.037 L 223.242 18.998 L 217.203 1.458 L 199.664 7.497 L 205.703 25.037 Z M 208.249 90.79 L 225.788 84.751 L 219.749 67.212 L 202.209 73.251 L 208.249 90.79 Z M 202.063 72.825 L 219.602 66.786 L 213.563 49.247 L 196.024 55.286 L 202.063 72.825 Z M 195.877 54.861 L 213.417 48.821 L 207.377 31.282 L 189.838 37.321 L 195.877 54.861 Z M 189.691 36.896 L 207.231 30.856 L 201.191 13.317 L 183.652 19.356 L 189.691 36.896 Z M 190.935 98.867 L 208.474 92.828 L 202.435 75.288 L 184.896 81.328 L 190.935 98.867 Z M 184.749 80.902 L 202.289 74.863 L 196.249 57.324 L 178.71 63.363 L 184.749 80.902 Z M 178.563 62.937 L 196.103 56.898 L 190.064 39.359 L 172.524 45.398 L 178.563 62.937 Z M 172.378 44.973 L 189.917 38.933 L 183.878 21.394 L 166.338 27.433 L 172.378 44.973 Z M 220.791 108.787 L 238.331 102.748 L 232.291 85.209 L 214.752 91.248 L 220.791 108.787 Z M 6.186 50.553 L 23.725 56.592 L 29.764 39.053 L 12.225 33.013 L 6.186 50.553 Z M 58.778 72.892 L 76.317 78.931 L 82.357 61.392 L 64.817 55.353 L 58.778 72.892 Z M 77.335 18.998 L 94.875 25.037 L 100.914 7.497 L 83.375 1.458 L 77.335 18.998 Z M 93.347 30.856 L 110.886 36.896 L 116.926 19.356 L 99.386 13.317 L 93.347 30.856 Z M 92.103 92.828 L 109.643 98.867 L 115.682 81.328 L 98.143 75.288 L 92.103 92.828 Z M 98.289 74.863 L 115.828 80.902 L 121.868 63.363 L 104.328 57.324 L 98.289 74.863 Z M 104.475 56.898 L 122.014 62.937 L 128.053 45.398 L 110.514 39.359 L 104.475 56.898 Z M 110.661 38.933 L 128.2 44.973 L 134.239 27.433 L 116.7 21.394 L 110.661 38.933 Z M 80.975 66.786 L 98.515 72.825 L 104.554 55.286 L 87.015 49.247 L 80.975 66.786 Z M 87.161 48.821 L 104.7 54.861 L 110.74 37.321 L 93.2 31.282 L 87.161 48.821 Z M 192.064 144.914 L 206.48 133.24 L 194.806 118.824 L 180.39 130.498 L 192.064 144.914 Z M 94.098 133.24 L 108.514 144.914 L 120.188 130.498 L 105.772 118.824 L 94.098 133.24 Z M 106.055 118.474 L 120.471 130.148 L 132.145 115.732 L 117.729 104.058 L 106.055 118.474 Z M 116.575 139.249 L 130.991 150.923 L 142.665 136.507 L 128.249 124.833 L 116.575 139.249 Z M 180.107 130.148 L 194.523 118.474 L 182.849 104.058 L 168.433 115.732 L 180.107 130.148 Z M 169.586 150.923 L 184.003 139.249 L 172.329 124.833 L 157.913 136.507 L 169.586 150.923 Z" vector-effect="non-scaling-stroke"/></g></svg>