<svg width="325.374mm" height="140.176mm" viewBox="0 0 325.374 140.176" xmlns="http://www.w3.org/2000/svg"><g id="svgGroup" stroke-linecap="round" fill-rule="evenodd" font-size="9pt" stroke="#000" stroke-width="0.25mm" fill="none" style="stroke:#000;stroke-width:0.25mm;fill:none"><path d="M 3.299 60.565 L 21.567 63.786 L 24.789 45.518 L 6.52 42.297 L 3.299 60.565 Z M 21.663 65.834 L 39.932 69.055 L 43.153 50.787 L 24.885 47.566 L 21.663 65.834 Z M 28.262 28.411 L 46.53 31.632 L 49.751 13.364 L 31.483 10.143 L 28.262 28.411 Z M 42.458 57.316 L 60.727 60.537 L 63.948 42.269 L 45.68 39.047 L 42.458 57.316 Z M 49.057 19.893 L 67.325 23.114 L 70.546 4.846 L 52.278 1.625 L 49.057 19.893 Z M 62.038 55.691 L 80.306 58.912 L 83.527 40.644 L 65.259 37.423 L 62.038 55.691 Z M 65.337 36.98 L 83.606 40.201 L 86.827 21.933 L 68.559 18.711 L 65.337 36.98 Z M 68.637 18.268 L 86.905 21.489 L 90.126 3.221 L 71.858 0 L 68.637 18.268 Z M 76.408 83.61 L 94.676 86.832 L 97.898 68.563 L 79.629 65.342 L 76.408 83.61 Z M 83.007 46.188 L 101.275 49.409 L 104.496 31.141 L 86.228 27.92 L 83.007 46.188 Z M 94.772 88.879 L 113.04 92.1 L 116.262 73.832 L 97.993 70.611 L 94.772 88.879 Z M 98.072 70.168 L 116.34 73.389 L 119.561 55.121 L 101.293 51.9 L 98.072 70.168 Z M 101.371 51.457 L 119.639 54.678 L 122.86 36.41 L 104.592 33.188 L 101.371 51.457 Z M 104.67 32.745 L 122.938 35.966 L 126.16 17.698 L 107.891 14.477 L 104.67 32.745 Z M 66.835 103.348 L 85.104 106.569 L 88.325 88.301 L 70.057 85.08 L 66.835 103.348 Z M 303.807 63.786 L 322.075 60.565 L 318.854 42.297 L 300.586 45.518 L 303.807 63.786 Z M 278.844 31.632 L 297.112 28.411 L 293.891 10.143 L 275.623 13.364 L 278.844 31.632 Z M 245.068 58.912 L 263.336 55.691 L 260.115 37.423 L 241.847 40.644 L 245.068 58.912 Z M 241.769 40.201 L 260.037 36.98 L 256.816 18.711 L 238.548 21.933 L 241.769 40.201 Z M 238.47 21.489 L 256.738 18.268 L 253.517 0 L 235.248 3.221 L 238.47 21.489 Z M 220.8 30.698 L 239.068 27.476 L 235.847 9.208 L 217.579 12.429 L 220.8 30.698 Z M 209.035 73.389 L 227.303 70.168 L 224.082 51.9 L 205.813 55.121 L 209.035 73.389 Z M 202.436 35.966 L 220.704 32.745 L 217.483 14.477 L 199.215 17.698 L 202.436 35.966 Z M 0 79.276 L 18.268 82.498 L 21.489 64.229 L 3.221 61.008 L 0 79.276 Z M 18.364 84.545 L 36.632 87.767 L 39.853 69.498 L 21.585 66.277 L 18.364 84.545 Z M 24.963 47.123 L 43.231 50.344 L 46.452 32.076 L 28.184 28.854 L 24.963 47.123 Z M 39.159 76.027 L 57.427 79.248 L 60.649 60.98 L 42.38 57.759 L 39.159 76.027 Z M 45.758 38.604 L 64.026 41.825 L 67.247 23.557 L 48.979 20.336 L 45.758 38.604 Z M 86.306 27.476 L 104.574 30.698 L 107.796 12.429 L 89.527 9.208 L 86.306 27.476 Z M 307.106 82.498 L 325.374 79.276 L 322.153 61.008 L 303.885 64.229 L 307.106 82.498 Z M 288.742 87.767 L 307.01 84.545 L 303.789 66.277 L 285.521 69.498 L 288.742 87.767 Z M 285.443 69.055 L 303.711 65.834 L 300.49 47.566 L 282.222 50.787 L 285.443 69.055 Z M 282.144 50.344 L 300.412 47.123 L 297.191 28.854 L 278.922 32.076 L 282.144 50.344 Z M 264.648 60.537 L 282.916 57.316 L 279.695 39.047 L 261.427 42.269 L 264.648 60.537 Z M 248.367 77.623 L 266.636 74.402 L 263.414 56.134 L 245.146 59.355 L 248.367 77.623 Z M 230.698 86.832 L 248.966 83.61 L 245.745 65.342 L 227.477 68.563 L 230.698 86.832 Z M 227.399 68.12 L 245.667 64.899 L 242.446 46.631 L 224.178 49.852 L 227.399 68.12 Z M 224.099 49.409 L 242.368 46.188 L 239.146 27.92 L 220.878 31.141 L 224.099 49.409 Z M 212.334 92.1 L 230.602 88.879 L 227.381 70.611 L 209.113 73.832 L 212.334 92.1 Z M 205.735 54.678 L 224.004 51.457 L 220.782 33.188 L 202.514 36.41 L 205.735 54.678 Z M 240.271 106.569 L 258.539 103.348 L 255.318 85.08 L 237.05 88.301 L 240.271 106.569 Z M 58.739 74.402 L 77.007 77.623 L 80.228 59.355 L 61.96 56.134 L 58.739 74.402 Z M 79.708 64.899 L 97.976 68.12 L 101.197 49.852 L 82.929 46.631 L 79.708 64.899 Z M 261.348 41.825 L 279.617 38.604 L 276.395 20.336 L 258.127 23.557 L 261.348 41.825 Z M 267.947 79.248 L 286.215 76.027 L 282.994 57.759 L 264.726 60.98 L 267.947 79.248 Z M 258.049 23.114 L 276.317 19.893 L 273.096 1.625 L 254.828 4.846 L 258.049 23.114 Z M 217.638 114.578 L 235.069 108.234 L 228.725 90.802 L 211.293 97.147 L 217.638 114.578 Z M 90.305 108.234 L 107.737 114.578 L 114.081 97.147 L 96.65 90.802 L 90.305 108.234 Z M 196.745 121.302 L 212.81 112.027 L 203.535 95.962 L 187.47 105.237 L 196.745 121.302 Z M 183.105 140.176 L 199.17 130.901 L 189.895 114.836 L 173.83 124.111 L 183.105 140.176 Z M 112.564 112.027 L 128.629 121.302 L 137.904 105.237 L 121.839 95.962 L 112.564 112.027 Z M 126.205 130.901 L 142.27 140.176 L 151.545 124.111 L 135.48 114.836 L 126.205 130.901 Z M 206.245 137.757 L 222.31 128.482 L 213.035 112.417 L 196.97 121.692 L 206.245 137.757 Z M 103.064 128.482 L 119.129 137.757 L 128.404 121.692 L 112.339 112.417 L 103.064 128.482 Z" vector-effect="non-scaling-stroke"/></g></svg>