<svg width="317.063mm" height="142.548mm" viewBox="0 0 317.063 142.548" xmlns="http://www.w3.org/2000/svg"><g id="svgGroup" stroke-linecap="round" fill-rule="evenodd" font-size="9pt" stroke="#000" stroke-width="0.25mm" fill="none" style="stroke:#000;stroke-width:0.25mm;fill:none"><path d="M 22.002 47.747 L 40.27 50.968 L 43.491 32.7 L 25.223 29.478 L 22.002 47.747 Z M 3.299 44.398 L 21.567 47.619 L 24.789 29.351 L 6.52 26.13 L 3.299 44.398 Z M 15.403 85.169 L 33.672 88.39 L 36.893 70.122 L 18.625 66.901 L 15.403 85.169 Z M 295.496 47.619 L 313.764 44.398 L 310.543 26.13 L 292.274 29.351 L 295.496 47.619 Z M 280.092 69.679 L 298.36 66.458 L 295.139 48.19 L 276.871 51.411 L 280.092 69.679 Z M 276.793 50.968 L 295.061 47.747 L 291.84 29.478 L 273.572 32.7 L 276.793 50.968 Z M 0 63.109 L 18.268 66.331 L 21.489 48.062 L 3.221 44.841 L 0 63.109 Z M 18.703 66.458 L 36.971 69.679 L 40.192 51.411 L 21.924 48.19 L 18.703 66.458 Z M 25.301 29.035 L 43.569 32.256 L 46.791 13.988 L 28.522 10.767 L 25.301 29.035 Z M 298.795 66.331 L 317.063 63.109 L 313.842 44.841 L 295.574 48.062 L 298.795 66.331 Z M 283.392 88.39 L 301.66 85.169 L 298.439 66.901 L 280.17 70.122 L 283.392 88.39 Z M 273.494 32.256 L 291.762 29.035 L 288.541 10.767 L 270.272 13.988 L 273.494 32.256 Z M 98.896 129.492 L 114.628 139.322 L 124.458 123.591 L 108.726 113.761 L 98.896 129.492 Z M 108.965 113.38 L 124.696 123.21 L 134.526 107.478 L 118.795 97.648 L 108.965 113.38 Z M 121.938 132.718 L 137.67 142.548 L 147.5 126.817 L 131.768 116.987 L 121.938 132.718 Z M 202.435 139.322 L 218.167 129.492 L 208.337 113.761 L 192.605 123.591 L 202.435 139.322 Z M 192.367 123.21 L 208.098 113.38 L 198.268 97.648 L 182.537 107.478 L 192.367 123.21 Z M 179.393 142.548 L 195.125 132.718 L 185.295 116.987 L 169.563 126.817 L 179.393 142.548 Z M 213.012 115.76 L 230.211 108.812 L 223.262 91.612 L 206.063 98.561 L 213.012 115.76 Z M 86.852 108.812 L 104.051 115.76 L 111 98.561 L 93.801 91.612 L 86.852 108.812 Z M 36.861 74.839 L 55.005 78.696 L 58.862 60.552 L 40.718 56.695 L 36.861 74.839 Z M 40.811 56.255 L 58.956 60.111 L 62.813 41.967 L 44.668 38.11 L 40.811 56.255 Z M 44.761 37.67 L 62.906 41.527 L 66.763 23.382 L 48.618 19.525 L 44.761 37.67 Z M 48.712 19.085 L 66.856 22.942 L 70.713 4.797 L 52.569 0.94 L 48.712 19.085 Z M 56.485 73.899 L 74.63 77.756 L 78.487 59.611 L 60.342 55.754 L 56.485 73.899 Z M 60.436 55.314 L 78.58 59.171 L 82.437 41.026 L 64.292 37.17 L 60.436 55.314 Z M 64.386 36.729 L 82.53 40.586 L 86.387 22.442 L 68.243 18.585 L 64.386 36.729 Z M 68.336 18.145 L 86.481 22.001 L 90.338 3.857 L 72.193 0 L 68.336 18.145 Z M 73.823 83.718 L 91.967 87.575 L 95.824 69.43 L 77.679 65.574 L 73.823 83.718 Z M 63.567 103.11 L 81.711 106.966 L 85.568 88.822 L 67.423 84.965 L 63.567 103.11 Z M 242.433 77.756 L 260.578 73.899 L 256.721 55.754 L 238.576 59.611 L 242.433 77.756 Z M 238.483 59.171 L 256.628 55.314 L 252.771 37.17 L 234.626 41.026 L 238.483 59.171 Z M 234.533 40.586 L 252.677 36.729 L 248.82 18.585 L 230.676 22.442 L 234.533 40.586 Z M 230.582 22.001 L 248.727 18.145 L 244.87 0 L 226.725 3.857 L 230.582 22.001 Z M 225.096 87.575 L 243.241 83.718 L 239.384 65.574 L 221.239 69.43 L 225.096 87.575 Z M 221.146 68.99 L 239.29 65.133 L 235.433 46.989 L 217.289 50.846 L 221.146 68.99 Z M 217.195 50.405 L 235.34 46.549 L 231.483 28.404 L 213.338 32.261 L 217.195 50.405 Z M 213.245 31.821 L 231.39 27.964 L 227.533 9.819 L 209.388 13.676 L 213.245 31.821 Z M 206.927 93.482 L 225.072 89.625 L 221.215 71.48 L 203.07 75.337 L 206.927 93.482 Z M 202.977 74.897 L 221.121 71.04 L 217.264 52.895 L 199.12 56.752 L 202.977 74.897 Z M 199.026 56.312 L 217.171 52.455 L 213.314 34.311 L 195.169 38.167 L 199.026 56.312 Z M 195.076 37.727 L 213.221 33.87 L 209.364 15.726 L 191.219 19.583 L 195.076 37.727 Z M 235.352 106.966 L 253.496 103.11 L 249.64 84.965 L 231.495 88.822 L 235.352 106.966 Z M 77.773 65.133 L 95.917 68.99 L 99.774 50.846 L 81.63 46.989 L 77.773 65.133 Z M 81.723 46.549 L 99.868 50.405 L 103.725 32.261 L 85.58 28.404 L 81.723 46.549 Z M 85.673 27.964 L 103.818 31.821 L 107.675 13.676 L 89.53 9.819 L 85.673 27.964 Z M 91.992 89.625 L 110.136 93.482 L 113.993 75.337 L 95.848 71.48 L 91.992 89.625 Z M 95.942 71.04 L 114.086 74.897 L 117.943 56.752 L 99.799 52.895 L 95.942 71.04 Z M 99.892 52.455 L 118.037 56.312 L 121.894 38.167 L 103.749 34.311 L 99.892 52.455 Z M 103.842 33.87 L 121.987 37.727 L 125.844 19.583 L 107.699 15.726 L 103.842 33.87 Z M 262.058 78.696 L 280.202 74.839 L 276.345 56.695 L 258.201 60.552 L 262.058 78.696 Z M 258.107 60.111 L 276.252 56.255 L 272.395 38.11 L 254.25 41.967 L 258.107 60.111 Z M 254.157 41.527 L 272.302 37.67 L 268.445 19.525 L 250.3 23.382 L 254.157 41.527 Z M 250.207 22.942 L 268.351 19.085 L 264.494 0.94 L 246.35 4.797 L 250.207 22.942 Z" vector-effect="non-scaling-stroke"/></g></svg>