<svg width="326.352mm" height="145.264mm" viewBox="0 0 326.352 145.264" xmlns="http://www.w3.org/2000/svg"><g id="svgGroup" stroke-linecap="round" fill-rule="evenodd" font-size="9pt" stroke="#000" stroke-width="0.25mm" fill="none" style="stroke:#000;stroke-width:0.25mm;fill:none"><path d="M 22.002 47.747 L 40.27 50.968 L 43.491 32.7 L 25.223 29.478 L 22.002 47.747 Z M 3.299 44.398 L 21.567 47.619 L 24.789 29.351 L 6.52 26.13 L 3.299 44.398 Z M 6.599 25.687 L 24.867 28.908 L 28.088 10.64 L 9.82 7.419 L 6.599 25.687 Z M 15.403 85.169 L 33.672 88.39 L 36.893 70.122 L 18.625 66.901 L 15.403 85.169 Z M 304.784 47.619 L 323.053 44.398 L 319.831 26.13 L 301.563 29.351 L 304.784 47.619 Z M 289.381 69.679 L 307.649 66.458 L 304.428 48.19 L 286.16 51.411 L 289.381 69.679 Z M 286.082 50.968 L 304.35 47.747 L 301.129 29.478 L 282.861 32.7 L 286.082 50.968 Z M 0 63.109 L 18.268 66.331 L 21.489 48.062 L 3.221 44.841 L 0 63.109 Z M 18.703 66.458 L 36.971 69.679 L 40.192 51.411 L 21.924 48.19 L 18.703 66.458 Z M 25.301 29.035 L 43.569 32.256 L 46.791 13.988 L 28.522 10.767 L 25.301 29.035 Z M 308.084 66.331 L 326.352 63.109 L 323.131 44.841 L 304.863 48.062 L 308.084 66.331 Z M 301.485 28.908 L 319.753 25.687 L 316.532 7.419 L 298.264 10.64 L 301.485 28.908 Z M 292.68 88.39 L 310.949 85.169 L 307.727 66.901 L 289.459 70.122 L 292.68 88.39 Z M 282.782 32.256 L 301.051 29.035 L 297.83 10.767 L 279.561 13.988 L 282.782 32.256 Z M 131.208 134.624 L 146.404 145.264 L 157.044 130.069 L 141.848 119.429 L 131.208 134.624 Z M 179.948 145.264 L 195.144 134.624 L 184.504 119.429 L 169.308 130.069 L 179.948 145.264 Z M 197.464 130.093 L 212.659 119.453 L 202.019 104.257 L 186.824 114.897 L 197.464 130.093 Z M 113.693 119.453 L 128.888 130.093 L 139.528 114.897 L 124.333 104.257 L 113.693 119.453 Z M 111.525 95.657 L 127.425 105.211 L 136.979 89.31 L 121.079 79.756 L 111.525 95.657 Z M 198.927 105.211 L 214.827 95.657 L 205.273 79.756 L 189.373 89.31 L 198.927 105.211 Z M 36.861 74.839 L 55.005 78.696 L 58.862 60.552 L 40.718 56.695 L 36.861 74.839 Z M 40.811 56.255 L 58.956 60.111 L 62.813 41.967 L 44.668 38.11 L 40.811 56.255 Z M 44.761 37.67 L 62.906 41.527 L 66.763 23.382 L 48.618 19.525 L 44.761 37.67 Z M 48.712 19.085 L 66.856 22.942 L 70.713 4.797 L 52.569 0.94 L 48.712 19.085 Z M 56.485 73.899 L 74.63 77.756 L 78.487 59.611 L 60.342 55.754 L 56.485 73.899 Z M 60.436 55.314 L 78.58 59.171 L 82.437 41.026 L 64.292 37.17 L 60.436 55.314 Z M 64.386 36.729 L 82.53 40.586 L 86.387 22.442 L 68.243 18.585 L 64.386 36.729 Z M 68.336 18.145 L 86.481 22.001 L 90.338 3.857 L 72.193 0 L 68.336 18.145 Z M 73.823 83.718 L 91.967 87.575 L 95.824 69.43 L 77.679 65.574 L 73.823 83.718 Z M 247.772 59.171 L 265.916 55.314 L 262.06 37.17 L 243.915 41.026 L 247.772 59.171 Z M 243.821 40.586 L 261.966 36.729 L 258.109 18.585 L 239.965 22.442 L 243.821 40.586 Z M 239.871 22.001 L 258.016 18.145 L 254.159 0 L 236.014 3.857 L 239.871 22.001 Z M 234.385 87.575 L 252.529 83.718 L 248.673 65.574 L 230.528 69.43 L 234.385 87.575 Z M 230.434 68.99 L 248.579 65.133 L 244.722 46.989 L 226.578 50.846 L 230.434 68.99 Z M 226.484 50.405 L 244.629 46.549 L 240.772 28.404 L 222.627 32.261 L 226.484 50.405 Z M 222.534 31.821 L 240.678 27.964 L 236.822 9.819 L 218.677 13.676 L 222.534 31.821 Z M 216.216 93.482 L 234.36 89.625 L 230.504 71.48 L 212.359 75.337 L 216.216 93.482 Z M 212.266 74.897 L 230.41 71.04 L 226.553 52.895 L 208.409 56.752 L 212.266 74.897 Z M 208.315 56.312 L 226.46 52.455 L 222.603 34.311 L 204.458 38.167 L 208.315 56.312 Z M 204.365 37.727 L 222.509 33.87 L 218.653 15.726 L 200.508 19.583 L 204.365 37.727 Z M 234.152 109.145 L 252.296 105.288 L 248.44 87.143 L 230.295 91 L 234.152 109.145 Z M 77.773 65.133 L 95.917 68.99 L 99.774 50.846 L 81.63 46.989 L 77.773 65.133 Z M 81.723 46.549 L 99.868 50.405 L 103.725 32.261 L 85.58 28.404 L 81.723 46.549 Z M 85.673 27.964 L 103.818 31.821 L 107.675 13.676 L 89.53 9.819 L 85.673 27.964 Z M 91.992 89.625 L 110.136 93.482 L 113.993 75.337 L 95.848 71.48 L 91.992 89.625 Z M 95.942 71.04 L 114.086 74.897 L 117.943 56.752 L 99.799 52.895 L 95.942 71.04 Z M 99.892 52.455 L 118.037 56.312 L 121.894 38.167 L 103.749 34.311 L 99.892 52.455 Z M 103.842 33.87 L 121.987 37.727 L 125.844 19.583 L 107.699 15.726 L 103.842 33.87 Z M 74.056 105.288 L 92.2 109.145 L 96.057 91 L 77.912 87.143 L 74.056 105.288 Z M 267.396 60.111 L 285.541 56.255 L 281.684 38.11 L 263.539 41.967 L 267.396 60.111 Z M 259.496 22.942 L 277.64 19.085 L 273.783 0.94 L 255.639 4.797 L 259.496 22.942 Z M 271.347 78.696 L 289.491 74.839 L 285.634 56.695 L 267.49 60.552 L 271.347 78.696 Z M 263.446 41.527 L 281.59 37.67 L 277.734 19.525 L 259.589 23.382 L 263.446 41.527 Z M 251.722 77.756 L 269.867 73.899 L 266.01 55.754 L 247.865 59.611 L 251.722 77.756 Z M 216.146 119.759 L 232.958 111.92 L 225.118 95.108 L 208.306 102.947 L 216.146 119.759 Z M 93.394 111.92 L 110.206 119.759 L 118.046 102.947 L 101.234 95.108 L 93.394 111.92 Z" vector-effect="non-scaling-stroke"/></g></svg>