0
SECTION
2
HEADER
9
$INSUNITS
70
4
0
ENDSEC
0
SECTION
2
TABLES
0
TABLE
2
LTYPE
0
LTYPE
72
65
70
64
2
CONTINUOUS
3
______
73
0
40
0
0
ENDTAB
0
TABLE
2
LAYER
0
ENDTAB
0
ENDSEC
0
SECTION
2
ENTITIES
0
LINE
8
0
10
-11.7893294
20
-5.7500402
11
5.7500402
21
-11.7893294
0
LINE
8
0
10
5.7500402
20
-11.7893294
11
11.7893294
21
5.7500402
0
LINE
8
0
10
11.7893294
20
5.7500402
11
-5.7500402
21
11.7893294
0
LINE
8
0
10
-5.7500402
20
11.7893294
11
-11.7893294
21
-5.7500402
0
LINE
8
0
10
-5.6035345
20
12.2148127
11
11.9358351
21
6.1755235
0
LINE
8
0
10
11.9358351
20
6.1755235
11
17.9751243
21
23.7148931
0
LINE
8
0
10
17.9751243
20
23.7148931
11
0.4357547
21
29.7541823
0
LINE
8
0
10
0.4357547
20
29.7541823
11
-5.6035345
21
12.2148127
0
LINE
8
0
10
5.5243872
20
-13.8268723
11
23.0637568
21
-19.8661615
0
LINE
8
0
10
23.0637568
20
-19.8661615
11
29.103046
21
-2.3267919
0
LINE
8
0
10
29.103046
20
-2.3267919
11
11.5636764
21
3.7124973
0
LINE
8
0
10
11.5636764
20
3.7124973
11
5.5243872
21
-13.8268723
0
LINE
8
0
10
11.7101822
20
4.1379807
11
29.2495518
21
-1.9013085
0
LINE
8
0
10
29.2495518
20
-1.9013085
11
35.288841
21
15.6380611
0
LINE
8
0
10
35.288841
20
15.6380611
11
17.7494714
21
21.6773503
0
LINE
8
0
10
17.7494714
20
21.6773503
11
11.7101822
21
4.1379807
0
LINE
8
0
10
17.8959771
20
22.1028336
11
35.4353467
21
16.0635444
0
LINE
8
0
10
35.4353467
20
16.0635444
11
41.4746359
21
33.602914
0
LINE
8
0
10
41.4746359
20
33.602914
11
23.9352663
21
39.6422032
0
LINE
8
0
10
23.9352663
20
39.6422032
11
17.8959771
21
22.1028336
0
LINE
8
0
10
24.081772
20
40.0676865
11
41.6211416
21
34.0283973
0
LINE
8
0
10
41.6211416
20
34.0283973
11
47.6604308
21
51.5677669
0
LINE
8
0
10
47.6604308
20
51.5677669
11
30.1210612
21
57.6070561
0
LINE
8
0
10
30.1210612
20
57.6070561
11
24.081772
21
40.0676865
0
LINE
8
0
10
27.396058
20
-8.6664443
11
44.9354276
21
-14.7057335
0
LINE
8
0
10
44.9354276
20
-14.7057335
11
50.9747168
21
2.8336361
0
LINE
8
0
10
50.9747168
20
2.8336361
11
33.4353472
21
8.8729253
0
LINE
8
0
10
33.4353472
20
8.8729253
11
27.396058
21
-8.6664443
0
LINE
8
0
10
33.581853
20
9.2984086
11
51.1212226
21
3.2591194
0
LINE
8
0
10
51.1212226
20
3.2591194
11
57.1605118
21
20.798489
0
LINE
8
0
10
57.1605118
20
20.798489
11
39.6211422
21
26.8377782
0
LINE
8
0
10
39.6211422
20
26.8377782
11
33.581853
21
9.2984086
0
LINE
8
0
10
39.7676479
20
27.2632616
11
57.3070175
21
21.2239724
0
LINE
8
0
10
57.3070175
20
21.2239724
11
63.3463067
21
38.763342
0
LINE
8
0
10
63.3463067
20
38.763342
11
45.8069371
21
44.8026312
0
LINE
8
0
10
45.8069371
20
44.8026312
11
39.7676479
21
27.2632616
0
LINE
8
0
10
45.9534428
20
45.2281145
11
63.4928124
21
39.1888253
0
LINE
8
0
10
63.4928124
20
39.1888253
11
69.5321016
21
56.7281949
0
LINE
8
0
10
69.5321016
20
56.7281949
11
51.992732
21
62.7674841
0
LINE
8
0
10
51.992732
20
62.7674841
11
45.9534428
21
45.2281145
0
LINE
8
0
10
46.9887517
20
-10.1246464
11
64.5281213
21
-16.1639356
0
LINE
8
0
10
64.5281213
20
-16.1639356
11
70.5674105
21
1.375434
0
LINE
8
0
10
70.5674105
20
1.375434
11
53.0280409
21
7.4147232
0
LINE
8
0
10
53.0280409
20
7.4147232
11
46.9887517
21
-10.1246464
0
LINE
8
0
10
53.1745467
20
7.8402066
11
70.7139163
21
1.8009174
0
LINE
8
0
10
70.7139163
20
1.8009174
11
76.7532055
21
19.340287
0
LINE
8
0
10
76.7532055
20
19.340287
11
59.2138359
21
25.3795762
0
LINE
8
0
10
59.2138359
20
25.3795762
11
53.1745467
21
7.8402066
0
LINE
8
0
10
59.3603416
20
25.8050595
11
76.8997112
21
19.7657703
0
LINE
8
0
10
76.8997112
20
19.7657703
11
82.9390004
21
37.3051399
0
LINE
8
0
10
82.9390004
20
37.3051399
11
65.3996308
21
43.3444291
0
LINE
8
0
10
65.3996308
20
43.3444291
11
59.3603416
21
25.8050595
0
LINE
8
0
10
65.5461365
20
43.7699124
11
83.0855061
21
37.7306232
0
LINE
8
0
10
83.0855061
20
37.7306232
11
89.1247953
21
55.2699928
0
LINE
8
0
10
89.1247953
20
55.2699928
11
71.5854257
21
61.309282
0
LINE
8
0
10
71.5854257
20
61.309282
11
65.5461365
21
43.7699124
0
LINE
8
0
10
63.0001957
20
-21.9835528
11
80.5395653
21
-28.022842
0
LINE
8
0
10
80.5395653
20
-28.022842
11
86.5788545
21
-10.4834724
0
LINE
8
0
10
86.5788545
20
-10.4834724
11
69.0394849
21
-4.4441832
0
LINE
8
0
10
69.0394849
20
-4.4441832
11
63.0001957
21
-21.9835528
0
LINE
8
0
10
69.1859907
20
-4.0186998
11
86.7253603
21
-10.057989
0
LINE
8
0
10
86.7253603
20
-10.057989
11
92.7646495
21
7.4813806
0
LINE
8
0
10
92.7646495
20
7.4813806
11
75.2252799
21
13.5206698
0
LINE
8
0
10
75.2252799
20
13.5206698
11
69.1859907
21
-4.0186998
0
LINE
8
0
10
75.3717856
20
13.9461531
11
92.9111552
21
7.9068639
0
LINE
8
0
10
92.9111552
20
7.9068639
11
98.9504444
21
25.4462335
0
LINE
8
0
10
98.9504444
20
25.4462335
11
81.4110748
21
31.4855227
0
LINE
8
0
10
81.4110748
20
31.4855227
11
75.3717856
21
13.9461531
0
LINE
8
0
10
81.5575805
20
31.9110061
11
99.0969501
21
25.8717169
0
LINE
8
0
10
99.0969501
20
25.8717169
11
105.1362393
21
43.4110865
0
LINE
8
0
10
105.1362393
20
43.4110865
11
87.5968697
21
49.4503757
0
LINE
8
0
10
87.5968697
20
49.4503757
11
81.5575805
21
31.9110061
0
LINE
8
0
10
80.3139124
20
-30.0603848
11
97.853282
21
-36.099674
0
LINE
8
0
10
97.853282
20
-36.099674
11
103.8925712
21
-18.5603044
0
LINE
8
0
10
103.8925712
20
-18.5603044
11
86.3532016
21
-12.5210152
0
LINE
8
0
10
86.3532016
20
-12.5210152
11
80.3139124
21
-30.0603848
0
LINE
8
0
10
86.4997073
20
-12.0955319
11
104.0390769
21
-18.1348211
0
LINE
8
0
10
104.0390769
20
-18.1348211
11
110.0783661
21
-0.5954515
0
LINE
8
0
10
110.0783661
20
-0.5954515
11
92.5389965
21
5.4438377
0
LINE
8
0
10
92.5389965
20
5.4438377
11
86.4997073
21
-12.0955319
0
LINE
8
0
10
92.6855022
20
5.869321
11
110.2248718
21
-0.1699682
0
LINE
8
0
10
110.2248718
20
-0.1699682
11
116.264161
21
17.3694014
0
LINE
8
0
10
116.264161
20
17.3694014
11
98.7247914
21
23.4086906
0
LINE
8
0
10
98.7247914
20
23.4086906
11
92.6855022
21
5.869321
0
LINE
8
0
10
98.8712972
20
23.834174
11
116.4106668
21
17.7948848
0
LINE
8
0
10
116.4106668
20
17.7948848
11
122.449956
21
35.3342544
0
LINE
8
0
10
122.449956
20
35.3342544
11
104.9105864
21
41.3735436
0
LINE
8
0
10
104.9105864
20
41.3735436
11
98.8712972
21
23.834174
0
LINE
8
0
10
50.4575962
20
-39.9805858
11
67.9969658
21
-46.019875
0
LINE
8
0
10
67.9969658
20
-46.019875
11
74.036255
21
-28.4805054
0
LINE
8
0
10
74.036255
20
-28.4805054
11
56.4968854
21
-22.4412162
0
LINE
8
0
10
56.4968854
20
-22.4412162
11
50.4575962
21
-39.9805858
0
LINE
8
0
10
72.8743598
20
-48.4776422
11
89.0985554
21
-57.4708606
0
LINE
8
0
10
89.0985554
20
-57.4708606
11
98.0917738
21
-41.246665
0
LINE
8
0
10
98.0917738
20
-41.246665
11
81.8675782
21
-32.2534466
0
LINE
8
0
10
81.8675782
20
-32.2534466
11
72.8743598
21
-48.4776422
0
LINE
8
0
10
82.3086692
20
-70.472282
11
96.7247268
21
-82.1461752
0
LINE
8
0
10
96.7247268
20
-82.1461752
11
108.39862
21
-67.7301176
0
LINE
8
0
10
108.39862
20
-67.7301176
11
93.9825624
21
-56.0562244
0
LINE
8
0
10
93.9825624
20
-56.0562244
11
82.3086692
21
-70.472282
0
LINE
8
0
10
94.2657566
20
-55.7065087
11
108.6818142
21
-67.3804019
0
LINE
8
0
10
108.6818142
20
-67.3804019
11
120.3557074
21
-52.9643443
0
LINE
8
0
10
120.3557074
20
-52.9643443
11
105.9396498
21
-41.2904511
0
LINE
8
0
10
105.9396498
20
-41.2904511
11
94.2657566
21
-55.7065087
0
LINE
8
0
10
104.7858316
20
-76.4818823
11
119.2018892
21
-88.1557755
0
LINE
8
0
10
119.2018892
20
-88.1557755
11
130.8757824
21
-73.7397179
0
LINE
8
0
10
130.8757824
20
-73.7397179
11
116.4597248
21
-62.0658247
0
LINE
8
0
10
116.4597248
20
-62.0658247
11
104.7858316
21
-76.4818823
0
LINE
8
0
10
271.248983
20
-11.7893294
11
288.7883526
21
-5.7500402
0
LINE
8
0
10
288.7883526
20
-5.7500402
11
282.7490634
21
11.7893294
0
LINE
8
0
10
282.7490634
20
11.7893294
11
265.2096938
21
5.7500402
0
LINE
8
0
10
265.2096938
20
5.7500402
11
271.248983
21
-11.7893294
0
LINE
8
0
10
265.0631881
20
6.1755235
11
282.6025577
21
12.2148127
0
LINE
8
0
10
282.6025577
20
12.2148127
11
276.5632685
21
29.7541823
0
LINE
8
0
10
276.5632685
20
29.7541823
11
259.0238989
21
23.7148931
0
LINE
8
0
10
259.0238989
20
23.7148931
11
265.0631881
21
6.1755235
0
LINE
8
0
10
253.9352664
20
-19.8661615
11
271.474636
21
-13.8268723
0
LINE
8
0
10
271.474636
20
-13.8268723
11
265.4353468
21
3.7124973
0
LINE
8
0
10
265.4353468
20
3.7124973
11
247.8959772
21
-2.3267919
0
LINE
8
0
10
247.8959772
20
-2.3267919
11
253.9352664
21
-19.8661615
0
LINE
8
0
10
247.7494714
20
-1.9013085
11
265.288841
21
4.1379807
0
LINE
8
0
10
265.288841
20
4.1379807
11
259.2495518
21
21.6773503
0
LINE
8
0
10
259.2495518
20
21.6773503
11
241.7101822
21
15.6380611
0
LINE
8
0
10
241.7101822
20
15.6380611
11
247.7494714
21
-1.9013085
0
LINE
8
0
10
241.5636765
20
16.0635444
11
259.1030461
21
22.1028336
0
LINE
8
0
10
259.1030461
20
22.1028336
11
253.0637569
21
39.6422032
0
LINE
8
0
10
253.0637569
20
39.6422032
11
235.5243873
21
33.602914
0
LINE
8
0
10
235.5243873
20
33.602914
11
241.5636765
21
16.0635444
0
LINE
8
0
10
235.3778816
20
34.0283973
11
252.9172512
21
40.0676865
0
LINE
8
0
10
252.9172512
20
40.0676865
11
246.877962
21
57.6070561
0
LINE
8
0
10
246.877962
20
57.6070561
11
229.3385924
21
51.5677669
0
LINE
8
0
10
229.3385924
20
51.5677669
11
235.3778816
21
34.0283973
0
LINE
8
0
10
232.0635956
20
-14.7057335
11
249.6029652
21
-8.6664443
0
LINE
8
0
10
249.6029652
20
-8.6664443
11
243.563676
21
8.8729253
0
LINE
8
0
10
243.563676
20
8.8729253
11
226.0243064
21
2.8336361
0
LINE
8
0
10
226.0243064
20
2.8336361
11
232.0635956
21
-14.7057335
0
LINE
8
0
10
225.8778006
20
3.2591194
11
243.4171702
21
9.2984086
0
LINE
8
0
10
243.4171702
20
9.2984086
11
237.377881
21
26.8377782
0
LINE
8
0
10
237.377881
20
26.8377782
11
219.8385114
21
20.798489
0
LINE
8
0
10
219.8385114
20
20.798489
11
225.8778006
21
3.2591194
0
LINE
8
0
10
219.6920057
20
21.2239724
11
237.2313753
21
27.2632616
0
LINE
8
0
10
237.2313753
20
27.2632616
11
231.1920861
21
44.8026312
0
LINE
8
0
10
231.1920861
20
44.8026312
11
213.6527165
21
38.763342
0
LINE
8
0
10
213.6527165
20
38.763342
11
219.6920057
21
21.2239724
0
LINE
8
0
10
213.5062108
20
39.1888253
11
231.0455804
21
45.2281145
0
LINE
8
0
10
231.0455804
20
45.2281145
11
225.0062912
21
62.7674841
0
LINE
8
0
10
225.0062912
20
62.7674841
11
207.4669216
21
56.7281949
0
LINE
8
0
10
207.4669216
20
56.7281949
11
213.5062108
21
39.1888253
0
LINE
8
0
10
212.4709019
20
-16.1639356
11
230.0102715
21
-10.1246464
0
LINE
8
0
10
230.0102715
20
-10.1246464
11
223.9709823
21
7.4147232
0
LINE
8
0
10
223.9709823
20
7.4147232
11
206.4316127
21
1.375434
0
LINE
8
0
10
206.4316127
20
1.375434
11
212.4709019
21
-16.1639356
0
LINE
8
0
10
206.2851069
20
1.8009174
11
223.8244765
21
7.8402066
0
LINE
8
0
10
223.8244765
20
7.8402066
11
217.7851873
21
25.3795762
0
LINE
8
0
10
217.7851873
20
25.3795762
11
200.2458177
21
19.340287
0
LINE
8
0
10
200.2458177
20
19.340287
11
206.2851069
21
1.8009174
0
LINE
8
0
10
200.099312
20
19.7657703
11
217.6386816
21
25.8050595
0
LINE
8
0
10
217.6386816
20
25.8050595
11
211.5993924
21
43.3444291
0
LINE
8
0
10
211.5993924
20
43.3444291
11
194.0600228
21
37.3051399
0
LINE
8
0
10
194.0600228
20
37.3051399
11
200.099312
21
19.7657703
0
LINE
8
0
10
193.9135171
20
37.7306232
11
211.4528867
21
43.7699124
0
LINE
8
0
10
211.4528867
20
43.7699124
11
205.4135975
21
61.309282
0
LINE
8
0
10
205.4135975
20
61.309282
11
187.8742279
21
55.2699928
0
LINE
8
0
10
187.8742279
20
55.2699928
11
193.9135171
21
37.7306232
0
LINE
8
0
10
196.4594579
20
-28.022842
11
213.9988275
21
-21.9835528
0
LINE
8
0
10
213.9988275
20
-21.9835528
11
207.9595383
21
-4.4441832
0
LINE
8
0
10
207.9595383
20
-4.4441832
11
190.4201687
21
-10.4834724
0
LINE
8
0
10
190.4201687
20
-10.4834724
11
196.4594579
21
-28.022842
0
LINE
8
0
10
190.2736629
20
-10.057989
11
207.8130325
21
-4.0186998
0
LINE
8
0
10
207.8130325
20
-4.0186998
11
201.7737433
21
13.5206698
0
LINE
8
0
10
201.7737433
20
13.5206698
11
184.2343737
21
7.4813806
0
LINE
8
0
10
184.2343737
20
7.4813806
11
190.2736629
21
-10.057989
0
LINE
8
0
10
184.087868
20
7.9068639
11
201.6272376
21
13.9461531
0
LINE
8
0
10
201.6272376
20
13.9461531
11
195.5879484
21
31.4855227
0
LINE
8
0
10
195.5879484
20
31.4855227
11
178.0485788
21
25.4462335
0
LINE
8
0
10
178.0485788
20
25.4462335
11
184.087868
21
7.9068639
0
LINE
8
0
10
177.9020731
20
25.8717169
11
195.4414427
21
31.9110061
0
LINE
8
0
10
195.4414427
20
31.9110061
11
189.4021535
21
49.4503757
0
LINE
8
0
10
189.4021535
20
49.4503757
11
171.8627839
21
43.4110865
0
LINE
8
0
10
171.8627839
20
43.4110865
11
177.9020731
21
25.8717169
0
LINE
8
0
10
179.1457412
20
-36.099674
11
196.6851108
21
-30.0603848
0
LINE
8
0
10
196.6851108
20
-30.0603848
11
190.6458216
21
-12.5210152
0
LINE
8
0
10
190.6458216
20
-12.5210152
11
173.106452
21
-18.5603044
0
LINE
8
0
10
173.106452
20
-18.5603044
11
179.1457412
21
-36.099674
0
LINE
8
0
10
172.9599463
20
-18.1348211
11
190.4993159
21
-12.0955319
0
LINE
8
0
10
190.4993159
20
-12.0955319
11
184.4600267
21
5.4438377
0
LINE
8
0
10
184.4600267
20
5.4438377
11
166.9206571
21
-0.5954515
0
LINE
8
0
10
166.9206571
20
-0.5954515
11
172.9599463
21
-18.1348211
0
LINE
8
0
10
166.7741514
20
-0.1699682
11
184.313521
21
5.869321
0
LINE
8
0
10
184.313521
20
5.869321
11
178.2742318
21
23.4086906
0
LINE
8
0
10
178.2742318
20
23.4086906
11
160.7348622
21
17.3694014
0
LINE
8
0
10
160.7348622
20
17.3694014
11
166.7741514
21
-0.1699682
0
LINE
8
0
10
160.5883564
20
17.7948848
11
178.127726
21
23.834174
0
LINE
8
0
10
178.127726
20
23.834174
11
172.0884368
21
41.3735436
0
LINE
8
0
10
172.0884368
20
41.3735436
11
154.5490672
21
35.3342544
0
LINE
8
0
10
154.5490672
20
35.3342544
11
160.5883564
21
17.7948848
0
LINE
8
0
10
209.0020574
20
-46.019875
11
226.541427
21
-39.9805858
0
LINE
8
0
10
226.541427
20
-39.9805858
11
220.5021378
21
-22.4412162
0
LINE
8
0
10
220.5021378
20
-22.4412162
11
202.9627682
21
-28.4805054
0
LINE
8
0
10
202.9627682
20
-28.4805054
11
209.0020574
21
-46.019875
0
LINE
8
0
10
187.9004678
20
-57.4708606
11
204.1246634
21
-48.4776422
0
LINE
8
0
10
204.1246634
20
-48.4776422
11
195.131445
21
-32.2534466
0
LINE
8
0
10
195.131445
20
-32.2534466
11
178.9072494
21
-41.246665
0
LINE
8
0
10
178.9072494
20
-41.246665
11
187.9004678
21
-57.4708606
0
LINE
8
0
10
180.2742964
20
-82.1461752
11
194.690354
21
-70.472282
0
LINE
8
0
10
194.690354
20
-70.472282
11
183.0164608
21
-56.0562244
0
LINE
8
0
10
183.0164608
20
-56.0562244
11
168.6004032
21
-67.7301176
0
LINE
8
0
10
168.6004032
20
-67.7301176
11
180.2742964
21
-82.1461752
0
LINE
8
0
10
168.317209
20
-67.3804019
11
182.7332666
21
-55.7065087
0
LINE
8
0
10
182.7332666
20
-55.7065087
11
171.0593734
21
-41.2904511
0
LINE
8
0
10
171.0593734
20
-41.2904511
11
156.6433158
21
-52.9643443
0
LINE
8
0
10
156.6433158
20
-52.9643443
11
168.317209
21
-67.3804019
0
LINE
8
0
10
157.797134
20
-88.1557755
11
172.2131916
21
-76.4818823
0
LINE
8
0
10
172.2131916
20
-76.4818823
11
160.5392984
21
-62.0658247
0
LINE
8
0
10
160.5392984
20
-62.0658247
11
146.1232408
21
-73.7397179
0
LINE
8
0
10
146.1232408
20
-73.7397179
11
157.797134
21
-88.1557755
0
ENDSEC
0
EOF