<svg width="335.877mm" height="145.264mm" viewBox="0 0 335.877 145.264" xmlns="http://www.w3.org/2000/svg"><g id="svgGroup" stroke-linecap="round" fill-rule="evenodd" font-size="9pt" stroke="#000" stroke-width="0.25mm" fill="none" style="stroke:#000;stroke-width:0.25mm;fill:none"><path d="M 22.002 47.747 L 40.27 50.968 L 43.491 32.7 L 25.223 29.478 L 22.002 47.747 Z M 3.299 44.398 L 21.567 47.619 L 24.789 29.351 L 6.52 26.13 L 3.299 44.398 Z M 6.599 25.687 L 24.867 28.908 L 28.088 10.64 L 9.82 7.419 L 6.599 25.687 Z M 15.403 85.169 L 33.672 88.39 L 36.893 70.122 L 18.625 66.901 L 15.403 85.169 Z M 314.309 47.619 L 332.578 44.398 L 329.356 26.13 L 311.088 29.351 L 314.309 47.619 Z M 298.906 69.679 L 317.174 66.458 L 313.953 48.19 L 295.685 51.411 L 298.906 69.679 Z M 295.607 50.968 L 313.875 47.747 L 310.654 29.478 L 292.386 32.7 L 295.607 50.968 Z M 0 63.109 L 18.268 66.331 L 21.489 48.062 L 3.221 44.841 L 0 63.109 Z M 18.703 66.458 L 36.971 69.679 L 40.192 51.411 L 21.924 48.19 L 18.703 66.458 Z M 25.301 29.035 L 43.569 32.256 L 46.791 13.988 L 28.522 10.767 L 25.301 29.035 Z M 317.609 66.331 L 335.877 63.109 L 332.656 44.841 L 314.388 48.062 L 317.609 66.331 Z M 311.01 28.908 L 329.278 25.687 L 326.057 7.419 L 307.789 10.64 L 311.01 28.908 Z M 302.205 88.39 L 320.474 85.169 L 317.252 66.901 L 298.984 70.122 L 302.205 88.39 Z M 292.307 32.256 L 310.576 29.035 L 307.355 10.767 L 289.086 13.988 L 292.307 32.256 Z M 131.208 134.624 L 146.404 145.264 L 157.044 130.069 L 141.848 119.429 L 131.208 134.624 Z M 189.473 145.264 L 204.669 134.624 L 194.029 119.429 L 178.833 130.069 L 189.473 145.264 Z M 206.989 130.093 L 222.184 119.453 L 211.544 104.257 L 196.349 114.897 L 206.989 130.093 Z M 113.693 119.453 L 128.888 130.093 L 139.528 114.897 L 124.333 104.257 L 113.693 119.453 Z M 36.861 74.839 L 55.005 78.696 L 58.862 60.552 L 40.718 56.695 L 36.861 74.839 Z M 40.811 56.255 L 58.956 60.111 L 62.813 41.967 L 44.668 38.11 L 40.811 56.255 Z M 44.761 37.67 L 62.906 41.527 L 66.763 23.382 L 48.618 19.525 L 44.761 37.67 Z M 48.712 19.085 L 66.856 22.942 L 70.713 4.797 L 52.569 0.94 L 48.712 19.085 Z M 56.485 73.899 L 74.63 77.756 L 78.487 59.611 L 60.342 55.754 L 56.485 73.899 Z M 60.436 55.314 L 78.58 59.171 L 82.437 41.026 L 64.292 37.17 L 60.436 55.314 Z M 64.386 36.729 L 82.53 40.586 L 86.387 22.442 L 68.243 18.585 L 64.386 36.729 Z M 68.336 18.145 L 86.481 22.001 L 90.338 3.857 L 72.193 0 L 68.336 18.145 Z M 73.823 83.718 L 91.967 87.575 L 95.824 69.43 L 77.679 65.574 L 73.823 83.718 Z M 243.91 87.575 L 262.054 83.718 L 258.198 65.574 L 240.053 69.43 L 243.91 87.575 Z M 239.959 68.99 L 258.104 65.133 L 254.247 46.989 L 236.103 50.846 L 239.959 68.99 Z M 236.009 50.405 L 254.154 46.549 L 250.297 28.404 L 232.152 32.261 L 236.009 50.405 Z M 232.059 31.821 L 250.203 27.964 L 246.347 9.819 L 228.202 13.676 L 232.059 31.821 Z M 225.741 93.482 L 243.885 89.625 L 240.029 71.48 L 221.884 75.337 L 225.741 93.482 Z M 221.791 74.897 L 239.935 71.04 L 236.078 52.895 L 217.934 56.752 L 221.791 74.897 Z M 217.84 56.312 L 235.985 52.455 L 232.128 34.311 L 213.983 38.167 L 217.84 56.312 Z M 213.89 37.727 L 232.034 33.87 L 228.178 15.726 L 210.033 19.583 L 213.89 37.727 Z M 243.677 109.145 L 261.821 105.288 L 257.965 87.143 L 239.82 91 L 243.677 109.145 Z M 77.773 65.133 L 95.917 68.99 L 99.774 50.846 L 81.63 46.989 L 77.773 65.133 Z M 81.723 46.549 L 99.868 50.405 L 103.725 32.261 L 85.58 28.404 L 81.723 46.549 Z M 85.673 27.964 L 103.818 31.821 L 107.675 13.676 L 89.53 9.819 L 85.673 27.964 Z M 91.992 89.625 L 110.136 93.482 L 113.993 75.337 L 95.848 71.48 L 91.992 89.625 Z M 95.942 71.04 L 114.086 74.897 L 117.943 56.752 L 99.799 52.895 L 95.942 71.04 Z M 99.892 52.455 L 118.037 56.312 L 121.894 38.167 L 103.749 34.311 L 99.892 52.455 Z M 103.842 33.87 L 121.987 37.727 L 125.844 19.583 L 107.699 15.726 L 103.842 33.87 Z M 74.056 105.288 L 92.2 109.145 L 96.057 91 L 77.912 87.143 L 74.056 105.288 Z M 253.346 40.586 L 271.491 36.729 L 267.634 18.585 L 249.49 22.442 L 253.346 40.586 Z M 280.872 78.696 L 299.016 74.839 L 295.159 56.695 L 277.015 60.552 L 280.872 78.696 Z M 276.921 60.111 L 295.066 56.255 L 291.209 38.11 L 273.064 41.967 L 276.921 60.111 Z M 272.971 41.527 L 291.115 37.67 L 287.259 19.525 L 269.114 23.382 L 272.971 41.527 Z M 269.021 22.942 L 287.165 19.085 L 283.308 0.94 L 265.164 4.797 L 269.021 22.942 Z M 261.247 77.756 L 279.392 73.899 L 275.535 55.754 L 257.39 59.611 L 261.247 77.756 Z M 257.297 59.171 L 275.441 55.314 L 271.585 37.17 L 253.44 41.026 L 257.297 59.171 Z M 249.396 22.001 L 267.541 18.145 L 263.684 0 L 245.539 3.857 L 249.396 22.001 Z M 207.139 104.809 L 223.951 96.97 L 216.111 80.158 L 199.299 87.997 L 207.139 104.809 Z M 111.926 96.97 L 128.738 104.809 L 136.578 87.997 L 119.766 80.158 L 111.926 96.97 Z M 225.671 119.759 L 242.483 111.92 L 234.643 95.108 L 217.831 102.947 L 225.671 119.759 Z M 93.394 111.92 L 110.206 119.759 L 118.046 102.947 L 101.234 95.108 L 93.394 111.92 Z" vector-effect="non-scaling-stroke"/></g></svg>