<svg width="129.822mm" height="98.464mm" viewBox="0 0 129.822 98.464" xmlns="http://www.w3.org/2000/svg"><g id="svgGroup" stroke-linecap="round" fill-rule="evenodd" font-size="9pt" stroke="#000" stroke-width="0.25mm" fill="none" style="stroke:#000;stroke-width:0.25mm;fill:none"><path d="M 0.046 62.474 L 10.021 5.901 A 3 3 0 0 1 12.787 3.427 L 52.564 0.927 A 3 3 0 0 1 52.608 0.924 L 71.823 0.003 A 3 3 0 0 1 72.59 0.066 L 94.451 4.712 A 3 3 0 0 1 95.042 4.904 L 128.037 19.517 A 3 3 0 0 1 129.757 22.884 L 114.197 96.087 A 3 3 0 0 1 110.867 98.437 L 16.548 85.883 A 3 3 0 0 1 14.486 84.629 L 0.543 64.716 A 3 3 0 0 1 0.046 62.474 Z M 41.31 75.741 L 55.004 78.651 L 57.914 64.957 L 44.22 62.047 L 41.31 75.741 Z M 53.16 19.986 L 66.855 22.897 L 69.765 9.203 L 56.071 6.292 L 53.16 19.986 Z M 68.835 37.631 L 82.529 40.541 L 85.439 26.847 L 71.745 23.937 L 68.835 37.631 Z M 90.122 28.865 L 103.816 31.776 L 106.727 18.082 L 93.033 15.171 L 90.122 28.865 Z M 49.21 38.571 L 62.904 41.482 L 65.815 27.788 L 52.121 24.877 L 49.21 38.571 Z M 72.785 19.046 L 86.479 21.957 L 89.39 8.263 L 75.696 5.352 L 72.785 19.046 Z M 86.172 47.45 L 99.866 50.361 L 102.777 36.667 L 89.083 33.756 L 86.172 47.45 Z M 45.26 57.156 L 58.954 60.067 L 61.865 46.373 L 48.171 43.462 L 45.26 57.156 Z M 60.934 74.8 L 74.628 77.711 L 77.539 64.017 L 63.845 61.106 L 60.934 74.8 Z M 64.884 56.215 L 78.578 59.126 L 81.489 45.432 L 67.795 42.521 L 64.884 56.215 Z M 78.271 84.619 L 91.965 87.53 L 94.876 73.836 L 81.182 70.925 L 78.271 84.619 Z M 82.222 66.035 L 95.916 68.945 L 98.826 55.251 L 85.132 52.341 L 82.222 66.035 Z M 96.44 90.526 L 110.134 93.437 L 113.045 79.743 L 99.351 76.832 L 96.44 90.526 Z M 100.391 71.941 L 114.085 74.852 L 116.995 61.158 L 103.301 58.247 L 100.391 71.941 Z M 104.341 53.356 L 118.035 56.267 L 120.946 42.573 L 107.252 39.662 L 104.341 53.356 Z M 108.291 34.772 L 121.985 37.682 L 124.896 23.988 L 111.202 21.078 L 108.291 34.772 Z M 30.382 25.904 L 44.169 28.335 L 46.6 14.548 L 32.813 12.117 L 30.382 25.904 Z M 5.072 60.028 L 18.859 62.459 L 21.29 48.671 L 7.503 46.24 L 5.072 60.028 Z M 8.371 41.316 L 22.158 43.747 L 24.59 29.96 L 10.802 27.529 L 8.371 41.316 Z M 11.67 22.605 L 25.458 25.036 L 27.889 11.249 L 14.102 8.818 L 11.67 22.605 Z M 20.484 82.038 L 34.271 84.469 L 36.702 70.682 L 22.915 68.251 L 20.484 82.038 Z M 23.783 63.327 L 37.57 65.758 L 40.002 51.971 L 26.214 49.54 L 23.783 63.327 Z M 27.082 44.616 L 40.87 47.047 L 43.301 33.259 L 29.514 30.828 L 27.082 44.616 Z" vector-effect="non-scaling-stroke"/></g></svg>