<svg width="129.822mm" height="98.464mm" viewBox="0 0 129.822 98.464" xmlns="http://www.w3.org/2000/svg"><g id="svgGroup" stroke-linecap="round" fill-rule="evenodd" font-size="9pt" stroke="#000" stroke-width="0.25mm" fill="none" style="stroke:#000;stroke-width:0.25mm;fill:none"><path d="M 0.046 62.474 L 10.021 5.901 A 3 3 0 0 1 12.787 3.427 L 52.564 0.927 A 3 3 0 0 1 52.608 0.924 L 71.823 0.003 A 3 3 0 0 1 72.59 0.066 L 94.451 4.712 A 3 3 0 0 1 95.042 4.904 L 128.037 19.517 A 3 3 0 0 1 129.757 22.884 L 114.197 96.087 A 3 3 0 0 1 110.867 98.437 L 16.548 85.883 A 3 3 0 0 1 14.486 84.629 L 0.543 64.716 A 3 3 0 0 1 0.046 62.474 Z" vector-effect="non-scaling-stroke"/></g></svg>