<svg width="119.824mm" height="88.085mm" viewBox="0 0 119.824 88.085" xmlns="http://www.w3.org/2000/svg"><g id="svgGroup" stroke-linecap="round" fill-rule="evenodd" font-size="9pt" stroke="#000" stroke-width="0.25mm" fill="none" style="stroke:#000;stroke-width:0.25mm;fill:none"><path d="M 36.238 70.389 L 49.932 73.3 L 52.843 59.606 L 39.148 56.695 L 36.238 70.389 Z M 48.089 14.634 L 61.783 17.545 L 64.694 3.851 L 50.999 0.94 L 48.089 14.634 Z M 63.763 32.279 L 77.457 35.19 L 80.368 21.496 L 66.673 18.585 L 63.763 32.279 Z M 85.05 23.513 L 98.744 26.424 L 101.655 12.73 L 87.961 9.819 L 85.05 23.513 Z M 44.138 33.219 L 57.832 36.13 L 60.743 22.436 L 47.049 19.525 L 44.138 33.219 Z M 67.713 13.694 L 81.407 16.605 L 84.318 2.911 L 70.624 0 L 67.713 13.694 Z M 81.1 42.098 L 94.794 45.009 L 97.705 31.315 L 84.011 28.404 L 81.1 42.098 Z M 40.188 51.804 L 53.882 54.715 L 56.793 41.021 L 43.099 38.11 L 40.188 51.804 Z M 55.862 69.448 L 69.556 72.359 L 72.467 58.665 L 58.773 55.754 L 55.862 69.448 Z M 59.812 50.864 L 73.506 53.774 L 76.417 40.08 L 62.723 37.17 L 59.812 50.864 Z M 73.199 79.268 L 86.893 82.178 L 89.804 68.484 L 76.11 65.574 L 73.199 79.268 Z M 77.15 60.683 L 90.844 63.594 L 93.755 49.9 L 80.061 46.989 L 77.15 60.683 Z M 91.368 85.174 L 105.062 88.085 L 107.973 74.391 L 94.279 71.48 L 91.368 85.174 Z M 95.319 66.59 L 109.013 69.5 L 111.924 55.806 L 98.229 52.895 L 95.319 66.59 Z M 99.269 48.005 L 112.963 50.915 L 115.874 37.221 L 102.18 34.311 L 99.269 48.005 Z M 103.219 29.42 L 116.913 32.331 L 119.824 18.637 L 106.13 15.726 L 103.219 29.42 Z M 25.31 20.552 L 39.097 22.983 L 41.528 9.196 L 27.741 6.765 L 25.31 20.552 Z M 0 54.676 L 13.787 57.107 L 16.218 43.32 L 2.431 40.888 L 0 54.676 Z M 3.299 35.964 L 17.087 38.395 L 19.518 24.608 L 5.73 22.177 L 3.299 35.964 Z M 6.599 17.253 L 20.386 19.684 L 22.817 5.897 L 9.03 3.466 L 6.599 17.253 Z M 15.412 76.686 L 29.199 79.117 L 31.63 65.33 L 17.843 62.899 L 15.412 76.686 Z M 18.711 57.975 L 32.499 60.406 L 34.93 46.619 L 21.142 44.188 L 18.711 57.975 Z M 22.011 39.264 L 35.798 41.695 L 38.229 27.907 L 24.442 25.476 L 22.011 39.264 Z" vector-effect="non-scaling-stroke"/></g></svg>