0
SECTION
2
HEADER
9
$INSUNITS
70
4
0
ENDSEC
0
SECTION
2
TABLES
0
TABLE
2
LTYPE
0
LTYPE
72
65
70
64
2
CONTINUOUS
3
______
73
0
40
0
0
ENDTAB
0
TABLE
2
LAYER
0
ENDTAB
0
ENDSEC
0
SECTION
2
ENTITIES
0
LINE
8
0
10
-9.924183
20
12.0097666
11
-6.7630903
21
77.5314053
0
LINE
8
0
10
-5.2265958
20
80.0075902
11
24.2788672
21
96.4450775
0
LINE
8
0
10
25.0218781
20
96.737382
11
48.1279747
21
102.4246352
0
LINE
8
0
10
48.844984
20
102.5115788
11
267.254465
21
102.5115788
0
LINE
8
0
10
267.9714743
20
102.4246352
11
291.0775709
21
96.737382
0
LINE
8
0
10
291.8205818
20
96.4450775
11
321.3260448
21
80.0075902
0
LINE
8
0
10
322.8625393
20
77.5314053
11
326.023632
21
12.0097666
0
LINE
8
0
10
323.5402853
20
8.9094157
11
307.9969794
21
6.2108671
0
LINE
8
0
10
306.9418713
20
5.8125253
11
278.7699172
21
-11.4630963
0
LINE
8
0
10
277.8253762
20
-11.840097
11
248.4093762
21
-18.0926608
0
LINE
8
0
10
247.8663995
20
-18.2632686
11
225.6986431
21
-27.6210563
0
LINE
8
0
10
225.1465956
20
-27.7935775
11
198.1022855
21
-33.4547327
0
LINE
8
0
10
197.4876212
20
-33.5183765
11
118.6118278
21
-33.5183765
0
LINE
8
0
10
117.9971635
20
-33.4547327
11
90.9528534
21
-27.7935775
0
LINE
8
0
10
90.4008059
20
-27.6210563
11
68.2330495
21
-18.2632686
0
LINE
8
0
10
67.6900728
20
-18.0926608
11
38.2740728
21
-11.840097
0
LINE
8
0
10
37.3295318
20
-11.4630963
11
9.1575777
21
5.8125253
0
LINE
8
0
10
8.1024696
20
6.2108671
11
-7.4408363
21
8.9094157
0
ARC
8
0
10
-3.7665756
20
77.3868383
40
3
50
119.1221673
51
177.2379039
0
ARC
8
0
10
25.7388874
20
93.8243256
40
3
50
103.8277101
51
119.1221673
0
ARC
8
0
10
48.844984
20
99.5115788
40
3
50
90
51
103.8277101
0
ARC
8
0
10
267.254465
20
99.5115788
40
3
50
76.1722899
51
90
0
ARC
8
0
10
290.3605616
20
93.8243256
40
3
50
60.8778327
51
76.1722899
0
ARC
8
0
10
319.8660246
20
77.3868383
40
3
50
2.7620961
51
60.8778327
0
ARC
8
0
10
323.0271173
20
11.8651996
40
3
50
279.8492229
51
2.7620961
0
ARC
8
0
10
308.5101474
20
3.2550832
40
3
50
99.8492229
51
121.5174822
0
ARC
8
0
10
277.2016411
20
-8.9056542
40
3
50
282.0000005
51
301.5174822
0
ARC
8
0
10
249.0331113
20
-21.0271036
40
3
50
102.0000005
51
112.8863146
0
ARC
8
0
10
224.5319313
20
-24.8572213
40
3
50
281.8229487
51
292.8863146
0
ARC
8
0
10
197.4876212
20
-30.5183765
40
3
50
270
51
281.8229487
0
ARC
8
0
10
118.6118278
20
-30.5183765
40
3
50
258.1770513
51
270
0
ARC
8
0
10
91.5675177
20
-24.8572213
40
3
50
247.1136854
51
258.1770513
0
ARC
8
0
10
67.0663377
20
-21.0271036
40
3
50
67.1136854
51
77.9999995
0
ARC
8
0
10
38.8978079
20
-8.9056542
40
3
50
238.4825178
51
257.9999995
0
ARC
8
0
10
7.5893016
20
3.2550832
40
3
50
58.4825178
51
80.1507771
0
ARC
8
0
10
-6.9276683
20
11.8651996
40
3
50
177.2379039
51
260.1507771
0
LINE
8
0
10
-4.8098761
20
13.0332303
11
8.9774324
21
10.6021558
0
LINE
8
0
10
8.9774324
20
10.6021558
11
11.4085069
21
24.3894643
0
LINE
8
0
10
11.4085069
20
24.3894643
11
-2.3788016
21
26.8205388
0
LINE
8
0
10
-2.3788016
20
26.8205388
11
-4.8098761
21
13.0332303
0
LINE
8
0
10
-1.5105607
20
31.7445776
11
12.2767478
21
29.3135031
0
LINE
8
0
10
12.2767478
20
29.3135031
11
14.7078223
21
43.1008116
0
LINE
8
0
10
14.7078223
20
43.1008116
11
0.9205138
21
45.5318861
0
LINE
8
0
10
0.9205138
20
45.5318861
11
-1.5105607
21
31.7445776
0
LINE
8
0
10
13.9101536
20
9.7831553
11
27.6974621
21
7.3520808
0
LINE
8
0
10
27.6974621
20
7.3520808
11
30.1285366
21
21.1393893
0
LINE
8
0
10
30.1285366
20
21.1393893
11
16.3412281
21
23.5704638
0
LINE
8
0
10
16.3412281
20
23.5704638
11
13.9101536
21
9.7831553
0
LINE
8
0
10
17.209469
20
28.4945026
11
30.9967775
21
26.0634281
0
LINE
8
0
10
30.9967775
20
26.0634281
11
33.427852
21
39.8507366
0
LINE
8
0
10
33.427852
20
39.8507366
11
19.6405435
21
42.2818111
0
LINE
8
0
10
19.6405435
20
42.2818111
11
17.209469
21
28.4945026
0
LINE
8
0
10
20.5087843
20
47.2058499
11
34.2960928
21
44.7747754
0
LINE
8
0
10
34.2960928
20
44.7747754
11
36.7271673
21
58.5620839
0
LINE
8
0
10
36.7271673
20
58.5620839
11
22.9398588
21
60.9931584
0
LINE
8
0
10
22.9398588
20
60.9931584
11
20.5087843
21
47.2058499
0
LINE
8
0
10
34.7358441
20
16.0806781
11
48.4299105
21
13.1699145
0
LINE
8
0
10
48.4299105
20
13.1699145
11
51.3406741
21
26.8639809
0
LINE
8
0
10
51.3406741
20
26.8639809
11
37.6466077
21
29.7747445
0
LINE
8
0
10
37.6466077
20
29.7747445
11
34.7358441
21
16.0806781
0
LINE
8
0
10
38.6861662
20
34.6654825
11
52.3802326
21
31.7547189
0
LINE
8
0
10
52.3802326
20
31.7547189
11
55.2909962
21
45.4487853
0
LINE
8
0
10
55.2909962
20
45.4487853
11
41.5969298
21
48.3595489
0
LINE
8
0
10
41.5969298
20
48.3595489
11
38.6861662
21
34.6654825
0
LINE
8
0
10
42.6364883
20
53.2502869
11
56.3305547
21
50.3395233
0
LINE
8
0
10
56.3305547
20
50.3395233
11
59.2413183
21
64.0335897
0
LINE
8
0
10
59.2413183
20
64.0335897
11
45.5472519
21
66.9443533
0
LINE
8
0
10
45.5472519
20
66.9443533
11
42.6364883
21
53.2502869
0
LINE
8
0
10
54.360207
20
17.0210939
11
68.0542734
21
14.1103303
0
LINE
8
0
10
68.0542734
20
14.1103303
11
70.965037
21
27.8043967
0
LINE
8
0
10
70.965037
20
27.8043967
11
57.2709706
21
30.7151603
0
LINE
8
0
10
57.2709706
20
30.7151603
11
54.360207
21
17.0210939
0
LINE
8
0
10
58.3105291
20
35.6058983
11
72.0045955
21
32.6951347
0
LINE
8
0
10
72.0045955
20
32.6951347
11
74.9153591
21
46.3892011
0
LINE
8
0
10
74.9153591
20
46.3892011
11
61.2212927
21
49.2999647
0
LINE
8
0
10
61.2212927
20
49.2999647
11
58.3105291
21
35.6058983
0
LINE
8
0
10
62.2608512
20
54.1907028
11
75.9549176
21
51.2799392
0
LINE
8
0
10
75.9549176
20
51.2799392
11
78.8656812
21
64.9740056
0
LINE
8
0
10
78.8656812
20
64.9740056
11
65.1716148
21
67.8847692
0
LINE
8
0
10
65.1716148
20
67.8847692
11
62.2608512
21
54.1907028
0
LINE
8
0
10
71.6975413
20
7.2018862
11
85.3916077
21
4.2911226
0
LINE
8
0
10
85.3916077
20
4.2911226
11
88.3023713
21
17.985189
0
LINE
8
0
10
88.3023713
20
17.985189
11
74.6083049
21
20.8959526
0
LINE
8
0
10
74.6083049
20
20.8959526
11
71.6975413
21
7.2018862
0
LINE
8
0
10
75.6478633
20
25.7866906
11
89.3419297
21
22.875927
0
LINE
8
0
10
89.3419297
20
22.875927
11
92.2526933
21
36.5699934
0
LINE
8
0
10
92.2526933
20
36.5699934
11
78.5586269
21
39.480757
0
LINE
8
0
10
78.5586269
20
39.480757
11
75.6478633
21
25.7866906
0
LINE
8
0
10
79.5981854
20
44.371495
11
93.2922518
21
41.4607314
0
LINE
8
0
10
93.2922518
20
41.4607314
11
96.2030154
21
55.1547978
0
LINE
8
0
10
96.2030154
20
55.1547978
11
82.508949
21
58.0655614
0
LINE
8
0
10
82.508949
20
58.0655614
11
79.5981854
21
44.371495
0
LINE
8
0
10
89.8665223
20
1.2952689
11
103.5605887
21
-1.6154947
0
LINE
8
0
10
103.5605887
20
-1.6154947
11
106.4713523
21
12.0785717
0
LINE
8
0
10
106.4713523
20
12.0785717
11
92.7772859
21
14.9893353
0
LINE
8
0
10
92.7772859
20
14.9893353
11
89.8665223
21
1.2952689
0
LINE
8
0
10
93.8168443
20
19.8800733
11
107.5109107
21
16.9693097
0
LINE
8
0
10
107.5109107
20
16.9693097
11
110.4216743
21
30.6633761
0
LINE
8
0
10
110.4216743
20
30.6633761
11
96.7276079
21
33.5741397
0
LINE
8
0
10
96.7276079
20
33.5741397
11
93.8168443
21
19.8800733
0
LINE
8
0
10
97.7671664
20
38.4648777
11
111.4612328
21
35.5541141
0
LINE
8
0
10
111.4612328
20
35.5541141
11
114.3719964
21
49.2481805
0
LINE
8
0
10
114.3719964
20
49.2481805
11
100.67793
21
52.1589441
0
LINE
8
0
10
100.67793
20
52.1589441
11
97.7671664
21
38.4648777
0
LINE
8
0
10
73.3366079
20
-14.6667777
11
87.0306743
21
-17.5775413
0
LINE
8
0
10
87.0306743
20
-17.5775413
11
89.9414379
21
-3.8834749
0
LINE
8
0
10
89.9414379
20
-3.8834749
11
76.2473715
21
-0.9727113
0
LINE
8
0
10
76.2473715
20
-0.9727113
11
73.3366079
21
-14.6667777
0
LINE
8
0
10
99.9574375
20
-21.4076389
11
111.8301108
21
-28.8265086
0
LINE
8
0
10
111.8301108
20
-28.8265086
11
119.2489805
21
-16.9538353
0
LINE
8
0
10
119.2489805
20
-16.9538353
11
107.3763072
21
-9.5349656
0
LINE
8
0
10
107.3763072
20
-9.5349656
11
99.9574375
21
-21.4076389
0
LINE
8
0
10
307.1220166
20
10.6021558
11
320.9093251
21
13.0332303
0
LINE
8
0
10
320.9093251
20
13.0332303
11
318.4782506
21
26.8205388
0
LINE
8
0
10
318.4782506
20
26.8205388
11
304.6909421
21
24.3894643
0
LINE
8
0
10
304.6909421
20
24.3894643
11
307.1220166
21
10.6021558
0
LINE
8
0
10
303.8227012
20
29.3135031
11
317.6100097
21
31.7445776
0
LINE
8
0
10
317.6100097
20
31.7445776
11
315.1789352
21
45.5318861
0
LINE
8
0
10
315.1789352
20
45.5318861
11
301.3916267
21
43.1008116
0
LINE
8
0
10
301.3916267
20
43.1008116
11
303.8227012
21
29.3135031
0
LINE
8
0
10
288.4019869
20
7.3520808
11
302.1892954
21
9.7831553
0
LINE
8
0
10
302.1892954
20
9.7831553
11
299.7582209
21
23.5704638
0
LINE
8
0
10
299.7582209
20
23.5704638
11
285.9709124
21
21.1393893
0
LINE
8
0
10
285.9709124
20
21.1393893
11
288.4019869
21
7.3520808
0
LINE
8
0
10
285.1026715
20
26.0634281
11
298.88998
21
28.4945026
0
LINE
8
0
10
298.88998
20
28.4945026
11
296.4589055
21
42.2818111
0
LINE
8
0
10
296.4589055
20
42.2818111
11
282.671597
21
39.8507366
0
LINE
8
0
10
282.671597
20
39.8507366
11
285.1026715
21
26.0634281
0
LINE
8
0
10
281.8033562
20
44.7747754
11
295.5906647
21
47.2058499
0
LINE
8
0
10
295.5906647
20
47.2058499
11
293.1595902
21
60.9931584
0
LINE
8
0
10
293.1595902
20
60.9931584
11
279.3722817
21
58.5620839
0
LINE
8
0
10
279.3722817
20
58.5620839
11
281.8033562
21
44.7747754
0
LINE
8
0
10
267.6695385
20
13.1699145
11
281.3636049
21
16.0806781
0
LINE
8
0
10
281.3636049
20
16.0806781
11
278.4528413
21
29.7747445
0
LINE
8
0
10
278.4528413
20
29.7747445
11
264.7587749
21
26.8639809
0
LINE
8
0
10
264.7587749
20
26.8639809
11
267.6695385
21
13.1699145
0
LINE
8
0
10
263.7192164
20
31.7547189
11
277.4132828
21
34.6654825
0
LINE
8
0
10
277.4132828
20
34.6654825
11
274.5025192
21
48.3595489
0
LINE
8
0
10
274.5025192
20
48.3595489
11
260.8084528
21
45.4487853
0
LINE
8
0
10
260.8084528
20
45.4487853
11
263.7192164
21
31.7547189
0
LINE
8
0
10
259.7688943
20
50.3395233
11
273.4629607
21
53.2502869
0
LINE
8
0
10
273.4629607
20
53.2502869
11
270.5521971
21
66.9443533
0
LINE
8
0
10
270.5521971
20
66.9443533
11
256.8581307
21
64.0335897
0
LINE
8
0
10
256.8581307
20
64.0335897
11
259.7688943
21
50.3395233
0
LINE
8
0
10
248.0451756
20
14.1103303
11
261.739242
21
17.0210939
0
LINE
8
0
10
261.739242
20
17.0210939
11
258.8284784
21
30.7151603
0
LINE
8
0
10
258.8284784
20
30.7151603
11
245.134412
21
27.8043967
0
LINE
8
0
10
245.134412
20
27.8043967
11
248.0451756
21
14.1103303
0
LINE
8
0
10
244.0948535
20
32.6951347
11
257.7889199
21
35.6058983
0
LINE
8
0
10
257.7889199
20
35.6058983
11
254.8781563
21
49.2999647
0
LINE
8
0
10
254.8781563
20
49.2999647
11
241.1840899
21
46.3892011
0
LINE
8
0
10
241.1840899
20
46.3892011
11
244.0948535
21
32.6951347
0
LINE
8
0
10
240.1445314
20
51.2799392
11
253.8385978
21
54.1907028
0
LINE
8
0
10
253.8385978
20
54.1907028
11
250.9278342
21
67.8847692
0
LINE
8
0
10
250.9278342
20
67.8847692
11
237.2337678
21
64.9740056
0
LINE
8
0
10
237.2337678
20
64.9740056
11
240.1445314
21
51.2799392
0
LINE
8
0
10
230.7078413
20
4.2911226
11
244.4019077
21
7.2018862
0
LINE
8
0
10
244.4019077
20
7.2018862
11
241.4911441
21
20.8959526
0
LINE
8
0
10
241.4911441
20
20.8959526
11
227.7970777
21
17.985189
0
LINE
8
0
10
227.7970777
20
17.985189
11
230.7078413
21
4.2911226
0
LINE
8
0
10
226.7575193
20
22.875927
11
240.4515857
21
25.7866906
0
LINE
8
0
10
240.4515857
20
25.7866906
11
237.5408221
21
39.480757
0
LINE
8
0
10
237.5408221
20
39.480757
11
223.8467557
21
36.5699934
0
LINE
8
0
10
223.8467557
20
36.5699934
11
226.7575193
21
22.875927
0
LINE
8
0
10
222.8071972
20
41.4607314
11
236.5012636
21
44.371495
0
LINE
8
0
10
236.5012636
20
44.371495
11
233.5905
21
58.0655614
0
LINE
8
0
10
233.5905
20
58.0655614
11
219.8964336
21
55.1547978
0
LINE
8
0
10
219.8964336
20
55.1547978
11
222.8071972
21
41.4607314
0
LINE
8
0
10
212.5388603
20
-1.6154947
11
226.2329267
21
1.2952689
0
LINE
8
0
10
226.2329267
20
1.2952689
11
223.3221631
21
14.9893353
0
LINE
8
0
10
223.3221631
20
14.9893353
11
209.6280967
21
12.0785717
0
LINE
8
0
10
209.6280967
20
12.0785717
11
212.5388603
21
-1.6154947
0
LINE
8
0
10
208.5885383
20
16.9693097
11
222.2826047
21
19.8800733
0
LINE
8
0
10
222.2826047
20
19.8800733
11
219.3718411
21
33.5741397
0
LINE
8
0
10
219.3718411
20
33.5741397
11
205.6777747
21
30.6633761
0
LINE
8
0
10
205.6777747
20
30.6633761
11
208.5885383
21
16.9693097
0
LINE
8
0
10
204.6382162
20
35.5541141
11
218.3322826
21
38.4648777
0
LINE
8
0
10
218.3322826
20
38.4648777
11
215.421519
21
52.1589441
0
LINE
8
0
10
215.421519
20
52.1589441
11
201.7274526
21
49.2481805
0
LINE
8
0
10
201.7274526
20
49.2481805
11
204.6382162
21
35.5541141
0
LINE
8
0
10
229.0687747
20
-17.5775413
11
242.7628411
21
-14.6667777
0
LINE
8
0
10
242.7628411
20
-14.6667777
11
239.8520775
21
-0.9727113
0
LINE
8
0
10
239.8520775
20
-0.9727113
11
226.1580111
21
-3.8834749
0
LINE
8
0
10
226.1580111
20
-3.8834749
11
229.0687747
21
-17.5775413
0
LINE
8
0
10
204.2693382
20
-28.8265086
11
216.1420115
21
-21.4076389
0
LINE
8
0
10
216.1420115
20
-21.4076389
11
208.7231418
21
-9.5349656
0
LINE
8
0
10
208.7231418
20
-9.5349656
11
196.8504685
21
-16.9538353
0
LINE
8
0
10
196.8504685
20
-16.9538353
11
204.2693382
21
-28.8265086
0
LINE
8
0
10
0.4200786
20
49.9290415
11
14.3668044
21
51.1492219
0
LINE
8
0
10
14.3668044
20
51.1492219
11
13.6259806
21
59.6168769
0
LINE
8
0
10
13.6259806
20
59.6168769
11
-0.3207452
21
58.3966965
0
LINE
8
0
10
-0.3207452
20
58.3966965
11
0.4200786
21
49.9290415
0
LINE
8
0
10
23.9166298
20
66.5327021
11
37.7039383
21
64.1016276
0
LINE
8
0
10
37.7039383
20
64.1016276
11
39.1799478
21
72.4724935
0
LINE
8
0
10
39.1799478
20
72.4724935
11
25.3926393
21
74.903568
0
LINE
8
0
10
25.3926393
20
74.903568
11
23.9166298
21
66.5327021
0
LINE
8
0
10
46.7167552
20
72.4464335
11
60.4108216
21
69.5356699
0
LINE
8
0
10
60.4108216
20
69.5356699
11
62.178071
21
77.8499245
0
LINE
8
0
10
62.178071
20
77.8499245
11
48.4840046
21
80.7606881
0
LINE
8
0
10
48.4840046
20
80.7606881
11
46.7167552
21
72.4464335
0
LINE
8
0
10
66.3411181
20
73.3868494
11
80.0351845
21
70.4760858
0
LINE
8
0
10
80.0351845
20
70.4760858
11
81.8024339
21
78.7903404
0
LINE
8
0
10
81.8024339
20
78.7903404
11
68.1083675
21
81.701104
0
LINE
8
0
10
68.1083675
20
81.701104
11
66.3411181
21
73.3868494
0
LINE
8
0
10
83.6784523
20
63.5676417
11
97.3725187
21
60.6568781
0
LINE
8
0
10
97.3725187
20
60.6568781
11
99.1397681
21
68.9711327
0
LINE
8
0
10
99.1397681
20
68.9711327
11
85.4457017
21
71.8818963
0
LINE
8
0
10
85.4457017
20
71.8818963
11
83.6784523
21
63.5676417
0
LINE
8
0
10
101.8474333
20
57.6610243
11
115.5414997
21
54.7502607
0
LINE
8
0
10
115.5414997
20
54.7502607
11
117.3087491
21
63.0645153
0
LINE
8
0
10
117.3087491
20
63.0645153
11
103.6146827
21
65.9752789
0
LINE
8
0
10
103.6146827
20
65.9752789
11
101.8474333
21
57.6610243
0
LINE
8
0
10
67.8345277
20
-13.4972744
11
70.7452913
21
0.196792
0
LINE
8
0
10
70.7452913
20
0.196792
11
62.4310367
21
1.9640414
0
LINE
8
0
10
62.4310367
20
1.9640414
11
59.5202731
21
-11.730025
0
LINE
8
0
10
59.5202731
20
-11.730025
11
67.8345277
21
-13.4972744
0
LINE
8
0
10
111.7441611
20
-8.1876014
11
125.4382275
21
-11.098365
0
LINE
8
0
10
125.4382275
20
-11.098365
11
127.2054769
21
-2.7841104
0
LINE
8
0
10
127.2054769
20
-2.7841104
11
113.5114105
21
0.1266532
0
LINE
8
0
10
113.5114105
20
0.1266532
11
111.7441611
21
-8.1876014
0
LINE
8
0
10
125.3509894
20
-13.4645307
11
127.7820639
21
-27.2518392
0
LINE
8
0
10
127.7820639
20
-27.2518392
11
136.1529298
21
-25.7758297
0
LINE
8
0
10
136.1529298
20
-25.7758297
11
133.7218553
21
-11.9885212
0
LINE
8
0
10
133.7218553
20
-11.9885212
11
125.3509894
21
-13.4645307
0
LINE
8
0
10
301.7326446
20
51.1492219
11
315.6793704
21
49.9290415
0
LINE
8
0
10
315.6793704
20
49.9290415
11
316.4201942
21
58.3966965
0
LINE
8
0
10
316.4201942
20
58.3966965
11
302.4734684
21
59.6168769
0
LINE
8
0
10
302.4734684
20
59.6168769
11
301.7326446
21
51.1492219
0
LINE
8
0
10
278.3955107
20
64.1016276
11
292.1828192
21
66.5327021
0
LINE
8
0
10
292.1828192
20
66.5327021
11
290.7068097
21
74.903568
0
LINE
8
0
10
290.7068097
20
74.903568
11
276.9195012
21
72.4724935
0
LINE
8
0
10
276.9195012
20
72.4724935
11
278.3955107
21
64.1016276
0
LINE
8
0
10
255.6886274
20
69.5356699
11
269.3826938
21
72.4464335
0
LINE
8
0
10
269.3826938
20
72.4464335
11
267.6154444
21
80.7606881
0
LINE
8
0
10
267.6154444
20
80.7606881
11
253.921378
21
77.8499245
0
LINE
8
0
10
253.921378
20
77.8499245
11
255.6886274
21
69.5356699
0
LINE
8
0
10
236.0642645
20
70.4760858
11
249.7583309
21
73.3868494
0
LINE
8
0
10
249.7583309
20
73.3868494
11
247.9910815
21
81.701104
0
LINE
8
0
10
247.9910815
20
81.701104
11
234.2970151
21
78.7903404
0
LINE
8
0
10
234.2970151
20
78.7903404
11
236.0642645
21
70.4760858
0
LINE
8
0
10
218.7269303
20
60.6568781
11
232.4209967
21
63.5676417
0
LINE
8
0
10
232.4209967
20
63.5676417
11
230.6537473
21
71.8818963
0
LINE
8
0
10
230.6537473
20
71.8818963
11
216.9596809
21
68.9711327
0
LINE
8
0
10
216.9596809
20
68.9711327
11
218.7269303
21
60.6568781
0
LINE
8
0
10
200.5579493
20
54.7502607
11
214.2520157
21
57.6610243
0
LINE
8
0
10
214.2520157
20
57.6610243
11
212.4847663
21
65.9752789
0
LINE
8
0
10
212.4847663
20
65.9752789
11
198.7906999
21
63.0645153
0
LINE
8
0
10
198.7906999
20
63.0645153
11
200.5579493
21
54.7502607
0
LINE
8
0
10
245.3541577
20
0.196792
11
248.2649213
21
-13.4972744
0
LINE
8
0
10
248.2649213
20
-13.4972744
11
256.5791759
21
-11.730025
0
LINE
8
0
10
256.5791759
20
-11.730025
11
253.6684123
21
1.9640414
0
LINE
8
0
10
253.6684123
20
1.9640414
11
245.3541577
21
0.196792
0
LINE
8
0
10
190.6612215
20
-11.098365
11
204.3552879
21
-8.1876014
0
LINE
8
0
10
204.3552879
20
-8.1876014
11
202.5880385
21
0.1266532
0
LINE
8
0
10
202.5880385
20
0.1266532
11
188.8939721
21
-2.7841104
0
LINE
8
0
10
188.8939721
20
-2.7841104
11
190.6612215
21
-11.098365
0
LINE
8
0
10
188.3173851
20
-27.2518392
11
190.7484596
21
-13.4645307
0
LINE
8
0
10
190.7484596
20
-13.4645307
11
182.3775937
21
-11.9885212
0
LINE
8
0
10
182.3775937
20
-11.9885212
11
179.9465192
21
-25.7758297
0
LINE
8
0
10
179.9465192
20
-25.7758297
11
188.3173851
21
-27.2518392
0
LINE
8
0
10
-0.5604235
20
61.1362319
11
13.3863023
21
62.3564123
0
LINE
8
0
10
13.3863023
20
62.3564123
11
12.1661219
21
76.3031381
0
LINE
8
0
10
12.1661219
20
76.3031381
11
-1.7806039
21
75.0829577
0
LINE
8
0
10
-1.7806039
20
75.0829577
11
-0.5604235
21
61.1362319
0
LINE
8
0
10
25.8701718
20
77.6117893
11
39.6574803
21
75.1807148
0
LINE
8
0
10
39.6574803
20
75.1807148
11
42.0885548
21
88.9680233
0
LINE
8
0
10
42.0885548
20
88.9680233
11
28.3012463
21
91.3990978
0
LINE
8
0
10
28.3012463
20
91.3990978
11
25.8701718
21
77.6117893
0
LINE
8
0
10
49.0557618
20
83.4505941
11
62.7498282
21
80.5398305
0
LINE
8
0
10
62.7498282
20
80.5398305
11
65.6605918
21
94.2338969
0
LINE
8
0
10
65.6605918
20
94.2338969
11
51.9665254
21
97.1446605
0
LINE
8
0
10
51.9665254
20
97.1446605
11
49.0557618
21
83.4505941
0
LINE
8
0
10
68.6801247
20
84.39101
11
82.3741911
21
81.4802464
0
LINE
8
0
10
82.3741911
20
81.4802464
11
85.2849547
21
95.1743128
0
LINE
8
0
10
85.2849547
20
95.1743128
11
71.5908883
21
98.0850764
0
LINE
8
0
10
71.5908883
20
98.0850764
11
68.6801247
21
84.39101
0
LINE
8
0
10
86.0174589
20
74.5718023
11
99.7115253
21
71.6610387
0
LINE
8
0
10
99.7115253
20
71.6610387
11
102.6222889
21
85.3551051
0
LINE
8
0
10
102.6222889
20
85.3551051
11
88.9282225
21
88.2658687
0
LINE
8
0
10
88.9282225
20
88.2658687
11
86.0174589
21
74.5718023
0
LINE
8
0
10
104.1864399
20
68.6651849
11
117.8805063
21
65.7544213
0
LINE
8
0
10
117.8805063
20
65.7544213
11
120.7912699
21
79.4484877
0
LINE
8
0
10
120.7912699
20
79.4484877
11
107.0972035
21
82.3592513
0
LINE
8
0
10
107.0972035
20
82.3592513
11
104.1864399
21
68.6651849
0
LINE
8
0
10
56.8303671
20
-11.1582678
11
59.7411307
21
2.5357986
0
LINE
8
0
10
59.7411307
20
2.5357986
11
46.0470643
21
5.4465622
0
LINE
8
0
10
46.0470643
20
5.4465622
11
43.1363007
21
-8.2475042
0
LINE
8
0
10
43.1363007
20
-8.2475042
11
56.8303671
21
-11.1582678
0
LINE
8
0
10
114.0831677
20
2.8165592
11
127.7772341
21
-0.0942044
0
LINE
8
0
10
127.7772341
20
-0.0942044
11
130.6879977
21
13.599862
0
LINE
8
0
10
130.6879977
20
13.599862
11
116.9939313
21
16.5106256
0
LINE
8
0
10
116.9939313
20
16.5106256
11
114.0831677
21
2.8165592
0
LINE
8
0
10
136.4300766
20
-11.5109887
11
138.8611511
21
-25.2982972
0
LINE
8
0
10
138.8611511
20
-25.2982972
11
152.6484596
21
-22.8672227
0
LINE
8
0
10
152.6484596
20
-22.8672227
11
150.2173851
21
-9.0799142
0
LINE
8
0
10
150.2173851
20
-9.0799142
11
136.4300766
21
-11.5109887
0
LINE
8
0
10
302.7131467
20
62.3564123
11
316.6598725
21
61.1362319
0
LINE
8
0
10
316.6598725
20
61.1362319
11
317.8800529
21
75.0829577
0
LINE
8
0
10
317.8800529
20
75.0829577
11
303.9333271
21
76.3031381
0
LINE
8
0
10
303.9333271
20
76.3031381
11
302.7131467
21
62.3564123
0
LINE
8
0
10
276.4419687
20
75.1807148
11
290.2292772
21
77.6117893
0
LINE
8
0
10
290.2292772
20
77.6117893
11
287.7982027
21
91.3990978
0
LINE
8
0
10
287.7982027
20
91.3990978
11
274.0108942
21
88.9680233
0
LINE
8
0
10
274.0108942
20
88.9680233
11
276.4419687
21
75.1807148
0
LINE
8
0
10
253.3496208
20
80.5398305
11
267.0436872
21
83.4505941
0
LINE
8
0
10
267.0436872
20
83.4505941
11
264.1329236
21
97.1446605
0
LINE
8
0
10
264.1329236
20
97.1446605
11
250.4388572
21
94.2338969
0
LINE
8
0
10
250.4388572
20
94.2338969
11
253.3496208
21
80.5398305
0
LINE
8
0
10
233.7252579
20
81.4802464
11
247.4193243
21
84.39101
0
LINE
8
0
10
247.4193243
20
84.39101
11
244.5085607
21
98.0850764
0
LINE
8
0
10
244.5085607
20
98.0850764
11
230.8144943
21
95.1743128
0
LINE
8
0
10
230.8144943
20
95.1743128
11
233.7252579
21
81.4802464
0
LINE
8
0
10
216.3879237
20
71.6610387
11
230.0819901
21
74.5718023
0
LINE
8
0
10
230.0819901
20
74.5718023
11
227.1712265
21
88.2658687
0
LINE
8
0
10
227.1712265
20
88.2658687
11
213.4771601
21
85.3551051
0
LINE
8
0
10
213.4771601
20
85.3551051
11
216.3879237
21
71.6610387
0
LINE
8
0
10
198.2189427
20
65.7544213
11
211.9130091
21
68.6651849
0
LINE
8
0
10
211.9130091
20
68.6651849
11
209.0022455
21
82.3592513
0
LINE
8
0
10
209.0022455
20
82.3592513
11
195.3081791
21
79.4484877
0
LINE
8
0
10
195.3081791
20
79.4484877
11
198.2189427
21
65.7544213
0
LINE
8
0
10
256.3583183
20
2.5357986
11
259.2690819
21
-11.1582678
0
LINE
8
0
10
259.2690819
20
-11.1582678
11
272.9631483
21
-8.2475042
0
LINE
8
0
10
272.9631483
20
-8.2475042
11
270.0523847
21
5.4465622
0
LINE
8
0
10
270.0523847
20
5.4465622
11
256.3583183
21
2.5357986
0
LINE
8
0
10
188.3222149
20
-0.0942044
11
202.0162813
21
2.8165592
0
LINE
8
0
10
202.0162813
20
2.8165592
11
199.1055177
21
16.5106256
0
LINE
8
0
10
199.1055177
20
16.5106256
11
185.4114513
21
13.599862
0
LINE
8
0
10
185.4114513
20
13.599862
11
188.3222149
21
-0.0942044
0
LINE
8
0
10
177.2382979
20
-25.2982972
11
179.6693724
21
-11.5109887
0
LINE
8
0
10
179.6693724
20
-11.5109887
11
165.8820639
21
-9.0799142
0
LINE
8
0
10
165.8820639
20
-9.0799142
11
163.4509894
21
-22.8672227
0
LINE
8
0
10
163.4509894
20
-22.8672227
11
177.2382979
21
-25.2982972
0
ENDSEC
0
EOF