<svg width="321.362mm" height="157.191mm" viewBox="0 0 321.362 157.191" xmlns="http://www.w3.org/2000/svg"><g id="svgGroup" stroke-linecap="round" fill-rule="evenodd" font-size="9pt" stroke="#000" stroke-width="0.25mm" fill="none" style="stroke:#000;stroke-width:0.25mm;fill:none"><path d="M 4.026 35.064 L 18.897 1.776 A 3 3 0 0 1 22.164 0.047 L 38.553 2.981 A 3 3 0 0 0 38.56 2.983 L 57.009 6.236 A 3 3 0 0 0 57.53 6.281 L 263.832 6.281 A 3 3 0 0 0 264.353 6.236 L 282.802 2.983 A 3 3 0 0 0 282.81 2.981 L 299.198 0.047 A 3 3 0 0 1 302.466 1.776 L 317.336 35.064 A 3 3 0 0 1 317.552 35.767 L 321.317 57.12 A 3 3 0 0 1 321.041 58.992 L 311.217 78.463 A 3 3 0 0 1 309.908 79.781 L 253.424 108.753 A 3 3 0 0 0 253.201 108.88 L 236.548 119.31 A 3 3 0 0 1 236.128 119.529 L 215.579 128.251 A 3 3 0 0 0 214.763 128.765 L 183.471 156.439 A 3 3 0 0 1 181.483 157.191 L 139.879 157.191 A 3 3 0 0 1 137.892 156.439 L 106.599 128.765 A 3 3 0 0 0 105.784 128.251 L 85.234 119.529 A 3 3 0 0 1 84.814 119.31 L 68.161 108.88 A 3 3 0 0 0 67.938 108.753 L 11.455 79.781 A 3 3 0 0 1 10.146 78.463 L 0.322 58.992 A 3 3 0 0 1 0.046 57.12 L 3.811 35.767 A 3 3 0 0 1 4.026 35.064 Z M 215.275 117.204 L 228.162 111.734 L 222.692 98.847 L 209.805 104.317 L 215.275 117.204 Z M 93.2 111.734 L 106.088 117.204 L 111.558 104.317 L 98.671 98.847 L 93.2 111.734 Z M 110.862 95.167 L 123.107 101.954 L 129.894 89.709 L 117.649 82.922 L 110.862 95.167 Z M 198.256 101.954 L 210.5 95.167 L 203.713 82.922 L 191.468 89.709 L 198.256 101.954 Z M 113.914 119.09 L 125.655 126.715 L 133.28 114.974 L 121.539 107.349 L 113.914 119.09 Z M 131.948 133.641 L 143.689 141.266 L 151.314 129.525 L 139.573 121.9 L 131.948 133.641 Z M 195.707 126.715 L 207.449 119.09 L 199.824 107.349 L 188.082 114.974 L 195.707 126.715 Z M 177.673 141.266 L 189.414 133.641 L 181.789 121.9 L 170.048 129.525 L 177.673 141.266 Z M 249.068 27.742 L 262.855 25.31 L 260.424 11.523 L 246.637 13.954 L 249.068 27.742 Z M 211.645 34.34 L 225.432 31.909 L 223.001 18.122 L 209.214 20.553 L 211.645 34.34 Z M 192.934 37.64 L 206.721 35.208 L 204.29 21.421 L 190.503 23.852 L 192.934 37.64 Z M 234.281 107.572 L 248.068 105.141 L 245.637 91.354 L 231.849 93.785 L 234.281 107.572 Z M 230.356 31.041 L 244.144 28.61 L 241.713 14.822 L 227.925 17.254 L 230.356 31.041 Z M 208.913 73.408 L 222.7 70.977 L 220.269 57.19 L 206.482 59.621 L 208.913 73.408 Z M 21.093 18.663 L 34.881 21.094 L 37.312 7.306 L 23.524 4.875 L 21.093 18.663 Z M 34.539 78.964 L 48.326 81.395 L 50.757 67.607 L 36.97 65.176 L 34.539 78.964 Z M 53.25 82.263 L 67.038 84.694 L 69.469 70.907 L 55.681 68.476 L 53.25 82.263 Z M 39.796 22.011 L 53.583 24.442 L 56.014 10.655 L 42.227 8.224 L 39.796 22.011 Z M 42.528 61.079 L 56.316 63.51 L 58.747 49.723 L 44.96 47.292 L 42.528 61.079 Z M 286.482 21.094 L 300.269 18.663 L 297.838 4.875 L 284.051 7.306 L 286.482 21.094 Z M 291.747 78.095 L 305.535 75.664 L 303.104 61.877 L 289.316 64.308 L 291.747 78.095 Z M 273.036 81.395 L 286.823 78.964 L 284.392 65.176 L 270.605 67.607 L 273.036 81.395 Z M 254.325 84.694 L 268.112 82.263 L 265.681 68.476 L 251.894 70.907 L 254.325 84.694 Z M 246.335 66.81 L 260.123 64.378 L 257.692 50.591 L 243.904 53.022 L 246.335 66.81 Z M 235.613 87.993 L 249.401 85.562 L 246.97 71.775 L 233.182 74.206 L 235.613 87.993 Z M 216.902 91.293 L 230.689 88.861 L 228.258 75.074 L 214.471 77.505 L 216.902 91.293 Z M 5.114 54.431 L 18.902 56.862 L 21.333 43.075 L 7.546 40.644 L 5.114 54.431 Z M 13.104 36.547 L 26.891 38.978 L 29.322 25.191 L 15.535 22.76 L 13.104 36.547 Z M 15.828 75.664 L 29.615 78.095 L 32.046 64.308 L 18.259 61.877 L 15.828 75.664 Z M 23.817 57.78 L 37.604 60.211 L 40.035 46.424 L 26.248 43.993 L 23.817 57.78 Z M 31.807 39.896 L 45.594 42.327 L 48.025 28.539 L 34.238 26.108 L 31.807 39.896 Z M 50.518 43.195 L 64.305 45.626 L 66.736 31.839 L 52.949 29.408 L 50.518 43.195 Z M 58.507 25.31 L 72.295 27.742 L 74.726 13.954 L 60.938 11.523 L 58.507 25.31 Z M 61.24 64.378 L 75.027 66.81 L 77.458 53.022 L 63.671 50.591 L 61.24 64.378 Z M 69.229 46.494 L 83.017 48.925 L 85.448 35.138 L 71.66 32.707 L 69.229 46.494 Z M 71.962 85.562 L 85.749 87.993 L 88.18 74.206 L 74.393 71.775 L 71.962 85.562 Z M 90.673 88.861 L 104.46 91.293 L 106.891 77.505 L 93.104 75.074 L 90.673 88.861 Z M 98.662 70.977 L 112.45 73.408 L 114.881 59.621 L 101.094 57.19 L 98.662 70.977 Z M 73.295 105.141 L 87.082 107.572 L 89.513 93.785 L 75.726 91.354 L 73.295 105.141 Z M 302.461 56.862 L 316.248 54.431 L 313.817 40.644 L 300.03 43.075 L 302.461 56.862 Z M 294.471 38.978 L 308.259 36.547 L 305.827 22.76 L 292.04 25.191 L 294.471 38.978 Z M 283.758 60.211 L 297.545 57.78 L 295.114 43.993 L 281.327 46.424 L 283.758 60.211 Z M 275.769 42.327 L 289.556 39.896 L 287.125 26.108 L 273.337 28.539 L 275.769 42.327 Z M 267.779 24.442 L 281.566 22.011 L 279.135 8.224 L 265.348 10.655 L 267.779 24.442 Z M 265.047 63.51 L 278.834 61.079 L 276.403 47.292 L 262.616 49.723 L 265.047 63.51 Z M 257.057 45.626 L 270.845 43.195 L 268.413 29.408 L 254.626 31.839 L 257.057 45.626 Z M 238.346 48.925 L 252.133 46.494 L 249.702 32.707 L 235.915 35.138 L 238.346 48.925 Z M 227.624 70.109 L 241.411 67.678 L 238.98 53.891 L 225.193 56.322 L 227.624 70.109 Z M 219.635 52.225 L 233.422 49.793 L 230.991 36.006 L 217.203 38.437 L 219.635 52.225 Z M 200.923 55.524 L 214.71 53.093 L 212.279 39.305 L 198.492 41.737 L 200.923 55.524 Z M 95.93 31.909 L 109.717 34.34 L 112.148 20.553 L 98.361 18.122 L 95.93 31.909 Z M 106.652 53.093 L 120.439 55.524 L 122.87 41.737 L 109.083 39.305 L 106.652 53.093 Z M 114.641 35.208 L 128.429 37.64 L 130.86 23.852 L 117.072 21.421 L 114.641 35.208 Z M 77.219 28.61 L 91.006 31.041 L 93.437 17.254 L 79.65 14.822 L 77.219 28.61 Z M 79.951 67.678 L 93.738 70.109 L 96.17 56.322 L 82.382 53.891 L 79.951 67.678 Z M 87.941 49.793 L 101.728 52.225 L 104.159 38.437 L 90.372 36.006 L 87.941 49.793 Z" vector-effect="non-scaling-stroke"/></g></svg>