<svg width="322.376mm" height="166.014mm" viewBox="0 0 322.376 166.014" xmlns="http://www.w3.org/2000/svg"><g id="svgGroup" stroke-linecap="round" fill-rule="evenodd" font-size="9pt" stroke="#000" stroke-width="0.25mm" fill="none" style="stroke:#000;stroke-width:0.25mm;fill:none"><path d="M 0.046 90.333 L 11.997 22.552 A 3 3 0 0 1 13.228 20.618 L 33.771 6.193 A 3 3 0 0 1 34.779 5.735 L 57.734 0.087 A 3 3 0 0 1 58.451 0 L 263.925 0 A 3 3 0 0 1 264.641 0.087 L 287.597 5.735 A 3 3 0 0 1 288.604 6.193 L 309.148 20.618 A 3 3 0 0 1 310.379 22.552 L 322.33 90.333 A 3 3 0 0 1 319.889 93.81 L 304.482 96.485 A 3 3 0 0 0 303.807 96.686 L 250.906 119.517 A 3 3 0 0 1 250.884 119.526 L 228.998 128.765 A 3 3 0 0 0 227.701 129.818 L 203.463 164.725 A 3 3 0 0 1 200.998 166.014 L 121.377 166.014 A 3 3 0 0 1 118.913 164.725 L 94.675 129.818 A 3 3 0 0 0 93.378 128.765 L 71.491 119.526 A 3 3 0 0 1 71.469 119.517 L 18.569 96.686 A 3 3 0 0 0 17.894 96.485 L 2.487 93.81 A 3 3 0 0 1 0.046 90.333 Z M 120.195 141.506 L 129.195 152.231 L 139.919 143.232 L 130.92 132.507 L 120.195 141.506 Z M 136.623 115.288 L 145.622 126.012 L 156.347 117.013 L 147.348 106.289 L 136.623 115.288 Z M 193.181 152.231 L 202.18 141.506 L 191.456 132.507 L 182.457 143.232 L 193.181 152.231 Z M 176.753 126.012 L 185.752 115.288 L 175.028 106.289 L 166.029 117.013 L 176.753 126.012 Z M 188.496 106.799 L 199.529 98.18 L 190.909 87.148 L 179.877 95.767 L 188.496 106.799 Z M 122.847 98.18 L 133.879 106.799 L 142.499 95.767 L 131.466 87.148 L 122.847 98.18 Z M 44.311 86.578 L 58.005 89.488 L 60.916 75.794 L 47.222 72.884 L 44.311 86.578 Z M 52.212 49.408 L 65.906 52.319 L 68.816 38.625 L 55.122 35.714 L 52.212 49.408 Z M 67.886 67.052 L 81.58 69.963 L 84.491 56.269 L 70.796 53.358 L 67.886 67.052 Z M 240.796 69.963 L 254.49 67.052 L 251.579 53.358 L 237.885 56.269 L 240.796 69.963 Z M 103.392 82.778 L 117.086 85.689 L 119.997 71.995 L 106.303 69.084 L 103.392 82.778 Z M 256.47 52.319 L 270.164 49.408 L 267.253 35.714 L 253.559 38.625 L 256.47 52.319 Z M 205.29 85.689 L 218.984 82.778 L 216.073 69.084 L 202.379 71.995 L 205.29 85.689 Z M 48.261 67.993 L 61.955 70.904 L 64.866 57.21 L 51.172 54.299 L 48.261 67.993 Z M 63.935 85.637 L 77.629 88.548 L 80.54 74.854 L 66.846 71.943 L 63.935 85.637 Z M 81.273 95.456 L 94.967 98.367 L 97.878 84.673 L 84.183 81.762 L 81.273 95.456 Z M 85.223 76.872 L 98.917 79.782 L 101.828 66.088 L 88.134 63.178 L 85.223 76.872 Z M 99.442 101.363 L 113.136 104.274 L 116.047 90.58 L 102.352 87.669 L 99.442 101.363 Z M 76.847 116.036 L 90.541 118.947 L 93.452 105.253 L 79.758 102.342 L 76.847 116.036 Z M 264.371 89.488 L 278.065 86.578 L 275.154 72.884 L 261.46 75.794 L 264.371 89.488 Z M 260.42 70.904 L 274.114 67.993 L 271.204 54.299 L 257.51 57.21 L 260.42 70.904 Z M 244.746 88.548 L 258.44 85.637 L 255.53 71.943 L 241.836 74.854 L 244.746 88.548 Z M 227.409 98.367 L 241.103 95.456 L 238.192 81.762 L 224.498 84.673 L 227.409 98.367 Z M 223.459 79.782 L 237.153 76.872 L 234.242 63.178 L 220.548 66.088 L 223.459 79.782 Z M 209.24 104.274 L 222.934 101.363 L 220.023 87.669 L 206.329 90.58 L 209.24 104.274 Z M 231.834 118.947 L 245.529 116.036 L 242.618 102.342 L 228.924 105.253 L 231.834 118.947 Z M 71.836 48.468 L 85.53 51.378 L 88.441 37.684 L 74.747 34.774 L 71.836 48.468 Z M 89.173 58.287 L 102.867 61.198 L 105.778 47.504 L 92.084 44.593 L 89.173 58.287 Z M 107.342 64.193 L 121.036 67.104 L 123.947 53.41 L 110.253 50.499 L 107.342 64.193 Z M 236.846 51.378 L 250.54 48.468 L 247.629 34.774 L 233.935 37.684 L 236.846 51.378 Z M 219.508 61.198 L 233.202 58.287 L 230.292 44.593 L 216.598 47.504 L 219.508 61.198 Z M 201.339 67.104 L 215.033 64.193 L 212.123 50.499 L 198.429 53.41 L 201.339 67.104 Z M 58.662 19.061 L 72.356 21.972 L 75.267 8.278 L 61.573 5.367 L 58.662 19.061 Z M 78.286 18.121 L 91.981 21.031 L 94.891 7.337 L 81.197 4.427 L 78.286 18.121 Z M 95.624 27.94 L 109.318 30.851 L 112.229 17.156 L 98.535 14.246 L 95.624 27.94 Z M 113.793 33.846 L 127.487 36.757 L 130.398 23.063 L 116.704 20.152 L 113.793 33.846 Z M 250.02 21.972 L 263.714 19.061 L 260.803 5.367 L 247.109 8.278 L 250.02 21.972 Z M 230.395 21.031 L 244.089 18.121 L 241.179 4.427 L 227.484 7.337 L 230.395 21.031 Z M 213.058 30.851 L 226.752 27.94 L 223.841 14.246 L 210.147 17.156 L 213.058 30.851 Z M 194.889 36.757 L 208.583 33.846 L 205.672 20.152 L 191.978 23.063 L 194.889 36.757 Z M 103.468 122.777 L 115.341 130.196 L 122.76 118.323 L 110.887 110.904 L 103.468 122.777 Z M 207.035 130.196 L 218.908 122.777 L 211.489 110.904 L 199.616 118.323 L 207.035 130.196 Z M 26.785 74.164 L 40.572 76.595 L 43.003 62.808 L 29.216 60.376 L 26.785 74.164 Z M 300.524 73.345 L 314.311 70.914 L 311.88 57.126 L 298.093 59.557 L 300.524 73.345 Z M 281.804 76.595 L 295.591 74.164 L 293.16 60.376 L 279.373 62.808 L 281.804 76.595 Z M 278.505 57.884 L 292.292 55.452 L 289.861 41.665 L 276.073 44.096 L 278.505 57.884 Z M 4.765 89.625 L 18.553 92.056 L 20.984 78.269 L 7.196 75.838 L 4.765 89.625 Z M 8.065 70.914 L 21.852 73.345 L 24.283 59.557 L 10.496 57.126 L 8.065 70.914 Z M 23.485 92.875 L 37.273 95.306 L 39.704 81.519 L 25.916 79.088 L 23.485 92.875 Z M 30.084 55.452 L 43.871 57.884 L 46.302 44.096 L 32.515 41.665 L 30.084 55.452 Z M 303.823 92.056 L 317.611 89.625 L 315.179 75.838 L 301.392 78.269 L 303.823 92.056 Z M 285.103 95.306 L 298.89 92.875 L 296.459 79.088 L 282.672 81.519 L 285.103 95.306 Z M 13.452 40.36 L 27.239 42.791 L 29.67 29.004 L 15.883 26.573 L 13.452 40.36 Z M 35.471 24.899 L 49.259 27.33 L 51.69 13.543 L 37.902 11.111 L 35.471 24.899 Z M 295.136 42.791 L 308.924 40.36 L 306.493 26.573 L 292.705 29.004 L 295.136 42.791 Z M 273.117 27.33 L 286.904 24.899 L 284.473 11.111 L 270.686 13.543 L 273.117 27.33 Z M 185.448 133.308 L 194.447 122.583 L 191.383 120.012 L 182.384 130.737 L 185.448 133.308 Z M 127.929 122.583 L 136.928 133.308 L 139.992 130.737 L 130.993 120.012 L 127.929 122.583 Z M 93.264 39.042 L 106.958 41.953 L 107.79 38.04 L 94.096 35.129 L 93.264 39.042 Z M 111.433 44.948 L 125.127 47.859 L 125.959 43.947 L 112.265 41.036 L 111.433 44.948 Z M 252.379 33.074 L 266.073 30.163 L 265.242 26.25 L 251.548 29.161 L 252.379 33.074 Z M 75.927 29.223 L 89.621 32.133 L 90.452 28.221 L 76.758 25.31 L 75.927 29.223 Z M 56.302 30.163 L 69.996 33.074 L 70.828 29.161 L 57.134 26.25 L 56.302 30.163 Z M 232.755 32.133 L 246.449 29.223 L 245.617 25.31 L 231.923 28.221 L 232.755 32.133 Z M 215.418 41.953 L 229.112 39.042 L 228.28 35.129 L 214.586 38.04 L 215.418 41.953 Z M 197.249 47.859 L 210.943 44.948 L 210.111 41.036 L 196.417 43.947 L 197.249 47.859 Z M 275.088 38.507 L 288.875 36.076 L 288.181 32.137 L 274.393 34.568 L 275.088 38.507 Z M 33.5 36.076 L 47.288 38.507 L 47.982 34.568 L 34.195 32.137 L 33.5 36.076 Z M 297.107 53.969 L 310.895 51.538 L 310.2 47.598 L 296.413 50.029 L 297.107 53.969 Z M 11.481 51.538 L 25.268 53.969 L 25.963 50.029 L 12.176 47.598 L 11.481 51.538 Z M 115.859 107.124 L 126.892 115.743 L 129.354 112.591 L 118.322 103.972 L 115.859 107.124 Z M 195.484 115.743 L 206.516 107.124 L 204.054 103.972 L 193.022 112.591 L 195.484 115.743 Z" vector-effect="non-scaling-stroke"/></g></svg>