<svg width="329.853mm" height="168.859mm" viewBox="0 0 329.853 168.859" xmlns="http://www.w3.org/2000/svg"><g id="svgGroup" stroke-linecap="round" fill-rule="evenodd" font-size="9pt" stroke="#000" stroke-width="0.25mm" fill="none" style="stroke:#000;stroke-width:0.25mm;fill:none"><path d="M 0.046 70.841 L 11.56 5.541 A 3 3 0 0 1 15.035 3.108 L 30.166 5.776 A 3 3 0 0 0 31.409 5.734 L 54.206 0.088 A 3 3 0 0 1 54.927 0 L 274.926 0 A 3 3 0 0 1 275.647 0.088 L 298.444 5.734 A 3 3 0 0 0 299.686 5.776 L 314.818 3.108 A 3 3 0 0 1 318.293 5.541 L 329.807 70.841 A 3 3 0 0 1 329.31 73.083 L 315.113 93.359 A 3 3 0 0 1 313.803 94.41 L 256.996 117.925 A 3 3 0 0 0 256.464 118.212 L 240.331 129.118 A 3 3 0 0 1 239.918 129.352 L 219.686 138.786 A 3 3 0 0 0 218.889 139.329 L 188.625 168.036 A 3 3 0 0 1 186.56 168.859 L 143.293 168.859 A 3 3 0 0 1 141.228 168.036 L 110.964 139.329 A 3 3 0 0 0 110.167 138.786 L 89.935 129.352 A 3 3 0 0 1 89.522 129.118 L 73.389 118.212 A 3 3 0 0 0 72.856 117.925 L 16.05 94.41 A 3 3 0 0 1 14.74 93.359 L 0.543 73.083 A 3 3 0 0 1 0.046 70.841 Z M 118.612 129.915 L 130.08 137.945 L 138.11 126.477 L 126.642 118.446 L 118.612 129.915 Z M 136.127 145.086 L 147.595 153.116 L 155.625 141.648 L 144.157 133.618 L 136.127 145.086 Z M 182.257 153.116 L 193.725 145.086 L 185.695 133.618 L 174.227 141.648 L 182.257 153.116 Z M 199.773 137.945 L 211.241 129.915 L 203.211 118.446 L 191.743 126.477 L 199.773 137.945 Z M 92.622 25.47 L 106.316 28.381 L 109.227 14.687 L 95.533 11.776 L 92.622 25.47 Z M 223.536 28.381 L 237.23 25.47 L 234.32 11.776 L 220.626 14.687 L 223.536 28.381 Z M 41.31 84.108 L 55.004 87.019 L 57.914 73.324 L 44.22 70.414 L 41.31 84.108 Z M 68.835 45.998 L 82.529 48.909 L 85.439 35.214 L 71.745 32.304 L 68.835 45.998 Z M 247.324 48.909 L 261.018 45.998 L 258.107 32.304 L 244.413 35.214 L 247.324 48.909 Z M 55.661 16.591 L 69.355 19.502 L 72.265 5.808 L 58.571 2.897 L 55.661 16.591 Z M 110.791 31.377 L 124.485 34.287 L 127.396 20.593 L 113.702 17.683 L 110.791 31.377 Z M 205.367 34.287 L 219.061 31.377 L 216.151 17.683 L 202.457 20.593 L 205.367 34.287 Z M 49.21 46.938 L 62.904 49.849 L 65.815 36.155 L 52.121 33.244 L 49.21 46.938 Z M 86.172 55.817 L 99.866 58.728 L 102.777 45.034 L 89.083 42.123 L 86.172 55.817 Z M 266.949 49.849 L 280.643 46.938 L 277.732 33.244 L 264.038 36.155 L 266.949 49.849 Z M 229.987 58.728 L 243.681 55.817 L 240.77 42.123 L 227.076 45.034 L 229.987 58.728 Z M 45.26 65.523 L 58.954 68.434 L 61.865 54.74 L 48.171 51.829 L 45.26 65.523 Z M 60.934 83.167 L 74.628 86.078 L 77.539 72.384 L 63.845 69.473 L 60.934 83.167 Z M 64.884 64.583 L 78.578 67.493 L 81.489 53.799 L 67.795 50.889 L 64.884 64.583 Z M 78.271 92.987 L 91.965 95.897 L 94.876 82.203 L 81.182 79.293 L 78.271 92.987 Z M 82.222 74.402 L 95.916 77.313 L 98.826 63.618 L 85.132 60.708 L 82.222 74.402 Z M 96.44 98.893 L 110.134 101.804 L 113.045 88.11 L 99.351 85.199 L 96.44 98.893 Z M 100.391 80.308 L 114.085 83.219 L 116.995 69.525 L 103.301 66.614 L 100.391 80.308 Z M 104.341 61.724 L 118.035 64.634 L 120.946 50.94 L 107.252 48.03 L 104.341 61.724 Z M 274.849 87.019 L 288.543 84.108 L 285.632 70.414 L 271.938 73.324 L 274.849 87.019 Z M 270.899 68.434 L 284.593 65.523 L 281.682 51.829 L 267.988 54.74 L 270.899 68.434 Z M 255.225 86.078 L 268.919 83.167 L 266.008 69.473 L 252.314 72.384 L 255.225 86.078 Z M 251.275 67.493 L 264.969 64.583 L 262.058 50.889 L 248.364 53.799 L 251.275 67.493 Z M 237.887 95.897 L 251.582 92.987 L 248.671 79.293 L 234.977 82.203 L 237.887 95.897 Z M 233.937 77.313 L 247.631 74.402 L 244.72 60.708 L 231.026 63.618 L 233.937 77.313 Z M 219.719 101.804 L 233.413 98.893 L 230.502 85.199 L 216.808 88.11 L 219.719 101.804 Z M 215.768 83.219 L 229.462 80.308 L 226.551 66.614 L 212.857 69.525 L 215.768 83.219 Z M 211.818 64.634 L 225.512 61.724 L 222.601 48.03 L 208.907 50.94 L 211.818 64.634 Z M 237.655 117.467 L 251.349 114.556 L 248.438 100.862 L 234.744 103.773 L 237.655 117.467 Z M 78.504 114.556 L 92.198 117.467 L 95.109 103.773 L 81.415 100.862 L 78.504 114.556 Z M 75.285 15.651 L 88.979 18.562 L 91.89 4.867 L 78.196 1.957 L 75.285 15.651 Z M 260.498 19.502 L 274.192 16.591 L 271.281 2.897 L 257.587 5.808 L 260.498 19.502 Z M 240.874 18.562 L 254.568 15.651 L 251.657 1.957 L 237.963 4.867 L 240.874 18.562 Z M 116.397 105.899 L 128.397 113.11 L 135.608 101.109 L 123.607 93.899 L 116.397 105.899 Z M 201.456 113.11 L 213.456 105.899 L 206.245 93.899 L 194.245 101.109 L 201.456 113.11 Z M 307.694 52.114 L 321.482 49.683 L 319.051 35.896 L 305.263 38.327 L 307.694 52.114 Z M 288.983 55.414 L 302.77 52.983 L 300.339 39.195 L 286.552 41.626 L 288.983 55.414 Z M 5.072 68.395 L 18.859 70.826 L 21.29 57.038 L 7.503 54.607 L 5.072 68.395 Z M 8.371 49.683 L 22.158 52.114 L 24.59 38.327 L 10.802 35.896 L 8.371 49.683 Z M 20.484 90.405 L 34.271 92.836 L 36.702 79.049 L 22.915 76.618 L 20.484 90.405 Z M 23.783 71.694 L 37.57 74.125 L 40.002 60.338 L 26.214 57.907 L 23.783 71.694 Z M 27.082 52.983 L 40.87 55.414 L 43.301 41.626 L 29.514 39.195 L 27.082 52.983 Z M 310.994 70.826 L 324.781 68.395 L 322.35 54.607 L 308.563 57.038 L 310.994 70.826 Z M 295.582 92.836 L 309.369 90.405 L 306.938 76.618 L 293.151 79.049 L 295.582 92.836 Z M 292.282 74.125 L 306.07 71.694 L 303.639 57.907 L 289.851 60.338 L 292.282 74.125 Z M 13.759 19.13 L 27.546 21.561 L 29.977 7.773 L 16.19 5.342 L 13.759 19.13 Z M 32.47 22.429 L 46.257 24.86 L 48.688 11.073 L 34.901 8.642 L 32.47 22.429 Z M 302.307 21.561 L 316.094 19.13 L 313.663 5.342 L 299.876 7.773 L 302.307 21.561 Z M 283.596 24.86 L 297.383 22.429 L 294.952 8.642 L 281.165 11.073 L 283.596 24.86 Z M 218.997 127.757 L 231.685 121.84 L 225.768 109.152 L 213.08 115.068 L 218.997 127.757 Z M 98.168 121.84 L 110.856 127.757 L 116.773 115.068 L 104.085 109.152 L 98.168 121.84 Z M 72.925 26.753 L 86.619 29.663 L 87.451 25.751 L 73.757 22.84 L 72.925 26.753 Z M 53.301 27.693 L 66.995 30.604 L 67.827 26.691 L 54.132 23.781 L 53.301 27.693 Z M 90.263 36.572 L 103.957 39.483 L 104.788 35.57 L 91.094 32.659 L 90.263 36.572 Z M 108.432 42.479 L 122.126 45.389 L 122.957 41.477 L 109.263 38.566 L 108.432 42.479 Z M 262.858 30.604 L 276.552 27.693 L 275.72 23.781 L 262.026 26.691 L 262.858 30.604 Z M 243.234 29.663 L 256.928 26.753 L 256.096 22.84 L 242.402 25.751 L 243.234 29.663 Z M 225.896 39.483 L 239.59 36.572 L 238.759 32.659 L 225.065 35.57 L 225.896 39.483 Z M 207.727 45.389 L 221.421 42.479 L 220.59 38.566 L 206.896 41.477 L 207.727 45.389 Z M 30.499 33.607 L 44.286 36.038 L 44.981 32.098 L 31.194 29.667 L 30.499 33.607 Z M 304.278 32.738 L 318.065 30.307 L 317.371 26.368 L 303.583 28.799 L 304.278 32.738 Z M 285.566 36.038 L 299.354 33.607 L 298.659 29.667 L 284.872 32.098 L 285.566 36.038 Z M 11.788 30.307 L 25.575 32.738 L 26.27 28.799 L 12.482 26.368 L 11.788 30.307 Z" vector-effect="non-scaling-stroke"/></g></svg>