<svg width="321.124mm" height="157.151mm" viewBox="0 0 321.124 157.151" xmlns="http://www.w3.org/2000/svg"><g id="svgGroup" stroke-linecap="round" fill-rule="evenodd" font-size="9pt" stroke="#000" stroke-width="0.25mm" fill="none" style="stroke:#000;stroke-width:0.25mm;fill:none"><path d="M 0.161 56.867 L 18.902 2.03 A 3 3 0 0 1 22.269 0.047 L 38.433 2.941 A 3 3 0 0 0 38.441 2.942 L 56.89 6.195 A 3 3 0 0 0 57.411 6.241 L 263.713 6.241 A 3 3 0 0 0 264.234 6.195 L 282.683 2.942 A 3 3 0 0 0 282.69 2.941 L 298.854 0.047 A 3 3 0 0 1 302.222 2.03 L 320.962 56.867 A 3 3 0 0 1 320.802 59.189 L 311.097 78.422 A 3 3 0 0 1 309.788 79.74 L 253.305 108.713 A 3 3 0 0 0 253.082 108.84 L 236.429 119.269 A 3 3 0 0 1 236.009 119.488 L 215.459 128.211 A 3 3 0 0 0 214.644 128.725 L 183.351 156.398 A 3 3 0 0 1 181.364 157.151 L 139.76 157.151 A 3 3 0 0 1 137.772 156.398 L 106.479 128.725 A 3 3 0 0 0 105.664 128.211 L 85.115 119.488 A 3 3 0 0 1 84.695 119.269 L 68.042 108.84 A 3 3 0 0 0 67.819 108.713 L 11.335 79.74 A 3 3 0 0 1 10.026 78.422 L 0.322 59.189 A 3 3 0 0 1 0.161 56.867 Z M 215.155 117.164 L 228.042 111.694 L 222.572 98.807 L 209.685 104.277 L 215.155 117.164 Z M 93.081 111.694 L 105.968 117.164 L 111.438 104.277 L 98.551 98.807 L 93.081 111.694 Z M 110.743 95.126 L 122.987 101.914 L 129.775 89.669 L 117.53 82.882 L 110.743 95.126 Z M 198.136 101.914 L 210.381 95.126 L 203.594 82.882 L 191.349 89.669 L 198.136 101.914 Z M 113.794 119.05 L 125.536 126.675 L 133.16 114.934 L 121.419 107.309 L 113.794 119.05 Z M 131.829 133.601 L 143.57 141.226 L 151.195 129.485 L 139.454 121.86 L 131.829 133.601 Z M 195.588 126.675 L 207.329 119.05 L 199.704 107.309 L 187.963 114.934 L 195.588 126.675 Z M 177.554 141.226 L 189.295 133.601 L 181.67 121.86 L 169.929 129.485 L 177.554 141.226 Z M 248.948 27.701 L 262.736 25.27 L 260.305 11.483 L 246.517 13.914 L 248.948 27.701 Z M 211.526 34.3 L 225.313 31.869 L 222.882 18.082 L 209.095 20.513 L 211.526 34.3 Z M 192.814 37.599 L 206.602 35.168 L 204.17 21.381 L 190.383 23.812 L 192.814 37.599 Z M 234.161 107.532 L 247.948 105.101 L 245.517 91.314 L 231.73 93.745 L 234.161 107.532 Z M 230.237 31.001 L 244.024 28.57 L 241.593 14.782 L 227.806 17.213 L 230.237 31.001 Z M 208.793 73.368 L 222.58 70.937 L 220.149 57.15 L 206.362 59.581 L 208.793 73.368 Z M 20.974 18.622 L 34.761 21.054 L 37.192 7.266 L 23.405 4.835 L 20.974 18.622 Z M 34.42 78.923 L 48.207 81.354 L 50.638 67.567 L 36.851 65.136 L 34.42 78.923 Z M 53.131 82.223 L 66.918 84.654 L 69.349 70.866 L 55.562 68.435 L 53.131 82.223 Z M 39.677 21.971 L 53.464 24.402 L 55.895 10.615 L 42.108 8.184 L 39.677 21.971 Z M 42.409 61.039 L 56.196 63.47 L 58.627 49.683 L 44.84 47.252 L 42.409 61.039 Z M 286.362 21.054 L 300.15 18.622 L 297.719 4.835 L 283.931 7.266 L 286.362 21.054 Z M 291.628 78.055 L 305.415 75.624 L 302.984 61.837 L 289.197 64.268 L 291.628 78.055 Z M 272.917 81.354 L 286.704 78.923 L 284.273 65.136 L 270.486 67.567 L 272.917 81.354 Z M 254.205 84.654 L 267.993 82.223 L 265.562 68.435 L 251.774 70.866 L 254.205 84.654 Z M 246.216 66.769 L 260.003 64.338 L 257.572 50.551 L 243.785 52.982 L 246.216 66.769 Z M 235.494 87.953 L 249.281 85.522 L 246.85 71.735 L 233.063 74.166 L 235.494 87.953 Z M 216.783 91.252 L 230.57 88.821 L 228.139 75.034 L 214.352 77.465 L 216.783 91.252 Z M 4.995 54.391 L 18.782 56.822 L 21.213 43.035 L 7.426 40.604 L 4.995 54.391 Z M 12.984 36.507 L 26.772 38.938 L 29.203 25.151 L 15.416 22.719 L 12.984 36.507 Z M 15.708 75.624 L 29.495 78.055 L 31.927 64.268 L 18.139 61.837 L 15.708 75.624 Z M 23.698 57.74 L 37.485 60.171 L 39.916 46.383 L 26.129 43.952 L 23.698 57.74 Z M 31.687 39.855 L 45.474 42.286 L 47.905 28.499 L 34.118 26.068 L 31.687 39.855 Z M 50.398 43.155 L 64.186 45.586 L 66.617 31.798 L 52.83 29.367 L 50.398 43.155 Z M 58.388 25.27 L 72.175 27.701 L 74.606 13.914 L 60.819 11.483 L 58.388 25.27 Z M 61.12 64.338 L 74.908 66.769 L 77.339 52.982 L 63.551 50.551 L 61.12 64.338 Z M 69.11 46.454 L 82.897 48.885 L 85.328 35.098 L 71.541 32.667 L 69.11 46.454 Z M 71.842 85.522 L 85.63 87.953 L 88.061 74.166 L 74.273 71.735 L 71.842 85.522 Z M 90.554 88.821 L 104.341 91.252 L 106.772 77.465 L 92.985 75.034 L 90.554 88.821 Z M 98.543 70.937 L 112.33 73.368 L 114.761 59.581 L 100.974 57.15 L 98.543 70.937 Z M 73.175 105.101 L 86.962 107.532 L 89.394 93.745 L 75.606 91.314 L 73.175 105.101 Z M 302.341 56.822 L 316.129 54.391 L 313.697 40.604 L 299.91 43.035 L 302.341 56.822 Z M 294.352 38.938 L 308.139 36.507 L 305.708 22.719 L 291.921 25.151 L 294.352 38.938 Z M 283.639 60.171 L 297.426 57.74 L 294.995 43.952 L 281.208 46.383 L 283.639 60.171 Z M 275.649 42.286 L 289.436 39.855 L 287.005 26.068 L 273.218 28.499 L 275.649 42.286 Z M 267.66 24.402 L 281.447 21.971 L 279.016 8.184 L 265.229 10.615 L 267.66 24.402 Z M 264.927 63.47 L 278.715 61.039 L 276.283 47.252 L 262.496 49.683 L 264.927 63.47 Z M 256.938 45.586 L 270.725 43.155 L 268.294 29.367 L 254.507 31.798 L 256.938 45.586 Z M 238.226 48.885 L 252.014 46.454 L 249.583 32.667 L 235.795 35.098 L 238.226 48.885 Z M 227.505 70.069 L 241.292 67.638 L 238.861 53.85 L 225.073 56.281 L 227.505 70.069 Z M 219.515 52.184 L 233.302 49.753 L 230.871 35.966 L 217.084 38.397 L 219.515 52.184 Z M 200.804 55.484 L 214.591 53.053 L 212.16 39.265 L 198.373 41.696 L 200.804 55.484 Z M 95.811 31.869 L 109.598 34.3 L 112.029 20.513 L 98.242 18.082 L 95.811 31.869 Z M 106.532 53.053 L 120.32 55.484 L 122.751 41.696 L 108.964 39.265 L 106.532 53.053 Z M 114.522 35.168 L 128.309 37.599 L 130.74 23.812 L 116.953 21.381 L 114.522 35.168 Z M 77.099 28.57 L 90.887 31.001 L 93.318 17.213 L 79.53 14.782 L 77.099 28.57 Z M 79.832 67.638 L 93.619 70.069 L 96.05 56.281 L 82.263 53.85 L 79.832 67.638 Z M 87.821 49.753 L 101.608 52.184 L 104.04 38.397 L 90.252 35.966 L 87.821 49.753 Z" vector-effect="non-scaling-stroke"/></g></svg>