<svg width="342.458mm" height="117.18mm" viewBox="0 0 342.458 117.18" xmlns="http://www.w3.org/2000/svg"><g id="svgGroup" stroke-linecap="round" fill-rule="evenodd" font-size="9pt" stroke="#000" stroke-width="0.25mm" fill="none" style="stroke:#000;stroke-width:0.25mm;fill:none"><path d="M 39.546 51.804 L 53.24 54.715 L 56.151 41.021 L 42.456 38.11 L 39.546 51.804 Z M 47.446 14.634 L 61.14 17.545 L 64.051 3.851 L 50.357 0.94 L 47.446 14.634 Z M 63.12 32.279 L 76.814 35.19 L 79.725 21.496 L 66.031 18.585 L 63.12 32.279 Z M 265.644 35.19 L 279.338 32.279 L 276.427 18.585 L 262.733 21.496 L 265.644 35.19 Z M 98.627 48.005 L 112.321 50.915 L 115.232 37.221 L 101.537 34.311 L 98.627 48.005 Z M 281.318 17.545 L 295.012 14.634 L 292.101 0.94 L 278.407 3.851 L 281.318 17.545 Z M 230.137 50.915 L 243.831 48.005 L 240.921 34.311 L 227.227 37.221 L 230.137 50.915 Z M 43.496 33.219 L 57.19 36.13 L 60.101 22.436 L 46.407 19.525 L 43.496 33.219 Z M 59.17 50.864 L 72.864 53.774 L 75.775 40.08 L 62.081 37.17 L 59.17 50.864 Z M 76.507 60.683 L 90.201 63.594 L 93.112 49.9 L 79.418 46.989 L 76.507 60.683 Z M 80.458 42.098 L 94.152 45.009 L 97.063 31.315 L 83.369 28.404 L 80.458 42.098 Z M 94.676 66.59 L 108.37 69.5 L 111.281 55.806 L 97.587 52.895 L 94.676 66.59 Z M 109.349 89.184 L 123.043 92.095 L 125.954 78.401 L 112.26 75.49 L 109.349 89.184 Z M 289.218 54.715 L 302.912 51.804 L 300.002 38.11 L 286.308 41.021 L 289.218 54.715 Z M 285.268 36.13 L 298.962 33.219 L 296.051 19.525 L 282.357 22.436 L 285.268 36.13 Z M 269.594 53.774 L 283.288 50.864 L 280.377 37.17 L 266.683 40.08 L 269.594 53.774 Z M 252.257 63.594 L 265.951 60.683 L 263.04 46.989 L 249.346 49.9 L 252.257 63.594 Z M 248.306 45.009 L 262 42.098 L 259.09 28.404 L 245.396 31.315 L 248.306 45.009 Z M 234.088 69.5 L 247.782 66.59 L 244.871 52.895 L 231.177 55.806 L 234.088 69.5 Z M 219.415 92.095 L 233.109 89.184 L 230.198 75.49 L 216.504 78.401 L 219.415 92.095 Z M 67.071 13.694 L 80.765 16.605 L 83.676 2.911 L 69.981 0 L 67.071 13.694 Z M 84.408 23.513 L 98.102 26.424 L 101.013 12.73 L 87.319 9.819 L 84.408 23.513 Z M 102.577 29.42 L 116.271 32.331 L 119.182 18.637 L 105.488 15.726 L 102.577 29.42 Z M 261.693 16.605 L 275.387 13.694 L 272.477 0 L 258.783 2.911 L 261.693 16.605 Z M 244.356 26.424 L 258.05 23.513 L 255.139 9.819 L 241.445 12.73 L 244.356 26.424 Z M 226.187 32.331 L 239.881 29.42 L 236.97 15.726 L 223.276 18.637 L 226.187 32.331 Z M 22.019 39.39 L 35.807 41.821 L 38.238 28.034 L 24.45 25.603 L 22.019 39.39 Z M 325.371 38.571 L 339.159 36.14 L 336.728 22.353 L 322.94 24.784 L 325.371 38.571 Z M 306.651 41.821 L 320.439 39.39 L 318.008 25.603 L 304.22 28.034 L 306.651 41.821 Z M 303.352 23.11 L 317.139 20.679 L 314.708 6.892 L 300.921 9.323 L 303.352 23.11 Z M 0 54.852 L 13.787 57.283 L 16.218 43.495 L 2.431 41.064 L 0 54.852 Z M 3.299 36.14 L 17.087 38.571 L 19.518 24.784 L 5.73 22.353 L 3.299 36.14 Z M 18.72 58.102 L 32.507 60.533 L 34.938 46.745 L 21.151 44.314 L 18.72 58.102 Z M 25.319 20.679 L 39.106 23.11 L 41.537 9.323 L 27.75 6.892 L 25.319 20.679 Z M 328.671 57.283 L 342.458 54.852 L 340.027 41.064 L 326.24 43.495 L 328.671 57.283 Z M 309.951 60.533 L 323.738 58.102 L 321.307 44.314 L 307.52 46.745 L 309.951 60.533 Z M 127.18 108.755 L 138.361 117.18 L 146.786 105.999 L 135.605 97.574 L 127.18 108.755 Z M 204.097 117.18 L 215.278 108.755 L 206.853 97.574 L 195.672 105.999 L 204.097 117.18 Z" vector-effect="non-scaling-stroke"/></g></svg>