<svg width="326.236mm" height="153.343mm" viewBox="0 0 326.236 153.343" xmlns="http://www.w3.org/2000/svg"><g id="svgGroup" stroke-linecap="round" fill-rule="evenodd" font-size="9pt" stroke="#000" stroke-width="0.25mm" fill="none" style="stroke:#000;stroke-width:0.25mm;fill:none"><path d="M 0.046 65.441 L 6.916 26.478 A 3 3 0 0 1 8.153 24.539 L 28.862 10.079 A 3 3 0 0 1 29.442 9.763 L 52.726 0.224 A 3 3 0 0 1 53.863 0 L 272.373 0 A 3 3 0 0 1 273.51 0.224 L 296.794 9.763 A 3 3 0 0 1 297.374 10.079 L 318.083 24.539 A 3 3 0 0 1 319.32 26.478 L 326.19 65.441 A 3 3 0 0 1 325.695 67.68 L 311.539 87.954 A 3 3 0 0 1 310.123 89.049 L 263.131 106.485 A 3 3 0 0 1 262.659 106.618 L 234.245 112.133 L 229.731 100.96 L 216.751 106.205 L 220.244 114.85 L 220.205 114.858 A 3 3 0 0 0 218.271 116.153 L 194.678 151.993 A 3 3 0 0 1 192.172 153.343 L 134.063 153.343 A 3 3 0 0 1 131.558 151.993 L 107.965 116.153 A 3 3 0 0 0 106.031 114.858 L 105.992 114.85 L 109.485 106.205 L 96.505 100.96 L 91.991 112.133 L 63.576 106.618 A 3 3 0 0 1 63.104 106.485 L 16.113 89.049 A 3 3 0 0 1 14.697 87.954 L 0.54 67.68 A 3 3 0 0 1 0.046 65.441 Z M 41.996 74.815 L 55.69 77.726 L 58.601 64.032 L 44.907 61.121 L 41.996 74.815 Z M 53.847 19.061 L 67.541 21.972 L 70.452 8.278 L 56.758 5.367 L 53.847 19.061 Z M 73.471 18.121 L 87.165 21.031 L 90.076 7.337 L 76.382 4.427 L 73.471 18.121 Z M 258.695 21.972 L 272.389 19.061 L 269.478 5.367 L 255.784 8.278 L 258.695 21.972 Z M 239.07 21.031 L 252.764 18.121 L 249.854 4.427 L 236.16 7.337 L 239.07 21.031 Z M 101.077 71.016 L 114.771 73.927 L 117.682 60.233 L 103.988 57.322 L 101.077 71.016 Z M 45.946 56.231 L 59.64 59.141 L 62.551 45.447 L 48.857 42.537 L 45.946 56.231 Z M 49.896 37.646 L 63.591 40.557 L 66.501 26.862 L 52.807 23.952 L 49.896 37.646 Z M 61.62 73.875 L 75.314 76.786 L 78.225 63.092 L 64.531 60.181 L 61.62 73.875 Z M 65.571 55.29 L 79.265 58.201 L 82.175 44.507 L 68.481 41.596 L 65.571 55.29 Z M 69.521 36.705 L 83.215 39.616 L 86.126 25.922 L 72.432 23.011 L 69.521 36.705 Z M 78.958 83.694 L 92.652 86.605 L 95.562 72.911 L 81.868 70 L 78.958 83.694 Z M 82.908 65.109 L 96.602 68.02 L 99.513 54.326 L 85.819 51.415 L 82.908 65.109 Z M 86.858 46.525 L 100.552 49.435 L 103.463 35.741 L 89.769 32.831 L 86.858 46.525 Z M 90.809 27.94 L 104.503 30.851 L 107.413 17.156 L 93.719 14.246 L 90.809 27.94 Z M 105.027 52.431 L 118.721 55.342 L 121.632 41.648 L 107.938 38.737 L 105.027 52.431 Z M 108.977 33.846 L 122.672 36.757 L 125.582 23.063 L 111.888 20.152 L 108.977 33.846 Z M 270.546 77.726 L 284.24 74.815 L 281.329 61.121 L 267.635 64.032 L 270.546 77.726 Z M 266.595 59.141 L 280.289 56.231 L 277.379 42.537 L 263.685 45.447 L 266.595 59.141 Z M 262.645 40.557 L 276.339 37.646 L 273.428 23.952 L 259.734 26.862 L 262.645 40.557 Z M 250.921 76.786 L 264.615 73.875 L 261.705 60.181 L 248.011 63.092 L 250.921 76.786 Z M 246.971 58.201 L 260.665 55.29 L 257.754 41.596 L 244.06 44.507 L 246.971 58.201 Z M 243.021 39.616 L 256.715 36.705 L 253.804 23.011 L 240.11 25.922 L 243.021 39.616 Z M 233.584 86.605 L 247.278 83.694 L 244.367 70 L 230.673 72.911 L 233.584 86.605 Z M 229.634 68.02 L 243.328 65.109 L 240.417 51.415 L 226.723 54.326 L 229.634 68.02 Z M 225.683 49.435 L 239.377 46.525 L 236.467 32.831 L 222.773 35.741 L 225.683 49.435 Z M 221.733 30.851 L 235.427 27.94 L 232.516 14.246 L 218.822 17.156 L 221.733 30.851 Z M 215.415 92.512 L 229.109 89.601 L 226.198 75.907 L 212.504 78.818 L 215.415 92.512 Z M 211.465 73.927 L 225.159 71.016 L 222.248 57.322 L 208.554 60.233 L 211.465 73.927 Z M 207.514 55.342 L 221.208 52.431 L 218.298 38.737 L 204.604 41.648 L 207.514 55.342 Z M 203.564 36.757 L 217.258 33.846 L 214.347 20.152 L 200.653 23.063 L 203.564 36.757 Z M 97.127 89.601 L 110.821 92.512 L 113.731 78.818 L 100.037 75.907 L 97.127 89.601 Z M 68.702 103.086 L 82.396 105.996 L 85.307 92.302 L 71.612 89.392 L 68.702 103.086 Z M 243.84 105.996 L 257.534 103.086 L 254.623 89.392 L 240.929 92.302 L 243.84 105.996 Z M 202.171 124.132 L 212.575 114.764 L 203.207 104.36 L 192.803 113.728 L 202.171 124.132 Z M 117.81 92.932 L 128.214 102.3 L 137.582 91.896 L 127.178 82.528 L 117.81 92.932 Z M 198.022 102.3 L 208.426 92.932 L 199.058 82.528 L 188.654 91.896 L 198.022 102.3 Z M 186.412 138.388 L 196.816 129.02 L 187.448 118.616 L 177.044 127.984 L 186.412 138.388 Z M 113.661 114.764 L 124.065 124.132 L 133.433 113.728 L 123.029 104.36 L 113.661 114.764 Z M 129.419 129.02 L 139.823 138.388 L 149.191 127.984 L 138.787 118.616 L 129.419 129.02 Z M 291.973 87.483 L 305.76 85.052 L 303.329 71.265 L 289.542 73.696 L 291.973 87.483 Z M 282.075 31.349 L 295.862 28.918 L 293.431 15.131 L 279.644 17.562 L 282.075 31.349 Z M 5.072 62.992 L 18.86 65.423 L 21.291 51.636 L 7.503 49.205 L 5.072 62.992 Z M 8.372 44.281 L 22.159 46.712 L 24.59 32.925 L 10.803 30.494 L 8.372 44.281 Z M 20.476 85.052 L 34.263 87.483 L 36.694 73.696 L 22.907 71.265 L 20.476 85.052 Z M 23.775 66.341 L 37.562 68.772 L 39.993 54.985 L 26.206 52.553 L 23.775 66.341 Z M 27.074 47.629 L 40.861 50.061 L 43.293 36.273 L 29.505 33.842 L 27.074 47.629 Z M 30.374 28.918 L 44.161 31.349 L 46.592 17.562 L 32.805 15.131 L 30.374 28.918 Z M 307.376 65.423 L 321.163 62.992 L 318.732 49.205 L 304.945 51.636 L 307.376 65.423 Z M 304.077 46.712 L 317.864 44.281 L 315.433 30.494 L 301.646 32.925 L 304.077 46.712 Z M 288.673 68.772 L 302.461 66.341 L 300.03 52.553 L 286.242 54.985 L 288.673 68.772 Z M 285.374 50.061 L 299.161 47.629 L 296.73 33.842 L 282.943 36.273 L 285.374 50.061 Z" vector-effect="non-scaling-stroke"/></g></svg>