<svg width="321.081mm" height="139.397mm" viewBox="0 0 321.081 139.397" xmlns="http://www.w3.org/2000/svg"><g id="svgGroup" stroke-linecap="round" fill-rule="evenodd" font-size="9pt" stroke="#000" stroke-width="0.25mm" fill="none" style="stroke:#000;stroke-width:0.25mm;fill:none"><path d="M 131.741 131.367 L 143.21 139.397 L 151.24 127.929 L 139.771 119.899 L 131.741 131.367 Z M 195.387 124.226 L 206.855 116.196 L 198.825 104.728 L 187.357 112.758 L 195.387 124.226 Z M 177.871 139.397 L 189.34 131.367 L 181.31 119.899 L 169.841 127.929 L 177.871 139.397 Z M 114.226 116.196 L 125.694 124.226 L 133.724 112.758 L 122.256 104.728 L 114.226 116.196 Z M 36.924 70.389 L 50.618 73.3 L 53.528 59.606 L 39.834 56.695 L 36.924 70.389 Z M 48.775 14.634 L 62.469 17.545 L 65.379 3.851 L 51.685 0.94 L 48.775 14.634 Z M 68.399 13.694 L 82.093 16.605 L 85.004 2.911 L 71.31 0 L 68.399 13.694 Z M 258.612 17.545 L 272.306 14.634 L 269.396 0.94 L 255.702 3.851 L 258.612 17.545 Z M 238.988 16.605 L 252.682 13.694 L 249.771 0 L 236.077 2.911 L 238.988 16.605 Z M 96.005 66.59 L 109.699 69.5 L 112.609 55.806 L 98.915 52.895 L 96.005 66.59 Z M 40.874 51.804 L 54.568 54.715 L 57.479 41.021 L 43.785 38.11 L 40.874 51.804 Z M 44.824 33.219 L 58.518 36.13 L 61.429 22.436 L 47.735 19.525 L 44.824 33.219 Z M 56.548 69.448 L 70.242 72.359 L 73.153 58.665 L 59.459 55.754 L 56.548 69.448 Z M 60.498 50.864 L 74.192 53.774 L 77.103 40.08 L 63.409 37.17 L 60.498 50.864 Z M 64.449 32.279 L 78.143 35.19 L 81.053 21.496 L 67.359 18.585 L 64.449 32.279 Z M 73.885 79.268 L 87.579 82.178 L 90.49 68.484 L 76.796 65.574 L 73.885 79.268 Z M 77.836 60.683 L 91.53 63.594 L 94.44 49.9 L 80.746 46.989 L 77.836 60.683 Z M 81.786 42.098 L 95.48 45.009 L 98.391 31.315 L 84.697 28.404 L 81.786 42.098 Z M 85.736 23.513 L 99.43 26.424 L 102.341 12.73 L 88.647 9.819 L 85.736 23.513 Z M 99.955 48.005 L 113.649 50.915 L 116.56 37.221 L 102.866 34.311 L 99.955 48.005 Z M 103.905 29.42 L 117.599 32.331 L 120.51 18.637 L 106.816 15.726 L 103.905 29.42 Z M 270.463 73.3 L 284.157 70.389 L 281.247 56.695 L 267.553 59.606 L 270.463 73.3 Z M 266.513 54.715 L 280.207 51.804 L 277.296 38.11 L 263.602 41.021 L 266.513 54.715 Z M 262.563 36.13 L 276.257 33.219 L 273.346 19.525 L 259.652 22.436 L 262.563 36.13 Z M 250.839 72.359 L 264.533 69.448 L 261.622 55.754 L 247.928 58.665 L 250.839 72.359 Z M 246.889 53.774 L 260.583 50.864 L 257.672 37.17 L 243.978 40.08 L 246.889 53.774 Z M 242.938 35.19 L 256.632 32.279 L 253.722 18.585 L 240.028 21.496 L 242.938 35.19 Z M 233.502 82.178 L 247.196 79.268 L 244.285 65.574 L 230.591 68.484 L 233.502 82.178 Z M 229.551 63.594 L 243.245 60.683 L 240.335 46.989 L 226.641 49.9 L 229.551 63.594 Z M 225.601 45.009 L 239.295 42.098 L 236.384 28.404 L 222.69 31.315 L 225.601 45.009 Z M 221.651 26.424 L 235.345 23.513 L 232.434 9.819 L 218.74 12.73 L 221.651 26.424 Z M 215.333 88.085 L 229.027 85.174 L 226.116 71.48 L 212.422 74.391 L 215.333 88.085 Z M 211.382 69.5 L 225.076 66.59 L 222.166 52.895 L 208.472 55.806 L 211.382 69.5 Z M 207.432 50.915 L 221.126 48.005 L 218.215 34.311 L 204.521 37.221 L 207.432 50.915 Z M 203.482 32.331 L 217.176 29.42 L 214.265 15.726 L 200.571 18.637 L 203.482 32.331 Z M 92.054 85.174 L 105.748 88.085 L 108.659 74.391 L 94.965 71.48 L 92.054 85.174 Z M 74.118 100.837 L 87.812 103.748 L 90.723 90.054 L 77.029 87.143 L 74.118 100.837 Z M 233.269 103.748 L 246.963 100.837 L 244.052 87.143 L 230.358 90.054 L 233.269 103.748 Z M 112.011 92.18 L 124.011 99.391 L 131.222 87.39 L 119.222 80.18 L 112.011 92.18 Z M 197.07 99.391 L 209.07 92.18 L 201.859 80.18 L 189.859 87.39 L 197.07 99.391 Z M 300.695 23.574 L 314.482 21.143 L 312.051 7.356 L 298.264 9.787 L 300.695 23.574 Z M 291.89 83.057 L 305.678 80.626 L 303.247 66.838 L 289.459 69.269 L 291.89 83.057 Z M 281.992 26.923 L 295.78 24.492 L 293.349 10.704 L 279.561 13.135 L 281.992 26.923 Z M 0 58.566 L 13.787 60.997 L 16.218 47.21 L 2.431 44.778 L 0 58.566 Z M 3.299 39.854 L 17.087 42.285 L 19.518 28.498 L 5.73 26.067 L 3.299 39.854 Z M 6.599 21.143 L 20.386 23.574 L 22.817 9.787 L 9.03 7.356 L 6.599 21.143 Z M 15.403 80.626 L 29.191 83.057 L 31.622 69.269 L 17.834 66.838 L 15.403 80.626 Z M 18.703 61.914 L 32.49 64.345 L 34.921 50.558 L 21.134 48.127 L 18.703 61.914 Z M 22.002 43.203 L 35.789 45.634 L 38.22 31.847 L 24.433 29.416 L 22.002 43.203 Z M 25.301 24.492 L 39.089 26.923 L 41.52 13.135 L 27.732 10.704 L 25.301 24.492 Z M 307.294 60.997 L 321.081 58.566 L 318.65 44.778 L 304.863 47.21 L 307.294 60.997 Z M 303.994 42.285 L 317.782 39.854 L 315.351 26.067 L 301.563 28.498 L 303.994 42.285 Z M 288.591 64.345 L 302.378 61.914 L 299.947 48.127 L 286.16 50.558 L 288.591 64.345 Z M 285.292 45.634 L 299.079 43.203 L 296.648 29.416 L 282.861 31.847 L 285.292 45.634 Z M 214.611 114.038 L 227.299 108.121 L 221.382 95.433 L 208.694 101.349 L 214.611 114.038 Z M 93.782 108.121 L 106.47 114.038 L 112.387 101.349 L 99.699 95.433 L 93.782 108.121 Z" vector-effect="non-scaling-stroke"/></g></svg>