<svg width="330.606mm" height="139.397mm" viewBox="0 0 330.606 139.397" xmlns="http://www.w3.org/2000/svg"><g id="svgGroup" stroke-linecap="round" fill-rule="evenodd" font-size="9pt" stroke="#000" stroke-width="0.25mm" fill="none" style="stroke:#000;stroke-width:0.25mm;fill:none"><path d="M 131.741 131.367 L 143.21 139.397 L 151.24 127.929 L 139.771 119.899 L 131.741 131.367 Z M 204.912 124.226 L 216.38 116.196 L 208.35 104.728 L 196.882 112.758 L 204.912 124.226 Z M 187.396 139.397 L 198.865 131.367 L 190.835 119.899 L 179.366 127.929 L 187.396 139.397 Z M 114.226 116.196 L 125.694 124.226 L 133.724 112.758 L 122.256 104.728 L 114.226 116.196 Z M 36.924 70.389 L 50.618 73.3 L 53.528 59.606 L 39.834 56.695 L 36.924 70.389 Z M 48.775 14.634 L 62.469 17.545 L 65.379 3.851 L 51.685 0.94 L 48.775 14.634 Z M 68.399 13.694 L 82.093 16.605 L 85.004 2.911 L 71.31 0 L 68.399 13.694 Z M 268.137 17.545 L 281.831 14.634 L 278.921 0.94 L 265.227 3.851 L 268.137 17.545 Z M 248.513 16.605 L 262.207 13.694 L 259.296 0 L 245.602 2.911 L 248.513 16.605 Z M 96.005 66.59 L 109.699 69.5 L 112.609 55.806 L 98.915 52.895 L 96.005 66.59 Z M 40.874 51.804 L 54.568 54.715 L 57.479 41.021 L 43.785 38.11 L 40.874 51.804 Z M 44.824 33.219 L 58.518 36.13 L 61.429 22.436 L 47.735 19.525 L 44.824 33.219 Z M 56.548 69.448 L 70.242 72.359 L 73.153 58.665 L 59.459 55.754 L 56.548 69.448 Z M 60.498 50.864 L 74.192 53.774 L 77.103 40.08 L 63.409 37.17 L 60.498 50.864 Z M 64.449 32.279 L 78.143 35.19 L 81.053 21.496 L 67.359 18.585 L 64.449 32.279 Z M 73.885 79.268 L 87.579 82.178 L 90.49 68.484 L 76.796 65.574 L 73.885 79.268 Z M 77.836 60.683 L 91.53 63.594 L 94.44 49.9 L 80.746 46.989 L 77.836 60.683 Z M 81.786 42.098 L 95.48 45.009 L 98.391 31.315 L 84.697 28.404 L 81.786 42.098 Z M 85.736 23.513 L 99.43 26.424 L 102.341 12.73 L 88.647 9.819 L 85.736 23.513 Z M 99.955 48.005 L 113.649 50.915 L 116.56 37.221 L 102.866 34.311 L 99.955 48.005 Z M 103.905 29.42 L 117.599 32.331 L 120.51 18.637 L 106.816 15.726 L 103.905 29.42 Z M 279.988 73.3 L 293.682 70.389 L 290.772 56.695 L 277.078 59.606 L 279.988 73.3 Z M 276.038 54.715 L 289.732 51.804 L 286.821 38.11 L 273.127 41.021 L 276.038 54.715 Z M 272.088 36.13 L 285.782 33.219 L 282.871 19.525 L 269.177 22.436 L 272.088 36.13 Z M 260.364 72.359 L 274.058 69.448 L 271.147 55.754 L 257.453 58.665 L 260.364 72.359 Z M 256.414 53.774 L 270.108 50.864 L 267.197 37.17 L 253.503 40.08 L 256.414 53.774 Z M 252.463 35.19 L 266.157 32.279 L 263.247 18.585 L 249.553 21.496 L 252.463 35.19 Z M 243.027 82.178 L 256.721 79.268 L 253.81 65.574 L 240.116 68.484 L 243.027 82.178 Z M 239.076 63.594 L 252.77 60.683 L 249.86 46.989 L 236.166 49.9 L 239.076 63.594 Z M 235.126 45.009 L 248.82 42.098 L 245.909 28.404 L 232.215 31.315 L 235.126 45.009 Z M 231.176 26.424 L 244.87 23.513 L 241.959 9.819 L 228.265 12.73 L 231.176 26.424 Z M 224.858 88.085 L 238.552 85.174 L 235.641 71.48 L 221.947 74.391 L 224.858 88.085 Z M 220.907 69.5 L 234.601 66.59 L 231.691 52.895 L 217.997 55.806 L 220.907 69.5 Z M 216.957 50.915 L 230.651 48.005 L 227.74 34.311 L 214.046 37.221 L 216.957 50.915 Z M 213.007 32.331 L 226.701 29.42 L 223.79 15.726 L 210.096 18.637 L 213.007 32.331 Z M 92.054 85.174 L 105.748 88.085 L 108.659 74.391 L 94.965 71.48 L 92.054 85.174 Z M 74.118 100.837 L 87.812 103.748 L 90.723 90.054 L 77.029 87.143 L 74.118 100.837 Z M 242.794 103.748 L 256.488 100.837 L 253.577 87.143 L 239.883 90.054 L 242.794 103.748 Z M 112.011 92.18 L 124.011 99.391 L 131.222 87.39 L 119.222 80.18 L 112.011 92.18 Z M 206.595 99.391 L 218.595 92.18 L 211.384 80.18 L 199.384 87.39 L 206.595 99.391 Z M 310.22 23.574 L 324.007 21.143 L 321.576 7.356 L 307.789 9.787 L 310.22 23.574 Z M 301.415 83.057 L 315.203 80.626 L 312.772 66.838 L 298.984 69.269 L 301.415 83.057 Z M 291.517 26.923 L 305.305 24.492 L 302.874 10.704 L 289.086 13.135 L 291.517 26.923 Z M 0 58.566 L 13.787 60.997 L 16.218 47.21 L 2.431 44.778 L 0 58.566 Z M 3.299 39.854 L 17.087 42.285 L 19.518 28.498 L 5.73 26.067 L 3.299 39.854 Z M 6.599 21.143 L 20.386 23.574 L 22.817 9.787 L 9.03 7.356 L 6.599 21.143 Z M 15.403 80.626 L 29.191 83.057 L 31.622 69.269 L 17.834 66.838 L 15.403 80.626 Z M 18.703 61.914 L 32.49 64.345 L 34.921 50.558 L 21.134 48.127 L 18.703 61.914 Z M 22.002 43.203 L 35.789 45.634 L 38.22 31.847 L 24.433 29.416 L 22.002 43.203 Z M 25.301 24.492 L 39.089 26.923 L 41.52 13.135 L 27.732 10.704 L 25.301 24.492 Z M 316.819 60.997 L 330.606 58.566 L 328.175 44.778 L 314.388 47.21 L 316.819 60.997 Z M 313.519 42.285 L 327.307 39.854 L 324.876 26.067 L 311.088 28.498 L 313.519 42.285 Z M 298.116 64.345 L 311.903 61.914 L 309.472 48.127 L 295.685 50.558 L 298.116 64.345 Z M 294.817 45.634 L 308.604 43.203 L 306.173 29.416 L 292.386 31.847 L 294.817 45.634 Z M 224.136 114.038 L 236.824 108.121 L 230.907 95.433 L 218.219 101.349 L 224.136 114.038 Z M 93.782 108.121 L 106.47 114.038 L 112.387 101.349 L 99.699 95.433 L 93.782 108.121 Z" vector-effect="non-scaling-stroke"/></g></svg>