<svg width="311.134mm" height="136.391mm" viewBox="0 0 311.134 136.391" xmlns="http://www.w3.org/2000/svg"><g id="svgGroup" stroke-linecap="round" fill-rule="evenodd" font-size="9pt" stroke="#000" stroke-width="0.25mm" fill="none" style="stroke:#000;stroke-width:0.25mm;fill:none"><path d="M 210.16 112.329 L 223.048 106.859 L 217.577 93.972 L 204.69 99.442 L 210.16 112.329 Z M 88.086 106.859 L 100.973 112.329 L 106.443 99.442 L 93.556 93.972 L 88.086 106.859 Z M 105.748 90.291 L 117.992 97.079 L 124.78 84.834 L 112.535 78.047 L 105.748 90.291 Z M 193.141 97.079 L 205.386 90.291 L 198.599 78.047 L 186.354 84.834 L 193.141 97.079 Z M 108.799 114.215 L 120.541 121.84 L 128.166 110.098 L 116.424 102.474 L 108.799 114.215 Z M 126.834 128.766 L 138.575 136.391 L 146.2 124.649 L 134.459 117.025 L 126.834 128.766 Z M 190.593 121.84 L 202.334 114.215 L 194.709 102.474 L 182.968 110.098 L 190.593 121.84 Z M 172.559 136.391 L 184.3 128.766 L 176.675 117.025 L 164.934 124.649 L 172.559 136.391 Z M 243.953 22.866 L 257.741 20.435 L 255.31 6.648 L 241.522 9.079 L 243.953 22.866 Z M 206.531 29.465 L 220.318 27.034 L 217.887 13.247 L 204.1 15.678 L 206.531 29.465 Z M 187.819 32.764 L 201.607 30.333 L 199.176 16.546 L 185.388 18.977 L 187.819 32.764 Z M 229.166 102.697 L 242.953 100.266 L 240.522 86.478 L 226.735 88.91 L 229.166 102.697 Z M 225.242 26.166 L 239.029 23.734 L 236.598 9.947 L 222.811 12.378 L 225.242 26.166 Z M 203.798 68.533 L 217.586 66.102 L 215.154 52.315 L 201.367 54.746 L 203.798 68.533 Z M 15.979 13.787 L 29.766 16.218 L 32.197 2.431 L 18.41 0 L 15.979 13.787 Z M 29.425 74.088 L 43.212 76.519 L 45.643 62.732 L 31.856 60.301 L 29.425 74.088 Z M 48.136 77.388 L 61.923 79.819 L 64.354 66.031 L 50.567 63.6 L 48.136 77.388 Z M 34.682 17.136 L 48.469 19.567 L 50.9 5.78 L 37.113 3.349 L 34.682 17.136 Z M 37.414 56.204 L 51.201 58.635 L 53.632 44.848 L 39.845 42.417 L 37.414 56.204 Z M 281.367 16.218 L 295.155 13.787 L 292.724 0 L 278.936 2.431 L 281.367 16.218 Z M 286.633 73.22 L 300.42 70.789 L 297.989 57.002 L 284.202 59.433 L 286.633 73.22 Z M 267.922 76.519 L 281.709 74.088 L 279.278 60.301 L 265.491 62.732 L 267.922 76.519 Z M 249.21 79.819 L 262.998 77.388 L 260.567 63.6 L 246.779 66.031 L 249.21 79.819 Z M 241.221 61.934 L 255.008 59.503 L 252.577 45.716 L 238.79 48.147 L 241.221 61.934 Z M 230.499 83.118 L 244.286 80.687 L 241.855 66.9 L 228.068 69.331 L 230.499 83.118 Z M 211.788 86.417 L 225.575 83.986 L 223.144 70.199 L 209.357 72.63 L 211.788 86.417 Z M 0 49.556 L 13.787 51.987 L 16.218 38.2 L 2.431 35.769 L 0 49.556 Z M 7.989 31.672 L 21.777 34.103 L 24.208 20.315 L 10.421 17.884 L 7.989 31.672 Z M 10.713 70.789 L 24.501 73.22 L 26.932 59.433 L 13.144 57.002 L 10.713 70.789 Z M 18.703 52.905 L 32.49 55.336 L 34.921 41.548 L 21.134 39.117 L 18.703 52.905 Z M 26.692 35.02 L 40.479 37.451 L 42.911 23.664 L 29.123 21.233 L 26.692 35.02 Z M 45.403 38.32 L 59.191 40.751 L 61.622 26.963 L 47.835 24.532 L 45.403 38.32 Z M 53.393 20.435 L 67.18 22.866 L 69.611 9.079 L 55.824 6.648 L 53.393 20.435 Z M 56.125 59.503 L 69.913 61.934 L 72.344 48.147 L 58.556 45.716 L 56.125 59.503 Z M 64.115 41.619 L 77.902 44.05 L 80.333 30.263 L 66.546 27.832 L 64.115 41.619 Z M 66.847 80.687 L 80.635 83.118 L 83.066 69.331 L 69.278 66.9 L 66.847 80.687 Z M 85.559 83.986 L 99.346 86.417 L 101.777 72.63 L 87.99 70.199 L 85.559 83.986 Z M 93.548 66.102 L 107.335 68.533 L 109.766 54.746 L 95.979 52.315 L 93.548 66.102 Z M 68.18 100.266 L 81.967 102.697 L 84.399 88.91 L 70.611 86.478 L 68.18 100.266 Z M 297.346 51.987 L 311.134 49.556 L 308.702 35.769 L 294.915 38.2 L 297.346 51.987 Z M 289.357 34.103 L 303.144 31.672 L 300.713 17.884 L 286.926 20.315 L 289.357 34.103 Z M 278.644 55.336 L 292.431 52.905 L 290 39.117 L 276.213 41.548 L 278.644 55.336 Z M 270.654 37.451 L 284.441 35.02 L 282.01 21.233 L 268.223 23.664 L 270.654 37.451 Z M 262.665 19.567 L 276.452 17.136 L 274.021 3.349 L 260.234 5.78 L 262.665 19.567 Z M 259.932 58.635 L 273.72 56.204 L 271.288 42.417 L 257.501 44.848 L 259.932 58.635 Z M 251.943 40.751 L 265.73 38.32 L 263.299 24.532 L 249.512 26.963 L 251.943 40.751 Z M 233.231 44.05 L 247.019 41.619 L 244.588 27.832 L 230.8 30.263 L 233.231 44.05 Z M 222.51 65.234 L 236.297 62.803 L 233.866 49.015 L 220.078 51.446 L 222.51 65.234 Z M 214.52 47.349 L 228.307 44.918 L 225.876 31.131 L 212.089 33.562 L 214.52 47.349 Z M 195.809 50.649 L 209.596 48.217 L 207.165 34.43 L 193.378 36.861 L 195.809 50.649 Z M 90.816 27.034 L 104.603 29.465 L 107.034 15.678 L 93.247 13.247 L 90.816 27.034 Z M 101.538 48.217 L 115.325 50.649 L 117.756 36.861 L 103.969 34.43 L 101.538 48.217 Z M 109.527 30.333 L 123.314 32.764 L 125.745 18.977 L 111.958 16.546 L 109.527 30.333 Z M 72.104 23.734 L 85.892 26.166 L 88.323 12.378 L 74.535 9.947 L 72.104 23.734 Z M 74.837 62.803 L 88.624 65.234 L 91.055 51.446 L 77.268 49.015 L 74.837 62.803 Z M 82.826 44.918 L 96.613 47.349 L 99.045 33.562 L 85.257 31.131 L 82.826 44.918 Z" vector-effect="non-scaling-stroke"/></g></svg>