<svg width="320.103mm" height="134.433mm" viewBox="0 0 320.103 134.433" xmlns="http://www.w3.org/2000/svg"><g id="svgGroup" stroke-linecap="round" fill-rule="evenodd" font-size="9pt" stroke="#000" stroke-width="0.25mm" fill="none" style="stroke:#000;stroke-width:0.25mm;fill:none"><path d="M 244.278 53.641 L 258.065 51.21 L 255.634 37.423 L 241.847 39.854 L 244.278 53.641 Z M 240.979 34.93 L 254.766 32.499 L 252.335 18.711 L 238.548 21.142 L 240.979 34.93 Z M 247.577 72.352 L 261.365 69.921 L 258.934 56.134 L 245.146 58.565 L 247.577 72.352 Z M 229.908 81.561 L 243.695 79.13 L 241.264 65.342 L 227.477 67.773 L 229.908 81.561 Z M 42.458 52.835 L 56.246 55.266 L 58.677 41.478 L 44.89 39.047 L 42.458 52.835 Z M 45.758 34.123 L 59.545 36.554 L 61.976 22.767 L 48.189 20.336 L 45.758 34.123 Z M 58.739 69.921 L 72.526 72.352 L 74.957 58.565 L 61.17 56.134 L 58.739 69.921 Z M 28.262 23.93 L 42.049 26.361 L 44.48 12.574 L 30.693 10.143 L 28.262 23.93 Z M 39.159 71.546 L 52.946 73.977 L 55.378 60.19 L 41.59 57.759 L 39.159 71.546 Z M 281.353 45.073 L 295.141 42.642 L 292.71 28.854 L 278.922 31.286 L 281.353 45.073 Z M 278.054 26.361 L 291.841 23.93 L 289.41 10.143 L 275.623 12.574 L 278.054 26.361 Z M 260.558 36.554 L 274.346 34.123 L 271.915 20.336 L 258.127 22.767 L 260.558 36.554 Z M 223.309 44.138 L 237.097 41.707 L 234.666 27.92 L 220.878 30.351 L 223.309 44.138 Z M 220.01 25.427 L 233.797 22.995 L 231.366 9.208 L 217.579 11.639 L 220.01 25.427 Z M 211.544 86.83 L 225.331 84.398 L 222.9 70.611 L 209.113 73.042 L 211.544 86.83 Z M 204.945 49.407 L 218.733 46.976 L 216.301 33.188 L 202.514 35.62 L 204.945 49.407 Z M 201.646 30.695 L 215.433 28.264 L 213.002 14.477 L 199.215 16.908 L 201.646 30.695 Z M 239.481 101.298 L 253.268 98.867 L 250.837 85.08 L 237.05 87.511 L 239.481 101.298 Z M 0 74.796 L 13.787 77.227 L 16.218 63.439 L 2.431 61.008 L 0 74.796 Z M 3.299 56.084 L 17.087 58.515 L 19.518 44.728 L 5.73 42.297 L 3.299 56.084 Z M 18.364 80.064 L 32.151 82.496 L 34.582 68.708 L 20.795 66.277 L 18.364 80.064 Z M 21.663 61.353 L 35.451 63.784 L 37.882 49.997 L 24.094 47.566 L 21.663 61.353 Z M 24.963 42.642 L 38.75 45.073 L 41.181 31.286 L 27.394 28.854 L 24.963 42.642 Z M 49.057 15.412 L 62.844 17.843 L 65.276 4.056 L 51.488 1.625 L 49.057 15.412 Z M 62.038 51.21 L 75.825 53.641 L 78.256 39.854 L 64.469 37.423 L 62.038 51.21 Z M 65.337 32.499 L 79.125 34.93 L 81.556 21.142 L 67.768 18.711 L 65.337 32.499 Z M 68.637 13.787 L 82.424 16.218 L 84.855 2.431 L 71.068 0 L 68.637 13.787 Z M 83.007 41.707 L 96.794 44.138 L 99.225 30.351 L 85.438 27.92 L 83.007 41.707 Z M 86.306 22.995 L 100.093 25.427 L 102.525 11.639 L 88.737 9.208 L 86.306 22.995 Z M 94.772 84.398 L 108.56 86.83 L 110.991 73.042 L 97.203 70.611 L 94.772 84.398 Z M 101.371 46.976 L 115.158 49.407 L 117.589 35.62 L 103.802 33.188 L 101.371 46.976 Z M 104.67 28.264 L 118.458 30.695 L 120.889 16.908 L 107.101 14.477 L 104.67 28.264 Z M 66.835 98.867 L 80.623 101.298 L 83.054 87.511 L 69.266 85.08 L 66.835 98.867 Z M 306.316 77.227 L 320.103 74.796 L 317.672 61.008 L 303.885 63.439 L 306.316 77.227 Z M 303.017 58.515 L 316.804 56.084 L 314.373 42.297 L 300.586 44.728 L 303.017 58.515 Z M 287.952 82.496 L 301.739 80.064 L 299.308 66.277 L 285.521 68.708 L 287.952 82.496 Z M 284.653 63.784 L 298.44 61.353 L 296.009 47.566 L 282.222 49.997 L 284.653 63.784 Z M 267.157 73.977 L 280.944 71.546 L 278.513 57.759 L 264.726 60.19 L 267.157 73.977 Z M 263.858 55.266 L 277.645 52.835 L 275.214 39.047 L 261.427 41.478 L 263.858 55.266 Z M 237.679 16.218 L 251.467 13.787 L 249.036 0 L 235.248 2.431 L 237.679 16.218 Z M 226.609 62.849 L 240.396 60.418 L 237.965 46.631 L 224.178 49.062 L 226.609 62.849 Z M 208.245 68.118 L 222.032 65.687 L 219.601 51.9 L 205.813 54.331 L 208.245 68.118 Z M 76.408 79.13 L 90.196 81.561 L 92.627 67.773 L 78.839 65.342 L 76.408 79.13 Z M 79.708 60.418 L 93.495 62.849 L 95.926 49.062 L 82.139 46.631 L 79.708 60.418 Z M 98.072 65.687 L 111.859 68.118 L 114.29 54.331 L 100.503 51.9 L 98.072 65.687 Z M 257.259 17.843 L 271.046 15.412 L 268.615 1.625 L 254.828 4.056 L 257.259 17.843 Z M 103.537 125.013 L 115.661 132.013 L 122.661 119.889 L 110.537 112.889 L 103.537 125.013 Z M 113.037 108.559 L 125.161 115.559 L 132.161 103.435 L 120.037 96.435 L 113.037 108.559 Z M 204.443 132.013 L 216.567 125.013 L 209.567 112.889 L 197.443 119.889 L 204.443 132.013 Z M 194.943 115.559 L 207.067 108.559 L 200.067 96.435 L 187.943 103.435 L 194.943 115.559 Z M 126.677 127.433 L 138.801 134.433 L 145.801 122.308 L 133.677 115.308 L 126.677 127.433 Z M 181.302 134.433 L 193.426 127.433 L 186.426 115.308 L 174.302 122.308 L 181.302 134.433 Z M 90.586 104.238 L 103.742 109.027 L 108.53 95.871 L 95.374 91.083 L 90.586 104.238 Z M 216.362 109.027 L 229.518 104.238 L 224.729 91.083 L 211.574 95.871 L 216.362 109.027 Z" vector-effect="non-scaling-stroke"/></g></svg>