<svg width="331.225mm" height="159.567mm" viewBox="0 0 331.225 159.567" xmlns="http://www.w3.org/2000/svg"><g id="svgGroup" stroke-linecap="round" fill-rule="evenodd" font-size="9pt" stroke="#000" stroke-width="0.25mm" fill="none" style="stroke:#000;stroke-width:0.25mm;fill:none"><path d="M 0.046 65.441 L 9.909 9.502 A 3 3 0 0 1 13.392 7.07 L 28.275 9.735 A 3 3 0 0 0 29.941 9.558 L 52.726 0.224 A 3 3 0 0 1 53.863 0 L 277.362 0 A 3 3 0 0 1 278.5 0.224 L 301.284 9.558 A 3 3 0 0 0 302.95 9.735 L 317.833 7.07 A 3 3 0 0 1 321.316 9.502 L 331.18 65.441 A 3 3 0 0 1 330.685 67.68 L 316.553 87.919 A 3 3 0 0 1 315.064 89.04 L 257.78 108.62 A 3 3 0 0 0 257.07 108.973 L 241.017 119.826 A 3 3 0 0 1 240.605 120.059 L 220.372 129.494 A 3 3 0 0 0 219.575 130.036 L 189.311 158.743 A 3 3 0 0 1 187.246 159.567 L 143.979 159.567 A 3 3 0 0 1 141.914 158.743 L 111.65 130.036 A 3 3 0 0 0 110.853 129.494 L 90.621 120.059 A 3 3 0 0 1 90.209 119.826 L 74.155 108.973 A 3 3 0 0 0 73.445 108.62 L 16.162 89.04 A 3 3 0 0 1 14.672 87.919 L 0.54 67.68 A 3 3 0 0 1 0.046 65.441 Z M 136.814 135.794 L 148.282 143.824 L 156.312 132.356 L 144.844 124.326 L 136.814 135.794 Z M 200.459 128.652 L 211.927 120.622 L 203.897 109.154 L 192.429 117.184 L 200.459 128.652 Z M 182.944 143.824 L 194.412 135.794 L 186.382 124.326 L 174.914 132.356 L 182.944 143.824 Z M 119.298 120.622 L 130.766 128.652 L 138.796 117.184 L 127.328 109.154 L 119.298 120.622 Z M 41.996 74.815 L 55.69 77.726 L 58.601 64.032 L 44.907 61.121 L 41.996 74.815 Z M 53.847 19.061 L 67.541 21.972 L 70.452 8.278 L 56.758 5.367 L 53.847 19.061 Z M 73.471 18.121 L 87.165 21.031 L 90.076 7.337 L 76.382 4.427 L 73.471 18.121 Z M 263.685 21.972 L 277.379 19.061 L 274.468 5.367 L 260.774 8.278 L 263.685 21.972 Z M 244.06 21.031 L 257.754 18.121 L 254.843 4.427 L 241.149 7.337 L 244.06 21.031 Z M 101.077 71.016 L 114.771 73.927 L 117.682 60.233 L 103.988 57.322 L 101.077 71.016 Z M 45.946 56.231 L 59.64 59.141 L 62.551 45.447 L 48.857 42.537 L 45.946 56.231 Z M 49.896 37.646 L 63.591 40.557 L 66.501 26.862 L 52.807 23.952 L 49.896 37.646 Z M 61.62 73.875 L 75.314 76.786 L 78.225 63.092 L 64.531 60.181 L 61.62 73.875 Z M 65.571 55.29 L 79.265 58.201 L 82.175 44.507 L 68.481 41.596 L 65.571 55.29 Z M 69.521 36.705 L 83.215 39.616 L 86.126 25.922 L 72.432 23.011 L 69.521 36.705 Z M 78.958 83.694 L 92.652 86.605 L 95.562 72.911 L 81.868 70 L 78.958 83.694 Z M 82.908 65.109 L 96.602 68.02 L 99.513 54.326 L 85.819 51.415 L 82.908 65.109 Z M 86.858 46.525 L 100.552 49.435 L 103.463 35.741 L 89.769 32.831 L 86.858 46.525 Z M 90.809 27.94 L 104.503 30.851 L 107.413 17.156 L 93.719 14.246 L 90.809 27.94 Z M 105.027 52.431 L 118.721 55.342 L 121.632 41.648 L 107.938 38.737 L 105.027 52.431 Z M 108.977 33.846 L 122.672 36.757 L 125.582 23.063 L 111.888 20.152 L 108.977 33.846 Z M 275.536 77.726 L 289.23 74.815 L 286.319 61.121 L 272.625 64.032 L 275.536 77.726 Z M 271.585 59.141 L 285.279 56.231 L 282.368 42.537 L 268.674 45.447 L 271.585 59.141 Z M 267.635 40.557 L 281.329 37.646 L 278.418 23.952 L 264.724 26.862 L 267.635 40.557 Z M 255.911 76.786 L 269.605 73.875 L 266.694 60.181 L 253 63.092 L 255.911 76.786 Z M 251.961 58.201 L 265.655 55.29 L 262.744 41.596 L 249.05 44.507 L 251.961 58.201 Z M 248.011 39.616 L 261.705 36.705 L 258.794 23.011 L 245.1 25.922 L 248.011 39.616 Z M 238.574 86.605 L 252.268 83.694 L 249.357 70 L 235.663 72.911 L 238.574 86.605 Z M 234.623 68.02 L 248.318 65.109 L 245.407 51.415 L 231.713 54.326 L 234.623 68.02 Z M 230.673 49.435 L 244.367 46.525 L 241.456 32.831 L 227.762 35.741 L 230.673 49.435 Z M 226.723 30.851 L 240.417 27.94 L 237.506 14.246 L 223.812 17.156 L 226.723 30.851 Z M 220.405 92.512 L 234.099 89.601 L 231.188 75.907 L 217.494 78.818 L 220.405 92.512 Z M 216.455 73.927 L 230.149 71.016 L 227.238 57.322 L 213.544 60.233 L 216.455 73.927 Z M 212.504 55.342 L 226.198 52.431 L 223.287 38.737 L 209.593 41.648 L 212.504 55.342 Z M 208.554 36.757 L 222.248 33.846 L 219.337 20.152 L 205.643 23.063 L 208.554 36.757 Z M 97.127 89.601 L 110.821 92.512 L 113.731 78.818 L 100.037 75.907 L 97.127 89.601 Z M 79.191 105.264 L 92.885 108.175 L 95.795 94.481 L 82.101 91.57 L 79.191 105.264 Z M 238.341 108.175 L 252.035 105.264 L 249.124 91.57 L 235.43 94.481 L 238.341 108.175 Z M 117.083 96.607 L 129.084 103.817 L 136.294 91.817 L 124.294 84.606 L 117.083 96.607 Z M 202.142 103.817 L 214.142 96.607 L 206.932 84.606 L 194.931 91.817 L 202.142 103.817 Z M 305.767 28.001 L 319.555 25.57 L 317.124 11.782 L 303.336 14.213 L 305.767 28.001 Z M 296.963 87.483 L 310.75 85.052 L 308.319 71.265 L 294.531 73.696 L 296.963 87.483 Z M 287.065 31.349 L 300.852 28.918 L 298.421 15.131 L 284.634 17.562 L 287.065 31.349 Z M 5.072 62.992 L 18.86 65.423 L 21.291 51.636 L 7.503 49.205 L 5.072 62.992 Z M 8.372 44.281 L 22.159 46.712 L 24.59 32.925 L 10.803 30.494 L 8.372 44.281 Z M 11.671 25.57 L 25.458 28.001 L 27.889 14.213 L 14.102 11.782 L 11.671 25.57 Z M 20.476 85.052 L 34.263 87.483 L 36.694 73.696 L 22.907 71.265 L 20.476 85.052 Z M 23.775 66.341 L 37.562 68.772 L 39.993 54.985 L 26.206 52.553 L 23.775 66.341 Z M 27.074 47.629 L 40.861 50.061 L 43.293 36.273 L 29.505 33.842 L 27.074 47.629 Z M 30.374 28.918 L 44.161 31.349 L 46.592 17.562 L 32.805 15.131 L 30.374 28.918 Z M 312.366 65.423 L 326.153 62.992 L 323.722 49.205 L 309.935 51.636 L 312.366 65.423 Z M 309.067 46.712 L 322.854 44.281 L 320.423 30.494 L 306.636 32.925 L 309.067 46.712 Z M 293.663 68.772 L 307.451 66.341 L 305.019 52.553 L 291.232 54.985 L 293.663 68.772 Z M 290.364 50.061 L 304.151 47.629 L 301.72 33.842 L 287.933 36.273 L 290.364 50.061 Z M 219.683 118.464 L 232.371 112.548 L 226.455 99.859 L 213.766 105.776 L 219.683 118.464 Z M 98.854 112.548 L 111.543 118.464 L 117.459 105.776 L 104.771 99.859 L 98.854 112.548 Z" vector-effect="non-scaling-stroke"/></g></svg>