<svg width="312.845mm" height="117.457mm" viewBox="0 0 312.845 117.457" xmlns="http://www.w3.org/2000/svg"><g id="svgGroup" stroke-linecap="round" fill-rule="evenodd" font-size="9pt" stroke="#000" stroke-width="0.25mm" fill="none" style="stroke:#000;stroke-width:0.25mm;fill:none"><path d="M 115.43 106.733 L 124.429 117.457 L 135.154 108.458 L 126.155 97.734 L 115.43 106.733 Z M 188.416 117.457 L 197.415 106.733 L 186.69 97.734 L 177.691 108.458 L 188.416 117.457 Z M 39.546 51.804 L 53.24 54.715 L 56.151 41.021 L 42.456 38.11 L 39.546 51.804 Z M 47.446 14.634 L 61.14 17.545 L 64.051 3.851 L 50.357 0.94 L 47.446 14.634 Z M 63.12 32.279 L 76.814 35.19 L 79.725 21.496 L 66.031 18.585 L 63.12 32.279 Z M 236.031 35.19 L 249.725 32.279 L 246.814 18.585 L 233.12 21.496 L 236.031 35.19 Z M 98.627 48.005 L 112.321 50.915 L 115.232 37.221 L 101.537 34.311 L 98.627 48.005 Z M 251.705 17.545 L 265.399 14.634 L 262.488 0.94 L 248.794 3.851 L 251.705 17.545 Z M 200.524 50.915 L 214.219 48.005 L 211.308 34.311 L 197.614 37.221 L 200.524 50.915 Z M 43.496 33.219 L 57.19 36.13 L 60.101 22.436 L 46.407 19.525 L 43.496 33.219 Z M 59.17 50.864 L 72.864 53.774 L 75.775 40.08 L 62.081 37.17 L 59.17 50.864 Z M 76.507 60.683 L 90.201 63.594 L 93.112 49.9 L 79.418 46.989 L 76.507 60.683 Z M 80.458 42.098 L 94.152 45.009 L 97.063 31.315 L 83.369 28.404 L 80.458 42.098 Z M 94.676 66.59 L 108.37 69.5 L 111.281 55.806 L 97.587 52.895 L 94.676 66.59 Z M 72.082 81.262 L 85.776 84.173 L 88.687 70.479 L 74.993 67.568 L 72.082 81.262 Z M 259.605 54.715 L 273.3 51.804 L 270.389 38.11 L 256.695 41.021 L 259.605 54.715 Z M 255.655 36.13 L 269.349 33.219 L 266.438 19.525 L 252.744 22.436 L 255.655 36.13 Z M 239.981 53.774 L 253.675 50.864 L 250.764 37.17 L 237.07 40.08 L 239.981 53.774 Z M 222.644 63.594 L 236.338 60.683 L 233.427 46.989 L 219.733 49.9 L 222.644 63.594 Z M 218.693 45.009 L 232.387 42.098 L 229.477 28.404 L 215.783 31.315 L 218.693 45.009 Z M 204.475 69.5 L 218.169 66.59 L 215.258 52.895 L 201.564 55.806 L 204.475 69.5 Z M 227.069 84.173 L 240.763 81.262 L 237.852 67.568 L 224.158 70.479 L 227.069 84.173 Z M 67.071 13.694 L 80.765 16.605 L 83.676 2.911 L 69.981 0 L 67.071 13.694 Z M 84.408 23.513 L 98.102 26.424 L 101.013 12.73 L 87.319 9.819 L 84.408 23.513 Z M 102.577 29.42 L 116.271 32.331 L 119.182 18.637 L 105.488 15.726 L 102.577 29.42 Z M 232.08 16.605 L 245.775 13.694 L 242.864 0 L 229.17 2.911 L 232.08 16.605 Z M 214.743 26.424 L 228.437 23.513 L 225.526 9.819 L 211.832 12.73 L 214.743 26.424 Z M 196.574 32.331 L 210.268 29.42 L 207.357 15.726 L 193.663 18.637 L 196.574 32.331 Z M 98.703 88.003 L 110.575 95.422 L 117.994 83.55 L 106.122 76.131 L 98.703 88.003 Z M 202.27 95.422 L 214.142 88.003 L 206.724 76.131 L 194.851 83.55 L 202.27 95.422 Z M 22.019 39.39 L 35.807 41.821 L 38.238 28.034 L 24.45 25.603 L 22.019 39.39 Z M 295.759 38.571 L 309.546 36.14 L 307.115 22.353 L 293.328 24.784 L 295.759 38.571 Z M 277.039 41.821 L 290.826 39.39 L 288.395 25.603 L 274.608 28.034 L 277.039 41.821 Z M 273.739 23.11 L 287.527 20.679 L 285.095 6.892 L 271.308 9.323 L 273.739 23.11 Z M 0 54.852 L 13.787 57.283 L 16.218 43.495 L 2.431 41.064 L 0 54.852 Z M 3.299 36.14 L 17.087 38.571 L 19.518 24.784 L 5.73 22.353 L 3.299 36.14 Z M 18.72 58.102 L 32.507 60.533 L 34.938 46.745 L 21.151 44.314 L 18.72 58.102 Z M 25.319 20.679 L 39.106 23.11 L 41.537 9.323 L 27.75 6.892 L 25.319 20.679 Z M 299.058 57.283 L 312.845 54.852 L 310.414 41.064 L 296.627 43.495 L 299.058 57.283 Z M 280.338 60.533 L 294.125 58.102 L 291.694 44.314 L 277.907 46.745 L 280.338 60.533 Z" vector-effect="non-scaling-stroke"/></g></svg>