0
SECTION
2
HEADER
9
$INSUNITS
70
4
0
ENDSEC
0
SECTION
2
TABLES
0
TABLE
2
LTYPE
0
LTYPE
72
65
70
64
2
CONTINUOUS
3
______
73
0
40
0
0
ENDTAB
0
TABLE
2
LAYER
0
ENDTAB
0
ENDSEC
0
SECTION
2
ENTITIES
0
LINE
8
0
10
-4.8098761
20
13.0332303
11
8.9774324
21
10.6021558
0
LINE
8
0
10
8.9774324
20
10.6021558
11
11.4085069
21
24.3894643
0
LINE
8
0
10
11.4085069
20
24.3894643
11
-2.3788016
21
26.8205388
0
LINE
8
0
10
-2.3788016
20
26.8205388
11
-4.8098761
21
13.0332303
0
LINE
8
0
10
-1.5105607
20
31.7445776
11
12.2767478
21
29.3135031
0
LINE
8
0
10
12.2767478
20
29.3135031
11
14.7078223
21
43.1008116
0
LINE
8
0
10
14.7078223
20
43.1008116
11
0.9205138
21
45.5318861
0
LINE
8
0
10
0.9205138
20
45.5318861
11
-1.5105607
21
31.7445776
0
LINE
8
0
10
13.9101536
20
9.7831553
11
27.6974621
21
7.3520808
0
LINE
8
0
10
27.6974621
20
7.3520808
11
30.1285366
21
21.1393893
0
LINE
8
0
10
30.1285366
20
21.1393893
11
16.3412281
21
23.5704638
0
LINE
8
0
10
16.3412281
20
23.5704638
11
13.9101536
21
9.7831553
0
LINE
8
0
10
17.209469
20
28.4945026
11
30.9967775
21
26.0634281
0
LINE
8
0
10
30.9967775
20
26.0634281
11
33.427852
21
39.8507366
0
LINE
8
0
10
33.427852
20
39.8507366
11
19.6405435
21
42.2818111
0
LINE
8
0
10
19.6405435
20
42.2818111
11
17.209469
21
28.4945026
0
LINE
8
0
10
20.5087843
20
47.2058499
11
34.2960928
21
44.7747754
0
LINE
8
0
10
34.2960928
20
44.7747754
11
36.7271673
21
58.5620839
0
LINE
8
0
10
36.7271673
20
58.5620839
11
22.9398588
21
60.9931584
0
LINE
8
0
10
22.9398588
20
60.9931584
11
20.5087843
21
47.2058499
0
LINE
8
0
10
34.7358441
20
16.0806781
11
48.4299105
21
13.1699145
0
LINE
8
0
10
48.4299105
20
13.1699145
11
51.3406741
21
26.8639809
0
LINE
8
0
10
51.3406741
20
26.8639809
11
37.6466077
21
29.7747445
0
LINE
8
0
10
37.6466077
20
29.7747445
11
34.7358441
21
16.0806781
0
LINE
8
0
10
38.6861662
20
34.6654825
11
52.3802326
21
31.7547189
0
LINE
8
0
10
52.3802326
20
31.7547189
11
55.2909962
21
45.4487853
0
LINE
8
0
10
55.2909962
20
45.4487853
11
41.5969298
21
48.3595489
0
LINE
8
0
10
41.5969298
20
48.3595489
11
38.6861662
21
34.6654825
0
LINE
8
0
10
42.6364883
20
53.2502869
11
56.3305547
21
50.3395233
0
LINE
8
0
10
56.3305547
20
50.3395233
11
59.2413183
21
64.0335897
0
LINE
8
0
10
59.2413183
20
64.0335897
11
45.5472519
21
66.9443533
0
LINE
8
0
10
45.5472519
20
66.9443533
11
42.6364883
21
53.2502869
0
LINE
8
0
10
54.360207
20
17.0210939
11
68.0542734
21
14.1103303
0
LINE
8
0
10
68.0542734
20
14.1103303
11
70.965037
21
27.8043967
0
LINE
8
0
10
70.965037
20
27.8043967
11
57.2709706
21
30.7151603
0
LINE
8
0
10
57.2709706
20
30.7151603
11
54.360207
21
17.0210939
0
LINE
8
0
10
58.3105291
20
35.6058983
11
72.0045955
21
32.6951347
0
LINE
8
0
10
72.0045955
20
32.6951347
11
74.9153591
21
46.3892011
0
LINE
8
0
10
74.9153591
20
46.3892011
11
61.2212927
21
49.2999647
0
LINE
8
0
10
61.2212927
20
49.2999647
11
58.3105291
21
35.6058983
0
LINE
8
0
10
62.2608512
20
54.1907028
11
75.9549176
21
51.2799392
0
LINE
8
0
10
75.9549176
20
51.2799392
11
78.8656812
21
64.9740056
0
LINE
8
0
10
78.8656812
20
64.9740056
11
65.1716148
21
67.8847692
0
LINE
8
0
10
65.1716148
20
67.8847692
11
62.2608512
21
54.1907028
0
LINE
8
0
10
71.6975413
20
7.2018862
11
85.3916077
21
4.2911226
0
LINE
8
0
10
85.3916077
20
4.2911226
11
88.3023713
21
17.985189
0
LINE
8
0
10
88.3023713
20
17.985189
11
74.6083049
21
20.8959526
0
LINE
8
0
10
74.6083049
20
20.8959526
11
71.6975413
21
7.2018862
0
LINE
8
0
10
75.6478633
20
25.7866906
11
89.3419297
21
22.875927
0
LINE
8
0
10
89.3419297
20
22.875927
11
92.2526933
21
36.5699934
0
LINE
8
0
10
92.2526933
20
36.5699934
11
78.5586269
21
39.480757
0
LINE
8
0
10
78.5586269
20
39.480757
11
75.6478633
21
25.7866906
0
LINE
8
0
10
79.5981854
20
44.371495
11
93.2922518
21
41.4607314
0
LINE
8
0
10
93.2922518
20
41.4607314
11
96.2030154
21
55.1547978
0
LINE
8
0
10
96.2030154
20
55.1547978
11
82.508949
21
58.0655614
0
LINE
8
0
10
82.508949
20
58.0655614
11
79.5981854
21
44.371495
0
LINE
8
0
10
89.8665223
20
1.2952689
11
103.5605887
21
-1.6154947
0
LINE
8
0
10
103.5605887
20
-1.6154947
11
106.4713523
21
12.0785717
0
LINE
8
0
10
106.4713523
20
12.0785717
11
92.7772859
21
14.9893353
0
LINE
8
0
10
92.7772859
20
14.9893353
11
89.8665223
21
1.2952689
0
LINE
8
0
10
93.8168443
20
19.8800733
11
107.5109107
21
16.9693097
0
LINE
8
0
10
107.5109107
20
16.9693097
11
110.4216743
21
30.6633761
0
LINE
8
0
10
110.4216743
20
30.6633761
11
96.7276079
21
33.5741397
0
LINE
8
0
10
96.7276079
20
33.5741397
11
93.8168443
21
19.8800733
0
LINE
8
0
10
97.7671664
20
38.4648777
11
111.4612328
21
35.5541141
0
LINE
8
0
10
111.4612328
20
35.5541141
11
114.3719964
21
49.2481805
0
LINE
8
0
10
114.3719964
20
49.2481805
11
100.67793
21
52.1589441
0
LINE
8
0
10
100.67793
20
52.1589441
11
97.7671664
21
38.4648777
0
LINE
8
0
10
73.3366079
20
-14.6667777
11
87.0306743
21
-17.5775413
0
LINE
8
0
10
87.0306743
20
-17.5775413
11
89.9414379
21
-3.8834749
0
LINE
8
0
10
89.9414379
20
-3.8834749
11
76.2473715
21
-0.9727113
0
LINE
8
0
10
76.2473715
20
-0.9727113
11
73.3366079
21
-14.6667777
0
LINE
8
0
10
99.9574375
20
-21.4076389
11
111.8301108
21
-28.8265086
0
LINE
8
0
10
111.8301108
20
-28.8265086
11
119.2489805
21
-16.9538353
0
LINE
8
0
10
119.2489805
20
-16.9538353
11
107.3763072
21
-9.5349656
0
LINE
8
0
10
107.3763072
20
-9.5349656
11
99.9574375
21
-21.4076389
0
LINE
8
0
10
307.1220166
20
10.6021558
11
320.9093251
21
13.0332303
0
LINE
8
0
10
320.9093251
20
13.0332303
11
318.4782506
21
26.8205388
0
LINE
8
0
10
318.4782506
20
26.8205388
11
304.6909421
21
24.3894643
0
LINE
8
0
10
304.6909421
20
24.3894643
11
307.1220166
21
10.6021558
0
LINE
8
0
10
303.8227012
20
29.3135031
11
317.6100097
21
31.7445776
0
LINE
8
0
10
317.6100097
20
31.7445776
11
315.1789352
21
45.5318861
0
LINE
8
0
10
315.1789352
20
45.5318861
11
301.3916267
21
43.1008116
0
LINE
8
0
10
301.3916267
20
43.1008116
11
303.8227012
21
29.3135031
0
LINE
8
0
10
288.4019869
20
7.3520808
11
302.1892954
21
9.7831553
0
LINE
8
0
10
302.1892954
20
9.7831553
11
299.7582209
21
23.5704638
0
LINE
8
0
10
299.7582209
20
23.5704638
11
285.9709124
21
21.1393893
0
LINE
8
0
10
285.9709124
20
21.1393893
11
288.4019869
21
7.3520808
0
LINE
8
0
10
285.1026715
20
26.0634281
11
298.88998
21
28.4945026
0
LINE
8
0
10
298.88998
20
28.4945026
11
296.4589055
21
42.2818111
0
LINE
8
0
10
296.4589055
20
42.2818111
11
282.671597
21
39.8507366
0
LINE
8
0
10
282.671597
20
39.8507366
11
285.1026715
21
26.0634281
0
LINE
8
0
10
281.8033562
20
44.7747754
11
295.5906647
21
47.2058499
0
LINE
8
0
10
295.5906647
20
47.2058499
11
293.1595902
21
60.9931584
0
LINE
8
0
10
293.1595902
20
60.9931584
11
279.3722817
21
58.5620839
0
LINE
8
0
10
279.3722817
20
58.5620839
11
281.8033562
21
44.7747754
0
LINE
8
0
10
267.6695385
20
13.1699145
11
281.3636049
21
16.0806781
0
LINE
8
0
10
281.3636049
20
16.0806781
11
278.4528413
21
29.7747445
0
LINE
8
0
10
278.4528413
20
29.7747445
11
264.7587749
21
26.8639809
0
LINE
8
0
10
264.7587749
20
26.8639809
11
267.6695385
21
13.1699145
0
LINE
8
0
10
263.7192164
20
31.7547189
11
277.4132828
21
34.6654825
0
LINE
8
0
10
277.4132828
20
34.6654825
11
274.5025192
21
48.3595489
0
LINE
8
0
10
274.5025192
20
48.3595489
11
260.8084528
21
45.4487853
0
LINE
8
0
10
260.8084528
20
45.4487853
11
263.7192164
21
31.7547189
0
LINE
8
0
10
259.7688943
20
50.3395233
11
273.4629607
21
53.2502869
0
LINE
8
0
10
273.4629607
20
53.2502869
11
270.5521971
21
66.9443533
0
LINE
8
0
10
270.5521971
20
66.9443533
11
256.8581307
21
64.0335897
0
LINE
8
0
10
256.8581307
20
64.0335897
11
259.7688943
21
50.3395233
0
LINE
8
0
10
248.0451756
20
14.1103303
11
261.739242
21
17.0210939
0
LINE
8
0
10
261.739242
20
17.0210939
11
258.8284784
21
30.7151603
0
LINE
8
0
10
258.8284784
20
30.7151603
11
245.134412
21
27.8043967
0
LINE
8
0
10
245.134412
20
27.8043967
11
248.0451756
21
14.1103303
0
LINE
8
0
10
244.0948535
20
32.6951347
11
257.7889199
21
35.6058983
0
LINE
8
0
10
257.7889199
20
35.6058983
11
254.8781563
21
49.2999647
0
LINE
8
0
10
254.8781563
20
49.2999647
11
241.1840899
21
46.3892011
0
LINE
8
0
10
241.1840899
20
46.3892011
11
244.0948535
21
32.6951347
0
LINE
8
0
10
240.1445314
20
51.2799392
11
253.8385978
21
54.1907028
0
LINE
8
0
10
253.8385978
20
54.1907028
11
250.9278342
21
67.8847692
0
LINE
8
0
10
250.9278342
20
67.8847692
11
237.2337678
21
64.9740056
0
LINE
8
0
10
237.2337678
20
64.9740056
11
240.1445314
21
51.2799392
0
LINE
8
0
10
230.7078413
20
4.2911226
11
244.4019077
21
7.2018862
0
LINE
8
0
10
244.4019077
20
7.2018862
11
241.4911441
21
20.8959526
0
LINE
8
0
10
241.4911441
20
20.8959526
11
227.7970777
21
17.985189
0
LINE
8
0
10
227.7970777
20
17.985189
11
230.7078413
21
4.2911226
0
LINE
8
0
10
226.7575193
20
22.875927
11
240.4515857
21
25.7866906
0
LINE
8
0
10
240.4515857
20
25.7866906
11
237.5408221
21
39.480757
0
LINE
8
0
10
237.5408221
20
39.480757
11
223.8467557
21
36.5699934
0
LINE
8
0
10
223.8467557
20
36.5699934
11
226.7575193
21
22.875927
0
LINE
8
0
10
222.8071972
20
41.4607314
11
236.5012636
21
44.371495
0
LINE
8
0
10
236.5012636
20
44.371495
11
233.5905
21
58.0655614
0
LINE
8
0
10
233.5905
20
58.0655614
11
219.8964336
21
55.1547978
0
LINE
8
0
10
219.8964336
20
55.1547978
11
222.8071972
21
41.4607314
0
LINE
8
0
10
212.5388603
20
-1.6154947
11
226.2329267
21
1.2952689
0
LINE
8
0
10
226.2329267
20
1.2952689
11
223.3221631
21
14.9893353
0
LINE
8
0
10
223.3221631
20
14.9893353
11
209.6280967
21
12.0785717
0
LINE
8
0
10
209.6280967
20
12.0785717
11
212.5388603
21
-1.6154947
0
LINE
8
0
10
208.5885383
20
16.9693097
11
222.2826047
21
19.8800733
0
LINE
8
0
10
222.2826047
20
19.8800733
11
219.3718411
21
33.5741397
0
LINE
8
0
10
219.3718411
20
33.5741397
11
205.6777747
21
30.6633761
0
LINE
8
0
10
205.6777747
20
30.6633761
11
208.5885383
21
16.9693097
0
LINE
8
0
10
204.6382162
20
35.5541141
11
218.3322826
21
38.4648777
0
LINE
8
0
10
218.3322826
20
38.4648777
11
215.421519
21
52.1589441
0
LINE
8
0
10
215.421519
20
52.1589441
11
201.7274526
21
49.2481805
0
LINE
8
0
10
201.7274526
20
49.2481805
11
204.6382162
21
35.5541141
0
LINE
8
0
10
229.0687747
20
-17.5775413
11
242.7628411
21
-14.6667777
0
LINE
8
0
10
242.7628411
20
-14.6667777
11
239.8520775
21
-0.9727113
0
LINE
8
0
10
239.8520775
20
-0.9727113
11
226.1580111
21
-3.8834749
0
LINE
8
0
10
226.1580111
20
-3.8834749
11
229.0687747
21
-17.5775413
0
LINE
8
0
10
204.2693382
20
-28.8265086
11
216.1420115
21
-21.4076389
0
LINE
8
0
10
216.1420115
20
-21.4076389
11
208.7231418
21
-9.5349656
0
LINE
8
0
10
208.7231418
20
-9.5349656
11
196.8504685
21
-16.9538353
0
LINE
8
0
10
196.8504685
20
-16.9538353
11
204.2693382
21
-28.8265086
0
ENDSEC
0
EOF