<svg width="360.995mm" height="138.691mm" viewBox="0 0 360.995 138.691" xmlns="http://www.w3.org/2000/svg"><g id="svgGroup" stroke-linecap="round" fill-rule="evenodd" font-size="9pt" stroke="#000" stroke-width="0.25mm" fill="none" style="stroke:#000;stroke-width:0.25mm;fill:none"><path d="M 0.003 90.502 L 3.165 24.98 A 3 3 0 0 1 4.701 22.504 L 34.207 6.067 A 3 3 0 0 1 34.95 5.774 L 58.056 0.087 A 3 3 0 0 1 58.773 0 L 302.223 0 A 3 3 0 0 1 302.94 0.087 L 326.046 5.774 A 3 3 0 0 1 326.789 6.067 L 356.294 22.504 A 3 3 0 0 1 357.831 24.98 L 360.992 90.502 A 3 3 0 0 1 358.509 93.602 L 342.676 96.351 A 3 3 0 0 0 342.136 96.498 L 270.635 123.303 A 3 3 0 0 0 270.521 123.349 L 248.147 132.794 A 3 3 0 0 1 247.595 132.966 L 220.55 138.628 A 3 3 0 0 1 219.936 138.691 L 141.06 138.691 A 3 3 0 0 1 140.445 138.628 L 113.401 132.966 A 3 3 0 0 1 112.849 132.794 L 90.474 123.349 A 3 3 0 0 0 90.36 123.303 L 18.859 96.498 A 3 3 0 0 0 18.319 96.351 L 2.487 93.602 A 3 3 0 0 1 0.003 90.502 Z M 251.517 122.75 L 270.224 118.774 L 267.313 105.08 L 248.606 109.056 L 251.517 122.75 Z M 90.772 118.774 L 109.479 122.75 L 112.389 109.056 L 93.682 105.08 L 90.772 118.774 Z M 9.367 41.375 L 23.314 40.155 L 22.094 26.208 L 8.147 27.429 L 9.367 41.375 Z M 337.681 40.155 L 351.628 41.375 L 352.848 27.429 L 338.902 26.208 L 337.681 40.155 Z M 44.664 86.431 L 58.358 89.342 L 61.268 75.648 L 47.574 72.737 L 44.664 86.431 Z M 52.564 49.261 L 66.258 52.172 L 69.169 38.478 L 55.475 35.567 L 52.564 49.261 Z M 68.238 66.906 L 81.932 69.816 L 84.843 56.122 L 71.149 53.212 L 68.238 66.906 Z M 279.063 69.816 L 292.757 66.906 L 289.846 53.212 L 276.152 56.122 L 279.063 69.816 Z M 58.983 19.061 L 72.677 21.972 L 75.588 8.278 L 61.894 5.367 L 58.983 19.061 Z M 103.745 82.632 L 117.439 85.542 L 120.349 71.848 L 106.655 68.937 L 103.745 82.632 Z M 294.737 52.172 L 308.431 49.261 L 305.52 35.567 L 291.826 38.478 L 294.737 52.172 Z M 257.775 61.051 L 271.47 58.14 L 268.559 44.446 L 254.865 47.357 L 257.775 61.051 Z M 243.557 85.542 L 257.251 82.632 L 254.34 68.937 L 240.646 71.848 L 243.557 85.542 Z M 48.614 67.846 L 62.308 70.757 L 65.219 57.063 L 51.525 54.152 L 48.614 67.846 Z M 64.288 85.49 L 77.982 88.401 L 80.893 74.707 L 67.199 71.796 L 64.288 85.49 Z M 81.625 95.31 L 95.319 98.22 L 98.23 84.526 L 84.536 81.616 L 81.625 95.31 Z M 85.576 76.725 L 99.27 79.636 L 102.18 65.942 L 88.486 63.031 L 85.576 76.725 Z M 99.794 101.216 L 113.488 104.127 L 116.399 90.433 L 102.705 87.522 L 99.794 101.216 Z M 302.638 89.342 L 316.332 86.431 L 313.421 72.737 L 299.727 75.648 L 302.638 89.342 Z M 298.687 70.757 L 312.382 67.846 L 309.471 54.152 L 295.777 57.063 L 298.687 70.757 Z M 283.013 88.401 L 296.707 85.49 L 293.797 71.796 L 280.103 74.707 L 283.013 88.401 Z M 265.676 98.22 L 279.37 95.31 L 276.459 81.616 L 262.765 84.526 L 265.676 98.22 Z M 261.726 79.636 L 275.42 76.725 L 272.509 63.031 L 258.815 65.942 L 261.726 79.636 Z M 247.507 104.127 L 261.201 101.216 L 258.29 87.522 L 244.596 90.433 L 247.507 104.127 Z M 88.082 118.202 L 90.992 104.508 L 77.298 101.597 L 74.388 115.292 L 88.082 118.202 Z M 136.531 102.356 L 150.225 105.267 L 153.136 91.573 L 139.442 88.662 L 136.531 102.356 Z M 270.003 104.508 L 272.914 118.202 L 286.608 115.292 L 283.697 101.597 L 270.003 104.508 Z M 210.77 105.267 L 224.464 102.356 L 221.553 88.662 L 207.859 91.573 L 210.77 105.267 Z M 72.189 48.321 L 85.883 51.232 L 88.793 37.538 L 75.099 34.627 L 72.189 48.321 Z M 89.526 58.14 L 103.22 61.051 L 106.131 47.357 L 92.437 44.446 L 89.526 58.14 Z M 107.695 64.047 L 121.389 66.957 L 124.3 53.263 L 110.606 50.353 L 107.695 64.047 Z M 275.113 51.232 L 288.807 48.321 L 285.896 34.627 L 272.202 37.538 L 275.113 51.232 Z M 239.606 66.957 L 253.301 64.047 L 250.39 50.353 L 236.696 53.263 L 239.606 66.957 Z M 78.608 18.121 L 92.302 21.031 L 95.213 7.337 L 81.519 4.427 L 78.608 18.121 Z M 95.945 27.94 L 109.639 30.851 L 112.55 17.156 L 98.856 14.246 L 95.945 27.94 Z M 114.114 33.846 L 127.808 36.757 L 130.719 23.063 L 117.025 20.152 L 114.114 33.846 Z M 288.318 21.972 L 302.012 19.061 L 299.101 5.367 L 285.407 8.278 L 288.318 21.972 Z M 268.694 21.031 L 282.388 18.121 L 279.477 4.427 L 265.783 7.337 L 268.694 21.031 Z M 251.356 30.851 L 265.05 27.94 L 262.139 14.246 L 248.445 17.156 L 251.356 30.851 Z M 233.187 36.757 L 246.881 33.846 L 243.97 20.152 L 230.276 23.063 L 233.187 36.757 Z M 122.405 126.58 L 134.278 133.999 L 141.697 122.127 L 129.824 114.708 L 122.405 126.58 Z M 226.717 133.999 L 238.59 126.58 L 231.171 114.708 L 219.298 122.127 L 226.717 133.999 Z M 27.137 74.017 L 40.924 76.448 L 43.356 62.661 L 29.568 60.23 L 27.137 74.017 Z M 338.791 73.198 L 352.578 70.767 L 350.147 56.98 L 336.36 59.411 L 338.791 73.198 Z M 320.071 76.448 L 333.858 74.017 L 331.427 60.23 L 317.64 62.661 L 320.071 76.448 Z M 316.772 57.737 L 330.559 55.306 L 328.128 41.518 L 314.341 43.949 L 316.772 57.737 Z M 5.118 89.478 L 18.905 91.909 L 21.336 78.122 L 7.549 75.691 L 5.118 89.478 Z M 8.417 70.767 L 22.204 73.198 L 24.635 59.411 L 10.848 56.98 L 8.417 70.767 Z M 23.838 92.728 L 37.625 95.159 L 40.056 81.372 L 26.269 78.941 L 23.838 92.728 Z M 30.436 55.306 L 44.224 57.737 L 46.655 43.949 L 32.868 41.518 L 30.436 55.306 Z M 342.09 91.909 L 355.878 89.478 L 353.446 75.691 L 339.659 78.122 L 342.09 91.909 Z M 323.37 95.159 L 337.158 92.728 L 334.726 78.941 L 320.939 81.372 L 323.37 95.159 Z M 35.798 24.9 L 49.585 27.331 L 52.016 13.544 L 38.229 11.112 L 35.798 24.9 Z M 158.878 116.684 L 161.309 130.471 L 175.096 128.04 L 172.665 114.253 L 158.878 116.684 Z M 199.686 130.471 L 202.117 116.684 L 188.33 114.253 L 185.899 128.04 L 199.686 130.471 Z M 311.41 27.331 L 325.198 24.9 L 322.766 11.112 L 308.979 13.544 L 311.41 27.331 Z M 336.701 51.362 L 350.648 52.583 L 351.388 44.115 L 337.442 42.895 L 336.701 51.362 Z M 10.348 52.583 L 24.294 51.362 L 23.554 42.895 L 9.607 44.115 L 10.348 52.583 Z M 235.526 47.761 L 249.22 44.851 L 247.453 36.536 L 233.759 39.447 L 235.526 47.761 Z M 213.109 116.271 L 226.803 113.36 L 225.036 105.046 L 211.342 107.957 L 213.109 116.271 Z M 134.192 113.36 L 147.886 116.271 L 149.653 107.957 L 135.959 105.046 L 134.192 113.36 Z M 56.644 30.065 L 70.338 32.976 L 72.106 24.662 L 58.412 21.751 L 56.644 30.065 Z M 253.695 41.855 L 267.389 38.944 L 265.622 30.63 L 251.928 33.54 L 253.695 41.855 Z M 76.269 29.125 L 89.963 32.035 L 91.73 23.721 L 78.036 20.81 L 76.269 29.125 Z M 93.606 38.944 L 107.3 41.855 L 109.067 33.54 L 95.373 30.63 L 93.606 38.944 Z M 111.775 44.851 L 125.469 47.761 L 127.236 39.447 L 113.542 36.536 L 111.775 44.851 Z M 290.657 32.976 L 304.351 30.065 L 302.584 21.751 L 288.89 24.662 L 290.657 32.976 Z M 271.033 32.035 L 284.727 29.125 L 282.959 20.81 L 269.265 23.721 L 271.033 32.035 Z M 313.364 38.41 L 327.151 35.979 L 325.675 27.608 L 311.888 30.039 L 313.364 38.41 Z M 33.844 35.979 L 47.632 38.41 L 49.108 30.039 L 35.32 27.608 L 33.844 35.979 Z M 147.799 118.637 L 150.23 132.425 L 158.601 130.949 L 156.17 117.161 L 147.799 118.637 Z M 210.765 132.425 L 213.196 118.637 L 204.826 117.161 L 202.394 130.949 L 210.765 132.425 Z" vector-effect="non-scaling-stroke"/></g></svg>