<svg width="329.853mm" height="171.329mm" viewBox="0 0 329.853 171.329" xmlns="http://www.w3.org/2000/svg"><g id="svgGroup" stroke-linecap="round" fill-rule="evenodd" font-size="9pt" stroke="#000" stroke-width="0.25mm" fill="none" style="stroke:#000;stroke-width:0.25mm;fill:none"><path d="M 0.046 73.311 L 11.998 5.525 A 3 3 0 0 1 15.474 3.091 L 30.607 5.76 A 3 3 0 0 0 31.845 5.718 L 54.733 0.087 A 3 3 0 0 1 55.45 0 L 274.403 0 A 3 3 0 0 1 275.12 0.087 L 298.008 5.718 A 3 3 0 0 0 299.246 5.76 L 314.379 3.091 A 3 3 0 0 1 317.855 5.525 L 329.807 73.311 A 3 3 0 0 1 329.31 75.553 L 315.113 95.829 A 3 3 0 0 1 313.803 96.88 L 256.996 120.395 A 3 3 0 0 0 256.464 120.682 L 240.331 131.588 A 3 3 0 0 1 239.918 131.822 L 219.686 141.256 A 3 3 0 0 0 218.889 141.799 L 188.625 170.505 A 3 3 0 0 1 186.56 171.329 L 143.293 171.329 A 3 3 0 0 1 141.228 170.505 L 110.964 141.799 A 3 3 0 0 0 110.167 141.256 L 89.935 131.822 A 3 3 0 0 1 89.522 131.588 L 73.389 120.682 A 3 3 0 0 0 72.856 120.395 L 16.05 96.88 A 3 3 0 0 1 14.74 95.829 L 0.543 75.553 A 3 3 0 0 1 0.046 73.311 Z M 118.612 132.384 L 130.08 140.414 L 138.11 128.946 L 126.642 120.916 L 118.612 132.384 Z M 136.127 147.556 L 147.595 155.586 L 155.625 144.118 L 144.157 136.088 L 136.127 147.556 Z M 182.257 155.586 L 193.725 147.556 L 185.695 136.088 L 174.227 144.118 L 182.257 155.586 Z M 199.773 140.414 L 211.241 132.384 L 203.211 120.916 L 191.743 128.946 L 199.773 140.414 Z M 92.622 27.94 L 106.316 30.851 L 109.227 17.156 L 95.533 14.246 L 92.622 27.94 Z M 223.536 30.851 L 237.23 27.94 L 234.32 14.246 L 220.626 17.156 L 223.536 30.851 Z M 41.31 86.578 L 55.004 89.488 L 57.914 75.794 L 44.22 72.884 L 41.31 86.578 Z M 68.835 48.468 L 82.529 51.378 L 85.439 37.684 L 71.745 34.774 L 68.835 48.468 Z M 247.324 51.378 L 261.018 48.468 L 258.107 34.774 L 244.413 37.684 L 247.324 51.378 Z M 55.661 19.061 L 69.355 21.972 L 72.265 8.278 L 58.571 5.367 L 55.661 19.061 Z M 110.791 33.846 L 124.485 36.757 L 127.396 23.063 L 113.702 20.152 L 110.791 33.846 Z M 205.367 36.757 L 219.061 33.846 L 216.151 20.152 L 202.457 23.063 L 205.367 36.757 Z M 49.21 49.408 L 62.904 52.319 L 65.815 38.625 L 52.121 35.714 L 49.21 49.408 Z M 86.172 58.287 L 99.866 61.198 L 102.777 47.504 L 89.083 44.593 L 86.172 58.287 Z M 266.949 52.319 L 280.643 49.408 L 277.732 35.714 L 264.038 38.625 L 266.949 52.319 Z M 229.987 61.198 L 243.681 58.287 L 240.77 44.593 L 227.076 47.504 L 229.987 61.198 Z M 45.26 67.993 L 58.954 70.904 L 61.865 57.21 L 48.171 54.299 L 45.26 67.993 Z M 60.934 85.637 L 74.628 88.548 L 77.539 74.854 L 63.845 71.943 L 60.934 85.637 Z M 64.884 67.052 L 78.578 69.963 L 81.489 56.269 L 67.795 53.358 L 64.884 67.052 Z M 78.271 95.456 L 91.965 98.367 L 94.876 84.673 L 81.182 81.762 L 78.271 95.456 Z M 82.222 76.872 L 95.916 79.782 L 98.826 66.088 L 85.132 63.178 L 82.222 76.872 Z M 96.44 101.363 L 110.134 104.274 L 113.045 90.58 L 99.351 87.669 L 96.44 101.363 Z M 100.391 82.778 L 114.085 85.689 L 116.995 71.995 L 103.301 69.084 L 100.391 82.778 Z M 104.341 64.193 L 118.035 67.104 L 120.946 53.41 L 107.252 50.499 L 104.341 64.193 Z M 274.849 89.488 L 288.543 86.578 L 285.632 72.884 L 271.938 75.794 L 274.849 89.488 Z M 270.899 70.904 L 284.593 67.993 L 281.682 54.299 L 267.988 57.21 L 270.899 70.904 Z M 255.225 88.548 L 268.919 85.637 L 266.008 71.943 L 252.314 74.854 L 255.225 88.548 Z M 251.275 69.963 L 264.969 67.052 L 262.058 53.358 L 248.364 56.269 L 251.275 69.963 Z M 237.887 98.367 L 251.582 95.456 L 248.671 81.762 L 234.977 84.673 L 237.887 98.367 Z M 233.937 79.782 L 247.631 76.872 L 244.72 63.178 L 231.026 66.088 L 233.937 79.782 Z M 219.719 104.274 L 233.413 101.363 L 230.502 87.669 L 216.808 90.58 L 219.719 104.274 Z M 215.768 85.689 L 229.462 82.778 L 226.551 69.084 L 212.857 71.995 L 215.768 85.689 Z M 211.818 67.104 L 225.512 64.193 L 222.601 50.499 L 208.907 53.41 L 211.818 67.104 Z M 237.655 119.937 L 251.349 117.026 L 248.438 103.332 L 234.744 106.243 L 237.655 119.937 Z M 78.504 117.026 L 92.198 119.937 L 95.109 106.243 L 81.415 103.332 L 78.504 117.026 Z M 75.285 18.121 L 88.979 21.031 L 91.89 7.337 L 78.196 4.427 L 75.285 18.121 Z M 260.498 21.972 L 274.192 19.061 L 271.281 5.367 L 257.587 8.278 L 260.498 21.972 Z M 240.874 21.031 L 254.568 18.121 L 251.657 4.427 L 237.963 7.337 L 240.874 21.031 Z M 116.397 108.369 L 128.397 115.579 L 135.608 103.579 L 123.607 96.369 L 116.397 108.369 Z M 201.456 115.579 L 213.456 108.369 L 206.245 96.369 L 194.245 103.579 L 201.456 115.579 Z M 307.694 54.584 L 321.482 52.153 L 319.051 38.366 L 305.263 40.797 L 307.694 54.584 Z M 288.983 57.884 L 302.77 55.452 L 300.339 41.665 L 286.552 44.096 L 288.983 57.884 Z M 5.072 70.864 L 18.859 73.296 L 21.29 59.508 L 7.503 57.077 L 5.072 70.864 Z M 8.371 52.153 L 22.158 54.584 L 24.59 40.797 L 10.802 38.366 L 8.371 52.153 Z M 20.484 92.875 L 34.271 95.306 L 36.702 81.519 L 22.915 79.088 L 20.484 92.875 Z M 23.783 74.164 L 37.57 76.595 L 40.002 62.808 L 26.214 60.376 L 23.783 74.164 Z M 27.082 55.452 L 40.87 57.884 L 43.301 44.096 L 29.514 41.665 L 27.082 55.452 Z M 310.994 73.296 L 324.781 70.864 L 322.35 57.077 L 308.563 59.508 L 310.994 73.296 Z M 295.582 95.306 L 309.369 92.875 L 306.938 79.088 L 293.151 81.519 L 295.582 95.306 Z M 292.282 76.595 L 306.07 74.164 L 303.639 60.376 L 289.851 62.808 L 292.282 76.595 Z M 13.759 21.599 L 27.546 24.031 L 29.977 10.243 L 16.19 7.812 L 13.759 21.599 Z M 32.47 24.899 L 46.257 27.33 L 48.688 13.543 L 34.901 11.111 L 32.47 24.899 Z M 302.307 24.031 L 316.094 21.599 L 313.663 7.812 L 299.876 10.243 L 302.307 24.031 Z M 283.596 27.33 L 297.383 24.899 L 294.952 11.111 L 281.165 13.543 L 283.596 27.33 Z M 218.997 130.227 L 231.685 124.31 L 225.768 111.622 L 213.08 117.538 L 218.997 130.227 Z M 98.168 124.31 L 110.856 130.227 L 116.773 117.538 L 104.085 111.622 L 98.168 124.31 Z M 72.925 29.223 L 86.619 32.133 L 87.451 28.221 L 73.757 25.31 L 72.925 29.223 Z M 53.301 30.163 L 66.995 33.074 L 67.827 29.161 L 54.132 26.25 L 53.301 30.163 Z M 90.263 39.042 L 103.957 41.953 L 104.788 38.04 L 91.094 35.129 L 90.263 39.042 Z M 108.432 44.948 L 122.126 47.859 L 122.957 43.947 L 109.263 41.036 L 108.432 44.948 Z M 262.858 33.074 L 276.552 30.163 L 275.72 26.25 L 262.026 29.161 L 262.858 33.074 Z M 243.234 32.133 L 256.928 29.223 L 256.096 25.31 L 242.402 28.221 L 243.234 32.133 Z M 225.896 41.953 L 239.59 39.042 L 238.759 35.129 L 225.065 38.04 L 225.896 41.953 Z M 207.727 47.859 L 221.421 44.948 L 220.59 41.036 L 206.896 43.947 L 207.727 47.859 Z M 30.499 36.076 L 44.286 38.507 L 44.981 34.568 L 31.194 32.137 L 30.499 36.076 Z M 304.278 35.208 L 318.065 32.777 L 317.371 28.838 L 303.583 31.269 L 304.278 35.208 Z M 285.566 38.507 L 299.354 36.076 L 298.659 32.137 L 284.872 34.568 L 285.566 38.507 Z M 11.788 32.777 L 25.575 35.208 L 26.27 31.269 L 12.482 28.838 L 11.788 32.777 Z" vector-effect="non-scaling-stroke"/></g></svg>