<svg width="313.59mm" height="95.422mm" viewBox="0 0 313.59 95.422" xmlns="http://www.w3.org/2000/svg"><g id="svgGroup" stroke-linecap="round" fill-rule="evenodd" font-size="9pt" stroke="#000" stroke-width="0.25mm" fill="none" style="stroke:#000;stroke-width:0.25mm;fill:none"><path d="M 39.546 51.804 L 53.24 54.715 L 56.151 41.021 L 42.456 38.11 L 39.546 51.804 Z M 47.446 14.634 L 61.14 17.545 L 64.051 3.851 L 50.357 0.94 L 47.446 14.634 Z M 63.12 32.279 L 76.814 35.19 L 79.725 21.496 L 66.031 18.585 L 63.12 32.279 Z M 236.776 35.19 L 250.47 32.279 L 247.559 18.585 L 233.865 21.496 L 236.776 35.19 Z M 98.627 48.005 L 112.321 50.915 L 115.232 37.221 L 101.537 34.311 L 98.627 48.005 Z M 252.45 17.545 L 266.144 14.634 L 263.233 0.94 L 249.539 3.851 L 252.45 17.545 Z M 201.269 50.915 L 214.963 48.005 L 212.053 34.311 L 198.359 37.221 L 201.269 50.915 Z M 43.496 33.219 L 57.19 36.13 L 60.101 22.436 L 46.407 19.525 L 43.496 33.219 Z M 59.17 50.864 L 72.864 53.774 L 75.775 40.08 L 62.081 37.17 L 59.17 50.864 Z M 76.507 60.683 L 90.201 63.594 L 93.112 49.9 L 79.418 46.989 L 76.507 60.683 Z M 80.458 42.098 L 94.152 45.009 L 97.063 31.315 L 83.369 28.404 L 80.458 42.098 Z M 94.676 66.59 L 108.37 69.5 L 111.281 55.806 L 97.587 52.895 L 94.676 66.59 Z M 72.082 81.262 L 85.776 84.173 L 88.687 70.479 L 74.993 67.568 L 72.082 81.262 Z M 260.35 54.715 L 274.044 51.804 L 271.134 38.11 L 257.44 41.021 L 260.35 54.715 Z M 256.4 36.13 L 270.094 33.219 L 267.183 19.525 L 253.489 22.436 L 256.4 36.13 Z M 240.726 53.774 L 254.42 50.864 L 251.509 37.17 L 237.815 40.08 L 240.726 53.774 Z M 223.389 63.594 L 237.083 60.683 L 234.172 46.989 L 220.478 49.9 L 223.389 63.594 Z M 219.438 45.009 L 233.132 42.098 L 230.222 28.404 L 216.528 31.315 L 219.438 45.009 Z M 205.22 69.5 L 218.914 66.59 L 216.003 52.895 L 202.309 55.806 L 205.22 69.5 Z M 227.814 84.173 L 241.508 81.262 L 238.597 67.568 L 224.903 70.479 L 227.814 84.173 Z M 67.071 13.694 L 80.765 16.605 L 83.676 2.911 L 69.981 0 L 67.071 13.694 Z M 84.408 23.513 L 98.102 26.424 L 101.013 12.73 L 87.319 9.819 L 84.408 23.513 Z M 102.577 29.42 L 116.271 32.331 L 119.182 18.637 L 105.488 15.726 L 102.577 29.42 Z M 232.825 16.605 L 246.519 13.694 L 243.609 0 L 229.915 2.911 L 232.825 16.605 Z M 215.488 26.424 L 229.182 23.513 L 226.271 9.819 L 212.577 12.73 L 215.488 26.424 Z M 197.319 32.331 L 211.013 29.42 L 208.102 15.726 L 194.408 18.637 L 197.319 32.331 Z M 98.703 88.003 L 110.575 95.422 L 117.994 83.55 L 106.122 76.131 L 98.703 88.003 Z M 203.015 95.422 L 214.887 88.003 L 207.469 76.131 L 195.596 83.55 L 203.015 95.422 Z M 22.019 39.39 L 35.807 41.821 L 38.238 28.034 L 24.45 25.603 L 22.019 39.39 Z M 296.504 38.571 L 310.291 36.14 L 307.86 22.353 L 294.072 24.784 L 296.504 38.571 Z M 277.784 41.821 L 291.571 39.39 L 289.14 25.603 L 275.352 28.034 L 277.784 41.821 Z M 274.484 23.11 L 288.272 20.679 L 285.84 6.892 L 272.053 9.323 L 274.484 23.11 Z M 0 54.852 L 13.787 57.283 L 16.218 43.495 L 2.431 41.064 L 0 54.852 Z M 3.299 36.14 L 17.087 38.571 L 19.518 24.784 L 5.73 22.353 L 3.299 36.14 Z M 18.72 58.102 L 32.507 60.533 L 34.938 46.745 L 21.151 44.314 L 18.72 58.102 Z M 25.319 20.679 L 39.106 23.11 L 41.537 9.323 L 27.75 6.892 L 25.319 20.679 Z M 299.803 57.283 L 313.59 54.852 L 311.159 41.064 L 297.372 43.495 L 299.803 57.283 Z M 281.083 60.533 L 294.87 58.102 L 292.439 44.314 L 278.652 46.745 L 281.083 60.533 Z" vector-effect="non-scaling-stroke"/></g></svg>