<svg width="350.76mm" height="99.373mm" viewBox="0 0 350.76 99.373" xmlns="http://www.w3.org/2000/svg"><g id="svgGroup" stroke-linecap="round" fill-rule="evenodd" font-size="9pt" stroke="#000" stroke-width="0.25mm" fill="none" style="stroke:#000;stroke-width:0.25mm;fill:none"><path d="M 39.546 51.804 L 53.24 54.715 L 56.151 41.021 L 42.456 38.11 L 39.546 51.804 Z M 47.446 14.634 L 61.14 17.545 L 64.051 3.851 L 50.357 0.94 L 47.446 14.634 Z M 63.12 32.279 L 76.814 35.19 L 79.725 21.496 L 66.031 18.585 L 63.12 32.279 Z M 273.945 35.19 L 287.639 32.279 L 284.729 18.585 L 271.035 21.496 L 273.945 35.19 Z M 98.627 48.005 L 112.321 50.915 L 115.232 37.221 L 101.537 34.311 L 98.627 48.005 Z M 289.619 17.545 L 303.313 14.634 L 300.403 0.94 L 286.709 3.851 L 289.619 17.545 Z M 252.658 26.424 L 266.352 23.513 L 263.441 9.819 L 249.747 12.73 L 252.658 26.424 Z M 238.439 50.915 L 252.133 48.005 L 249.222 34.311 L 235.528 37.221 L 238.439 50.915 Z M 43.496 33.219 L 57.19 36.13 L 60.101 22.436 L 46.407 19.525 L 43.496 33.219 Z M 59.17 50.864 L 72.864 53.774 L 75.775 40.08 L 62.081 37.17 L 59.17 50.864 Z M 76.507 60.683 L 90.201 63.594 L 93.112 49.9 L 79.418 46.989 L 76.507 60.683 Z M 80.458 42.098 L 94.152 45.009 L 97.063 31.315 L 83.369 28.404 L 80.458 42.098 Z M 94.676 66.59 L 108.37 69.5 L 111.281 55.806 L 97.587 52.895 L 94.676 66.59 Z M 90.667 85.213 L 104.361 88.124 L 107.272 74.43 L 93.578 71.519 L 90.667 85.213 Z M 297.52 54.715 L 311.214 51.804 L 308.303 38.11 L 294.609 41.021 L 297.52 54.715 Z M 293.57 36.13 L 307.264 33.219 L 304.353 19.525 L 290.659 22.436 L 293.57 36.13 Z M 277.896 53.774 L 291.59 50.864 L 288.679 37.17 L 274.985 40.08 L 277.896 53.774 Z M 260.558 63.594 L 274.252 60.683 L 271.342 46.989 L 257.648 49.9 L 260.558 63.594 Z M 256.608 45.009 L 270.302 42.098 L 267.391 28.404 L 253.697 31.315 L 256.608 45.009 Z M 242.389 69.5 L 256.083 66.59 L 253.173 52.895 L 239.479 55.806 L 242.389 69.5 Z M 246.399 88.124 L 260.093 85.213 L 257.182 71.519 L 243.488 74.43 L 246.399 88.124 Z M 67.071 13.694 L 80.765 16.605 L 83.676 2.911 L 69.981 0 L 67.071 13.694 Z M 84.408 23.513 L 98.102 26.424 L 101.013 12.73 L 87.319 9.819 L 84.408 23.513 Z M 102.577 29.42 L 116.271 32.331 L 119.182 18.637 L 105.488 15.726 L 102.577 29.42 Z M 269.995 16.605 L 283.689 13.694 L 280.778 0 L 267.084 2.911 L 269.995 16.605 Z M 234.489 32.331 L 248.183 29.42 L 245.272 15.726 L 231.578 18.637 L 234.489 32.331 Z M 117.288 91.954 L 129.16 99.373 L 136.579 87.5 L 124.706 80.081 L 117.288 91.954 Z M 221.6 99.373 L 233.472 91.954 L 226.053 80.081 L 214.181 87.5 L 221.6 99.373 Z M 22.019 39.39 L 35.807 41.821 L 38.238 28.034 L 24.45 25.603 L 22.019 39.39 Z M 333.673 38.571 L 347.46 36.14 L 345.029 22.353 L 331.242 24.784 L 333.673 38.571 Z M 314.953 41.821 L 328.74 39.39 L 326.309 25.603 L 312.522 28.034 L 314.953 41.821 Z M 311.654 23.11 L 325.441 20.679 L 323.01 6.892 L 309.223 9.323 L 311.654 23.11 Z M 0 54.852 L 13.787 57.283 L 16.218 43.495 L 2.431 41.064 L 0 54.852 Z M 3.299 36.14 L 17.087 38.571 L 19.518 24.784 L 5.73 22.353 L 3.299 36.14 Z M 18.72 58.102 L 32.507 60.533 L 34.938 46.745 L 21.151 44.314 L 18.72 58.102 Z M 25.319 20.679 L 39.106 23.11 L 41.537 9.323 L 27.75 6.892 L 25.319 20.679 Z M 336.972 57.283 L 350.76 54.852 L 348.329 41.064 L 334.541 43.495 L 336.972 57.283 Z M 318.252 60.533 L 332.04 58.102 L 329.609 44.314 L 315.821 46.745 L 318.252 60.533 Z" vector-effect="non-scaling-stroke"/></g></svg>