0
SECTION
2
HEADER
9
$INSUNITS
70
4
0
ENDSEC
0
SECTION
2
TABLES
0
TABLE
2
LTYPE
0
LTYPE
72
65
70
64
2
CONTINUOUS
3
______
73
0
40
0
0
ENDTAB
0
TABLE
2
LAYER
0
ENDTAB
0
ENDSEC
0
SECTION
2
ENTITIES
0
LINE
8
0
10
-9.924183
20
12.0097666
11
-6.7630903
21
77.5314053
0
LINE
8
0
10
-5.2265958
20
80.0075902
11
24.2788672
21
96.4450775
0
LINE
8
0
10
25.0218781
20
96.737382
11
48.1279747
21
102.4246352
0
LINE
8
0
10
48.844984
20
102.5115788
11
283.9933814
21
102.5115788
0
LINE
8
0
10
284.7103907
20
102.4246352
11
307.8164873
21
96.737382
0
LINE
8
0
10
308.5594982
20
96.4450775
11
338.0649612
21
80.0075902
0
LINE
8
0
10
339.6014557
20
77.5314053
11
342.7625484
21
12.0097666
0
LINE
8
0
10
340.2792017
20
8.9094157
11
324.5243723
21
6.1741434
0
LINE
8
0
10
323.840627
20
5.96925
11
272.0541798
21
-16.5630496
0
LINE
8
0
10
271.4810016
20
-16.7466019
11
238.9567756
21
-23.6598395
0
LINE
8
0
10
237.6539828
20
-24.2946106
11
216.8645046
21
-41.7107961
0
LINE
8
0
10
216.7434217
20
-41.8070309
11
199.198315
21
-55.0282171
0
LINE
8
0
10
197.3928699
20
-55.6323106
11
135.4454955
21
-55.6323106
0
LINE
8
0
10
133.6400504
20
-55.0282171
11
116.042784
21
-41.7677257
0
LINE
8
0
10
116.0235981
20
-41.7531469
11
92.3830202
21
-23.6391655
0
LINE
8
0
10
91.1821243
20
-23.0860504
11
61.3573638
21
-16.7466019
0
LINE
8
0
10
60.7841856
20
-16.5630496
11
8.9977384
21
5.96925
0
LINE
8
0
10
8.3139931
20
6.1741434
11
-7.4408363
21
8.9094157
0
ARC
8
0
10
-3.7665756
20
77.3868383
40
3
50
119.1221673
51
177.2379039
0
ARC
8
0
10
25.7388874
20
93.8243256
40
3
50
103.8277101
51
119.1221673
0
ARC
8
0
10
48.844984
20
99.5115788
40
3
50
90
51
103.8277101
0
ARC
8
0
10
283.9933814
20
99.5115788
40
3
50
76.1722899
51
90
0
ARC
8
0
10
307.099478
20
93.8243256
40
3
50
60.8778327
51
76.1722899
0
ARC
8
0
10
336.604941
20
77.3868383
40
3
50
2.7620961
51
60.8778327
0
ARC
8
0
10
339.7660337
20
11.8651996
40
3
50
279.8492229
51
2.7620961
0
ARC
8
0
10
325.0375403
20
3.2183595
40
3
50
99.8492229
51
113.5138727
0
ARC
8
0
10
270.8572665
20
-13.8121591
40
3
50
282.0000005
51
293.5138727
0
ARC
8
0
10
239.5805107
20
-26.5942823
40
3
50
102.0000005
51
129.9542678
0
ARC
8
0
10
214.9379767
20
-39.4111243
40
3
50
306.9999993
51
309.9542678
0
ARC
8
0
10
197.3928699
20
-52.6323106
40
3
50
270
51
306.9999993
0
ARC
8
0
10
135.4454955
20
-52.6323106
40
3
50
233.0000007
51
270
0
ARC
8
0
10
117.848229
20
-39.3718192
40
3
50
232.5397907
51
233.0000007
0
ARC
8
0
10
90.5583892
20
-26.0204932
40
3
50
52.5397907
51
77.9999995
0
ARC
8
0
10
61.9810989
20
-13.8121591
40
3
50
246.4861273
51
257.9999995
0
ARC
8
0
10
7.8008251
20
3.2183595
40
3
50
66.4861273
51
80.1507771
0
ARC
8
0
10
-6.9276683
20
11.8651996
40
3
50
177.2379039
51
260.1507771
0
LINE
8
0
10
-4.8098761
20
13.0332303
11
8.9774324
21
10.6021558
0
LINE
8
0
10
8.9774324
20
10.6021558
11
11.4085069
21
24.3894643
0
LINE
8
0
10
11.4085069
20
24.3894643
11
-2.3788016
21
26.8205388
0
LINE
8
0
10
-2.3788016
20
26.8205388
11
-4.8098761
21
13.0332303
0
LINE
8
0
10
-1.5105607
20
31.7445776
11
12.2767478
21
29.3135031
0
LINE
8
0
10
12.2767478
20
29.3135031
11
14.7078223
21
43.1008116
0
LINE
8
0
10
14.7078223
20
43.1008116
11
0.9205138
21
45.5318861
0
LINE
8
0
10
0.9205138
20
45.5318861
11
-1.5105607
21
31.7445776
0
LINE
8
0
10
13.9101536
20
9.7831553
11
27.6974621
21
7.3520808
0
LINE
8
0
10
27.6974621
20
7.3520808
11
30.1285366
21
21.1393893
0
LINE
8
0
10
30.1285366
20
21.1393893
11
16.3412281
21
23.5704638
0
LINE
8
0
10
16.3412281
20
23.5704638
11
13.9101536
21
9.7831553
0
LINE
8
0
10
17.209469
20
28.4945026
11
30.9967775
21
26.0634281
0
LINE
8
0
10
30.9967775
20
26.0634281
11
33.427852
21
39.8507366
0
LINE
8
0
10
33.427852
20
39.8507366
11
19.6405435
21
42.2818111
0
LINE
8
0
10
19.6405435
20
42.2818111
11
17.209469
21
28.4945026
0
LINE
8
0
10
20.5087843
20
47.2058499
11
34.2960928
21
44.7747754
0
LINE
8
0
10
34.2960928
20
44.7747754
11
36.7271673
21
58.5620839
0
LINE
8
0
10
36.7271673
20
58.5620839
11
22.9398588
21
60.9931584
0
LINE
8
0
10
22.9398588
20
60.9931584
11
20.5087843
21
47.2058499
0
LINE
8
0
10
34.7358441
20
16.0806781
11
48.4299105
21
13.1699145
0
LINE
8
0
10
48.4299105
20
13.1699145
11
51.3406741
21
26.8639809
0
LINE
8
0
10
51.3406741
20
26.8639809
11
37.6466077
21
29.7747445
0
LINE
8
0
10
37.6466077
20
29.7747445
11
34.7358441
21
16.0806781
0
LINE
8
0
10
38.6861662
20
34.6654825
11
52.3802326
21
31.7547189
0
LINE
8
0
10
52.3802326
20
31.7547189
11
55.2909962
21
45.4487853
0
LINE
8
0
10
55.2909962
20
45.4487853
11
41.5969298
21
48.3595489
0
LINE
8
0
10
41.5969298
20
48.3595489
11
38.6861662
21
34.6654825
0
LINE
8
0
10
42.6364883
20
53.2502869
11
56.3305547
21
50.3395233
0
LINE
8
0
10
56.3305547
20
50.3395233
11
59.2413183
21
64.0335897
0
LINE
8
0
10
59.2413183
20
64.0335897
11
45.5472519
21
66.9443533
0
LINE
8
0
10
45.5472519
20
66.9443533
11
42.6364883
21
53.2502869
0
LINE
8
0
10
54.360207
20
17.0210939
11
68.0542734
21
14.1103303
0
LINE
8
0
10
68.0542734
20
14.1103303
11
70.965037
21
27.8043967
0
LINE
8
0
10
70.965037
20
27.8043967
11
57.2709706
21
30.7151603
0
LINE
8
0
10
57.2709706
20
30.7151603
11
54.360207
21
17.0210939
0
LINE
8
0
10
58.3105291
20
35.6058983
11
72.0045955
21
32.6951347
0
LINE
8
0
10
72.0045955
20
32.6951347
11
74.9153591
21
46.3892011
0
LINE
8
0
10
74.9153591
20
46.3892011
11
61.2212927
21
49.2999647
0
LINE
8
0
10
61.2212927
20
49.2999647
11
58.3105291
21
35.6058983
0
LINE
8
0
10
62.2608512
20
54.1907028
11
75.9549176
21
51.2799392
0
LINE
8
0
10
75.9549176
20
51.2799392
11
78.8656812
21
64.9740056
0
LINE
8
0
10
78.8656812
20
64.9740056
11
65.1716148
21
67.8847692
0
LINE
8
0
10
65.1716148
20
67.8847692
11
62.2608512
21
54.1907028
0
LINE
8
0
10
71.6975413
20
7.2018862
11
85.3916077
21
4.2911226
0
LINE
8
0
10
85.3916077
20
4.2911226
11
88.3023713
21
17.985189
0
LINE
8
0
10
88.3023713
20
17.985189
11
74.6083049
21
20.8959526
0
LINE
8
0
10
74.6083049
20
20.8959526
11
71.6975413
21
7.2018862
0
LINE
8
0
10
75.6478633
20
25.7866906
11
89.3419297
21
22.875927
0
LINE
8
0
10
89.3419297
20
22.875927
11
92.2526933
21
36.5699934
0
LINE
8
0
10
92.2526933
20
36.5699934
11
78.5586269
21
39.480757
0
LINE
8
0
10
78.5586269
20
39.480757
11
75.6478633
21
25.7866906
0
LINE
8
0
10
79.5981854
20
44.371495
11
93.2922518
21
41.4607314
0
LINE
8
0
10
93.2922518
20
41.4607314
11
96.2030154
21
55.1547978
0
LINE
8
0
10
96.2030154
20
55.1547978
11
82.508949
21
58.0655614
0
LINE
8
0
10
82.508949
20
58.0655614
11
79.5981854
21
44.371495
0
LINE
8
0
10
89.8665223
20
1.2952689
11
103.5605887
21
-1.6154947
0
LINE
8
0
10
103.5605887
20
-1.6154947
11
106.4713523
21
12.0785717
0
LINE
8
0
10
106.4713523
20
12.0785717
11
92.7772859
21
14.9893353
0
LINE
8
0
10
92.7772859
20
14.9893353
11
89.8665223
21
1.2952689
0
LINE
8
0
10
93.8168443
20
19.8800733
11
107.5109107
21
16.9693097
0
LINE
8
0
10
107.5109107
20
16.9693097
11
110.4216743
21
30.6633761
0
LINE
8
0
10
110.4216743
20
30.6633761
11
96.7276079
21
33.5741397
0
LINE
8
0
10
96.7276079
20
33.5741397
11
93.8168443
21
19.8800733
0
LINE
8
0
10
97.7671664
20
38.4648777
11
111.4612328
21
35.5541141
0
LINE
8
0
10
111.4612328
20
35.5541141
11
114.3719964
21
49.2481805
0
LINE
8
0
10
114.3719964
20
49.2481805
11
100.67793
21
52.1589441
0
LINE
8
0
10
100.67793
20
52.1589441
11
97.7671664
21
38.4648777
0
LINE
8
0
10
104.5395163
20
-21.2991606
11
118.2335827
21
-24.2099242
0
LINE
8
0
10
118.2335827
20
-24.2099242
11
121.1443463
21
-10.5158578
0
LINE
8
0
10
121.1443463
20
-10.5158578
11
107.4502799
21
-7.6050942
0
LINE
8
0
10
107.4502799
20
-7.6050942
11
104.5395163
21
-21.2991606
0
LINE
8
0
10
122.3701997
20
-40.8698616
11
133.5510968
21
-49.2952719
0
LINE
8
0
10
133.5510968
20
-49.2952719
11
141.9765071
21
-38.1143748
0
LINE
8
0
10
141.9765071
20
-38.1143748
11
130.79561
21
-29.6889645
0
LINE
8
0
10
130.79561
20
-29.6889645
11
122.3701997
21
-40.8698616
0
LINE
8
0
10
323.860933
20
10.6021558
11
337.6482415
21
13.0332303
0
LINE
8
0
10
337.6482415
20
13.0332303
11
335.217167
21
26.8205388
0
LINE
8
0
10
335.217167
20
26.8205388
11
321.4298585
21
24.3894643
0
LINE
8
0
10
321.4298585
20
24.3894643
11
323.860933
21
10.6021558
0
LINE
8
0
10
320.5616176
20
29.3135031
11
334.3489261
21
31.7445776
0
LINE
8
0
10
334.3489261
20
31.7445776
11
331.9178516
21
45.5318861
0
LINE
8
0
10
331.9178516
20
45.5318861
11
318.1305431
21
43.1008116
0
LINE
8
0
10
318.1305431
20
43.1008116
11
320.5616176
21
29.3135031
0
LINE
8
0
10
305.1409033
20
7.3520808
11
318.9282118
21
9.7831553
0
LINE
8
0
10
318.9282118
20
9.7831553
11
316.4971373
21
23.5704638
0
LINE
8
0
10
316.4971373
20
23.5704638
11
302.7098288
21
21.1393893
0
LINE
8
0
10
302.7098288
20
21.1393893
11
305.1409033
21
7.3520808
0
LINE
8
0
10
301.8415879
20
26.0634281
11
315.6288964
21
28.4945026
0
LINE
8
0
10
315.6288964
20
28.4945026
11
313.1978219
21
42.2818111
0
LINE
8
0
10
313.1978219
20
42.2818111
11
299.4105134
21
39.8507366
0
LINE
8
0
10
299.4105134
20
39.8507366
11
301.8415879
21
26.0634281
0
LINE
8
0
10
298.5422726
20
44.7747754
11
312.3295811
21
47.2058499
0
LINE
8
0
10
312.3295811
20
47.2058499
11
309.8985066
21
60.9931584
0
LINE
8
0
10
309.8985066
20
60.9931584
11
296.1111981
21
58.5620839
0
LINE
8
0
10
296.1111981
20
58.5620839
11
298.5422726
21
44.7747754
0
LINE
8
0
10
284.4084549
20
13.1699145
11
298.1025213
21
16.0806781
0
LINE
8
0
10
298.1025213
20
16.0806781
11
295.1917577
21
29.7747445
0
LINE
8
0
10
295.1917577
20
29.7747445
11
281.4976913
21
26.8639809
0
LINE
8
0
10
281.4976913
20
26.8639809
11
284.4084549
21
13.1699145
0
LINE
8
0
10
280.4581328
20
31.7547189
11
294.1521992
21
34.6654825
0
LINE
8
0
10
294.1521992
20
34.6654825
11
291.2414356
21
48.3595489
0
LINE
8
0
10
291.2414356
20
48.3595489
11
277.5473692
21
45.4487853
0
LINE
8
0
10
277.5473692
20
45.4487853
11
280.4581328
21
31.7547189
0
LINE
8
0
10
276.5078107
20
50.3395233
11
290.2018771
21
53.2502869
0
LINE
8
0
10
290.2018771
20
53.2502869
11
287.2911135
21
66.9443533
0
LINE
8
0
10
287.2911135
20
66.9443533
11
273.5970471
21
64.0335897
0
LINE
8
0
10
273.5970471
20
64.0335897
11
276.5078107
21
50.3395233
0
LINE
8
0
10
264.784092
20
14.1103303
11
278.4781584
21
17.0210939
0
LINE
8
0
10
278.4781584
20
17.0210939
11
275.5673948
21
30.7151603
0
LINE
8
0
10
275.5673948
20
30.7151603
11
261.8733284
21
27.8043967
0
LINE
8
0
10
261.8733284
20
27.8043967
11
264.784092
21
14.1103303
0
LINE
8
0
10
260.8337699
20
32.6951347
11
274.5278363
21
35.6058983
0
LINE
8
0
10
274.5278363
20
35.6058983
11
271.6170727
21
49.2999647
0
LINE
8
0
10
271.6170727
20
49.2999647
11
257.9230063
21
46.3892011
0
LINE
8
0
10
257.9230063
20
46.3892011
11
260.8337699
21
32.6951347
0
LINE
8
0
10
256.8834478
20
51.2799392
11
270.5775142
21
54.1907028
0
LINE
8
0
10
270.5775142
20
54.1907028
11
267.6667506
21
67.8847692
0
LINE
8
0
10
267.6667506
20
67.8847692
11
253.9726842
21
64.9740056
0
LINE
8
0
10
253.9726842
20
64.9740056
11
256.8834478
21
51.2799392
0
LINE
8
0
10
247.4467577
20
4.2911226
11
261.1408241
21
7.2018862
0
LINE
8
0
10
261.1408241
20
7.2018862
11
258.2300605
21
20.8959526
0
LINE
8
0
10
258.2300605
20
20.8959526
11
244.5359941
21
17.985189
0
LINE
8
0
10
244.5359941
20
17.985189
11
247.4467577
21
4.2911226
0
LINE
8
0
10
243.4964357
20
22.875927
11
257.1905021
21
25.7866906
0
LINE
8
0
10
257.1905021
20
25.7866906
11
254.2797385
21
39.480757
0
LINE
8
0
10
254.2797385
20
39.480757
11
240.5856721
21
36.5699934
0
LINE
8
0
10
240.5856721
20
36.5699934
11
243.4964357
21
22.875927
0
LINE
8
0
10
239.5461136
20
41.4607314
11
253.24018
21
44.371495
0
LINE
8
0
10
253.24018
20
44.371495
11
250.3294164
21
58.0655614
0
LINE
8
0
10
250.3294164
20
58.0655614
11
236.63535
21
55.1547978
0
LINE
8
0
10
236.63535
20
55.1547978
11
239.5461136
21
41.4607314
0
LINE
8
0
10
229.2777767
20
-1.6154947
11
242.9718431
21
1.2952689
0
LINE
8
0
10
242.9718431
20
1.2952689
11
240.0610795
21
14.9893353
0
LINE
8
0
10
240.0610795
20
14.9893353
11
226.3670131
21
12.0785717
0
LINE
8
0
10
226.3670131
20
12.0785717
11
229.2777767
21
-1.6154947
0
LINE
8
0
10
225.3274547
20
16.9693097
11
239.0215211
21
19.8800733
0
LINE
8
0
10
239.0215211
20
19.8800733
11
236.1107575
21
33.5741397
0
LINE
8
0
10
236.1107575
20
33.5741397
11
222.4166911
21
30.6633761
0
LINE
8
0
10
222.4166911
20
30.6633761
11
225.3274547
21
16.9693097
0
LINE
8
0
10
221.3771326
20
35.5541141
11
235.071199
21
38.4648777
0
LINE
8
0
10
235.071199
20
38.4648777
11
232.1604354
21
52.1589441
0
LINE
8
0
10
232.1604354
20
52.1589441
11
218.466369
21
49.2481805
0
LINE
8
0
10
218.466369
20
49.2481805
11
221.3771326
21
35.5541141
0
LINE
8
0
10
214.6047827
20
-24.2099242
11
228.2988491
21
-21.2991606
0
LINE
8
0
10
228.2988491
20
-21.2991606
11
225.3880855
21
-7.6050942
0
LINE
8
0
10
225.3880855
20
-7.6050942
11
211.6940191
21
-10.5158578
0
LINE
8
0
10
211.6940191
20
-10.5158578
11
214.6047827
21
-24.2099242
0
LINE
8
0
10
199.2872686
20
-49.2952719
11
210.4681657
21
-40.8698616
0
LINE
8
0
10
210.4681657
20
-40.8698616
11
202.0427554
21
-29.6889645
0
LINE
8
0
10
202.0427554
20
-29.6889645
11
190.8618583
21
-38.1143748
0
LINE
8
0
10
190.8618583
20
-38.1143748
11
199.2872686
21
-49.2952719
0
LINE
8
0
10
0.4200786
20
49.9290415
11
14.3668044
21
51.1492219
0
LINE
8
0
10
14.3668044
20
51.1492219
11
13.6259806
21
59.6168769
0
LINE
8
0
10
13.6259806
20
59.6168769
11
-0.3207452
21
58.3966965
0
LINE
8
0
10
-0.3207452
20
58.3966965
11
0.4200786
21
49.9290415
0
LINE
8
0
10
23.9166298
20
66.5327021
11
37.7039383
21
64.1016276
0
LINE
8
0
10
37.7039383
20
64.1016276
11
39.1799478
21
72.4724935
0
LINE
8
0
10
39.1799478
20
72.4724935
11
25.3926393
21
74.903568
0
LINE
8
0
10
25.3926393
20
74.903568
11
23.9166298
21
66.5327021
0
LINE
8
0
10
46.7167552
20
72.4464335
11
60.4108216
21
69.5356699
0
LINE
8
0
10
60.4108216
20
69.5356699
11
62.178071
21
77.8499245
0
LINE
8
0
10
62.178071
20
77.8499245
11
48.4840046
21
80.7606881
0
LINE
8
0
10
48.4840046
20
80.7606881
11
46.7167552
21
72.4464335
0
LINE
8
0
10
66.3411181
20
73.3868494
11
80.0351845
21
70.4760858
0
LINE
8
0
10
80.0351845
20
70.4760858
11
81.8024339
21
78.7903404
0
LINE
8
0
10
81.8024339
20
78.7903404
11
68.1083675
21
81.701104
0
LINE
8
0
10
68.1083675
20
81.701104
11
66.3411181
21
73.3868494
0
LINE
8
0
10
83.6784523
20
63.5676417
11
97.3725187
21
60.6568781
0
LINE
8
0
10
97.3725187
20
60.6568781
11
99.1397681
21
68.9711327
0
LINE
8
0
10
99.1397681
20
68.9711327
11
85.4457017
21
71.8818963
0
LINE
8
0
10
85.4457017
20
71.8818963
11
83.6784523
21
63.5676417
0
LINE
8
0
10
101.8474333
20
57.6610243
11
115.5414997
21
54.7502607
0
LINE
8
0
10
115.5414997
20
54.7502607
11
117.3087491
21
63.0645153
0
LINE
8
0
10
117.3087491
20
63.0645153
11
103.6146827
21
65.9752789
0
LINE
8
0
10
103.6146827
20
65.9752789
11
101.8474333
21
57.6610243
0
LINE
8
0
10
91.1266674
20
-18.4481715
11
94.037431
21
-4.7541051
0
LINE
8
0
10
94.037431
20
-4.7541051
11
85.7231764
21
-2.9868557
0
LINE
8
0
10
85.7231764
20
-2.9868557
11
82.8124128
21
-16.6809221
0
LINE
8
0
10
82.8124128
20
-16.6809221
11
91.1266674
21
-18.4481715
0
LINE
8
0
10
106.663488
20
-1.6871906
11
120.3575544
21
-4.5979542
0
LINE
8
0
10
120.3575544
20
-4.5979542
11
122.1248038
21
3.7163004
0
LINE
8
0
10
122.1248038
20
3.7163004
11
108.4307374
21
6.627064
0
LINE
8
0
10
108.4307374
20
6.627064
11
106.663488
21
-1.6871906
0
LINE
8
0
10
124.7567376
20
-3.2410238
11
137.2308289
21
-9.5968908
0
LINE
8
0
10
137.2308289
20
-9.5968908
11
141.0897482
21
-2.0233354
0
LINE
8
0
10
141.0897482
20
-2.0233354
11
128.6156569
21
4.3325316
0
LINE
8
0
10
128.6156569
20
4.3325316
11
124.7567376
21
-3.2410238
0
LINE
8
0
10
133.1989752
20
-16.5705155
11
137.5252132
21
-29.8853067
0
LINE
8
0
10
137.5252132
20
-29.8853067
11
145.6091936
21
-27.2586623
0
LINE
8
0
10
145.6091936
20
-27.2586623
11
141.2829556
21
-13.9438711
0
LINE
8
0
10
141.2829556
20
-13.9438711
11
133.1989752
21
-16.5705155
0
LINE
8
0
10
318.471561
20
51.1492219
11
332.4182868
21
49.9290415
0
LINE
8
0
10
332.4182868
20
49.9290415
11
333.1591106
21
58.3966965
0
LINE
8
0
10
333.1591106
20
58.3966965
11
319.2123848
21
59.6168769
0
LINE
8
0
10
319.2123848
20
59.6168769
11
318.471561
21
51.1492219
0
LINE
8
0
10
295.1344271
20
64.1016276
11
308.9217356
21
66.5327021
0
LINE
8
0
10
308.9217356
20
66.5327021
11
307.4457261
21
74.903568
0
LINE
8
0
10
307.4457261
20
74.903568
11
293.6584176
21
72.4724935
0
LINE
8
0
10
293.6584176
20
72.4724935
11
295.1344271
21
64.1016276
0
LINE
8
0
10
272.4275438
20
69.5356699
11
286.1216102
21
72.4464335
0
LINE
8
0
10
286.1216102
20
72.4464335
11
284.3543608
21
80.7606881
0
LINE
8
0
10
284.3543608
20
80.7606881
11
270.6602944
21
77.8499245
0
LINE
8
0
10
270.6602944
20
77.8499245
11
272.4275438
21
69.5356699
0
LINE
8
0
10
252.8031809
20
70.4760858
11
266.4972473
21
73.3868494
0
LINE
8
0
10
266.4972473
20
73.3868494
11
264.7299979
21
81.701104
0
LINE
8
0
10
264.7299979
20
81.701104
11
251.0359315
21
78.7903404
0
LINE
8
0
10
251.0359315
20
78.7903404
11
252.8031809
21
70.4760858
0
LINE
8
0
10
235.4658467
20
60.6568781
11
249.1599131
21
63.5676417
0
LINE
8
0
10
249.1599131
20
63.5676417
11
247.3926637
21
71.8818963
0
LINE
8
0
10
247.3926637
20
71.8818963
11
233.6985973
21
68.9711327
0
LINE
8
0
10
233.6985973
20
68.9711327
11
235.4658467
21
60.6568781
0
LINE
8
0
10
217.2968657
20
54.7502607
11
230.9909321
21
57.6610243
0
LINE
8
0
10
230.9909321
20
57.6610243
11
229.2236827
21
65.9752789
0
LINE
8
0
10
229.2236827
20
65.9752789
11
215.5296163
21
63.0645153
0
LINE
8
0
10
215.5296163
20
63.0645153
11
217.2968657
21
54.7502607
0
LINE
8
0
10
238.8009344
20
-4.7541051
11
241.711698
21
-18.4481715
0
LINE
8
0
10
241.711698
20
-18.4481715
11
250.0259526
21
-16.6809221
0
LINE
8
0
10
250.0259526
20
-16.6809221
11
247.115189
21
-2.9868557
0
LINE
8
0
10
247.115189
20
-2.9868557
11
238.8009344
21
-4.7541051
0
LINE
8
0
10
212.480811
20
-4.5979542
11
226.1748774
21
-1.6871906
0
LINE
8
0
10
226.1748774
20
-1.6871906
11
224.407628
21
6.627064
0
LINE
8
0
10
224.407628
20
6.627064
11
210.7135616
21
3.7163004
0
LINE
8
0
10
210.7135616
20
3.7163004
11
212.480811
21
-4.5979542
0
LINE
8
0
10
195.6075365
20
-9.5968908
11
208.0816278
21
-3.2410238
0
LINE
8
0
10
208.0816278
20
-3.2410238
11
204.2227085
21
4.3325316
0
LINE
8
0
10
204.2227085
20
4.3325316
11
191.7486172
21
-2.0233354
0
LINE
8
0
10
191.7486172
20
-2.0233354
11
195.6075365
21
-9.5968908
0
LINE
8
0
10
195.3131522
20
-29.8853067
11
199.6393902
21
-16.5705155
0
LINE
8
0
10
199.6393902
20
-16.5705155
11
191.5554098
21
-13.9438711
0
LINE
8
0
10
191.5554098
20
-13.9438711
11
187.2291718
21
-27.2586623
0
LINE
8
0
10
187.2291718
20
-27.2586623
11
195.3131522
21
-29.8853067
0
LINE
8
0
10
-0.5604235
20
61.1362319
11
13.3863023
21
62.3564123
0
LINE
8
0
10
13.3863023
20
62.3564123
11
12.1661219
21
76.3031381
0
LINE
8
0
10
12.1661219
20
76.3031381
11
-1.7806039
21
75.0829577
0
LINE
8
0
10
-1.7806039
20
75.0829577
11
-0.5604235
21
61.1362319
0
LINE
8
0
10
25.8701718
20
77.6117893
11
39.6574803
21
75.1807148
0
LINE
8
0
10
39.6574803
20
75.1807148
11
42.0885548
21
88.9680233
0
LINE
8
0
10
42.0885548
20
88.9680233
11
28.3012463
21
91.3990978
0
LINE
8
0
10
28.3012463
20
91.3990978
11
25.8701718
21
77.6117893
0
LINE
8
0
10
49.0557618
20
83.4505941
11
62.7498282
21
80.5398305
0
LINE
8
0
10
62.7498282
20
80.5398305
11
65.6605918
21
94.2338969
0
LINE
8
0
10
65.6605918
20
94.2338969
11
51.9665254
21
97.1446605
0
LINE
8
0
10
51.9665254
20
97.1446605
11
49.0557618
21
83.4505941
0
LINE
8
0
10
68.6801247
20
84.39101
11
82.3741911
21
81.4802464
0
LINE
8
0
10
82.3741911
20
81.4802464
11
85.2849547
21
95.1743128
0
LINE
8
0
10
85.2849547
20
95.1743128
11
71.5908883
21
98.0850764
0
LINE
8
0
10
71.5908883
20
98.0850764
11
68.6801247
21
84.39101
0
LINE
8
0
10
86.0174589
20
74.5718023
11
99.7115253
21
71.6610387
0
LINE
8
0
10
99.7115253
20
71.6610387
11
102.6222889
21
85.3551051
0
LINE
8
0
10
102.6222889
20
85.3551051
11
88.9282225
21
88.2658687
0
LINE
8
0
10
88.9282225
20
88.2658687
11
86.0174589
21
74.5718023
0
LINE
8
0
10
104.1864399
20
68.6651849
11
117.8805063
21
65.7544213
0
LINE
8
0
10
117.8805063
20
65.7544213
11
120.7912699
21
79.4484877
0
LINE
8
0
10
120.7912699
20
79.4484877
11
107.0972035
21
82.3592513
0
LINE
8
0
10
107.0972035
20
82.3592513
11
104.1864399
21
68.6651849
0
LINE
8
0
10
80.1225068
20
-16.1091649
11
83.0332704
21
-2.4150985
0
LINE
8
0
10
83.0332704
20
-2.4150985
11
69.339204
21
0.4956651
0
LINE
8
0
10
69.339204
20
0.4956651
11
66.4284404
21
-13.1984013
0
LINE
8
0
10
66.4284404
20
-13.1984013
11
80.1225068
21
-16.1091649
0
LINE
8
0
10
109.0024946
20
9.31697
11
122.696561
21
6.4062064
0
LINE
8
0
10
122.696561
20
6.4062064
11
125.6073246
21
20.1002728
0
LINE
8
0
10
125.6073246
20
20.1002728
11
111.9132582
21
23.0110364
0
LINE
8
0
10
111.9132582
20
23.0110364
11
109.0024946
21
9.31697
0
LINE
8
0
10
129.8641307
20
6.7827995
11
142.3382221
21
0.4269325
0
LINE
8
0
10
142.3382221
20
0.4269325
11
148.6940891
21
12.9010239
0
LINE
8
0
10
148.6940891
20
12.9010239
11
136.2199977
21
19.2568909
0
LINE
8
0
10
136.2199977
20
19.2568909
11
129.8641307
21
6.7827995
0
LINE
8
0
10
143.898361
20
-13.0940743
11
148.2245989
21
-26.4088656
0
LINE
8
0
10
148.2245989
20
-26.4088656
11
161.5393902
21
-22.0826277
0
LINE
8
0
10
161.5393902
20
-22.0826277
11
157.2131523
21
-8.7678364
0
LINE
8
0
10
157.2131523
20
-8.7678364
11
143.898361
21
-13.0940743
0
LINE
8
0
10
319.4520631
20
62.3564123
11
333.3987889
21
61.1362319
0
LINE
8
0
10
333.3987889
20
61.1362319
11
334.6189693
21
75.0829577
0
LINE
8
0
10
334.6189693
20
75.0829577
11
320.6722435
21
76.3031381
0
LINE
8
0
10
320.6722435
20
76.3031381
11
319.4520631
21
62.3564123
0
LINE
8
0
10
293.1808851
20
75.1807148
11
306.9681936
21
77.6117893
0
LINE
8
0
10
306.9681936
20
77.6117893
11
304.5371191
21
91.3990978
0
LINE
8
0
10
304.5371191
20
91.3990978
11
290.7498106
21
88.9680233
0
LINE
8
0
10
290.7498106
20
88.9680233
11
293.1808851
21
75.1807148
0
LINE
8
0
10
270.0885372
20
80.5398305
11
283.7826036
21
83.4505941
0
LINE
8
0
10
283.7826036
20
83.4505941
11
280.87184
21
97.1446605
0
LINE
8
0
10
280.87184
20
97.1446605
11
267.1777736
21
94.2338969
0
LINE
8
0
10
267.1777736
20
94.2338969
11
270.0885372
21
80.5398305
0
LINE
8
0
10
250.4641743
20
81.4802464
11
264.1582407
21
84.39101
0
LINE
8
0
10
264.1582407
20
84.39101
11
261.2474771
21
98.0850764
0
LINE
8
0
10
261.2474771
20
98.0850764
11
247.5534107
21
95.1743128
0
LINE
8
0
10
247.5534107
20
95.1743128
11
250.4641743
21
81.4802464
0
LINE
8
0
10
233.1268401
20
71.6610387
11
246.8209065
21
74.5718023
0
LINE
8
0
10
246.8209065
20
74.5718023
11
243.9101429
21
88.2658687
0
LINE
8
0
10
243.9101429
20
88.2658687
11
230.2160765
21
85.3551051
0
LINE
8
0
10
230.2160765
20
85.3551051
11
233.1268401
21
71.6610387
0
LINE
8
0
10
214.9578591
20
65.7544213
11
228.6519255
21
68.6651849
0
LINE
8
0
10
228.6519255
20
68.6651849
11
225.7411619
21
82.3592513
0
LINE
8
0
10
225.7411619
20
82.3592513
11
212.0470955
21
79.4484877
0
LINE
8
0
10
212.0470955
20
79.4484877
11
214.9578591
21
65.7544213
0
LINE
8
0
10
249.805095
20
-2.4150985
11
252.7158586
21
-16.1091649
0
LINE
8
0
10
252.7158586
20
-16.1091649
11
266.409925
21
-13.1984013
0
LINE
8
0
10
266.409925
20
-13.1984013
11
263.4991614
21
0.4956651
0
LINE
8
0
10
263.4991614
20
0.4956651
11
249.805095
21
-2.4150985
0
LINE
8
0
10
210.1418044
20
6.4062064
11
223.8358708
21
9.31697
0
LINE
8
0
10
223.8358708
20
9.31697
11
220.9251072
21
23.0110364
0
LINE
8
0
10
220.9251072
20
23.0110364
11
207.2310408
21
20.1002728
0
LINE
8
0
10
207.2310408
20
20.1002728
11
210.1418044
21
6.4062064
0
LINE
8
0
10
190.5001433
20
0.4269325
11
202.9742347
21
6.7827995
0
LINE
8
0
10
202.9742347
20
6.7827995
11
196.6183677
21
19.2568909
0
LINE
8
0
10
196.6183677
20
19.2568909
11
184.1442763
21
12.9010239
0
LINE
8
0
10
184.1442763
20
12.9010239
11
190.5001433
21
0.4269325
0
LINE
8
0
10
184.6137665
20
-26.4088656
11
188.9400044
21
-13.0940743
0
LINE
8
0
10
188.9400044
20
-13.0940743
11
175.6252131
21
-8.7678364
0
LINE
8
0
10
175.6252131
20
-8.7678364
11
171.2989752
21
-22.0826277
0
LINE
8
0
10
171.2989752
20
-22.0826277
11
184.6137665
21
-26.4088656
0
ENDSEC
0
EOF