<svg width="329.853mm" height="161.767mm" viewBox="0 0 329.853 161.767" xmlns="http://www.w3.org/2000/svg"><g id="svgGroup" stroke-linecap="round" fill-rule="evenodd" font-size="9pt" stroke="#000" stroke-width="0.25mm" fill="none" style="stroke:#000;stroke-width:0.25mm;fill:none"><path d="M 0.046 63.75 L 10.301 5.59 A 3 3 0 0 1 13.776 3.156 L 28.901 5.823 A 3 3 0 0 0 30.156 5.777 L 52.692 0.091 A 3 3 0 0 1 53.426 0 L 276.426 0 A 3 3 0 0 1 277.16 0.091 L 299.697 5.777 A 3 3 0 0 0 300.952 5.823 L 316.077 3.156 A 3 3 0 0 1 319.552 5.59 L 329.807 63.75 A 3 3 0 0 1 329.31 65.991 L 315.113 86.268 A 3 3 0 0 1 313.803 87.319 L 256.996 110.834 A 3 3 0 0 0 256.464 111.12 L 240.331 122.027 A 3 3 0 0 1 239.918 122.26 L 219.686 131.695 A 3 3 0 0 0 218.889 132.237 L 188.625 160.944 A 3 3 0 0 1 186.56 161.767 L 143.293 161.767 A 3 3 0 0 1 141.228 160.944 L 110.964 132.237 A 3 3 0 0 0 110.167 131.695 L 89.935 122.26 A 3 3 0 0 1 89.522 122.027 L 73.389 111.12 A 3 3 0 0 0 72.856 110.834 L 16.05 87.319 A 3 3 0 0 1 14.74 86.268 L 0.543 65.991 A 3 3 0 0 1 0.046 63.75 Z M 118.612 122.823 L 130.08 130.853 L 138.11 119.385 L 126.642 111.355 L 118.612 122.823 Z M 136.127 137.995 L 147.595 146.025 L 155.625 134.557 L 144.157 126.526 L 136.127 137.995 Z M 182.257 146.025 L 193.725 137.995 L 185.695 126.526 L 174.227 134.557 L 182.257 146.025 Z M 199.773 130.853 L 211.241 122.823 L 203.211 111.355 L 191.743 119.385 L 199.773 130.853 Z M 73.253 18.121 L 86.947 21.031 L 89.857 7.337 L 76.163 4.427 L 73.253 18.121 Z M 242.906 21.031 L 256.6 18.121 L 253.689 4.427 L 239.995 7.337 L 242.906 21.031 Z M 41.31 77.016 L 55.004 79.927 L 57.914 66.233 L 44.22 63.322 L 41.31 77.016 Z M 68.835 38.906 L 82.529 41.817 L 85.439 28.123 L 71.745 25.212 L 68.835 38.906 Z M 247.324 41.817 L 261.018 38.906 L 258.107 25.212 L 244.413 28.123 L 247.324 41.817 Z M 90.59 27.94 L 104.284 30.851 L 107.195 17.156 L 93.501 14.246 L 90.59 27.94 Z M 225.569 30.851 L 239.263 27.94 L 236.352 14.246 L 222.658 17.156 L 225.569 30.851 Z M 49.21 39.847 L 62.904 42.757 L 65.815 29.063 L 52.121 26.153 L 49.21 39.847 Z M 86.172 48.725 L 99.866 51.636 L 102.777 37.942 L 89.083 35.031 L 86.172 48.725 Z M 266.949 42.757 L 280.643 39.847 L 277.732 26.153 L 264.038 29.063 L 266.949 42.757 Z M 229.987 51.636 L 243.681 48.725 L 240.77 35.031 L 227.076 37.942 L 229.987 51.636 Z M 45.26 58.431 L 58.954 61.342 L 61.865 47.648 L 48.171 44.737 L 45.26 58.431 Z M 60.934 76.076 L 74.628 78.987 L 77.539 65.293 L 63.845 62.382 L 60.934 76.076 Z M 64.884 57.491 L 78.578 60.402 L 81.489 46.708 L 67.795 43.797 L 64.884 57.491 Z M 78.271 85.895 L 91.965 88.806 L 94.876 75.112 L 81.182 72.201 L 78.271 85.895 Z M 82.222 67.31 L 95.916 70.221 L 98.826 56.527 L 85.132 53.616 L 82.222 67.31 Z M 96.44 91.802 L 110.134 94.712 L 113.045 81.018 L 99.351 78.108 L 96.44 91.802 Z M 100.391 73.217 L 114.085 76.128 L 116.995 62.434 L 103.301 59.523 L 100.391 73.217 Z M 104.341 54.632 L 118.035 57.543 L 120.946 43.849 L 107.252 40.938 L 104.341 54.632 Z M 274.849 79.927 L 288.543 77.016 L 285.632 63.322 L 271.938 66.233 L 274.849 79.927 Z M 270.899 61.342 L 284.593 58.431 L 281.682 44.737 L 267.988 47.648 L 270.899 61.342 Z M 255.225 78.987 L 268.919 76.076 L 266.008 62.382 L 252.314 65.293 L 255.225 78.987 Z M 251.275 60.402 L 264.969 57.491 L 262.058 43.797 L 248.364 46.708 L 251.275 60.402 Z M 237.887 88.806 L 251.582 85.895 L 248.671 72.201 L 234.977 75.112 L 237.887 88.806 Z M 233.937 70.221 L 247.631 67.31 L 244.72 53.616 L 231.026 56.527 L 233.937 70.221 Z M 219.719 94.712 L 233.413 91.802 L 230.502 78.108 L 216.808 81.018 L 219.719 94.712 Z M 215.768 76.128 L 229.462 73.217 L 226.551 59.523 L 212.857 62.434 L 215.768 76.128 Z M 211.818 57.543 L 225.512 54.632 L 222.601 40.938 L 208.907 43.849 L 211.818 57.543 Z M 237.655 110.376 L 251.349 107.465 L 248.438 93.771 L 234.744 96.682 L 237.655 110.376 Z M 78.504 107.465 L 92.198 110.376 L 95.109 96.682 L 81.415 93.771 L 78.504 107.465 Z M 53.628 19.061 L 67.322 21.972 L 70.233 8.278 L 56.539 5.367 L 53.628 19.061 Z M 108.759 33.846 L 122.453 36.757 L 125.364 23.063 L 111.67 20.152 L 108.759 33.846 Z M 262.53 21.972 L 276.224 19.061 L 273.314 5.367 L 259.62 8.278 L 262.53 21.972 Z M 207.4 36.757 L 221.094 33.846 L 218.183 20.152 L 204.489 23.063 L 207.4 36.757 Z M 116.397 98.808 L 128.397 106.018 L 135.608 94.018 L 123.607 86.807 L 116.397 98.808 Z M 201.456 106.018 L 213.456 98.808 L 206.245 86.807 L 194.245 94.018 L 201.456 106.018 Z M 12.061 21.665 L 25.848 24.096 L 28.28 10.308 L 14.492 7.877 L 12.061 21.665 Z M 30.772 24.964 L 44.56 27.395 L 46.991 13.608 L 33.204 11.177 L 30.772 24.964 Z M 307.694 45.023 L 321.482 42.592 L 319.051 28.804 L 305.263 31.236 L 307.694 45.023 Z M 288.983 48.322 L 302.77 45.891 L 300.339 32.104 L 286.552 34.535 L 288.983 48.322 Z M 304.004 24.096 L 317.792 21.665 L 315.361 7.877 L 301.573 10.308 L 304.004 24.096 Z M 285.293 27.395 L 299.08 24.964 L 296.649 11.177 L 282.862 13.608 L 285.293 27.395 Z M 5.072 61.303 L 18.859 63.734 L 21.29 49.947 L 7.503 47.516 L 5.072 61.303 Z M 8.371 42.592 L 22.158 45.023 L 24.59 31.236 L 10.802 28.804 L 8.371 42.592 Z M 20.484 83.314 L 34.271 85.745 L 36.702 71.958 L 22.915 69.526 L 20.484 83.314 Z M 23.783 64.602 L 37.57 67.033 L 40.002 53.246 L 26.214 50.815 L 23.783 64.602 Z M 27.082 45.891 L 40.87 48.322 L 43.301 34.535 L 29.514 32.104 L 27.082 45.891 Z M 310.994 63.734 L 324.781 61.303 L 322.35 47.516 L 308.563 49.947 L 310.994 63.734 Z M 295.582 85.745 L 309.369 83.314 L 306.938 69.526 L 293.151 71.958 L 295.582 85.745 Z M 292.282 67.033 L 306.07 64.602 L 303.639 50.815 L 289.851 53.246 L 292.282 67.033 Z M 218.997 120.665 L 231.685 114.748 L 225.768 102.06 L 213.08 107.977 L 218.997 120.665 Z M 98.168 114.748 L 110.856 120.665 L 116.773 107.977 L 104.085 102.06 L 98.168 114.748 Z M 263.466 26.373 L 277.16 23.463 L 276.744 21.506 L 263.05 24.417 L 263.466 26.373 Z M 243.842 25.433 L 257.536 22.522 L 257.12 20.566 L 243.426 23.477 L 243.842 25.433 Z M 226.504 35.252 L 240.198 32.341 L 239.783 30.385 L 226.089 33.296 L 226.504 35.252 Z M 208.335 41.159 L 222.029 38.248 L 221.614 36.292 L 207.92 39.203 L 208.335 41.159 Z M 52.693 23.463 L 66.387 26.373 L 66.803 24.417 L 53.109 21.506 L 52.693 23.463 Z M 72.317 22.522 L 86.011 25.433 L 86.427 23.477 L 72.733 20.566 L 72.317 22.522 Z M 89.654 32.341 L 103.348 35.252 L 103.764 33.296 L 90.07 30.385 L 89.654 32.341 Z M 107.823 38.248 L 121.517 41.159 L 121.933 39.203 L 108.239 36.292 L 107.823 38.248 Z M 304.786 28.527 L 318.573 26.096 L 318.226 24.127 L 304.438 26.558 L 304.786 28.527 Z M 286.074 31.827 L 299.862 29.396 L 299.514 27.426 L 285.727 29.857 L 286.074 31.827 Z M 29.991 29.396 L 43.778 31.827 L 44.126 29.857 L 30.338 27.426 L 29.991 29.396 Z M 11.28 26.096 L 25.067 28.527 L 25.414 26.558 L 11.627 24.127 L 11.28 26.096 Z" vector-effect="non-scaling-stroke"/></g></svg>