<svg width="322.376mm" height="165.867mm" viewBox="0 0 322.376 165.867" xmlns="http://www.w3.org/2000/svg"><g id="svgGroup" stroke-linecap="round" fill-rule="evenodd" font-size="9pt" stroke="#000" stroke-width="0.25mm" fill="none" style="stroke:#000;stroke-width:0.25mm;fill:none"><path d="M 0.046 90.187 L 11.971 22.553 A 3 3 0 0 1 13.202 20.619 L 33.745 6.194 A 3 3 0 0 1 34.752 5.736 L 57.703 0.087 A 3 3 0 0 1 58.42 0 L 263.956 0 A 3 3 0 0 1 264.673 0.087 L 287.623 5.736 A 3 3 0 0 1 288.63 6.194 L 309.174 20.619 A 3 3 0 0 1 310.405 22.553 L 322.33 90.187 A 3 3 0 0 1 319.889 93.663 L 304.482 96.338 A 3 3 0 0 0 303.807 96.54 L 250.906 119.37 A 3 3 0 0 1 250.884 119.379 L 228.998 128.618 A 3 3 0 0 0 227.701 129.671 L 203.463 164.578 A 3 3 0 0 1 200.998 165.867 L 121.377 165.867 A 3 3 0 0 1 118.913 164.578 L 94.675 129.671 A 3 3 0 0 0 93.378 128.618 L 71.491 119.379 A 3 3 0 0 1 71.469 119.37 L 18.569 96.54 A 3 3 0 0 0 17.894 96.338 L 2.487 93.663 A 3 3 0 0 1 0.046 90.187 Z M 120.195 141.36 L 129.195 152.084 L 139.919 143.085 L 130.92 132.361 L 120.195 141.36 Z M 136.585 115.173 L 145.584 125.898 L 156.309 116.899 L 147.31 106.174 L 136.585 115.173 Z M 193.181 152.084 L 202.18 141.36 L 191.456 132.361 L 182.457 143.085 L 193.181 152.084 Z M 176.792 125.898 L 185.791 115.173 L 175.066 106.174 L 166.067 116.899 L 176.792 125.898 Z M 122.816 98.072 L 133.849 106.692 L 142.468 95.659 L 131.436 87.04 L 122.816 98.072 Z M 188.527 106.692 L 199.559 98.072 L 190.94 87.04 L 179.908 95.659 L 188.527 106.692 Z M 44.311 86.431 L 58.005 89.342 L 60.916 75.648 L 47.222 72.737 L 44.311 86.431 Z M 52.212 49.261 L 65.906 52.172 L 68.816 38.478 L 55.122 35.567 L 52.212 49.261 Z M 67.886 66.906 L 81.58 69.816 L 84.491 56.122 L 70.796 53.212 L 67.886 66.906 Z M 240.796 69.816 L 254.49 66.906 L 251.579 53.212 L 237.885 56.122 L 240.796 69.816 Z M 58.631 19.061 L 72.325 21.972 L 75.236 8.278 L 61.542 5.367 L 58.631 19.061 Z M 103.392 82.632 L 117.086 85.542 L 119.997 71.848 L 106.303 68.937 L 103.392 82.632 Z M 256.47 52.172 L 270.164 49.261 L 267.253 35.567 L 253.559 38.478 L 256.47 52.172 Z M 205.29 85.542 L 218.984 82.632 L 216.073 68.937 L 202.379 71.848 L 205.29 85.542 Z M 48.261 67.846 L 61.955 70.757 L 64.866 57.063 L 51.172 54.152 L 48.261 67.846 Z M 63.935 85.49 L 77.629 88.401 L 80.54 74.707 L 66.846 71.796 L 63.935 85.49 Z M 81.273 95.31 L 94.967 98.22 L 97.878 84.526 L 84.183 81.616 L 81.273 95.31 Z M 85.223 76.725 L 98.917 79.636 L 101.828 65.942 L 88.134 63.031 L 85.223 76.725 Z M 99.442 101.216 L 113.136 104.127 L 116.047 90.433 L 102.352 87.522 L 99.442 101.216 Z M 76.847 115.889 L 90.541 118.8 L 93.452 105.106 L 79.758 102.195 L 76.847 115.889 Z M 264.371 89.342 L 278.065 86.431 L 275.154 72.737 L 261.46 75.648 L 264.371 89.342 Z M 260.42 70.757 L 274.114 67.846 L 271.204 54.152 L 257.51 57.063 L 260.42 70.757 Z M 244.746 88.401 L 258.44 85.49 L 255.53 71.796 L 241.836 74.707 L 244.746 88.401 Z M 227.409 98.22 L 241.103 95.31 L 238.192 81.616 L 224.498 84.526 L 227.409 98.22 Z M 223.459 79.636 L 237.153 76.725 L 234.242 63.031 L 220.548 65.942 L 223.459 79.636 Z M 209.24 104.127 L 222.934 101.216 L 220.023 87.522 L 206.329 90.433 L 209.24 104.127 Z M 231.834 118.8 L 245.529 115.889 L 242.618 102.195 L 228.924 105.106 L 231.834 118.8 Z M 71.836 48.321 L 85.53 51.232 L 88.441 37.538 L 74.747 34.627 L 71.836 48.321 Z M 89.173 58.14 L 102.867 61.051 L 105.778 47.357 L 92.084 44.446 L 89.173 58.14 Z M 107.342 64.047 L 121.036 66.957 L 123.947 53.263 L 110.253 50.353 L 107.342 64.047 Z M 236.846 51.232 L 250.54 48.321 L 247.629 34.627 L 233.935 37.538 L 236.846 51.232 Z M 219.508 61.051 L 233.202 58.14 L 230.292 44.446 L 216.598 47.357 L 219.508 61.051 Z M 201.339 66.957 L 215.033 64.047 L 212.123 50.353 L 198.429 53.263 L 201.339 66.957 Z M 78.255 18.121 L 91.949 21.031 L 94.86 7.337 L 81.166 4.427 L 78.255 18.121 Z M 95.593 27.94 L 109.287 30.851 L 112.197 17.156 L 98.503 14.246 L 95.593 27.94 Z M 113.762 33.846 L 127.456 36.757 L 130.366 23.063 L 116.672 20.152 L 113.762 33.846 Z M 250.051 21.972 L 263.745 19.061 L 260.834 5.367 L 247.14 8.278 L 250.051 21.972 Z M 230.426 21.031 L 244.121 18.121 L 241.21 4.427 L 227.516 7.337 L 230.426 21.031 Z M 213.089 30.851 L 226.783 27.94 L 223.872 14.246 L 210.178 17.156 L 213.089 30.851 Z M 194.92 36.757 L 208.614 33.846 L 205.703 20.152 L 192.009 23.063 L 194.92 36.757 Z M 103.468 122.63 L 115.341 130.049 L 122.76 118.176 L 110.887 110.757 L 103.468 122.63 Z M 207.035 130.049 L 218.908 122.63 L 211.489 110.757 L 199.616 118.176 L 207.035 130.049 Z M 26.785 74.017 L 40.572 76.448 L 43.003 62.661 L 29.216 60.23 L 26.785 74.017 Z M 300.524 73.198 L 314.311 70.767 L 311.88 56.98 L 298.093 59.411 L 300.524 73.198 Z M 281.804 76.448 L 295.591 74.017 L 293.16 60.23 L 279.373 62.661 L 281.804 76.448 Z M 278.505 57.737 L 292.292 55.306 L 289.861 41.518 L 276.073 43.949 L 278.505 57.737 Z M 4.765 89.478 L 18.553 91.909 L 20.984 78.122 L 7.196 75.691 L 4.765 89.478 Z M 8.065 70.767 L 21.852 73.198 L 24.283 59.411 L 10.496 56.98 L 8.065 70.767 Z M 23.485 92.728 L 37.273 95.159 L 39.704 81.372 L 25.916 78.941 L 23.485 92.728 Z M 30.084 55.306 L 43.871 57.737 L 46.302 43.949 L 32.515 41.518 L 30.084 55.306 Z M 303.823 91.909 L 317.611 89.478 L 315.179 75.691 L 301.392 78.122 L 303.823 91.909 Z M 285.103 95.159 L 298.89 92.728 L 296.459 78.941 L 282.672 81.372 L 285.103 95.159 Z M 13.426 40.361 L 27.213 42.792 L 29.644 29.005 L 15.857 26.574 L 13.426 40.361 Z M 35.445 24.9 L 49.233 27.331 L 51.664 13.544 L 37.876 11.112 L 35.445 24.9 Z M 295.162 42.792 L 308.95 40.361 L 306.519 26.574 L 292.731 29.005 L 295.162 42.792 Z M 273.143 27.331 L 286.93 24.9 L 284.499 11.112 L 270.712 13.544 L 273.143 27.331 Z M 185.41 133.129 L 194.409 122.404 L 187.897 116.941 L 178.898 127.665 L 185.41 133.129 Z M 127.967 122.404 L 136.966 133.129 L 143.477 127.665 L 134.478 116.941 L 127.967 122.404 Z M 232.765 32.035 L 246.46 29.125 L 244.692 20.81 L 230.998 23.721 L 232.765 32.035 Z M 197.259 47.761 L 210.953 44.851 L 209.186 36.536 L 195.492 39.447 L 197.259 47.761 Z M 252.39 32.976 L 266.084 30.065 L 264.317 21.751 L 250.623 24.662 L 252.39 32.976 Z M 56.292 30.065 L 69.986 32.976 L 71.753 24.662 L 58.059 21.751 L 56.292 30.065 Z M 215.428 41.855 L 229.122 38.944 L 227.355 30.63 L 213.661 33.54 L 215.428 41.855 Z M 75.916 29.125 L 89.61 32.035 L 91.378 23.721 L 77.684 20.81 L 75.916 29.125 Z M 93.254 38.944 L 106.948 41.855 L 108.715 33.54 L 95.021 30.63 L 93.254 38.944 Z M 111.423 44.851 L 125.117 47.761 L 126.884 39.447 L 113.19 36.536 L 111.423 44.851 Z M 297.116 53.871 L 310.903 51.44 L 309.427 43.069 L 295.64 45.5 L 297.116 53.871 Z M 11.472 51.44 L 25.26 53.871 L 26.736 45.5 L 12.948 43.069 L 11.472 51.44 Z M 275.097 38.41 L 288.884 35.979 L 287.408 27.608 L 273.621 30.039 L 275.097 38.41 Z M 33.492 35.979 L 47.279 38.41 L 48.755 30.039 L 34.968 27.608 L 33.492 35.979 Z M 115.89 106.937 L 126.922 115.557 L 132.155 108.859 L 121.123 100.239 L 115.89 106.937 Z M 195.453 115.557 L 206.486 106.937 L 201.252 100.239 L 190.22 108.859 L 195.453 115.557 Z" vector-effect="non-scaling-stroke"/></g></svg>