<svg width="311.792mm" height="136.715mm" viewBox="0 0 311.792 136.715" xmlns="http://www.w3.org/2000/svg"><g id="svgGroup" stroke-linecap="round" fill-rule="evenodd" font-size="9pt" stroke="#000" stroke-width="0.25mm" fill="none" style="stroke:#000;stroke-width:0.25mm;fill:none"><path d="M 36.924 70.389 L 50.618 73.3 L 53.528 59.606 L 39.834 56.695 L 36.924 70.389 Z M 48.775 14.634 L 62.469 17.545 L 65.379 3.851 L 51.685 0.94 L 48.775 14.634 Z M 68.399 13.694 L 82.093 16.605 L 85.004 2.911 L 71.31 0 L 68.399 13.694 Z M 249.323 17.545 L 263.017 14.634 L 260.107 0.94 L 246.413 3.851 L 249.323 17.545 Z M 229.699 16.605 L 243.393 13.694 L 240.482 0 L 226.788 2.911 L 229.699 16.605 Z M 96.005 66.59 L 109.699 69.5 L 112.609 55.806 L 98.915 52.895 L 96.005 66.59 Z M 40.874 51.804 L 54.568 54.715 L 57.479 41.021 L 43.785 38.11 L 40.874 51.804 Z M 44.824 33.219 L 58.518 36.13 L 61.429 22.436 L 47.735 19.525 L 44.824 33.219 Z M 56.548 69.448 L 70.242 72.359 L 73.153 58.665 L 59.459 55.754 L 56.548 69.448 Z M 60.498 50.864 L 74.192 53.774 L 77.103 40.08 L 63.409 37.17 L 60.498 50.864 Z M 64.449 32.279 L 78.143 35.19 L 81.053 21.496 L 67.359 18.585 L 64.449 32.279 Z M 73.885 79.268 L 87.579 82.178 L 90.49 68.484 L 76.796 65.574 L 73.885 79.268 Z M 77.836 60.683 L 91.53 63.594 L 94.44 49.9 L 80.746 46.989 L 77.836 60.683 Z M 81.786 42.098 L 95.48 45.009 L 98.391 31.315 L 84.697 28.404 L 81.786 42.098 Z M 85.736 23.513 L 99.43 26.424 L 102.341 12.73 L 88.647 9.819 L 85.736 23.513 Z M 99.955 48.005 L 113.649 50.915 L 116.56 37.221 L 102.866 34.311 L 99.955 48.005 Z M 103.905 29.42 L 117.599 32.331 L 120.51 18.637 L 106.816 15.726 L 103.905 29.42 Z M 261.174 73.3 L 274.868 70.389 L 271.958 56.695 L 258.264 59.606 L 261.174 73.3 Z M 257.224 54.715 L 270.918 51.804 L 268.007 38.11 L 254.313 41.021 L 257.224 54.715 Z M 253.274 36.13 L 266.968 33.219 L 264.057 19.525 L 250.363 22.436 L 253.274 36.13 Z M 241.55 72.359 L 255.244 69.448 L 252.333 55.754 L 238.639 58.665 L 241.55 72.359 Z M 237.6 53.774 L 251.294 50.864 L 248.383 37.17 L 234.689 40.08 L 237.6 53.774 Z M 233.649 35.19 L 247.343 32.279 L 244.433 18.585 L 230.739 21.496 L 233.649 35.19 Z M 224.213 82.178 L 237.907 79.268 L 234.996 65.574 L 221.302 68.484 L 224.213 82.178 Z M 220.262 63.594 L 233.956 60.683 L 231.046 46.989 L 217.352 49.9 L 220.262 63.594 Z M 216.312 45.009 L 230.006 42.098 L 227.095 28.404 L 213.401 31.315 L 216.312 45.009 Z M 212.362 26.424 L 226.056 23.513 L 223.145 9.819 L 209.451 12.73 L 212.362 26.424 Z M 206.044 88.085 L 219.738 85.174 L 216.827 71.48 L 203.133 74.391 L 206.044 88.085 Z M 202.093 69.5 L 215.787 66.59 L 212.877 52.895 L 199.183 55.806 L 202.093 69.5 Z M 198.143 50.915 L 211.837 48.005 L 208.926 34.311 L 195.232 37.221 L 198.143 50.915 Z M 194.193 32.331 L 207.887 29.42 L 204.976 15.726 L 191.282 18.637 L 194.193 32.331 Z M 92.054 85.174 L 105.748 88.085 L 108.659 74.391 L 94.965 71.48 L 92.054 85.174 Z M 63.63 98.659 L 77.324 101.57 L 80.234 87.876 L 66.54 84.965 L 63.63 98.659 Z M 234.469 101.57 L 248.163 98.659 L 245.252 84.965 L 231.558 87.876 L 234.469 101.57 Z M 99.396 126.07 L 111.268 133.489 L 118.687 121.617 L 106.815 114.198 L 99.396 126.07 Z M 109.464 109.958 L 121.337 117.376 L 128.756 105.504 L 116.883 98.085 L 109.464 109.958 Z M 122.438 129.296 L 134.31 136.715 L 141.729 124.842 L 129.857 117.423 L 122.438 129.296 Z M 200.524 133.489 L 212.396 126.07 L 204.977 114.198 L 193.105 121.617 L 200.524 133.489 Z M 190.455 117.376 L 202.328 109.958 L 194.909 98.085 L 183.036 105.504 L 190.455 117.376 Z M 177.482 136.715 L 189.354 129.296 L 181.935 117.423 L 170.063 124.842 L 177.482 136.715 Z M 282.601 83.057 L 296.389 80.626 L 293.958 66.838 L 280.17 69.269 L 282.601 83.057 Z M 272.703 26.923 L 286.491 24.492 L 284.06 10.704 L 270.272 13.135 L 272.703 26.923 Z M 0 58.566 L 13.787 60.997 L 16.218 47.21 L 2.431 44.778 L 0 58.566 Z M 3.299 39.854 L 17.087 42.285 L 19.518 28.498 L 5.73 26.067 L 3.299 39.854 Z M 15.403 80.626 L 29.191 83.057 L 31.622 69.269 L 17.834 66.838 L 15.403 80.626 Z M 18.703 61.914 L 32.49 64.345 L 34.921 50.558 L 21.134 48.127 L 18.703 61.914 Z M 22.002 43.203 L 35.789 45.634 L 38.22 31.847 L 24.433 29.416 L 22.002 43.203 Z M 25.301 24.492 L 39.089 26.923 L 41.52 13.135 L 27.732 10.704 L 25.301 24.492 Z M 298.005 60.997 L 311.792 58.566 L 309.361 44.778 L 295.574 47.21 L 298.005 60.997 Z M 294.705 42.285 L 308.493 39.854 L 306.062 26.067 L 292.274 28.498 L 294.705 42.285 Z M 279.302 64.345 L 293.089 61.914 L 290.658 48.127 L 276.871 50.558 L 279.302 64.345 Z M 276.003 45.634 L 289.79 43.203 L 287.359 29.416 L 273.572 31.847 L 276.003 45.634 Z M 87.178 104.856 L 100.159 110.101 L 105.403 97.12 L 92.422 91.876 L 87.178 104.856 Z M 211.634 110.101 L 224.614 104.856 L 219.37 91.876 L 206.389 97.12 L 211.634 110.101 Z" vector-effect="non-scaling-stroke"/></g></svg>