<svg width="298.573mm" height="145.952mm" viewBox="0 0 298.573 145.952" xmlns="http://www.w3.org/2000/svg"><g id="svgGroup" stroke-linecap="round" fill-rule="evenodd" font-size="9pt" stroke="#000" stroke-width="0.25mm" fill="none" style="stroke:#000;stroke-width:0.25mm;fill:none"><path d="M 93.243 130.552 L 103.968 139.551 L 112.967 128.827 L 102.242 119.828 L 93.243 130.552 Z M 115.612 136.953 L 126.337 145.952 L 135.336 135.228 L 124.611 126.229 L 115.612 136.953 Z M 105.456 115.997 L 116.181 124.996 L 125.18 114.272 L 114.455 105.273 L 105.456 115.997 Z M 194.605 139.551 L 205.33 130.552 L 196.331 119.828 L 185.606 128.827 L 194.605 139.551 Z M 172.236 145.952 L 182.961 136.953 L 173.962 126.229 L 163.237 135.228 L 172.236 145.952 Z M 182.392 124.996 L 193.117 115.997 L 184.118 105.273 L 173.393 114.272 L 182.392 124.996 Z M 84.097 107.844 L 96.221 114.844 L 103.221 102.72 L 91.097 95.72 L 84.097 107.844 Z M 202.352 114.844 L 214.476 107.844 L 207.476 95.72 L 195.352 102.72 L 202.352 114.844 Z M 36.665 17.934 L 49.821 22.722 L 54.609 9.566 L 41.454 4.778 L 36.665 17.934 Z M 45.627 48.864 L 58.783 53.652 L 63.571 40.497 L 50.415 35.708 L 45.627 48.864 Z M 61.64 98.43 L 74.796 103.218 L 79.584 90.063 L 66.428 85.274 L 61.64 98.43 Z M 285.417 67.907 L 298.573 63.118 L 293.785 49.963 L 280.629 54.751 L 285.417 67.907 Z M 278.919 50.052 L 292.075 45.264 L 287.286 32.108 L 274.131 36.897 L 278.919 50.052 Z M 52.125 31.01 L 65.281 35.798 L 70.069 22.642 L 56.914 17.854 L 52.125 31.01 Z M 91.665 89.032 L 104.821 93.821 L 109.609 80.665 L 96.453 75.877 L 91.665 89.032 Z M 58.624 13.156 L 71.779 17.944 L 76.568 4.788 L 63.412 0 L 58.624 13.156 Z M 65.191 50.664 L 78.347 55.452 L 83.135 42.297 L 69.979 37.508 L 65.191 50.664 Z M 71.69 32.81 L 84.845 37.598 L 89.634 24.442 L 76.478 19.654 L 71.69 32.81 Z M 78.188 14.956 L 91.344 19.744 L 96.132 6.588 L 82.976 1.8 L 78.188 14.956 Z M 74.495 80.655 L 87.651 85.443 L 92.439 72.287 L 79.283 67.499 L 74.495 80.655 Z M 80.993 62.8 L 94.149 67.589 L 98.937 54.433 L 85.781 49.645 L 80.993 62.8 Z M 87.492 44.946 L 100.647 49.735 L 105.436 36.579 L 92.28 31.791 L 87.492 44.946 Z M 93.99 27.092 L 107.146 31.88 L 111.934 18.725 L 98.778 13.936 L 93.99 27.092 Z M 98.163 71.178 L 111.319 75.967 L 116.107 62.811 L 102.952 58.023 L 98.163 71.178 Z M 104.662 53.324 L 117.817 58.112 L 122.606 44.957 L 109.45 40.168 L 104.662 53.324 Z M 111.16 35.47 L 124.316 40.258 L 129.104 27.103 L 115.948 22.314 L 111.16 35.47 Z M 261.749 58.43 L 274.904 53.642 L 270.116 40.486 L 256.96 45.275 L 261.749 58.43 Z M 0 63.118 L 13.156 67.907 L 17.944 54.751 L 4.788 49.963 L 0 63.118 Z M 6.498 45.264 L 19.654 50.052 L 24.442 36.897 L 11.287 32.108 L 6.498 45.264 Z M 17.17 71.496 L 30.326 76.284 L 35.114 63.129 L 21.958 58.34 L 17.17 71.496 Z M 23.669 53.642 L 36.824 58.43 L 41.612 45.275 L 28.457 40.486 L 23.669 53.642 Z M 30.167 35.788 L 43.323 40.576 L 48.111 27.42 L 34.955 22.632 L 30.167 35.788 Z M 39.129 66.718 L 52.284 71.506 L 57.072 58.351 L 43.917 53.562 L 39.129 66.718 Z M 58.693 68.518 L 71.848 73.306 L 76.637 60.151 L 63.481 55.362 L 58.693 68.518 Z M 248.752 22.722 L 261.908 17.934 L 257.119 4.778 L 243.964 9.566 L 248.752 22.722 Z M 226.794 17.944 L 239.949 13.156 L 235.161 0 L 222.005 4.788 L 226.794 17.944 Z M 213.728 37.598 L 226.883 32.81 L 222.095 19.654 L 208.939 24.442 L 213.728 37.598 Z M 210.922 85.443 L 224.078 80.655 L 219.29 67.499 L 206.134 72.287 L 210.922 85.443 Z M 191.427 31.88 L 204.583 27.092 L 199.795 13.936 L 186.639 18.725 L 191.427 31.88 Z M 193.752 93.821 L 206.908 89.032 L 202.12 75.877 L 188.964 80.665 L 193.752 93.821 Z M 180.756 58.112 L 193.911 53.324 L 189.123 40.168 L 175.967 44.957 L 180.756 58.112 Z M 223.777 103.218 L 236.933 98.43 L 232.145 85.274 L 218.989 90.063 L 223.777 103.218 Z M 268.247 76.284 L 281.403 71.496 L 276.615 58.34 L 263.459 63.129 L 268.247 76.284 Z M 255.25 40.576 L 268.406 35.788 L 263.618 22.632 L 250.462 27.42 L 255.25 40.576 Z M 239.79 53.652 L 252.946 48.864 L 248.158 35.708 L 235.002 40.497 L 239.79 53.652 Z M 233.292 35.798 L 246.448 31.01 L 241.659 17.854 L 228.504 22.642 L 233.292 35.798 Z M 220.226 55.452 L 233.382 50.664 L 228.594 37.508 L 215.438 42.297 L 220.226 55.452 Z M 197.926 49.735 L 211.081 44.946 L 206.293 31.791 L 193.137 36.579 L 197.926 49.735 Z M 174.257 40.258 L 187.413 35.47 L 182.625 22.314 L 169.469 27.103 L 174.257 40.258 Z M 246.289 71.506 L 259.444 66.718 L 254.656 53.562 L 241.5 58.351 L 246.289 71.506 Z M 226.724 73.306 L 239.88 68.518 L 235.092 55.362 L 221.936 60.151 L 226.724 73.306 Z M 207.229 19.744 L 220.385 14.956 L 215.597 1.8 L 202.441 6.588 L 207.229 19.744 Z M 204.424 67.589 L 217.58 62.8 L 212.791 49.645 L 199.636 54.433 L 204.424 67.589 Z M 187.254 75.967 L 200.41 71.178 L 195.621 58.023 L 182.466 62.811 L 187.254 75.967 Z" vector-effect="non-scaling-stroke"/></g></svg>