<svg width="319.709mm" height="139.397mm" viewBox="0 0 319.709 139.397" xmlns="http://www.w3.org/2000/svg"><g id="svgGroup" stroke-linecap="round" fill-rule="evenodd" font-size="9pt" stroke="#000" stroke-width="0.25mm" fill="none" style="stroke:#000;stroke-width:0.25mm;fill:none"><path d="M 113.54 116.196 L 125.008 124.226 L 133.038 112.758 L 121.57 104.728 L 113.54 116.196 Z M 131.055 131.367 L 142.524 139.397 L 150.554 127.929 L 139.086 119.899 L 131.055 131.367 Z M 177.186 139.397 L 188.654 131.367 L 180.624 119.899 L 169.155 127.929 L 177.186 139.397 Z M 194.701 124.226 L 206.169 116.196 L 198.139 104.728 L 186.671 112.758 L 194.701 124.226 Z M 36.238 70.389 L 49.932 73.3 L 52.843 59.606 L 39.148 56.695 L 36.238 70.389 Z M 48.089 14.634 L 61.783 17.545 L 64.694 3.851 L 50.999 0.94 L 48.089 14.634 Z M 63.763 32.279 L 77.457 35.19 L 80.368 21.496 L 66.673 18.585 L 63.763 32.279 Z M 85.05 23.513 L 98.744 26.424 L 101.655 12.73 L 87.961 9.819 L 85.05 23.513 Z M 242.252 35.19 L 255.946 32.279 L 253.036 18.585 L 239.342 21.496 L 242.252 35.19 Z M 220.965 26.424 L 234.659 23.513 L 231.748 9.819 L 218.054 12.73 L 220.965 26.424 Z M 44.138 33.219 L 57.832 36.13 L 60.743 22.436 L 47.049 19.525 L 44.138 33.219 Z M 67.713 13.694 L 81.407 16.605 L 84.318 2.911 L 70.624 0 L 67.713 13.694 Z M 81.1 42.098 L 94.794 45.009 L 97.705 31.315 L 84.011 28.404 L 81.1 42.098 Z M 261.877 36.13 L 275.571 33.219 L 272.66 19.525 L 258.966 22.436 L 261.877 36.13 Z M 238.302 16.605 L 251.996 13.694 L 249.085 0 L 235.391 2.911 L 238.302 16.605 Z M 224.915 45.009 L 238.609 42.098 L 235.698 28.404 L 222.004 31.315 L 224.915 45.009 Z M 40.188 51.804 L 53.882 54.715 L 56.793 41.021 L 43.099 38.11 L 40.188 51.804 Z M 55.862 69.448 L 69.556 72.359 L 72.467 58.665 L 58.773 55.754 L 55.862 69.448 Z M 59.812 50.864 L 73.506 53.774 L 76.417 40.08 L 62.723 37.17 L 59.812 50.864 Z M 73.199 79.268 L 86.893 82.178 L 89.804 68.484 L 76.11 65.574 L 73.199 79.268 Z M 77.15 60.683 L 90.844 63.594 L 93.755 49.9 L 80.061 46.989 L 77.15 60.683 Z M 91.368 85.174 L 105.062 88.085 L 107.973 74.391 L 94.279 71.48 L 91.368 85.174 Z M 95.319 66.59 L 109.013 69.5 L 111.924 55.806 L 98.229 52.895 L 95.319 66.59 Z M 99.269 48.005 L 112.963 50.915 L 115.874 37.221 L 102.18 34.311 L 99.269 48.005 Z M 269.777 73.3 L 283.471 70.389 L 280.561 56.695 L 266.867 59.606 L 269.777 73.3 Z M 265.827 54.715 L 279.521 51.804 L 276.61 38.11 L 262.916 41.021 L 265.827 54.715 Z M 250.153 72.359 L 263.847 69.448 L 260.936 55.754 L 247.242 58.665 L 250.153 72.359 Z M 246.203 53.774 L 259.897 50.864 L 256.986 37.17 L 243.292 40.08 L 246.203 53.774 Z M 232.816 82.178 L 246.51 79.268 L 243.599 65.574 L 229.905 68.484 L 232.816 82.178 Z M 228.865 63.594 L 242.559 60.683 L 239.649 46.989 L 225.955 49.9 L 228.865 63.594 Z M 214.647 88.085 L 228.341 85.174 L 225.43 71.48 L 211.736 74.391 L 214.647 88.085 Z M 210.696 69.5 L 224.39 66.59 L 221.48 52.895 L 207.786 55.806 L 210.696 69.5 Z M 206.746 50.915 L 220.44 48.005 L 217.529 34.311 L 203.835 37.221 L 206.746 50.915 Z M 232.583 103.748 L 246.277 100.837 L 243.366 87.143 L 229.672 90.054 L 232.583 103.748 Z M 103.219 29.42 L 116.913 32.331 L 119.824 18.637 L 106.13 15.726 L 103.219 29.42 Z M 73.432 100.837 L 87.126 103.748 L 90.037 90.054 L 76.343 87.143 L 73.432 100.837 Z M 257.926 17.545 L 271.62 14.634 L 268.71 0.94 L 255.016 3.851 L 257.926 17.545 Z M 202.796 32.331 L 216.49 29.42 L 213.579 15.726 L 199.885 18.637 L 202.796 32.331 Z M 111.325 92.18 L 123.325 99.391 L 130.536 87.39 L 118.536 80.18 L 111.325 92.18 Z M 196.384 99.391 L 208.384 92.18 L 201.174 80.18 L 189.173 87.39 L 196.384 99.391 Z M 25.31 20.552 L 39.097 22.983 L 41.528 9.196 L 27.741 6.765 L 25.31 20.552 Z M 302.623 38.395 L 316.41 35.964 L 313.979 22.177 L 300.191 24.608 L 302.623 38.395 Z M 283.911 41.695 L 297.699 39.264 L 295.267 25.476 L 281.48 27.907 L 283.911 41.695 Z M 280.612 22.983 L 294.399 20.552 L 291.968 6.765 L 278.181 9.196 L 280.612 22.983 Z M 0 54.676 L 13.787 57.107 L 16.218 43.32 L 2.431 40.888 L 0 54.676 Z M 3.299 35.964 L 17.087 38.395 L 19.518 24.608 L 5.73 22.177 L 3.299 35.964 Z M 6.599 17.253 L 20.386 19.684 L 22.817 5.897 L 9.03 3.466 L 6.599 17.253 Z M 15.412 76.686 L 29.199 79.117 L 31.63 65.33 L 17.843 62.899 L 15.412 76.686 Z M 18.711 57.975 L 32.499 60.406 L 34.93 46.619 L 21.142 44.188 L 18.711 57.975 Z M 22.011 39.264 L 35.798 41.695 L 38.229 27.907 L 24.442 25.476 L 22.011 39.264 Z M 305.922 57.107 L 319.709 54.676 L 317.278 40.888 L 303.491 43.32 L 305.922 57.107 Z M 290.51 79.117 L 304.297 76.686 L 301.866 62.899 L 288.079 65.33 L 290.51 79.117 Z M 287.211 60.406 L 300.998 57.975 L 298.567 44.188 L 284.779 46.619 L 287.211 60.406 Z M 299.323 19.684 L 313.111 17.253 L 310.679 3.466 L 296.892 5.897 L 299.323 19.684 Z M 213.925 114.038 L 226.613 108.121 L 220.696 95.433 L 208.008 101.349 L 213.925 114.038 Z M 93.096 108.121 L 105.784 114.038 L 111.701 101.349 L 99.013 95.433 L 93.096 108.121 Z" vector-effect="non-scaling-stroke"/></g></svg>