<svg width="319.709mm" height="120.813mm" viewBox="0 0 319.709 120.813" xmlns="http://www.w3.org/2000/svg"><g id="svgGroup" stroke-linecap="round" fill-rule="evenodd" font-size="9pt" stroke="#000" stroke-width="0.25mm" fill="none" style="stroke:#000;stroke-width:0.25mm;fill:none"><path d="M 113.54 97.611 L 125.008 105.641 L 133.038 94.173 L 121.57 86.143 L 113.54 97.611 Z M 131.055 112.782 L 142.524 120.813 L 150.554 109.344 L 139.086 101.314 L 131.055 112.782 Z M 177.186 120.813 L 188.654 112.782 L 180.624 101.314 L 169.155 109.344 L 177.186 120.813 Z M 194.701 105.641 L 206.169 97.611 L 198.139 86.143 L 186.671 94.173 L 194.701 105.641 Z M 36.238 51.804 L 49.932 54.715 L 52.843 41.021 L 39.148 38.11 L 36.238 51.804 Z M 63.763 13.694 L 77.457 16.605 L 80.368 2.911 L 66.673 0 L 63.763 13.694 Z M 242.252 16.605 L 255.946 13.694 L 253.036 0 L 239.342 2.911 L 242.252 16.605 Z M 44.138 14.634 L 57.832 17.545 L 60.743 3.851 L 47.049 0.94 L 44.138 14.634 Z M 81.1 23.513 L 94.794 26.424 L 97.705 12.73 L 84.011 9.819 L 81.1 23.513 Z M 261.877 17.545 L 275.571 14.634 L 272.66 0.94 L 258.966 3.851 L 261.877 17.545 Z M 224.915 26.424 L 238.609 23.513 L 235.698 9.819 L 222.004 12.73 L 224.915 26.424 Z M 40.188 33.219 L 53.882 36.13 L 56.793 22.436 L 43.099 19.525 L 40.188 33.219 Z M 55.862 50.864 L 69.556 53.774 L 72.467 40.08 L 58.773 37.17 L 55.862 50.864 Z M 59.812 32.279 L 73.506 35.19 L 76.417 21.496 L 62.723 18.585 L 59.812 32.279 Z M 73.199 60.683 L 86.893 63.594 L 89.804 49.9 L 76.11 46.989 L 73.199 60.683 Z M 77.15 42.098 L 90.844 45.009 L 93.755 31.315 L 80.061 28.404 L 77.15 42.098 Z M 91.368 66.59 L 105.062 69.5 L 107.973 55.806 L 94.279 52.895 L 91.368 66.59 Z M 95.319 48.005 L 109.013 50.915 L 111.924 37.221 L 98.229 34.311 L 95.319 48.005 Z M 99.269 29.42 L 112.963 32.331 L 115.874 18.637 L 102.18 15.726 L 99.269 29.42 Z M 269.777 54.715 L 283.471 51.804 L 280.561 38.11 L 266.867 41.021 L 269.777 54.715 Z M 265.827 36.13 L 279.521 33.219 L 276.61 19.525 L 262.916 22.436 L 265.827 36.13 Z M 250.153 53.774 L 263.847 50.864 L 260.936 37.17 L 247.242 40.08 L 250.153 53.774 Z M 246.203 35.19 L 259.897 32.279 L 256.986 18.585 L 243.292 21.496 L 246.203 35.19 Z M 232.816 63.594 L 246.51 60.683 L 243.599 46.989 L 229.905 49.9 L 232.816 63.594 Z M 228.865 45.009 L 242.559 42.098 L 239.649 28.404 L 225.955 31.315 L 228.865 45.009 Z M 214.647 69.5 L 228.341 66.59 L 225.43 52.895 L 211.736 55.806 L 214.647 69.5 Z M 210.696 50.915 L 224.39 48.005 L 221.48 34.311 L 207.786 37.221 L 210.696 50.915 Z M 206.746 32.331 L 220.44 29.42 L 217.529 15.726 L 203.835 18.637 L 206.746 32.331 Z M 232.583 85.163 L 246.277 82.253 L 243.366 68.559 L 229.672 71.469 L 232.583 85.163 Z M 73.432 82.253 L 87.126 85.163 L 90.037 71.469 L 76.343 68.559 L 73.432 82.253 Z M 111.325 73.595 L 123.325 80.806 L 130.536 68.806 L 118.536 61.595 L 111.325 73.595 Z M 196.384 80.806 L 208.384 73.595 L 201.174 61.595 L 189.173 68.806 L 196.384 80.806 Z M 302.623 19.811 L 316.41 17.38 L 313.979 3.592 L 300.191 6.023 L 302.623 19.811 Z M 283.911 23.11 L 297.699 20.679 L 295.267 6.892 L 281.48 9.323 L 283.911 23.11 Z M 0 36.091 L 13.787 38.522 L 16.218 24.735 L 2.431 22.304 L 0 36.091 Z M 3.299 17.38 L 17.087 19.811 L 19.518 6.023 L 5.73 3.592 L 3.299 17.38 Z M 15.412 58.102 L 29.199 60.533 L 31.63 46.745 L 17.843 44.314 L 15.412 58.102 Z M 18.711 39.39 L 32.499 41.821 L 34.93 28.034 L 21.142 25.603 L 18.711 39.39 Z M 22.011 20.679 L 35.798 23.11 L 38.229 9.323 L 24.442 6.892 L 22.011 20.679 Z M 305.922 38.522 L 319.709 36.091 L 317.278 22.304 L 303.491 24.735 L 305.922 38.522 Z M 290.51 60.533 L 304.297 58.102 L 301.866 44.314 L 288.079 46.745 L 290.51 60.533 Z M 287.211 41.821 L 300.998 39.39 L 298.567 25.603 L 284.779 28.034 L 287.211 41.821 Z M 213.925 95.453 L 226.613 89.536 L 220.696 76.848 L 208.008 82.765 L 213.925 95.453 Z M 93.096 89.536 L 105.784 95.453 L 111.701 82.765 L 99.013 76.848 L 93.096 89.536 Z" vector-effect="non-scaling-stroke"/></g></svg>