<svg width="323.081mm" height="165.867mm" viewBox="0 0 323.081 165.867" xmlns="http://www.w3.org/2000/svg"><g id="svgGroup" stroke-linecap="round" fill-rule="evenodd" font-size="9pt" stroke="#000" stroke-width="0.25mm" fill="none" style="stroke:#000;stroke-width:0.25mm;fill:none"><path d="M 0.003 90.502 L 3.165 24.98 A 3 3 0 0 1 4.701 22.504 L 34.207 6.067 A 3 3 0 0 1 34.95 5.774 L 58.056 0.087 A 3 3 0 0 1 58.773 0 L 264.308 0 A 3 3 0 0 1 265.025 0.087 L 288.131 5.774 A 3 3 0 0 1 288.874 6.067 L 318.38 22.504 A 3 3 0 0 1 319.916 24.98 L 323.077 90.502 A 3 3 0 0 1 320.594 93.602 L 304.835 96.338 A 3 3 0 0 0 304.159 96.54 L 251.259 119.37 A 3 3 0 0 1 251.237 119.379 L 229.351 128.618 A 3 3 0 0 0 228.053 129.671 L 203.815 164.578 A 3 3 0 0 1 201.351 165.867 L 121.73 165.867 A 3 3 0 0 1 119.266 164.578 L 95.028 129.671 A 3 3 0 0 0 93.73 128.618 L 71.844 119.379 A 3 3 0 0 1 71.822 119.37 L 18.922 96.54 A 3 3 0 0 0 18.246 96.338 L 2.487 93.602 A 3 3 0 0 1 0.003 90.502 Z M 120.548 141.36 L 129.547 152.084 L 140.272 143.085 L 131.273 132.361 L 120.548 141.36 Z M 193.534 152.084 L 202.533 141.36 L 191.808 132.361 L 182.809 143.085 L 193.534 152.084 Z M 9.367 41.375 L 23.314 40.155 L 22.094 26.208 L 8.147 27.429 L 9.367 41.375 Z M 299.767 40.155 L 313.714 41.375 L 314.934 27.429 L 300.987 26.208 L 299.767 40.155 Z M 123.169 98.072 L 134.201 106.692 L 142.82 95.659 L 131.788 87.04 L 123.169 98.072 Z M 188.88 106.692 L 199.912 98.072 L 191.293 87.04 L 180.261 95.659 L 188.88 106.692 Z M 44.664 86.431 L 58.358 89.342 L 61.268 75.648 L 47.574 72.737 L 44.664 86.431 Z M 52.564 49.261 L 66.258 52.172 L 69.169 38.478 L 55.475 35.567 L 52.564 49.261 Z M 68.238 66.906 L 81.932 69.816 L 84.843 56.122 L 71.149 53.212 L 68.238 66.906 Z M 241.149 69.816 L 254.843 66.906 L 251.932 53.212 L 238.238 56.122 L 241.149 69.816 Z M 58.983 19.061 L 72.677 21.972 L 75.588 8.278 L 61.894 5.367 L 58.983 19.061 Z M 103.745 82.632 L 117.439 85.542 L 120.349 71.848 L 106.655 68.937 L 103.745 82.632 Z M 256.823 52.172 L 270.517 49.261 L 267.606 35.567 L 253.912 38.478 L 256.823 52.172 Z M 205.642 85.542 L 219.336 82.632 L 216.426 68.937 L 202.731 71.848 L 205.642 85.542 Z M 48.614 67.846 L 62.308 70.757 L 65.219 57.063 L 51.525 54.152 L 48.614 67.846 Z M 64.288 85.49 L 77.982 88.401 L 80.893 74.707 L 67.199 71.796 L 64.288 85.49 Z M 81.625 95.31 L 95.319 98.22 L 98.23 84.526 L 84.536 81.616 L 81.625 95.31 Z M 85.576 76.725 L 99.27 79.636 L 102.18 65.942 L 88.486 63.031 L 85.576 76.725 Z M 99.794 101.216 L 113.488 104.127 L 116.399 90.433 L 102.705 87.522 L 99.794 101.216 Z M 77.2 115.889 L 90.894 118.8 L 93.805 105.106 L 80.111 102.195 L 77.2 115.889 Z M 264.723 89.342 L 278.417 86.431 L 275.507 72.737 L 261.812 75.648 L 264.723 89.342 Z M 260.773 70.757 L 274.467 67.846 L 271.556 54.152 L 257.862 57.063 L 260.773 70.757 Z M 245.099 88.401 L 258.793 85.49 L 255.882 71.796 L 242.188 74.707 L 245.099 88.401 Z M 227.762 98.22 L 241.456 95.31 L 238.545 81.616 L 224.851 84.526 L 227.762 98.22 Z M 223.811 79.636 L 237.505 76.725 L 234.595 63.031 L 220.9 65.942 L 223.811 79.636 Z M 209.593 104.127 L 223.287 101.216 L 220.376 87.522 L 206.682 90.433 L 209.593 104.127 Z M 232.187 118.8 L 245.881 115.889 L 242.97 102.195 L 229.276 105.106 L 232.187 118.8 Z M 72.189 48.321 L 85.883 51.232 L 88.793 37.538 L 75.099 34.627 L 72.189 48.321 Z M 89.526 58.14 L 103.22 61.051 L 106.131 47.357 L 92.437 44.446 L 89.526 58.14 Z M 107.695 64.047 L 121.389 66.957 L 124.3 53.263 L 110.606 50.353 L 107.695 64.047 Z M 237.198 51.232 L 250.892 48.321 L 247.982 34.627 L 234.287 37.538 L 237.198 51.232 Z M 219.861 61.051 L 233.555 58.14 L 230.644 44.446 L 216.95 47.357 L 219.861 61.051 Z M 201.692 66.957 L 215.386 64.047 L 212.475 50.353 L 198.781 53.263 L 201.692 66.957 Z M 78.608 18.121 L 92.302 21.031 L 95.213 7.337 L 81.519 4.427 L 78.608 18.121 Z M 95.945 27.94 L 109.639 30.851 L 112.55 17.156 L 98.856 14.246 L 95.945 27.94 Z M 114.114 33.846 L 127.808 36.757 L 130.719 23.063 L 117.025 20.152 L 114.114 33.846 Z M 250.403 21.972 L 264.097 19.061 L 261.187 5.367 L 247.493 8.278 L 250.403 21.972 Z M 230.779 21.031 L 244.473 18.121 L 241.562 4.427 L 227.868 7.337 L 230.779 21.031 Z M 213.442 30.851 L 227.136 27.94 L 224.225 14.246 L 210.531 17.156 L 213.442 30.851 Z M 195.273 36.757 L 208.967 33.846 L 206.056 20.152 L 192.362 23.063 L 195.273 36.757 Z M 103.821 122.63 L 115.693 130.049 L 123.112 118.176 L 111.239 110.757 L 103.821 122.63 Z M 207.388 130.049 L 219.26 122.63 L 211.841 110.757 L 199.969 118.176 L 207.388 130.049 Z M 27.137 74.017 L 40.924 76.448 L 43.356 62.661 L 29.568 60.23 L 27.137 74.017 Z M 300.876 73.198 L 314.664 70.767 L 312.233 56.98 L 298.445 59.411 L 300.876 73.198 Z M 282.156 76.448 L 295.944 74.017 L 293.513 60.23 L 279.725 62.661 L 282.156 76.448 Z M 278.857 57.737 L 292.644 55.306 L 290.213 41.518 L 276.426 43.949 L 278.857 57.737 Z M 5.118 89.478 L 18.905 91.909 L 21.336 78.122 L 7.549 75.691 L 5.118 89.478 Z M 8.417 70.767 L 22.204 73.198 L 24.635 59.411 L 10.848 56.98 L 8.417 70.767 Z M 23.838 92.728 L 37.625 95.159 L 40.056 81.372 L 26.269 78.941 L 23.838 92.728 Z M 30.436 55.306 L 44.224 57.737 L 46.655 43.949 L 32.868 41.518 L 30.436 55.306 Z M 304.176 91.909 L 317.963 89.478 L 315.532 75.691 L 301.745 78.122 L 304.176 91.909 Z M 285.456 95.159 L 299.243 92.728 L 296.812 78.941 L 283.025 81.372 L 285.456 95.159 Z M 35.798 24.9 L 49.585 27.331 L 52.016 13.544 L 38.229 11.112 L 35.798 24.9 Z M 273.496 27.331 L 287.283 24.9 L 284.852 11.112 L 271.065 13.544 L 273.496 27.331 Z M 135.741 117.342 L 147.865 124.342 L 154.865 112.218 L 142.741 105.218 L 135.741 117.342 Z M 175.216 124.342 L 187.34 117.342 L 180.34 105.218 L 168.216 112.218 L 175.216 124.342 Z M 298.786 51.362 L 312.733 52.583 L 313.474 44.115 L 299.527 42.895 L 298.786 51.362 Z M 10.348 52.583 L 24.294 51.362 L 23.554 42.895 L 9.607 44.115 L 10.348 52.583 Z M 130.116 127.085 L 142.24 134.085 L 146.49 126.724 L 134.366 119.724 L 130.116 127.085 Z M 180.841 134.085 L 192.965 127.085 L 188.715 119.724 L 176.591 126.724 L 180.841 134.085 Z M 233.118 32.035 L 246.812 29.125 L 245.045 20.81 L 231.351 23.721 L 233.118 32.035 Z M 197.612 47.761 L 211.306 44.851 L 209.538 36.536 L 195.844 39.447 L 197.612 47.761 Z M 252.742 32.976 L 266.436 30.065 L 264.669 21.751 L 250.975 24.662 L 252.742 32.976 Z M 56.644 30.065 L 70.338 32.976 L 72.106 24.662 L 58.412 21.751 L 56.644 30.065 Z M 215.781 41.855 L 229.475 38.944 L 227.707 30.63 L 214.013 33.54 L 215.781 41.855 Z M 76.269 29.125 L 89.963 32.035 L 91.73 23.721 L 78.036 20.81 L 76.269 29.125 Z M 93.606 38.944 L 107.3 41.855 L 109.067 33.54 L 95.373 30.63 L 93.606 38.944 Z M 111.775 44.851 L 125.469 47.761 L 127.236 39.447 L 113.542 36.536 L 111.775 44.851 Z M 275.449 38.41 L 289.237 35.979 L 287.761 27.608 L 273.973 30.039 L 275.449 38.41 Z M 33.844 35.979 L 47.632 38.41 L 49.108 30.039 L 35.32 27.608 L 33.844 35.979 Z M 116.243 106.937 L 127.275 115.557 L 132.508 108.859 L 121.476 100.239 L 116.243 106.937 Z M 195.806 115.557 L 206.838 106.937 L 201.605 100.239 L 190.573 108.859 L 195.806 115.557 Z" vector-effect="non-scaling-stroke"/></g></svg>