<svg width="323.826mm" height="134.741mm" viewBox="0 0 323.826 134.741" xmlns="http://www.w3.org/2000/svg"><g id="svgGroup" stroke-linecap="round" fill-rule="evenodd" font-size="9pt" stroke="#000" stroke-width="0.25mm" fill="none" style="stroke:#000;stroke-width:0.25mm;fill:none"><path d="M 0.003 90.502 L 3.165 24.98 A 3 3 0 0 1 4.701 22.504 L 34.207 6.067 A 3 3 0 0 1 34.95 5.774 L 58.056 0.087 A 3 3 0 0 1 58.773 0 L 265.053 0 A 3 3 0 0 1 265.77 0.087 L 288.876 5.774 A 3 3 0 0 1 289.619 6.067 L 319.125 22.504 A 3 3 0 0 1 320.661 24.98 L 323.822 90.502 A 3 3 0 0 1 321.339 93.602 L 305.58 96.338 A 3 3 0 0 0 304.904 96.54 L 252.004 119.37 A 3 3 0 0 1 251.982 119.379 L 229.562 128.844 A 3 3 0 0 1 229.01 129.016 L 201.965 134.677 A 3 3 0 0 1 201.351 134.741 L 122.475 134.741 A 3 3 0 0 1 121.86 134.677 L 94.816 129.016 A 3 3 0 0 1 94.264 128.844 L 71.844 119.379 A 3 3 0 0 1 71.822 119.37 L 18.922 96.54 A 3 3 0 0 0 18.246 96.338 L 2.487 93.602 A 3 3 0 0 1 0.003 90.502 Z M 9.367 41.375 L 23.314 40.155 L 22.094 26.208 L 8.147 27.429 L 9.367 41.375 Z M 300.512 40.155 L 314.459 41.375 L 315.679 27.429 L 301.732 26.208 L 300.512 40.155 Z M 44.664 86.431 L 58.358 89.342 L 61.268 75.648 L 47.574 72.737 L 44.664 86.431 Z M 52.564 49.261 L 66.258 52.172 L 69.169 38.478 L 55.475 35.567 L 52.564 49.261 Z M 68.238 66.906 L 81.932 69.816 L 84.843 56.122 L 71.149 53.212 L 68.238 66.906 Z M 241.893 69.816 L 255.588 66.906 L 252.677 53.212 L 238.983 56.122 L 241.893 69.816 Z M 58.983 19.061 L 72.677 21.972 L 75.588 8.278 L 61.894 5.367 L 58.983 19.061 Z M 103.745 82.632 L 117.439 85.542 L 120.349 71.848 L 106.655 68.937 L 103.745 82.632 Z M 257.568 52.172 L 271.262 49.261 L 268.351 35.567 L 254.657 38.478 L 257.568 52.172 Z M 206.387 85.542 L 220.081 82.632 L 217.17 68.937 L 203.476 71.848 L 206.387 85.542 Z M 48.614 67.846 L 62.308 70.757 L 65.219 57.063 L 51.525 54.152 L 48.614 67.846 Z M 64.288 85.49 L 77.982 88.401 L 80.893 74.707 L 67.199 71.796 L 64.288 85.49 Z M 81.625 95.31 L 95.319 98.22 L 98.23 84.526 L 84.536 81.616 L 81.625 95.31 Z M 85.576 76.725 L 99.27 79.636 L 102.18 65.942 L 88.486 63.031 L 85.576 76.725 Z M 99.794 101.216 L 113.488 104.127 L 116.399 90.433 L 102.705 87.522 L 99.794 101.216 Z M 77.2 115.889 L 90.894 118.8 L 93.805 105.106 L 80.111 102.195 L 77.2 115.889 Z M 265.468 89.342 L 279.162 86.431 L 276.251 72.737 L 262.557 75.648 L 265.468 89.342 Z M 261.518 70.757 L 275.212 67.846 L 272.301 54.152 L 258.607 57.063 L 261.518 70.757 Z M 245.844 88.401 L 259.538 85.49 L 256.627 71.796 L 242.933 74.707 L 245.844 88.401 Z M 228.506 98.22 L 242.201 95.31 L 239.29 81.616 L 225.596 84.526 L 228.506 98.22 Z M 224.556 79.636 L 238.25 76.725 L 235.339 63.031 L 221.645 65.942 L 224.556 79.636 Z M 210.337 104.127 L 224.032 101.216 L 221.121 87.522 L 207.427 90.433 L 210.337 104.127 Z M 232.932 118.8 L 246.626 115.889 L 243.715 102.195 L 230.021 105.106 L 232.932 118.8 Z M 117.946 98.406 L 131.64 101.317 L 134.551 87.623 L 120.857 84.712 L 117.946 98.406 Z M 192.185 101.317 L 205.879 98.406 L 202.969 84.712 L 189.275 87.623 L 192.185 101.317 Z M 72.189 48.321 L 85.883 51.232 L 88.793 37.538 L 75.099 34.627 L 72.189 48.321 Z M 89.526 58.14 L 103.22 61.051 L 106.131 47.357 L 92.437 44.446 L 89.526 58.14 Z M 107.695 64.047 L 121.389 66.957 L 124.3 53.263 L 110.606 50.353 L 107.695 64.047 Z M 237.943 51.232 L 251.637 48.321 L 248.726 34.627 L 235.032 37.538 L 237.943 51.232 Z M 220.606 61.051 L 234.3 58.14 L 231.389 44.446 L 217.695 47.357 L 220.606 61.051 Z M 202.437 66.957 L 216.131 64.047 L 213.22 50.353 L 199.526 53.263 L 202.437 66.957 Z M 78.608 18.121 L 92.302 21.031 L 95.213 7.337 L 81.519 4.427 L 78.608 18.121 Z M 95.945 27.94 L 109.639 30.851 L 112.55 17.156 L 98.856 14.246 L 95.945 27.94 Z M 114.114 33.846 L 127.808 36.757 L 130.719 23.063 L 117.025 20.152 L 114.114 33.846 Z M 251.148 21.972 L 264.842 19.061 L 261.932 5.367 L 248.237 8.278 L 251.148 21.972 Z M 231.524 21.031 L 245.218 18.121 L 242.307 4.427 L 228.613 7.337 L 231.524 21.031 Z M 214.187 30.851 L 227.881 27.94 L 224.97 14.246 L 211.276 17.156 L 214.187 30.851 Z M 196.018 36.757 L 209.712 33.846 L 206.801 20.152 L 193.107 23.063 L 196.018 36.757 Z M 103.821 122.63 L 115.693 130.049 L 123.112 118.176 L 111.239 110.757 L 103.821 122.63 Z M 208.132 130.049 L 220.005 122.63 L 212.586 110.757 L 200.714 118.176 L 208.132 130.049 Z M 27.137 74.017 L 40.924 76.448 L 43.356 62.661 L 29.568 60.23 L 27.137 74.017 Z M 301.621 73.198 L 315.409 70.767 L 312.978 56.98 L 299.19 59.411 L 301.621 73.198 Z M 282.901 76.448 L 296.689 74.017 L 294.258 60.23 L 280.47 62.661 L 282.901 76.448 Z M 279.602 57.737 L 293.389 55.306 L 290.958 41.518 L 277.171 43.949 L 279.602 57.737 Z M 5.118 89.478 L 18.905 91.909 L 21.336 78.122 L 7.549 75.691 L 5.118 89.478 Z M 8.417 70.767 L 22.204 73.198 L 24.635 59.411 L 10.848 56.98 L 8.417 70.767 Z M 23.838 92.728 L 37.625 95.159 L 40.056 81.372 L 26.269 78.941 L 23.838 92.728 Z M 30.436 55.306 L 44.224 57.737 L 46.655 43.949 L 32.868 41.518 L 30.436 55.306 Z M 304.921 91.909 L 318.708 89.478 L 316.277 75.691 L 302.49 78.122 L 304.921 91.909 Z M 286.201 95.159 L 299.988 92.728 L 297.557 78.941 L 283.77 81.372 L 286.201 95.159 Z M 35.798 24.9 L 49.585 27.331 L 52.016 13.544 L 38.229 11.112 L 35.798 24.9 Z M 140.293 112.734 L 142.724 126.521 L 156.512 124.09 L 154.081 110.302 L 140.293 112.734 Z M 181.101 126.521 L 183.533 112.734 L 169.745 110.302 L 167.314 124.09 L 181.101 126.521 Z M 274.241 27.331 L 288.028 24.9 L 285.597 11.112 L 271.81 13.544 L 274.241 27.331 Z M 299.531 51.362 L 313.478 52.583 L 314.219 44.115 L 300.272 42.895 L 299.531 51.362 Z M 10.348 52.583 L 24.294 51.362 L 23.554 42.895 L 9.607 44.115 L 10.348 52.583 Z M 233.863 32.035 L 247.557 29.125 L 245.79 20.81 L 232.096 23.721 L 233.863 32.035 Z M 198.357 47.761 L 212.051 44.851 L 210.283 36.536 L 196.589 39.447 L 198.357 47.761 Z M 194.524 112.321 L 208.218 109.41 L 206.451 101.096 L 192.757 104.007 L 194.524 112.321 Z M 253.487 32.976 L 267.181 30.065 L 265.414 21.751 L 251.72 24.662 L 253.487 32.976 Z M 56.644 30.065 L 70.338 32.976 L 72.106 24.662 L 58.412 21.751 L 56.644 30.065 Z M 216.526 41.855 L 230.22 38.944 L 228.452 30.63 L 214.758 33.54 L 216.526 41.855 Z M 76.269 29.125 L 89.963 32.035 L 91.73 23.721 L 78.036 20.81 L 76.269 29.125 Z M 93.606 38.944 L 107.3 41.855 L 109.067 33.54 L 95.373 30.63 L 93.606 38.944 Z M 111.775 44.851 L 125.469 47.761 L 127.236 39.447 L 113.542 36.536 L 111.775 44.851 Z M 115.607 109.41 L 129.301 112.321 L 131.069 104.007 L 117.375 101.096 L 115.607 109.41 Z M 276.194 38.41 L 289.981 35.979 L 288.505 27.608 L 274.718 30.039 L 276.194 38.41 Z M 33.844 35.979 L 47.632 38.41 L 49.108 30.039 L 35.32 27.608 L 33.844 35.979 Z M 129.214 114.687 L 131.645 128.474 L 140.016 126.998 L 137.585 113.211 L 129.214 114.687 Z M 192.181 128.474 L 194.612 114.687 L 186.241 113.211 L 183.81 126.998 L 192.181 128.474 Z" vector-effect="non-scaling-stroke"/></g></svg>