<svg width="340.75mm" height="159.567mm" viewBox="0 0 340.75 159.567" xmlns="http://www.w3.org/2000/svg"><g id="svgGroup" stroke-linecap="round" fill-rule="evenodd" font-size="9pt" stroke="#000" stroke-width="0.25mm" fill="none" style="stroke:#000;stroke-width:0.25mm;fill:none"><path d="M 0.046 65.441 L 9.909 9.502 A 3 3 0 0 1 13.392 7.07 L 28.275 9.735 A 3 3 0 0 0 29.941 9.558 L 52.726 0.224 A 3 3 0 0 1 53.863 0 L 286.887 0 A 3 3 0 0 1 288.025 0.224 L 310.809 9.558 A 3 3 0 0 0 312.475 9.735 L 327.358 7.07 A 3 3 0 0 1 330.841 9.502 L 340.705 65.441 A 3 3 0 0 1 340.21 67.68 L 326.078 87.919 A 3 3 0 0 1 324.589 89.04 L 267.305 108.62 A 3 3 0 0 0 266.595 108.973 L 250.542 119.826 A 3 3 0 0 1 250.13 120.059 L 229.897 129.494 A 3 3 0 0 0 229.1 130.036 L 198.836 158.743 A 3 3 0 0 1 196.771 159.567 L 143.979 159.567 A 3 3 0 0 1 141.914 158.743 L 111.65 130.036 A 3 3 0 0 0 110.853 129.494 L 90.621 120.059 A 3 3 0 0 1 90.209 119.826 L 74.155 108.973 A 3 3 0 0 0 73.445 108.62 L 16.162 89.04 A 3 3 0 0 1 14.672 87.919 L 0.54 67.68 A 3 3 0 0 1 0.046 65.441 Z M 136.814 135.794 L 148.282 143.824 L 156.312 132.356 L 144.844 124.326 L 136.814 135.794 Z M 209.984 128.652 L 221.452 120.622 L 213.422 109.154 L 201.954 117.184 L 209.984 128.652 Z M 192.469 143.824 L 203.937 135.794 L 195.907 124.326 L 184.439 132.356 L 192.469 143.824 Z M 119.298 120.622 L 130.766 128.652 L 138.796 117.184 L 127.328 109.154 L 119.298 120.622 Z M 41.996 74.815 L 55.69 77.726 L 58.601 64.032 L 44.907 61.121 L 41.996 74.815 Z M 53.847 19.061 L 67.541 21.972 L 70.452 8.278 L 56.758 5.367 L 53.847 19.061 Z M 73.471 18.121 L 87.165 21.031 L 90.076 7.337 L 76.382 4.427 L 73.471 18.121 Z M 273.21 21.972 L 286.904 19.061 L 283.993 5.367 L 270.299 8.278 L 273.21 21.972 Z M 253.585 21.031 L 267.279 18.121 L 264.368 4.427 L 250.674 7.337 L 253.585 21.031 Z M 101.077 71.016 L 114.771 73.927 L 117.682 60.233 L 103.988 57.322 L 101.077 71.016 Z M 45.946 56.231 L 59.64 59.141 L 62.551 45.447 L 48.857 42.537 L 45.946 56.231 Z M 49.896 37.646 L 63.591 40.557 L 66.501 26.862 L 52.807 23.952 L 49.896 37.646 Z M 61.62 73.875 L 75.314 76.786 L 78.225 63.092 L 64.531 60.181 L 61.62 73.875 Z M 65.571 55.29 L 79.265 58.201 L 82.175 44.507 L 68.481 41.596 L 65.571 55.29 Z M 69.521 36.705 L 83.215 39.616 L 86.126 25.922 L 72.432 23.011 L 69.521 36.705 Z M 78.958 83.694 L 92.652 86.605 L 95.562 72.911 L 81.868 70 L 78.958 83.694 Z M 82.908 65.109 L 96.602 68.02 L 99.513 54.326 L 85.819 51.415 L 82.908 65.109 Z M 86.858 46.525 L 100.552 49.435 L 103.463 35.741 L 89.769 32.831 L 86.858 46.525 Z M 90.809 27.94 L 104.503 30.851 L 107.413 17.156 L 93.719 14.246 L 90.809 27.94 Z M 105.027 52.431 L 118.721 55.342 L 121.632 41.648 L 107.938 38.737 L 105.027 52.431 Z M 108.977 33.846 L 122.672 36.757 L 125.582 23.063 L 111.888 20.152 L 108.977 33.846 Z M 285.061 77.726 L 298.755 74.815 L 295.844 61.121 L 282.15 64.032 L 285.061 77.726 Z M 281.11 59.141 L 294.804 56.231 L 291.893 42.537 L 278.199 45.447 L 281.11 59.141 Z M 277.16 40.557 L 290.854 37.646 L 287.943 23.952 L 274.249 26.862 L 277.16 40.557 Z M 265.436 76.786 L 279.13 73.875 L 276.219 60.181 L 262.525 63.092 L 265.436 76.786 Z M 261.486 58.201 L 275.18 55.29 L 272.269 41.596 L 258.575 44.507 L 261.486 58.201 Z M 257.536 39.616 L 271.23 36.705 L 268.319 23.011 L 254.625 25.922 L 257.536 39.616 Z M 248.099 86.605 L 261.793 83.694 L 258.882 70 L 245.188 72.911 L 248.099 86.605 Z M 244.148 68.02 L 257.843 65.109 L 254.932 51.415 L 241.238 54.326 L 244.148 68.02 Z M 240.198 49.435 L 253.892 46.525 L 250.981 32.831 L 237.287 35.741 L 240.198 49.435 Z M 236.248 30.851 L 249.942 27.94 L 247.031 14.246 L 233.337 17.156 L 236.248 30.851 Z M 229.93 92.512 L 243.624 89.601 L 240.713 75.907 L 227.019 78.818 L 229.93 92.512 Z M 225.98 73.927 L 239.674 71.016 L 236.763 57.322 L 223.069 60.233 L 225.98 73.927 Z M 222.029 55.342 L 235.723 52.431 L 232.812 38.737 L 219.118 41.648 L 222.029 55.342 Z M 218.079 36.757 L 231.773 33.846 L 228.862 20.152 L 215.168 23.063 L 218.079 36.757 Z M 97.127 89.601 L 110.821 92.512 L 113.731 78.818 L 100.037 75.907 L 97.127 89.601 Z M 79.191 105.264 L 92.885 108.175 L 95.795 94.481 L 82.101 91.57 L 79.191 105.264 Z M 247.866 108.175 L 261.56 105.264 L 258.649 91.57 L 244.955 94.481 L 247.866 108.175 Z M 117.083 96.607 L 129.084 103.817 L 136.294 91.817 L 124.294 84.606 L 117.083 96.607 Z M 211.667 103.817 L 223.667 96.607 L 216.457 84.606 L 204.456 91.817 L 211.667 103.817 Z M 315.292 28.001 L 329.08 25.57 L 326.649 11.782 L 312.861 14.213 L 315.292 28.001 Z M 306.488 87.483 L 320.275 85.052 L 317.844 71.265 L 304.056 73.696 L 306.488 87.483 Z M 296.59 31.349 L 310.377 28.918 L 307.946 15.131 L 294.159 17.562 L 296.59 31.349 Z M 5.072 62.992 L 18.86 65.423 L 21.291 51.636 L 7.503 49.205 L 5.072 62.992 Z M 8.372 44.281 L 22.159 46.712 L 24.59 32.925 L 10.803 30.494 L 8.372 44.281 Z M 11.671 25.57 L 25.458 28.001 L 27.889 14.213 L 14.102 11.782 L 11.671 25.57 Z M 20.476 85.052 L 34.263 87.483 L 36.694 73.696 L 22.907 71.265 L 20.476 85.052 Z M 23.775 66.341 L 37.562 68.772 L 39.993 54.985 L 26.206 52.553 L 23.775 66.341 Z M 27.074 47.629 L 40.861 50.061 L 43.293 36.273 L 29.505 33.842 L 27.074 47.629 Z M 30.374 28.918 L 44.161 31.349 L 46.592 17.562 L 32.805 15.131 L 30.374 28.918 Z M 321.891 65.423 L 335.678 62.992 L 333.247 49.205 L 319.46 51.636 L 321.891 65.423 Z M 318.592 46.712 L 332.379 44.281 L 329.948 30.494 L 316.161 32.925 L 318.592 46.712 Z M 303.188 68.772 L 316.976 66.341 L 314.544 52.553 L 300.757 54.985 L 303.188 68.772 Z M 299.889 50.061 L 313.676 47.629 L 311.245 33.842 L 297.458 36.273 L 299.889 50.061 Z M 229.208 118.464 L 241.896 112.548 L 235.98 99.859 L 223.291 105.776 L 229.208 118.464 Z M 98.854 112.548 L 111.543 118.464 L 117.459 105.776 L 104.771 99.859 L 98.854 112.548 Z" vector-effect="non-scaling-stroke"/></g></svg>