0
SECTION
2
HEADER
9
$INSUNITS
70
4
0
ENDSEC
0
SECTION
2
TABLES
0
TABLE
2
LTYPE
0
LTYPE
72
65
70
64
2
CONTINUOUS
3
______
73
0
40
0
0
ENDTAB
0
TABLE
2
LAYER
0
ENDTAB
0
ENDSEC
0
SECTION
2
ENTITIES
0
LINE
8
0
10
-4.8098761
20
13.0332303
11
8.9774324
21
10.6021558
0
LINE
8
0
10
8.9774324
20
10.6021558
11
11.4085069
21
24.3894643
0
LINE
8
0
10
11.4085069
20
24.3894643
11
-2.3788016
21
26.8205388
0
LINE
8
0
10
-2.3788016
20
26.8205388
11
-4.8098761
21
13.0332303
0
LINE
8
0
10
-1.5105607
20
31.7445776
11
12.2767478
21
29.3135031
0
LINE
8
0
10
12.2767478
20
29.3135031
11
14.7078223
21
43.1008116
0
LINE
8
0
10
14.7078223
20
43.1008116
11
0.9205138
21
45.5318861
0
LINE
8
0
10
0.9205138
20
45.5318861
11
-1.5105607
21
31.7445776
0
LINE
8
0
10
13.9101536
20
9.7831553
11
27.6974621
21
7.3520808
0
LINE
8
0
10
27.6974621
20
7.3520808
11
30.1285366
21
21.1393893
0
LINE
8
0
10
30.1285366
20
21.1393893
11
16.3412281
21
23.5704638
0
LINE
8
0
10
16.3412281
20
23.5704638
11
13.9101536
21
9.7831553
0
LINE
8
0
10
17.209469
20
28.4945026
11
30.9967775
21
26.0634281
0
LINE
8
0
10
30.9967775
20
26.0634281
11
33.427852
21
39.8507366
0
LINE
8
0
10
33.427852
20
39.8507366
11
19.6405435
21
42.2818111
0
LINE
8
0
10
19.6405435
20
42.2818111
11
17.209469
21
28.4945026
0
LINE
8
0
10
20.5087843
20
47.2058499
11
34.2960928
21
44.7747754
0
LINE
8
0
10
34.2960928
20
44.7747754
11
36.7271673
21
58.5620839
0
LINE
8
0
10
36.7271673
20
58.5620839
11
22.9398588
21
60.9931584
0
LINE
8
0
10
22.9398588
20
60.9931584
11
20.5087843
21
47.2058499
0
LINE
8
0
10
34.7358441
20
16.0806781
11
48.4299105
21
13.1699145
0
LINE
8
0
10
48.4299105
20
13.1699145
11
51.3406741
21
26.8639809
0
LINE
8
0
10
51.3406741
20
26.8639809
11
37.6466077
21
29.7747445
0
LINE
8
0
10
37.6466077
20
29.7747445
11
34.7358441
21
16.0806781
0
LINE
8
0
10
38.6861662
20
34.6654825
11
52.3802326
21
31.7547189
0
LINE
8
0
10
52.3802326
20
31.7547189
11
55.2909962
21
45.4487853
0
LINE
8
0
10
55.2909962
20
45.4487853
11
41.5969298
21
48.3595489
0
LINE
8
0
10
41.5969298
20
48.3595489
11
38.6861662
21
34.6654825
0
LINE
8
0
10
42.6364883
20
53.2502869
11
56.3305547
21
50.3395233
0
LINE
8
0
10
56.3305547
20
50.3395233
11
59.2413183
21
64.0335897
0
LINE
8
0
10
59.2413183
20
64.0335897
11
45.5472519
21
66.9443533
0
LINE
8
0
10
45.5472519
20
66.9443533
11
42.6364883
21
53.2502869
0
LINE
8
0
10
54.360207
20
17.0210939
11
68.0542734
21
14.1103303
0
LINE
8
0
10
68.0542734
20
14.1103303
11
70.965037
21
27.8043967
0
LINE
8
0
10
70.965037
20
27.8043967
11
57.2709706
21
30.7151603
0
LINE
8
0
10
57.2709706
20
30.7151603
11
54.360207
21
17.0210939
0
LINE
8
0
10
58.3105291
20
35.6058983
11
72.0045955
21
32.6951347
0
LINE
8
0
10
72.0045955
20
32.6951347
11
74.9153591
21
46.3892011
0
LINE
8
0
10
74.9153591
20
46.3892011
11
61.2212927
21
49.2999647
0
LINE
8
0
10
61.2212927
20
49.2999647
11
58.3105291
21
35.6058983
0
LINE
8
0
10
62.2608512
20
54.1907028
11
75.9549176
21
51.2799392
0
LINE
8
0
10
75.9549176
20
51.2799392
11
78.8656812
21
64.9740056
0
LINE
8
0
10
78.8656812
20
64.9740056
11
65.1716148
21
67.8847692
0
LINE
8
0
10
65.1716148
20
67.8847692
11
62.2608512
21
54.1907028
0
LINE
8
0
10
71.6975413
20
7.2018862
11
85.3916077
21
4.2911226
0
LINE
8
0
10
85.3916077
20
4.2911226
11
88.3023713
21
17.985189
0
LINE
8
0
10
88.3023713
20
17.985189
11
74.6083049
21
20.8959526
0
LINE
8
0
10
74.6083049
20
20.8959526
11
71.6975413
21
7.2018862
0
LINE
8
0
10
75.6478633
20
25.7866906
11
89.3419297
21
22.875927
0
LINE
8
0
10
89.3419297
20
22.875927
11
92.2526933
21
36.5699934
0
LINE
8
0
10
92.2526933
20
36.5699934
11
78.5586269
21
39.480757
0
LINE
8
0
10
78.5586269
20
39.480757
11
75.6478633
21
25.7866906
0
LINE
8
0
10
79.5981854
20
44.371495
11
93.2922518
21
41.4607314
0
LINE
8
0
10
93.2922518
20
41.4607314
11
96.2030154
21
55.1547978
0
LINE
8
0
10
96.2030154
20
55.1547978
11
82.508949
21
58.0655614
0
LINE
8
0
10
82.508949
20
58.0655614
11
79.5981854
21
44.371495
0
LINE
8
0
10
89.8665223
20
1.2952689
11
103.5605887
21
-1.6154947
0
LINE
8
0
10
103.5605887
20
-1.6154947
11
106.4713523
21
12.0785717
0
LINE
8
0
10
106.4713523
20
12.0785717
11
92.7772859
21
14.9893353
0
LINE
8
0
10
92.7772859
20
14.9893353
11
89.8665223
21
1.2952689
0
LINE
8
0
10
93.8168443
20
19.8800733
11
107.5109107
21
16.9693097
0
LINE
8
0
10
107.5109107
20
16.9693097
11
110.4216743
21
30.6633761
0
LINE
8
0
10
110.4216743
20
30.6633761
11
96.7276079
21
33.5741397
0
LINE
8
0
10
96.7276079
20
33.5741397
11
93.8168443
21
19.8800733
0
LINE
8
0
10
97.7671664
20
38.4648777
11
111.4612328
21
35.5541141
0
LINE
8
0
10
111.4612328
20
35.5541141
11
114.3719964
21
49.2481805
0
LINE
8
0
10
114.3719964
20
49.2481805
11
100.67793
21
52.1589441
0
LINE
8
0
10
100.67793
20
52.1589441
11
97.7671664
21
38.4648777
0
LINE
8
0
10
104.5395163
20
-21.2991606
11
118.2335827
21
-24.2099242
0
LINE
8
0
10
118.2335827
20
-24.2099242
11
121.1443463
21
-10.5158578
0
LINE
8
0
10
121.1443463
20
-10.5158578
11
107.4502799
21
-7.6050942
0
LINE
8
0
10
107.4502799
20
-7.6050942
11
104.5395163
21
-21.2991606
0
LINE
8
0
10
122.3701997
20
-40.8698616
11
133.5510968
21
-49.2952719
0
LINE
8
0
10
133.5510968
20
-49.2952719
11
141.9765071
21
-38.1143748
0
LINE
8
0
10
141.9765071
20
-38.1143748
11
130.79561
21
-29.6889645
0
LINE
8
0
10
130.79561
20
-29.6889645
11
122.3701997
21
-40.8698616
0
LINE
8
0
10
323.860933
20
10.6021558
11
337.6482415
21
13.0332303
0
LINE
8
0
10
337.6482415
20
13.0332303
11
335.217167
21
26.8205388
0
LINE
8
0
10
335.217167
20
26.8205388
11
321.4298585
21
24.3894643
0
LINE
8
0
10
321.4298585
20
24.3894643
11
323.860933
21
10.6021558
0
LINE
8
0
10
320.5616176
20
29.3135031
11
334.3489261
21
31.7445776
0
LINE
8
0
10
334.3489261
20
31.7445776
11
331.9178516
21
45.5318861
0
LINE
8
0
10
331.9178516
20
45.5318861
11
318.1305431
21
43.1008116
0
LINE
8
0
10
318.1305431
20
43.1008116
11
320.5616176
21
29.3135031
0
LINE
8
0
10
305.1409033
20
7.3520808
11
318.9282118
21
9.7831553
0
LINE
8
0
10
318.9282118
20
9.7831553
11
316.4971373
21
23.5704638
0
LINE
8
0
10
316.4971373
20
23.5704638
11
302.7098288
21
21.1393893
0
LINE
8
0
10
302.7098288
20
21.1393893
11
305.1409033
21
7.3520808
0
LINE
8
0
10
301.8415879
20
26.0634281
11
315.6288964
21
28.4945026
0
LINE
8
0
10
315.6288964
20
28.4945026
11
313.1978219
21
42.2818111
0
LINE
8
0
10
313.1978219
20
42.2818111
11
299.4105134
21
39.8507366
0
LINE
8
0
10
299.4105134
20
39.8507366
11
301.8415879
21
26.0634281
0
LINE
8
0
10
298.5422726
20
44.7747754
11
312.3295811
21
47.2058499
0
LINE
8
0
10
312.3295811
20
47.2058499
11
309.8985066
21
60.9931584
0
LINE
8
0
10
309.8985066
20
60.9931584
11
296.1111981
21
58.5620839
0
LINE
8
0
10
296.1111981
20
58.5620839
11
298.5422726
21
44.7747754
0
LINE
8
0
10
284.4084549
20
13.1699145
11
298.1025213
21
16.0806781
0
LINE
8
0
10
298.1025213
20
16.0806781
11
295.1917577
21
29.7747445
0
LINE
8
0
10
295.1917577
20
29.7747445
11
281.4976913
21
26.8639809
0
LINE
8
0
10
281.4976913
20
26.8639809
11
284.4084549
21
13.1699145
0
LINE
8
0
10
280.4581328
20
31.7547189
11
294.1521992
21
34.6654825
0
LINE
8
0
10
294.1521992
20
34.6654825
11
291.2414356
21
48.3595489
0
LINE
8
0
10
291.2414356
20
48.3595489
11
277.5473692
21
45.4487853
0
LINE
8
0
10
277.5473692
20
45.4487853
11
280.4581328
21
31.7547189
0
LINE
8
0
10
276.5078107
20
50.3395233
11
290.2018771
21
53.2502869
0
LINE
8
0
10
290.2018771
20
53.2502869
11
287.2911135
21
66.9443533
0
LINE
8
0
10
287.2911135
20
66.9443533
11
273.5970471
21
64.0335897
0
LINE
8
0
10
273.5970471
20
64.0335897
11
276.5078107
21
50.3395233
0
LINE
8
0
10
264.784092
20
14.1103303
11
278.4781584
21
17.0210939
0
LINE
8
0
10
278.4781584
20
17.0210939
11
275.5673948
21
30.7151603
0
LINE
8
0
10
275.5673948
20
30.7151603
11
261.8733284
21
27.8043967
0
LINE
8
0
10
261.8733284
20
27.8043967
11
264.784092
21
14.1103303
0
LINE
8
0
10
260.8337699
20
32.6951347
11
274.5278363
21
35.6058983
0
LINE
8
0
10
274.5278363
20
35.6058983
11
271.6170727
21
49.2999647
0
LINE
8
0
10
271.6170727
20
49.2999647
11
257.9230063
21
46.3892011
0
LINE
8
0
10
257.9230063
20
46.3892011
11
260.8337699
21
32.6951347
0
LINE
8
0
10
256.8834478
20
51.2799392
11
270.5775142
21
54.1907028
0
LINE
8
0
10
270.5775142
20
54.1907028
11
267.6667506
21
67.8847692
0
LINE
8
0
10
267.6667506
20
67.8847692
11
253.9726842
21
64.9740056
0
LINE
8
0
10
253.9726842
20
64.9740056
11
256.8834478
21
51.2799392
0
LINE
8
0
10
247.4467577
20
4.2911226
11
261.1408241
21
7.2018862
0
LINE
8
0
10
261.1408241
20
7.2018862
11
258.2300605
21
20.8959526
0
LINE
8
0
10
258.2300605
20
20.8959526
11
244.5359941
21
17.985189
0
LINE
8
0
10
244.5359941
20
17.985189
11
247.4467577
21
4.2911226
0
LINE
8
0
10
243.4964357
20
22.875927
11
257.1905021
21
25.7866906
0
LINE
8
0
10
257.1905021
20
25.7866906
11
254.2797385
21
39.480757
0
LINE
8
0
10
254.2797385
20
39.480757
11
240.5856721
21
36.5699934
0
LINE
8
0
10
240.5856721
20
36.5699934
11
243.4964357
21
22.875927
0
LINE
8
0
10
239.5461136
20
41.4607314
11
253.24018
21
44.371495
0
LINE
8
0
10
253.24018
20
44.371495
11
250.3294164
21
58.0655614
0
LINE
8
0
10
250.3294164
20
58.0655614
11
236.63535
21
55.1547978
0
LINE
8
0
10
236.63535
20
55.1547978
11
239.5461136
21
41.4607314
0
LINE
8
0
10
229.2777767
20
-1.6154947
11
242.9718431
21
1.2952689
0
LINE
8
0
10
242.9718431
20
1.2952689
11
240.0610795
21
14.9893353
0
LINE
8
0
10
240.0610795
20
14.9893353
11
226.3670131
21
12.0785717
0
LINE
8
0
10
226.3670131
20
12.0785717
11
229.2777767
21
-1.6154947
0
LINE
8
0
10
225.3274547
20
16.9693097
11
239.0215211
21
19.8800733
0
LINE
8
0
10
239.0215211
20
19.8800733
11
236.1107575
21
33.5741397
0
LINE
8
0
10
236.1107575
20
33.5741397
11
222.4166911
21
30.6633761
0
LINE
8
0
10
222.4166911
20
30.6633761
11
225.3274547
21
16.9693097
0
LINE
8
0
10
221.3771326
20
35.5541141
11
235.071199
21
38.4648777
0
LINE
8
0
10
235.071199
20
38.4648777
11
232.1604354
21
52.1589441
0
LINE
8
0
10
232.1604354
20
52.1589441
11
218.466369
21
49.2481805
0
LINE
8
0
10
218.466369
20
49.2481805
11
221.3771326
21
35.5541141
0
LINE
8
0
10
214.6047827
20
-24.2099242
11
228.2988491
21
-21.2991606
0
LINE
8
0
10
228.2988491
20
-21.2991606
11
225.3880855
21
-7.6050942
0
LINE
8
0
10
225.3880855
20
-7.6050942
11
211.6940191
21
-10.5158578
0
LINE
8
0
10
211.6940191
20
-10.5158578
11
214.6047827
21
-24.2099242
0
LINE
8
0
10
199.2872686
20
-49.2952719
11
210.4681657
21
-40.8698616
0
LINE
8
0
10
210.4681657
20
-40.8698616
11
202.0427554
21
-29.6889645
0
LINE
8
0
10
202.0427554
20
-29.6889645
11
190.8618583
21
-38.1143748
0
LINE
8
0
10
190.8618583
20
-38.1143748
11
199.2872686
21
-49.2952719
0
ENDSEC
0
EOF