<svg width="307.532mm" height="124.048mm" viewBox="0 0 307.532 124.048" xmlns="http://www.w3.org/2000/svg"><g id="svgGroup" stroke-linecap="round" fill-rule="evenodd" font-size="9pt" stroke="#000" stroke-width="0.25mm" fill="none" style="stroke:#000;stroke-width:0.25mm;fill:none"><path d="M 1.22 36.949 L 15.167 35.729 L 13.947 21.782 L 0 23.002 L 1.22 36.949 Z M 292.365 35.729 L 306.311 36.949 L 307.532 23.002 L 293.585 21.782 L 292.365 35.729 Z M 50.836 14.634 L 64.53 17.545 L 67.441 3.851 L 53.747 0.94 L 50.836 14.634 Z M 109.799 93.979 L 123.493 96.89 L 126.404 83.196 L 112.71 80.285 L 109.799 93.979 Z M 184.038 96.89 L 197.732 93.979 L 194.822 80.285 L 181.128 83.196 L 184.038 96.89 Z M 70.461 13.694 L 84.155 16.605 L 87.066 2.911 L 73.371 0 L 70.461 13.694 Z M 87.798 23.513 L 101.492 26.424 L 104.403 12.73 L 90.709 9.819 L 87.798 23.513 Z M 105.967 29.42 L 119.661 32.331 L 122.572 18.637 L 108.878 15.726 L 105.967 29.42 Z M 243.001 17.545 L 256.695 14.634 L 253.784 0.94 L 240.09 3.851 L 243.001 17.545 Z M 223.377 16.605 L 237.071 13.694 L 234.16 0 L 220.466 2.911 L 223.377 16.605 Z M 206.039 26.424 L 219.734 23.513 L 216.823 9.819 L 203.129 12.73 L 206.039 26.424 Z M 187.871 32.331 L 201.565 29.42 L 198.654 15.726 L 184.96 18.637 L 187.871 32.331 Z M 27.651 20.473 L 41.438 22.904 L 43.869 9.117 L 30.082 6.686 L 27.651 20.473 Z M 132.146 108.307 L 134.577 122.094 L 148.365 119.663 L 145.933 105.876 L 132.146 108.307 Z M 172.954 122.094 L 175.385 108.307 L 161.598 105.876 L 159.167 119.663 L 172.954 122.094 Z M 266.094 22.904 L 279.881 20.473 L 277.45 6.686 L 263.662 9.117 L 266.094 22.904 Z M 291.384 46.936 L 305.331 48.156 L 306.072 39.688 L 292.125 38.468 L 291.384 46.936 Z M 2.201 48.156 L 16.147 46.936 L 15.407 38.468 L 1.46 39.688 L 2.201 48.156 Z M 225.716 27.609 L 239.41 24.698 L 237.643 16.384 L 223.949 19.295 L 225.716 27.609 Z M 190.21 43.335 L 203.904 40.424 L 202.136 32.11 L 188.442 35.021 L 190.21 43.335 Z M 186.377 107.894 L 200.071 104.984 L 198.304 96.669 L 184.61 99.58 L 186.377 107.894 Z M 245.34 28.549 L 259.034 25.639 L 257.267 17.324 L 243.573 20.235 L 245.34 28.549 Z M 48.497 25.639 L 62.191 28.549 L 63.959 20.235 L 50.265 17.324 L 48.497 25.639 Z M 208.379 37.428 L 222.073 34.517 L 220.305 26.203 L 206.611 29.114 L 208.379 37.428 Z M 68.122 24.698 L 81.816 27.609 L 83.583 19.295 L 69.889 16.384 L 68.122 24.698 Z M 85.459 34.517 L 99.153 37.428 L 100.92 29.114 L 87.226 26.203 L 85.459 34.517 Z M 103.628 40.424 L 117.322 43.335 L 119.089 35.021 L 105.395 32.11 L 103.628 40.424 Z M 107.46 104.984 L 121.154 107.894 L 122.922 99.58 L 109.227 96.669 L 107.46 104.984 Z M 268.047 33.983 L 281.834 31.552 L 280.358 23.182 L 266.571 25.613 L 268.047 33.983 Z M 25.697 31.552 L 39.485 33.983 L 40.961 25.613 L 27.173 23.182 L 25.697 31.552 Z M 121.067 110.261 L 123.498 124.048 L 131.869 122.572 L 129.438 108.785 L 121.067 110.261 Z M 184.033 124.048 L 186.465 110.261 L 178.094 108.785 L 175.663 122.572 L 184.033 124.048 Z" vector-effect="non-scaling-stroke"/></g></svg>