<svg width="306.787mm" height="129.659mm" viewBox="0 0 306.787 129.659" xmlns="http://www.w3.org/2000/svg"><g id="svgGroup" stroke-linecap="round" fill-rule="evenodd" font-size="9pt" stroke="#000" stroke-width="0.25mm" fill="none" style="stroke:#000;stroke-width:0.25mm;fill:none"><path d="M 1.22 36.949 L 15.167 35.729 L 13.947 21.782 L 0 23.002 L 1.22 36.949 Z M 291.62 35.729 L 305.567 36.949 L 306.787 23.002 L 292.84 21.782 L 291.62 35.729 Z M 115.022 93.646 L 126.054 102.265 L 134.673 91.233 L 123.641 82.614 L 115.022 93.646 Z M 180.733 102.265 L 191.765 93.646 L 183.146 82.614 L 172.113 91.233 L 180.733 102.265 Z M 50.836 14.634 L 64.53 17.545 L 67.441 3.851 L 53.747 0.94 L 50.836 14.634 Z M 70.461 13.694 L 84.155 16.605 L 87.066 2.911 L 73.371 0 L 70.461 13.694 Z M 87.798 23.513 L 101.492 26.424 L 104.403 12.73 L 90.709 9.819 L 87.798 23.513 Z M 105.967 29.42 L 119.661 32.331 L 122.572 18.637 L 108.878 15.726 L 105.967 29.42 Z M 242.256 17.545 L 255.95 14.634 L 253.04 0.94 L 239.345 3.851 L 242.256 17.545 Z M 222.632 16.605 L 236.326 13.694 L 233.415 0 L 219.721 2.911 L 222.632 16.605 Z M 205.295 26.424 L 218.989 23.513 L 216.078 9.819 L 202.384 12.73 L 205.295 26.424 Z M 187.126 32.331 L 200.82 29.42 L 197.909 15.726 L 184.215 18.637 L 187.126 32.331 Z M 27.651 20.473 L 41.438 22.904 L 43.869 9.117 L 30.082 6.686 L 27.651 20.473 Z M 265.349 22.904 L 279.136 20.473 L 276.705 6.686 L 262.918 9.117 L 265.349 22.904 Z M 127.594 112.916 L 139.718 119.916 L 146.718 107.792 L 134.594 100.792 L 127.594 112.916 Z M 167.069 119.916 L 179.193 112.916 L 172.193 100.792 L 160.069 107.792 L 167.069 119.916 Z M 290.639 46.936 L 304.586 48.156 L 305.327 39.688 L 291.38 38.468 L 290.639 46.936 Z M 2.201 48.156 L 16.147 46.936 L 15.407 38.468 L 1.46 39.688 L 2.201 48.156 Z M 121.969 122.659 L 134.093 129.659 L 138.343 122.297 L 126.219 115.297 L 121.969 122.659 Z M 172.694 129.659 L 184.818 122.659 L 180.568 115.297 L 168.444 122.297 L 172.694 129.659 Z M 224.971 27.609 L 238.665 24.698 L 236.898 16.384 L 223.204 19.295 L 224.971 27.609 Z M 189.465 43.335 L 203.159 40.424 L 201.391 32.11 L 187.697 35.021 L 189.465 43.335 Z M 244.595 28.549 L 258.289 25.639 L 256.522 17.324 L 242.828 20.235 L 244.595 28.549 Z M 48.497 25.639 L 62.191 28.549 L 63.959 20.235 L 50.265 17.324 L 48.497 25.639 Z M 207.634 37.428 L 221.328 34.517 L 219.56 26.203 L 205.866 29.114 L 207.634 37.428 Z M 68.122 24.698 L 81.816 27.609 L 83.583 19.295 L 69.889 16.384 L 68.122 24.698 Z M 85.459 34.517 L 99.153 37.428 L 100.92 29.114 L 87.226 26.203 L 85.459 34.517 Z M 103.628 40.424 L 117.322 43.335 L 119.089 35.021 L 105.395 32.11 L 103.628 40.424 Z M 267.302 33.983 L 281.089 31.552 L 279.613 23.182 L 265.826 25.613 L 267.302 33.983 Z M 25.697 31.552 L 39.485 33.983 L 40.961 25.613 L 27.173 23.182 L 25.697 31.552 Z M 108.096 102.511 L 119.128 111.13 L 124.361 104.432 L 113.329 95.813 L 108.096 102.511 Z M 187.659 111.13 L 198.691 102.511 L 193.458 95.813 L 182.426 104.432 L 187.659 111.13 Z" vector-effect="non-scaling-stroke"/></g></svg>