<svg width="299.414mm" height="128.881mm" viewBox="0 0 299.414 128.881" xmlns="http://www.w3.org/2000/svg"><g id="svgGroup" stroke-linecap="round" fill-rule="evenodd" font-size="9pt" stroke="#000" stroke-width="0.25mm" fill="none" style="stroke:#000;stroke-width:0.25mm;fill:none"><path d="M 125.142 110.861 L 134.141 121.586 L 144.866 112.587 L 135.867 101.862 L 125.142 110.861 Z M 165.272 121.586 L 174.271 110.861 L 163.547 101.862 L 154.548 112.587 L 165.272 121.586 Z M 177.015 102.372 L 188.048 93.753 L 179.428 82.721 L 168.396 91.34 L 177.015 102.372 Z M 111.366 93.753 L 122.398 102.372 L 131.017 91.34 L 119.985 82.721 L 111.366 93.753 Z M 47.181 14.634 L 60.875 17.545 L 63.786 3.851 L 50.092 0.94 L 47.181 14.634 Z M 66.805 13.694 L 80.499 16.605 L 83.41 2.911 L 69.716 0 L 66.805 13.694 Z M 84.143 23.513 L 97.837 26.424 L 100.748 12.73 L 87.053 9.819 L 84.143 23.513 Z M 102.312 29.42 L 116.006 32.331 L 118.916 18.637 L 105.222 15.726 L 102.312 29.42 Z M 238.538 17.545 L 252.233 14.634 L 249.322 0.94 L 235.628 3.851 L 238.538 17.545 Z M 218.914 16.605 L 232.608 13.694 L 229.697 0 L 216.003 2.911 L 218.914 16.605 Z M 201.577 26.424 L 215.271 23.513 L 212.36 9.819 L 198.666 12.73 L 201.577 26.424 Z M 183.408 32.331 L 197.102 29.42 L 194.191 15.726 L 180.497 18.637 L 183.408 32.331 Z M 1.971 35.934 L 15.758 38.365 L 18.189 24.577 L 4.402 22.146 L 1.971 35.934 Z M 23.99 20.472 L 37.778 22.903 L 40.209 9.116 L 26.421 6.685 L 23.99 20.472 Z M 283.655 38.365 L 297.443 35.934 L 295.012 22.146 L 281.224 24.577 L 283.655 38.365 Z M 261.636 22.903 L 275.423 20.472 L 272.992 6.685 L 259.205 9.116 L 261.636 22.903 Z M 173.967 128.881 L 182.966 118.157 L 179.902 115.586 L 170.903 126.31 L 173.967 128.881 Z M 116.448 118.157 L 125.447 128.881 L 128.511 126.31 L 119.512 115.586 L 116.448 118.157 Z M 81.783 34.615 L 95.477 37.526 L 96.309 33.613 L 82.615 30.703 L 81.783 34.615 Z M 99.952 40.522 L 113.646 43.433 L 114.478 39.52 L 100.784 36.609 L 99.952 40.522 Z M 240.898 28.647 L 254.592 25.736 L 253.761 21.824 L 240.067 24.735 L 240.898 28.647 Z M 64.446 24.796 L 78.14 27.707 L 78.971 23.794 L 65.277 20.883 L 64.446 24.796 Z M 44.821 25.736 L 58.515 28.647 L 59.347 24.735 L 45.653 21.824 L 44.821 25.736 Z M 221.274 27.707 L 234.968 24.796 L 234.136 20.883 L 220.442 23.794 L 221.274 27.707 Z M 203.937 37.526 L 217.631 34.615 L 216.799 30.703 L 203.105 33.613 L 203.937 37.526 Z M 185.768 43.433 L 199.462 40.522 L 198.63 36.609 L 184.936 39.52 L 185.768 43.433 Z M 263.607 34.081 L 277.394 31.65 L 276.7 27.711 L 262.912 30.142 L 263.607 34.081 Z M 22.019 31.65 L 35.807 34.081 L 36.501 30.142 L 22.714 27.711 L 22.019 31.65 Z M 285.626 49.542 L 299.414 47.111 L 298.719 43.172 L 284.932 45.603 L 285.626 49.542 Z M 0 47.111 L 13.787 49.542 L 14.482 45.603 L 0.695 43.172 L 0 47.111 Z M 104.378 102.697 L 115.41 111.316 L 117.873 108.164 L 106.841 99.545 L 104.378 102.697 Z M 184.003 111.316 L 195.035 102.697 L 192.573 99.545 L 181.54 108.164 L 184.003 111.316 Z" vector-effect="non-scaling-stroke"/></g></svg>