0
SECTION
2
HEADER
9
$INSUNITS
70
4
0
ENDSEC
0
SECTION
2
TABLES
0
TABLE
2
LTYPE
0
LTYPE
72
65
70
64
2
CONTINUOUS
3
______
73
0
40
0
0
ENDTAB
0
TABLE
2
LAYER
0
ENDTAB
0
ENDSEC
0
SECTION
2
ENTITIES
0
LINE
8
0
10
0.4200786
20
49.9290415
11
14.3668044
21
51.1492219
0
LINE
8
0
10
14.3668044
20
51.1492219
11
13.6259806
21
59.6168769
0
LINE
8
0
10
13.6259806
20
59.6168769
11
-0.3207452
21
58.3966965
0
LINE
8
0
10
-0.3207452
20
58.3966965
11
0.4200786
21
49.9290415
0
LINE
8
0
10
23.9166298
20
66.5327021
11
37.7039383
21
64.1016276
0
LINE
8
0
10
37.7039383
20
64.1016276
11
39.1799478
21
72.4724935
0
LINE
8
0
10
39.1799478
20
72.4724935
11
25.3926393
21
74.903568
0
LINE
8
0
10
25.3926393
20
74.903568
11
23.9166298
21
66.5327021
0
LINE
8
0
10
46.7167552
20
72.4464335
11
60.4108216
21
69.5356699
0
LINE
8
0
10
60.4108216
20
69.5356699
11
62.178071
21
77.8499245
0
LINE
8
0
10
62.178071
20
77.8499245
11
48.4840046
21
80.7606881
0
LINE
8
0
10
48.4840046
20
80.7606881
11
46.7167552
21
72.4464335
0
LINE
8
0
10
66.3411181
20
73.3868494
11
80.0351845
21
70.4760858
0
LINE
8
0
10
80.0351845
20
70.4760858
11
81.8024339
21
78.7903404
0
LINE
8
0
10
81.8024339
20
78.7903404
11
68.1083675
21
81.701104
0
LINE
8
0
10
68.1083675
20
81.701104
11
66.3411181
21
73.3868494
0
LINE
8
0
10
83.6784523
20
63.5676417
11
97.3725187
21
60.6568781
0
LINE
8
0
10
97.3725187
20
60.6568781
11
99.1397681
21
68.9711327
0
LINE
8
0
10
99.1397681
20
68.9711327
11
85.4457017
21
71.8818963
0
LINE
8
0
10
85.4457017
20
71.8818963
11
83.6784523
21
63.5676417
0
LINE
8
0
10
101.8474333
20
57.6610243
11
115.5414997
21
54.7502607
0
LINE
8
0
10
115.5414997
20
54.7502607
11
117.3087491
21
63.0645153
0
LINE
8
0
10
117.3087491
20
63.0645153
11
103.6146827
21
65.9752789
0
LINE
8
0
10
103.6146827
20
65.9752789
11
101.8474333
21
57.6610243
0
LINE
8
0
10
91.1266674
20
-18.4481715
11
94.037431
21
-4.7541051
0
LINE
8
0
10
94.037431
20
-4.7541051
11
85.7231764
21
-2.9868557
0
LINE
8
0
10
85.7231764
20
-2.9868557
11
82.8124128
21
-16.6809221
0
LINE
8
0
10
82.8124128
20
-16.6809221
11
91.1266674
21
-18.4481715
0
LINE
8
0
10
106.663488
20
-1.6871906
11
120.3575544
21
-4.5979542
0
LINE
8
0
10
120.3575544
20
-4.5979542
11
122.1248038
21
3.7163004
0
LINE
8
0
10
122.1248038
20
3.7163004
11
108.4307374
21
6.627064
0
LINE
8
0
10
108.4307374
20
6.627064
11
106.663488
21
-1.6871906
0
LINE
8
0
10
124.7567376
20
-3.2410238
11
137.2308289
21
-9.5968908
0
LINE
8
0
10
137.2308289
20
-9.5968908
11
141.0897482
21
-2.0233354
0
LINE
8
0
10
141.0897482
20
-2.0233354
11
128.6156569
21
4.3325316
0
LINE
8
0
10
128.6156569
20
4.3325316
11
124.7567376
21
-3.2410238
0
LINE
8
0
10
133.1989752
20
-16.5705155
11
137.5252132
21
-29.8853067
0
LINE
8
0
10
137.5252132
20
-29.8853067
11
145.6091936
21
-27.2586623
0
LINE
8
0
10
145.6091936
20
-27.2586623
11
141.2829556
21
-13.9438711
0
LINE
8
0
10
141.2829556
20
-13.9438711
11
133.1989752
21
-16.5705155
0
LINE
8
0
10
318.471561
20
51.1492219
11
332.4182868
21
49.9290415
0
LINE
8
0
10
332.4182868
20
49.9290415
11
333.1591106
21
58.3966965
0
LINE
8
0
10
333.1591106
20
58.3966965
11
319.2123848
21
59.6168769
0
LINE
8
0
10
319.2123848
20
59.6168769
11
318.471561
21
51.1492219
0
LINE
8
0
10
295.1344271
20
64.1016276
11
308.9217356
21
66.5327021
0
LINE
8
0
10
308.9217356
20
66.5327021
11
307.4457261
21
74.903568
0
LINE
8
0
10
307.4457261
20
74.903568
11
293.6584176
21
72.4724935
0
LINE
8
0
10
293.6584176
20
72.4724935
11
295.1344271
21
64.1016276
0
LINE
8
0
10
272.4275438
20
69.5356699
11
286.1216102
21
72.4464335
0
LINE
8
0
10
286.1216102
20
72.4464335
11
284.3543608
21
80.7606881
0
LINE
8
0
10
284.3543608
20
80.7606881
11
270.6602944
21
77.8499245
0
LINE
8
0
10
270.6602944
20
77.8499245
11
272.4275438
21
69.5356699
0
LINE
8
0
10
252.8031809
20
70.4760858
11
266.4972473
21
73.3868494
0
LINE
8
0
10
266.4972473
20
73.3868494
11
264.7299979
21
81.701104
0
LINE
8
0
10
264.7299979
20
81.701104
11
251.0359315
21
78.7903404
0
LINE
8
0
10
251.0359315
20
78.7903404
11
252.8031809
21
70.4760858
0
LINE
8
0
10
235.4658467
20
60.6568781
11
249.1599131
21
63.5676417
0
LINE
8
0
10
249.1599131
20
63.5676417
11
247.3926637
21
71.8818963
0
LINE
8
0
10
247.3926637
20
71.8818963
11
233.6985973
21
68.9711327
0
LINE
8
0
10
233.6985973
20
68.9711327
11
235.4658467
21
60.6568781
0
LINE
8
0
10
217.2968657
20
54.7502607
11
230.9909321
21
57.6610243
0
LINE
8
0
10
230.9909321
20
57.6610243
11
229.2236827
21
65.9752789
0
LINE
8
0
10
229.2236827
20
65.9752789
11
215.5296163
21
63.0645153
0
LINE
8
0
10
215.5296163
20
63.0645153
11
217.2968657
21
54.7502607
0
LINE
8
0
10
238.8009344
20
-4.7541051
11
241.711698
21
-18.4481715
0
LINE
8
0
10
241.711698
20
-18.4481715
11
250.0259526
21
-16.6809221
0
LINE
8
0
10
250.0259526
20
-16.6809221
11
247.115189
21
-2.9868557
0
LINE
8
0
10
247.115189
20
-2.9868557
11
238.8009344
21
-4.7541051
0
LINE
8
0
10
212.480811
20
-4.5979542
11
226.1748774
21
-1.6871906
0
LINE
8
0
10
226.1748774
20
-1.6871906
11
224.407628
21
6.627064
0
LINE
8
0
10
224.407628
20
6.627064
11
210.7135616
21
3.7163004
0
LINE
8
0
10
210.7135616
20
3.7163004
11
212.480811
21
-4.5979542
0
LINE
8
0
10
195.6075365
20
-9.5968908
11
208.0816278
21
-3.2410238
0
LINE
8
0
10
208.0816278
20
-3.2410238
11
204.2227085
21
4.3325316
0
LINE
8
0
10
204.2227085
20
4.3325316
11
191.7486172
21
-2.0233354
0
LINE
8
0
10
191.7486172
20
-2.0233354
11
195.6075365
21
-9.5968908
0
LINE
8
0
10
195.3131522
20
-29.8853067
11
199.6393902
21
-16.5705155
0
LINE
8
0
10
199.6393902
20
-16.5705155
11
191.5554098
21
-13.9438711
0
LINE
8
0
10
191.5554098
20
-13.9438711
11
187.2291718
21
-27.2586623
0
LINE
8
0
10
187.2291718
20
-27.2586623
11
195.3131522
21
-29.8853067
0
LINE
8
0
10
-0.5604235
20
61.1362319
11
13.3863023
21
62.3564123
0
LINE
8
0
10
13.3863023
20
62.3564123
11
12.1661219
21
76.3031381
0
LINE
8
0
10
12.1661219
20
76.3031381
11
-1.7806039
21
75.0829577
0
LINE
8
0
10
-1.7806039
20
75.0829577
11
-0.5604235
21
61.1362319
0
LINE
8
0
10
25.8701718
20
77.6117893
11
39.6574803
21
75.1807148
0
LINE
8
0
10
39.6574803
20
75.1807148
11
42.0885548
21
88.9680233
0
LINE
8
0
10
42.0885548
20
88.9680233
11
28.3012463
21
91.3990978
0
LINE
8
0
10
28.3012463
20
91.3990978
11
25.8701718
21
77.6117893
0
LINE
8
0
10
49.0557618
20
83.4505941
11
62.7498282
21
80.5398305
0
LINE
8
0
10
62.7498282
20
80.5398305
11
65.6605918
21
94.2338969
0
LINE
8
0
10
65.6605918
20
94.2338969
11
51.9665254
21
97.1446605
0
LINE
8
0
10
51.9665254
20
97.1446605
11
49.0557618
21
83.4505941
0
LINE
8
0
10
68.6801247
20
84.39101
11
82.3741911
21
81.4802464
0
LINE
8
0
10
82.3741911
20
81.4802464
11
85.2849547
21
95.1743128
0
LINE
8
0
10
85.2849547
20
95.1743128
11
71.5908883
21
98.0850764
0
LINE
8
0
10
71.5908883
20
98.0850764
11
68.6801247
21
84.39101
0
LINE
8
0
10
86.0174589
20
74.5718023
11
99.7115253
21
71.6610387
0
LINE
8
0
10
99.7115253
20
71.6610387
11
102.6222889
21
85.3551051
0
LINE
8
0
10
102.6222889
20
85.3551051
11
88.9282225
21
88.2658687
0
LINE
8
0
10
88.9282225
20
88.2658687
11
86.0174589
21
74.5718023
0
LINE
8
0
10
104.1864399
20
68.6651849
11
117.8805063
21
65.7544213
0
LINE
8
0
10
117.8805063
20
65.7544213
11
120.7912699
21
79.4484877
0
LINE
8
0
10
120.7912699
20
79.4484877
11
107.0972035
21
82.3592513
0
LINE
8
0
10
107.0972035
20
82.3592513
11
104.1864399
21
68.6651849
0
LINE
8
0
10
80.1225068
20
-16.1091649
11
83.0332704
21
-2.4150985
0
LINE
8
0
10
83.0332704
20
-2.4150985
11
69.339204
21
0.4956651
0
LINE
8
0
10
69.339204
20
0.4956651
11
66.4284404
21
-13.1984013
0
LINE
8
0
10
66.4284404
20
-13.1984013
11
80.1225068
21
-16.1091649
0
LINE
8
0
10
109.0024946
20
9.31697
11
122.696561
21
6.4062064
0
LINE
8
0
10
122.696561
20
6.4062064
11
125.6073246
21
20.1002728
0
LINE
8
0
10
125.6073246
20
20.1002728
11
111.9132582
21
23.0110364
0
LINE
8
0
10
111.9132582
20
23.0110364
11
109.0024946
21
9.31697
0
LINE
8
0
10
129.8641307
20
6.7827995
11
142.3382221
21
0.4269325
0
LINE
8
0
10
142.3382221
20
0.4269325
11
148.6940891
21
12.9010239
0
LINE
8
0
10
148.6940891
20
12.9010239
11
136.2199977
21
19.2568909
0
LINE
8
0
10
136.2199977
20
19.2568909
11
129.8641307
21
6.7827995
0
LINE
8
0
10
143.898361
20
-13.0940743
11
148.2245989
21
-26.4088656
0
LINE
8
0
10
148.2245989
20
-26.4088656
11
161.5393902
21
-22.0826277
0
LINE
8
0
10
161.5393902
20
-22.0826277
11
157.2131523
21
-8.7678364
0
LINE
8
0
10
157.2131523
20
-8.7678364
11
143.898361
21
-13.0940743
0
LINE
8
0
10
319.4520631
20
62.3564123
11
333.3987889
21
61.1362319
0
LINE
8
0
10
333.3987889
20
61.1362319
11
334.6189693
21
75.0829577
0
LINE
8
0
10
334.6189693
20
75.0829577
11
320.6722435
21
76.3031381
0
LINE
8
0
10
320.6722435
20
76.3031381
11
319.4520631
21
62.3564123
0
LINE
8
0
10
293.1808851
20
75.1807148
11
306.9681936
21
77.6117893
0
LINE
8
0
10
306.9681936
20
77.6117893
11
304.5371191
21
91.3990978
0
LINE
8
0
10
304.5371191
20
91.3990978
11
290.7498106
21
88.9680233
0
LINE
8
0
10
290.7498106
20
88.9680233
11
293.1808851
21
75.1807148
0
LINE
8
0
10
270.0885372
20
80.5398305
11
283.7826036
21
83.4505941
0
LINE
8
0
10
283.7826036
20
83.4505941
11
280.87184
21
97.1446605
0
LINE
8
0
10
280.87184
20
97.1446605
11
267.1777736
21
94.2338969
0
LINE
8
0
10
267.1777736
20
94.2338969
11
270.0885372
21
80.5398305
0
LINE
8
0
10
250.4641743
20
81.4802464
11
264.1582407
21
84.39101
0
LINE
8
0
10
264.1582407
20
84.39101
11
261.2474771
21
98.0850764
0
LINE
8
0
10
261.2474771
20
98.0850764
11
247.5534107
21
95.1743128
0
LINE
8
0
10
247.5534107
20
95.1743128
11
250.4641743
21
81.4802464
0
LINE
8
0
10
233.1268401
20
71.6610387
11
246.8209065
21
74.5718023
0
LINE
8
0
10
246.8209065
20
74.5718023
11
243.9101429
21
88.2658687
0
LINE
8
0
10
243.9101429
20
88.2658687
11
230.2160765
21
85.3551051
0
LINE
8
0
10
230.2160765
20
85.3551051
11
233.1268401
21
71.6610387
0
LINE
8
0
10
214.9578591
20
65.7544213
11
228.6519255
21
68.6651849
0
LINE
8
0
10
228.6519255
20
68.6651849
11
225.7411619
21
82.3592513
0
LINE
8
0
10
225.7411619
20
82.3592513
11
212.0470955
21
79.4484877
0
LINE
8
0
10
212.0470955
20
79.4484877
11
214.9578591
21
65.7544213
0
LINE
8
0
10
249.805095
20
-2.4150985
11
252.7158586
21
-16.1091649
0
LINE
8
0
10
252.7158586
20
-16.1091649
11
266.409925
21
-13.1984013
0
LINE
8
0
10
266.409925
20
-13.1984013
11
263.4991614
21
0.4956651
0
LINE
8
0
10
263.4991614
20
0.4956651
11
249.805095
21
-2.4150985
0
LINE
8
0
10
210.1418044
20
6.4062064
11
223.8358708
21
9.31697
0
LINE
8
0
10
223.8358708
20
9.31697
11
220.9251072
21
23.0110364
0
LINE
8
0
10
220.9251072
20
23.0110364
11
207.2310408
21
20.1002728
0
LINE
8
0
10
207.2310408
20
20.1002728
11
210.1418044
21
6.4062064
0
LINE
8
0
10
190.5001433
20
0.4269325
11
202.9742347
21
6.7827995
0
LINE
8
0
10
202.9742347
20
6.7827995
11
196.6183677
21
19.2568909
0
LINE
8
0
10
196.6183677
20
19.2568909
11
184.1442763
21
12.9010239
0
LINE
8
0
10
184.1442763
20
12.9010239
11
190.5001433
21
0.4269325
0
LINE
8
0
10
184.6137665
20
-26.4088656
11
188.9400044
21
-13.0940743
0
LINE
8
0
10
188.9400044
20
-13.0940743
11
175.6252131
21
-8.7678364
0
LINE
8
0
10
175.6252131
20
-8.7678364
11
171.2989752
21
-22.0826277
0
LINE
8
0
10
171.2989752
20
-22.0826277
11
184.6137665
21
-26.4088656
0
ENDSEC
0
EOF