<svg width="344.701mm" height="127.998mm" viewBox="0 0 344.701 127.998" xmlns="http://www.w3.org/2000/svg"><g id="svgGroup" stroke-linecap="round" fill-rule="evenodd" font-size="9pt" stroke="#000" stroke-width="0.25mm" fill="none" style="stroke:#000;stroke-width:0.25mm;fill:none"><path d="M 1.22 36.949 L 15.167 35.729 L 13.947 21.782 L 0 23.002 L 1.22 36.949 Z M 329.534 35.729 L 343.481 36.949 L 344.701 23.002 L 330.755 21.782 L 329.534 35.729 Z M 50.836 14.634 L 64.53 17.545 L 67.441 3.851 L 53.747 0.94 L 50.836 14.634 Z M 79.935 113.776 L 82.845 100.082 L 69.151 97.171 L 66.241 110.865 L 79.935 113.776 Z M 128.384 97.93 L 142.078 100.841 L 144.989 87.146 L 131.295 84.236 L 128.384 97.93 Z M 261.856 100.082 L 264.767 113.776 L 278.461 110.865 L 275.55 97.171 L 261.856 100.082 Z M 202.623 100.841 L 216.317 97.93 L 213.406 84.236 L 199.712 87.146 L 202.623 100.841 Z M 70.461 13.694 L 84.155 16.605 L 87.066 2.911 L 73.371 0 L 70.461 13.694 Z M 87.798 23.513 L 101.492 26.424 L 104.403 12.73 L 90.709 9.819 L 87.798 23.513 Z M 105.967 29.42 L 119.661 32.331 L 122.572 18.637 L 108.878 15.726 L 105.967 29.42 Z M 280.171 17.545 L 293.865 14.634 L 290.954 0.94 L 277.26 3.851 L 280.171 17.545 Z M 260.546 16.605 L 274.241 13.694 L 271.33 0 L 257.636 2.911 L 260.546 16.605 Z M 243.209 26.424 L 256.903 23.513 L 253.992 9.819 L 240.298 12.73 L 243.209 26.424 Z M 225.04 32.331 L 238.734 29.42 L 235.823 15.726 L 222.129 18.637 L 225.04 32.331 Z M 27.651 20.473 L 41.438 22.904 L 43.869 9.117 L 30.082 6.686 L 27.651 20.473 Z M 150.731 112.257 L 153.162 126.045 L 166.949 123.614 L 164.518 109.826 L 150.731 112.257 Z M 191.539 126.045 L 193.97 112.257 L 180.183 109.826 L 177.752 123.614 L 191.539 126.045 Z M 303.263 22.904 L 317.05 20.473 L 314.619 6.686 L 300.832 9.117 L 303.263 22.904 Z M 328.554 46.936 L 342.501 48.156 L 343.241 39.688 L 329.295 38.468 L 328.554 46.936 Z M 2.201 48.156 L 16.147 46.936 L 15.407 38.468 L 1.46 39.688 L 2.201 48.156 Z M 227.379 43.335 L 241.073 40.424 L 239.306 32.11 L 225.612 35.021 L 227.379 43.335 Z M 204.962 111.845 L 218.656 108.934 L 216.889 100.62 L 203.195 103.53 L 204.962 111.845 Z M 126.045 108.934 L 139.739 111.845 L 141.506 103.53 L 127.812 100.62 L 126.045 108.934 Z M 48.497 25.639 L 62.191 28.549 L 63.959 20.235 L 50.265 17.324 L 48.497 25.639 Z M 245.548 37.428 L 259.242 34.517 L 257.475 26.203 L 243.781 29.114 L 245.548 37.428 Z M 68.122 24.698 L 81.816 27.609 L 83.583 19.295 L 69.889 16.384 L 68.122 24.698 Z M 85.459 34.517 L 99.153 37.428 L 100.92 29.114 L 87.226 26.203 L 85.459 34.517 Z M 103.628 40.424 L 117.322 43.335 L 119.089 35.021 L 105.395 32.11 L 103.628 40.424 Z M 90.939 116.115 L 93.85 102.421 L 85.535 100.654 L 82.624 114.348 L 90.939 116.115 Z M 282.51 28.549 L 296.204 25.639 L 294.437 17.324 L 280.743 20.235 L 282.51 28.549 Z M 262.885 27.609 L 276.58 24.698 L 274.812 16.384 L 261.118 19.295 L 262.885 27.609 Z M 250.852 102.421 L 253.762 116.115 L 262.077 114.348 L 259.166 100.654 L 250.852 102.421 Z M 305.217 33.983 L 319.004 31.552 L 317.528 23.182 L 303.741 25.613 L 305.217 33.983 Z M 25.697 31.552 L 39.485 33.983 L 40.961 25.613 L 27.173 23.182 L 25.697 31.552 Z M 139.652 114.211 L 142.083 127.998 L 150.454 126.522 L 148.023 112.735 L 139.652 114.211 Z M 202.618 127.998 L 205.049 114.211 L 196.678 112.735 L 194.247 126.522 L 202.618 127.998 Z" vector-effect="non-scaling-stroke"/></g></svg>