<svg width="306.277mm" height="43.433mm" viewBox="0 0 306.277 43.433" xmlns="http://www.w3.org/2000/svg"><g id="svgGroup" stroke-linecap="round" fill-rule="evenodd" font-size="9pt" stroke="#000" stroke-width="0.25mm" fill="none" style="stroke:#000;stroke-width:0.25mm;fill:none"><path d="M 80.835 23.513 L 94.529 26.424 L 97.44 12.73 L 83.745 9.819 L 80.835 23.513 Z M 211.749 26.424 L 225.443 23.513 L 222.532 9.819 L 208.838 12.73 L 211.749 26.424 Z M 43.873 14.634 L 57.567 17.545 L 60.478 3.851 L 46.784 0.94 L 43.873 14.634 Z M 99.004 29.42 L 112.698 32.331 L 115.608 18.637 L 101.914 15.726 L 99.004 29.42 Z M 193.58 32.331 L 207.274 29.42 L 204.363 15.726 L 190.669 18.637 L 193.58 32.331 Z M 63.497 13.694 L 77.191 16.605 L 80.102 2.911 L 66.408 0 L 63.497 13.694 Z M 248.71 17.545 L 262.405 14.634 L 259.494 0.94 L 245.8 3.851 L 248.71 17.545 Z M 229.086 16.605 L 242.78 13.694 L 239.869 0 L 226.175 2.911 L 229.086 16.605 Z M 1.971 17.173 L 15.758 19.604 L 18.189 5.817 L 4.402 3.386 L 1.971 17.173 Z M 20.682 20.472 L 34.47 22.903 L 36.901 9.116 L 23.113 6.685 L 20.682 20.472 Z M 290.519 19.604 L 304.307 17.173 L 301.876 3.386 L 288.088 5.817 L 290.519 19.604 Z M 271.808 22.903 L 285.595 20.472 L 283.164 6.685 L 269.377 9.116 L 271.808 22.903 Z M 61.138 24.796 L 74.832 27.707 L 75.663 23.794 L 61.969 20.883 L 61.138 24.796 Z M 41.513 25.736 L 55.207 28.647 L 56.039 24.735 L 42.345 21.824 L 41.513 25.736 Z M 78.475 34.615 L 92.169 37.526 L 93.001 33.613 L 79.307 30.703 L 78.475 34.615 Z M 96.644 40.522 L 110.338 43.433 L 111.17 39.52 L 97.476 36.609 L 96.644 40.522 Z M 251.07 28.647 L 264.764 25.736 L 263.933 21.824 L 250.239 24.735 L 251.07 28.647 Z M 231.446 27.707 L 245.14 24.796 L 244.308 20.883 L 230.614 23.794 L 231.446 27.707 Z M 214.109 37.526 L 227.803 34.615 L 226.971 30.703 L 213.277 33.613 L 214.109 37.526 Z M 195.94 43.433 L 209.634 40.522 L 208.802 36.609 L 195.108 39.52 L 195.94 43.433 Z M 18.711 31.65 L 32.499 34.081 L 33.193 30.142 L 19.406 27.711 L 18.711 31.65 Z M 292.49 30.782 L 306.277 28.351 L 305.583 24.411 L 291.796 26.842 L 292.49 30.782 Z M 273.779 34.081 L 287.566 31.65 L 286.872 27.711 L 273.084 30.142 L 273.779 34.081 Z M 0 28.351 L 13.787 30.782 L 14.482 26.842 L 0.695 24.411 L 0 28.351 Z" vector-effect="non-scaling-stroke"/></g></svg>