0
SECTION
2
HEADER
9
$INSUNITS
70
4
0
ENDSEC
0
SECTION
2
TABLES
0
TABLE
2
LTYPE
0
LTYPE
72
65
70
64
2
CONTINUOUS
3
______
73
0
40
0
0
ENDTAB
0
TABLE
2
LAYER
0
ENDTAB
0
ENDSEC
0
SECTION
2
ENTITIES
0
LINE
8
0
10
0.4200786
20
49.9290415
11
14.3668044
21
51.1492219
0
LINE
8
0
10
14.3668044
20
51.1492219
11
13.6259806
21
59.6168769
0
LINE
8
0
10
13.6259806
20
59.6168769
11
-0.3207452
21
58.3966965
0
LINE
8
0
10
-0.3207452
20
58.3966965
11
0.4200786
21
49.9290415
0
LINE
8
0
10
23.9166298
20
66.5327021
11
37.7039383
21
64.1016276
0
LINE
8
0
10
37.7039383
20
64.1016276
11
39.1799478
21
72.4724935
0
LINE
8
0
10
39.1799478
20
72.4724935
11
25.3926393
21
74.903568
0
LINE
8
0
10
25.3926393
20
74.903568
11
23.9166298
21
66.5327021
0
LINE
8
0
10
46.7167552
20
72.4464335
11
60.4108216
21
69.5356699
0
LINE
8
0
10
60.4108216
20
69.5356699
11
62.178071
21
77.8499245
0
LINE
8
0
10
62.178071
20
77.8499245
11
48.4840046
21
80.7606881
0
LINE
8
0
10
48.4840046
20
80.7606881
11
46.7167552
21
72.4464335
0
LINE
8
0
10
66.3411181
20
73.3868494
11
80.0351845
21
70.4760858
0
LINE
8
0
10
80.0351845
20
70.4760858
11
81.8024339
21
78.7903404
0
LINE
8
0
10
81.8024339
20
78.7903404
11
68.1083675
21
81.701104
0
LINE
8
0
10
68.1083675
20
81.701104
11
66.3411181
21
73.3868494
0
LINE
8
0
10
83.6784523
20
63.5676417
11
97.3725187
21
60.6568781
0
LINE
8
0
10
97.3725187
20
60.6568781
11
99.1397681
21
68.9711327
0
LINE
8
0
10
99.1397681
20
68.9711327
11
85.4457017
21
71.8818963
0
LINE
8
0
10
85.4457017
20
71.8818963
11
83.6784523
21
63.5676417
0
LINE
8
0
10
101.8474333
20
57.6610243
11
115.5414997
21
54.7502607
0
LINE
8
0
10
115.5414997
20
54.7502607
11
117.3087491
21
63.0645153
0
LINE
8
0
10
117.3087491
20
63.0645153
11
103.6146827
21
65.9752789
0
LINE
8
0
10
103.6146827
20
65.9752789
11
101.8474333
21
57.6610243
0
LINE
8
0
10
67.8345277
20
-13.4972744
11
70.7452913
21
0.196792
0
LINE
8
0
10
70.7452913
20
0.196792
11
62.4310367
21
1.9640414
0
LINE
8
0
10
62.4310367
20
1.9640414
11
59.5202731
21
-11.730025
0
LINE
8
0
10
59.5202731
20
-11.730025
11
67.8345277
21
-13.4972744
0
LINE
8
0
10
111.7441611
20
-8.1876014
11
125.4382275
21
-11.098365
0
LINE
8
0
10
125.4382275
20
-11.098365
11
127.2054769
21
-2.7841104
0
LINE
8
0
10
127.2054769
20
-2.7841104
11
113.5114105
21
0.1266532
0
LINE
8
0
10
113.5114105
20
0.1266532
11
111.7441611
21
-8.1876014
0
LINE
8
0
10
125.3509894
20
-13.4645307
11
127.7820639
21
-27.2518392
0
LINE
8
0
10
127.7820639
20
-27.2518392
11
136.1529298
21
-25.7758297
0
LINE
8
0
10
136.1529298
20
-25.7758297
11
133.7218553
21
-11.9885212
0
LINE
8
0
10
133.7218553
20
-11.9885212
11
125.3509894
21
-13.4645307
0
LINE
8
0
10
301.7326446
20
51.1492219
11
315.6793704
21
49.9290415
0
LINE
8
0
10
315.6793704
20
49.9290415
11
316.4201942
21
58.3966965
0
LINE
8
0
10
316.4201942
20
58.3966965
11
302.4734684
21
59.6168769
0
LINE
8
0
10
302.4734684
20
59.6168769
11
301.7326446
21
51.1492219
0
LINE
8
0
10
278.3955107
20
64.1016276
11
292.1828192
21
66.5327021
0
LINE
8
0
10
292.1828192
20
66.5327021
11
290.7068097
21
74.903568
0
LINE
8
0
10
290.7068097
20
74.903568
11
276.9195012
21
72.4724935
0
LINE
8
0
10
276.9195012
20
72.4724935
11
278.3955107
21
64.1016276
0
LINE
8
0
10
255.6886274
20
69.5356699
11
269.3826938
21
72.4464335
0
LINE
8
0
10
269.3826938
20
72.4464335
11
267.6154444
21
80.7606881
0
LINE
8
0
10
267.6154444
20
80.7606881
11
253.921378
21
77.8499245
0
LINE
8
0
10
253.921378
20
77.8499245
11
255.6886274
21
69.5356699
0
LINE
8
0
10
236.0642645
20
70.4760858
11
249.7583309
21
73.3868494
0
LINE
8
0
10
249.7583309
20
73.3868494
11
247.9910815
21
81.701104
0
LINE
8
0
10
247.9910815
20
81.701104
11
234.2970151
21
78.7903404
0
LINE
8
0
10
234.2970151
20
78.7903404
11
236.0642645
21
70.4760858
0
LINE
8
0
10
218.7269303
20
60.6568781
11
232.4209967
21
63.5676417
0
LINE
8
0
10
232.4209967
20
63.5676417
11
230.6537473
21
71.8818963
0
LINE
8
0
10
230.6537473
20
71.8818963
11
216.9596809
21
68.9711327
0
LINE
8
0
10
216.9596809
20
68.9711327
11
218.7269303
21
60.6568781
0
LINE
8
0
10
200.5579493
20
54.7502607
11
214.2520157
21
57.6610243
0
LINE
8
0
10
214.2520157
20
57.6610243
11
212.4847663
21
65.9752789
0
LINE
8
0
10
212.4847663
20
65.9752789
11
198.7906999
21
63.0645153
0
LINE
8
0
10
198.7906999
20
63.0645153
11
200.5579493
21
54.7502607
0
LINE
8
0
10
245.3541577
20
0.196792
11
248.2649213
21
-13.4972744
0
LINE
8
0
10
248.2649213
20
-13.4972744
11
256.5791759
21
-11.730025
0
LINE
8
0
10
256.5791759
20
-11.730025
11
253.6684123
21
1.9640414
0
LINE
8
0
10
253.6684123
20
1.9640414
11
245.3541577
21
0.196792
0
LINE
8
0
10
190.6612215
20
-11.098365
11
204.3552879
21
-8.1876014
0
LINE
8
0
10
204.3552879
20
-8.1876014
11
202.5880385
21
0.1266532
0
LINE
8
0
10
202.5880385
20
0.1266532
11
188.8939721
21
-2.7841104
0
LINE
8
0
10
188.8939721
20
-2.7841104
11
190.6612215
21
-11.098365
0
LINE
8
0
10
188.3173851
20
-27.2518392
11
190.7484596
21
-13.4645307
0
LINE
8
0
10
190.7484596
20
-13.4645307
11
182.3775937
21
-11.9885212
0
LINE
8
0
10
182.3775937
20
-11.9885212
11
179.9465192
21
-25.7758297
0
LINE
8
0
10
179.9465192
20
-25.7758297
11
188.3173851
21
-27.2518392
0
LINE
8
0
10
-0.5604235
20
61.1362319
11
13.3863023
21
62.3564123
0
LINE
8
0
10
13.3863023
20
62.3564123
11
12.1661219
21
76.3031381
0
LINE
8
0
10
12.1661219
20
76.3031381
11
-1.7806039
21
75.0829577
0
LINE
8
0
10
-1.7806039
20
75.0829577
11
-0.5604235
21
61.1362319
0
LINE
8
0
10
25.8701718
20
77.6117893
11
39.6574803
21
75.1807148
0
LINE
8
0
10
39.6574803
20
75.1807148
11
42.0885548
21
88.9680233
0
LINE
8
0
10
42.0885548
20
88.9680233
11
28.3012463
21
91.3990978
0
LINE
8
0
10
28.3012463
20
91.3990978
11
25.8701718
21
77.6117893
0
LINE
8
0
10
49.0557618
20
83.4505941
11
62.7498282
21
80.5398305
0
LINE
8
0
10
62.7498282
20
80.5398305
11
65.6605918
21
94.2338969
0
LINE
8
0
10
65.6605918
20
94.2338969
11
51.9665254
21
97.1446605
0
LINE
8
0
10
51.9665254
20
97.1446605
11
49.0557618
21
83.4505941
0
LINE
8
0
10
68.6801247
20
84.39101
11
82.3741911
21
81.4802464
0
LINE
8
0
10
82.3741911
20
81.4802464
11
85.2849547
21
95.1743128
0
LINE
8
0
10
85.2849547
20
95.1743128
11
71.5908883
21
98.0850764
0
LINE
8
0
10
71.5908883
20
98.0850764
11
68.6801247
21
84.39101
0
LINE
8
0
10
86.0174589
20
74.5718023
11
99.7115253
21
71.6610387
0
LINE
8
0
10
99.7115253
20
71.6610387
11
102.6222889
21
85.3551051
0
LINE
8
0
10
102.6222889
20
85.3551051
11
88.9282225
21
88.2658687
0
LINE
8
0
10
88.9282225
20
88.2658687
11
86.0174589
21
74.5718023
0
LINE
8
0
10
104.1864399
20
68.6651849
11
117.8805063
21
65.7544213
0
LINE
8
0
10
117.8805063
20
65.7544213
11
120.7912699
21
79.4484877
0
LINE
8
0
10
120.7912699
20
79.4484877
11
107.0972035
21
82.3592513
0
LINE
8
0
10
107.0972035
20
82.3592513
11
104.1864399
21
68.6651849
0
LINE
8
0
10
56.8303671
20
-11.1582678
11
59.7411307
21
2.5357986
0
LINE
8
0
10
59.7411307
20
2.5357986
11
46.0470643
21
5.4465622
0
LINE
8
0
10
46.0470643
20
5.4465622
11
43.1363007
21
-8.2475042
0
LINE
8
0
10
43.1363007
20
-8.2475042
11
56.8303671
21
-11.1582678
0
LINE
8
0
10
114.0831677
20
2.8165592
11
127.7772341
21
-0.0942044
0
LINE
8
0
10
127.7772341
20
-0.0942044
11
130.6879977
21
13.599862
0
LINE
8
0
10
130.6879977
20
13.599862
11
116.9939313
21
16.5106256
0
LINE
8
0
10
116.9939313
20
16.5106256
11
114.0831677
21
2.8165592
0
LINE
8
0
10
136.4300766
20
-11.5109887
11
138.8611511
21
-25.2982972
0
LINE
8
0
10
138.8611511
20
-25.2982972
11
152.6484596
21
-22.8672227
0
LINE
8
0
10
152.6484596
20
-22.8672227
11
150.2173851
21
-9.0799142
0
LINE
8
0
10
150.2173851
20
-9.0799142
11
136.4300766
21
-11.5109887
0
LINE
8
0
10
302.7131467
20
62.3564123
11
316.6598725
21
61.1362319
0
LINE
8
0
10
316.6598725
20
61.1362319
11
317.8800529
21
75.0829577
0
LINE
8
0
10
317.8800529
20
75.0829577
11
303.9333271
21
76.3031381
0
LINE
8
0
10
303.9333271
20
76.3031381
11
302.7131467
21
62.3564123
0
LINE
8
0
10
276.4419687
20
75.1807148
11
290.2292772
21
77.6117893
0
LINE
8
0
10
290.2292772
20
77.6117893
11
287.7982027
21
91.3990978
0
LINE
8
0
10
287.7982027
20
91.3990978
11
274.0108942
21
88.9680233
0
LINE
8
0
10
274.0108942
20
88.9680233
11
276.4419687
21
75.1807148
0
LINE
8
0
10
253.3496208
20
80.5398305
11
267.0436872
21
83.4505941
0
LINE
8
0
10
267.0436872
20
83.4505941
11
264.1329236
21
97.1446605
0
LINE
8
0
10
264.1329236
20
97.1446605
11
250.4388572
21
94.2338969
0
LINE
8
0
10
250.4388572
20
94.2338969
11
253.3496208
21
80.5398305
0
LINE
8
0
10
233.7252579
20
81.4802464
11
247.4193243
21
84.39101
0
LINE
8
0
10
247.4193243
20
84.39101
11
244.5085607
21
98.0850764
0
LINE
8
0
10
244.5085607
20
98.0850764
11
230.8144943
21
95.1743128
0
LINE
8
0
10
230.8144943
20
95.1743128
11
233.7252579
21
81.4802464
0
LINE
8
0
10
216.3879237
20
71.6610387
11
230.0819901
21
74.5718023
0
LINE
8
0
10
230.0819901
20
74.5718023
11
227.1712265
21
88.2658687
0
LINE
8
0
10
227.1712265
20
88.2658687
11
213.4771601
21
85.3551051
0
LINE
8
0
10
213.4771601
20
85.3551051
11
216.3879237
21
71.6610387
0
LINE
8
0
10
198.2189427
20
65.7544213
11
211.9130091
21
68.6651849
0
LINE
8
0
10
211.9130091
20
68.6651849
11
209.0022455
21
82.3592513
0
LINE
8
0
10
209.0022455
20
82.3592513
11
195.3081791
21
79.4484877
0
LINE
8
0
10
195.3081791
20
79.4484877
11
198.2189427
21
65.7544213
0
LINE
8
0
10
256.3583183
20
2.5357986
11
259.2690819
21
-11.1582678
0
LINE
8
0
10
259.2690819
20
-11.1582678
11
272.9631483
21
-8.2475042
0
LINE
8
0
10
272.9631483
20
-8.2475042
11
270.0523847
21
5.4465622
0
LINE
8
0
10
270.0523847
20
5.4465622
11
256.3583183
21
2.5357986
0
LINE
8
0
10
188.3222149
20
-0.0942044
11
202.0162813
21
2.8165592
0
LINE
8
0
10
202.0162813
20
2.8165592
11
199.1055177
21
16.5106256
0
LINE
8
0
10
199.1055177
20
16.5106256
11
185.4114513
21
13.599862
0
LINE
8
0
10
185.4114513
20
13.599862
11
188.3222149
21
-0.0942044
0
LINE
8
0
10
177.2382979
20
-25.2982972
11
179.6693724
21
-11.5109887
0
LINE
8
0
10
179.6693724
20
-11.5109887
11
165.8820639
21
-9.0799142
0
LINE
8
0
10
165.8820639
20
-9.0799142
11
163.4509894
21
-22.8672227
0
LINE
8
0
10
163.4509894
20
-22.8672227
11
177.2382979
21
-25.2982972
0
ENDSEC
0
EOF