<svg width="307.293mm" height="36.732mm" viewBox="0 0 307.293 36.732" xmlns="http://www.w3.org/2000/svg"><g id="svgGroup" stroke-linecap="round" fill-rule="evenodd" font-size="9pt" stroke="#000" stroke-width="0.25mm" fill="none" style="stroke:#000;stroke-width:0.25mm;fill:none"><path d="M 61.973 13.694 L 75.667 16.605 L 78.578 2.911 L 64.884 0 L 61.973 13.694 Z M 231.626 16.605 L 245.32 13.694 L 242.41 0 L 228.716 2.911 L 231.626 16.605 Z M 79.31 23.513 L 93.004 26.424 L 95.915 12.73 L 82.221 9.819 L 79.31 23.513 Z M 214.289 26.424 L 227.983 23.513 L 225.072 9.819 L 211.378 12.73 L 214.289 26.424 Z M 42.349 14.634 L 56.043 17.545 L 58.953 3.851 L 45.259 0.94 L 42.349 14.634 Z M 97.479 29.42 L 111.173 32.331 L 114.084 18.637 L 100.39 15.726 L 97.479 29.42 Z M 251.251 17.545 L 264.945 14.634 L 262.034 0.94 L 248.34 3.851 L 251.251 17.545 Z M 196.12 32.331 L 209.814 29.42 L 206.903 15.726 L 193.209 18.637 L 196.12 32.331 Z M 0.781 17.238 L 14.569 19.669 L 17 5.882 L 3.212 3.451 L 0.781 17.238 Z M 19.493 20.537 L 33.28 22.968 L 35.711 9.181 L 21.924 6.75 L 19.493 20.537 Z M 292.725 19.669 L 306.512 17.238 L 304.081 3.451 L 290.294 5.882 L 292.725 19.669 Z M 274.013 22.968 L 287.801 20.537 L 285.369 6.75 L 271.582 9.181 L 274.013 22.968 Z M 252.186 21.947 L 265.88 19.036 L 265.465 17.08 L 251.77 19.991 L 252.186 21.947 Z M 232.562 21.006 L 246.256 18.096 L 245.84 16.139 L 232.146 19.05 L 232.562 21.006 Z M 215.225 30.826 L 228.919 27.915 L 228.503 25.959 L 214.809 28.869 L 215.225 30.826 Z M 197.056 36.732 L 210.75 33.822 L 210.334 31.865 L 196.64 34.776 L 197.056 36.732 Z M 41.413 19.036 L 55.107 21.947 L 55.523 19.991 L 41.829 17.08 L 41.413 19.036 Z M 61.037 18.096 L 74.731 21.006 L 75.147 19.05 L 61.453 16.139 L 61.037 18.096 Z M 78.375 27.915 L 92.069 30.826 L 92.485 28.869 L 78.79 25.959 L 78.375 27.915 Z M 96.544 33.822 L 110.238 36.732 L 110.654 34.776 L 96.959 31.865 L 96.544 33.822 Z M 293.506 24.101 L 307.293 21.67 L 306.946 19.7 L 293.159 22.131 L 293.506 24.101 Z M 274.795 27.4 L 288.582 24.969 L 288.235 22.999 L 274.447 25.43 L 274.795 27.4 Z M 18.711 24.969 L 32.499 27.4 L 32.846 25.43 L 19.059 22.999 L 18.711 24.969 Z M 0 21.67 L 13.787 24.101 L 14.135 22.131 L 0.347 19.7 L 0 21.67 Z" vector-effect="non-scaling-stroke"/></g></svg>