<svg width="336.4mm" height="127.97mm" viewBox="0 0 336.4 127.97" xmlns="http://www.w3.org/2000/svg"><g id="svgGroup" stroke-linecap="round" fill-rule="evenodd" font-size="9pt" stroke="#000" stroke-width="0.25mm" fill="none" style="stroke:#000;stroke-width:0.25mm;fill:none"><path d="M 145.679 111.179 L 150.005 124.494 L 163.32 120.168 L 158.994 106.853 L 145.679 111.179 Z M 186.394 124.494 L 190.721 111.179 L 177.406 106.853 L 173.08 120.168 L 186.394 124.494 Z M 131.645 91.302 L 144.119 97.658 L 150.475 85.184 L 138.001 78.828 L 131.645 91.302 Z M 192.281 97.658 L 204.755 91.302 L 198.399 78.828 L 185.925 85.184 L 192.281 97.658 Z M 1.22 36.949 L 15.167 35.729 L 13.947 21.782 L 0 23.002 L 1.22 36.949 Z M 321.233 35.729 L 335.179 36.949 L 336.4 23.002 L 322.453 21.782 L 321.233 35.729 Z M 252.245 16.605 L 265.939 13.694 L 263.028 0 L 249.334 2.911 L 252.245 16.605 Z M 50.836 14.634 L 64.53 17.545 L 67.441 3.851 L 53.747 0.94 L 50.836 14.634 Z M 81.903 114.194 L 84.814 100.5 L 71.12 97.589 L 68.209 111.283 L 81.903 114.194 Z M 110.783 88.768 L 124.477 91.679 L 127.388 77.985 L 113.694 75.074 L 110.783 88.768 Z M 251.586 100.5 L 254.496 114.194 L 268.191 111.283 L 265.28 97.589 L 251.586 100.5 Z M 211.922 91.679 L 225.616 88.768 L 222.706 75.074 L 209.012 77.985 L 211.922 91.679 Z M 70.461 13.694 L 84.155 16.605 L 87.066 2.911 L 73.371 0 L 70.461 13.694 Z M 87.798 23.513 L 101.492 26.424 L 104.403 12.73 L 90.709 9.819 L 87.798 23.513 Z M 105.967 29.42 L 119.661 32.331 L 122.572 18.637 L 108.878 15.726 L 105.967 29.42 Z M 271.869 17.545 L 285.563 14.634 L 282.652 0.94 L 268.958 3.851 L 271.869 17.545 Z M 234.907 26.424 L 248.602 23.513 L 245.691 9.819 L 231.997 12.73 L 234.907 26.424 Z M 216.738 32.331 L 230.433 29.42 L 227.522 15.726 L 213.828 18.637 L 216.738 32.331 Z M 27.651 20.473 L 41.438 22.904 L 43.869 9.117 L 30.082 6.686 L 27.651 20.473 Z M 294.961 22.904 L 308.749 20.473 L 306.318 6.686 L 292.53 9.117 L 294.961 22.904 Z M 320.252 46.936 L 334.199 48.156 L 334.94 39.688 L 320.993 38.468 L 320.252 46.936 Z M 2.201 48.156 L 16.147 46.936 L 15.407 38.468 L 1.46 39.688 L 2.201 48.156 Z M 134.98 114.656 L 139.306 127.97 L 147.39 125.344 L 143.064 112.029 L 134.98 114.656 Z M 197.094 127.97 L 201.42 114.656 L 193.336 112.029 L 189.01 125.344 L 197.094 127.97 Z M 219.077 43.335 L 232.772 40.424 L 231.004 32.11 L 217.31 35.021 L 219.077 43.335 Z M 214.261 102.683 L 227.955 99.772 L 226.188 91.458 L 212.494 94.369 L 214.261 102.683 Z M 254.584 27.609 L 268.278 24.698 L 266.511 16.384 L 252.817 19.295 L 254.584 27.609 Z M 240.582 102.839 L 243.492 116.533 L 251.807 114.766 L 248.896 101.072 L 240.582 102.839 Z M 48.497 25.639 L 62.191 28.549 L 63.959 20.235 L 50.265 17.324 L 48.497 25.639 Z M 237.246 37.428 L 250.941 34.517 L 249.173 26.203 L 235.479 29.114 L 237.246 37.428 Z M 68.122 24.698 L 81.816 27.609 L 83.583 19.295 L 69.889 16.384 L 68.122 24.698 Z M 85.459 34.517 L 99.153 37.428 L 100.92 29.114 L 87.226 26.203 L 85.459 34.517 Z M 103.628 40.424 L 117.322 43.335 L 119.089 35.021 L 105.395 32.11 L 103.628 40.424 Z M 92.907 116.533 L 95.818 102.839 L 87.504 101.072 L 84.593 114.766 L 92.907 116.533 Z M 108.444 99.772 L 122.138 102.683 L 123.905 94.369 L 110.211 91.458 L 108.444 99.772 Z M 274.208 28.549 L 287.902 25.639 L 286.135 17.324 L 272.441 20.235 L 274.208 28.549 Z M 296.915 33.983 L 310.702 31.552 L 309.226 23.182 L 295.439 25.613 L 296.915 33.983 Z M 25.697 31.552 L 39.485 33.983 L 40.961 25.613 L 27.173 23.182 L 25.697 31.552 Z M 197.388 107.682 L 209.862 101.326 L 206.003 93.753 L 193.529 100.108 L 197.388 107.682 Z M 126.537 101.326 L 139.011 107.682 L 142.87 100.108 L 130.396 93.753 L 126.537 101.326 Z" vector-effect="non-scaling-stroke"/></g></svg>