<svg width="299.431mm" height="128.703mm" viewBox="0 0 299.431 128.703" xmlns="http://www.w3.org/2000/svg"><g id="svgGroup" stroke-linecap="round" fill-rule="evenodd" font-size="9pt" stroke="#000" stroke-width="0.25mm" fill="none" style="stroke:#000;stroke-width:0.25mm;fill:none"><path d="M 125.113 110.747 L 134.112 121.471 L 144.836 112.472 L 135.837 101.748 L 125.113 110.747 Z M 165.319 121.471 L 174.318 110.747 L 163.594 101.748 L 154.595 112.472 L 165.319 121.471 Z M 111.344 93.646 L 122.376 102.265 L 130.995 91.233 L 119.963 82.614 L 111.344 93.646 Z M 177.055 102.265 L 188.087 93.646 L 179.468 82.614 L 168.436 91.233 L 177.055 102.265 Z M 47.158 14.634 L 60.853 17.545 L 63.763 3.851 L 50.069 0.94 L 47.158 14.634 Z M 66.783 13.694 L 80.477 16.605 L 83.388 2.911 L 69.694 0 L 66.783 13.694 Z M 84.12 23.513 L 97.814 26.424 L 100.725 12.73 L 87.031 9.819 L 84.12 23.513 Z M 102.289 29.42 L 115.983 32.331 L 118.894 18.637 L 105.2 15.726 L 102.289 29.42 Z M 238.578 17.545 L 252.272 14.634 L 249.362 0.94 L 235.668 3.851 L 238.578 17.545 Z M 218.954 16.605 L 232.648 13.694 L 229.737 0 L 216.043 2.911 L 218.954 16.605 Z M 201.617 26.424 L 215.311 23.513 L 212.4 9.819 L 198.706 12.73 L 201.617 26.424 Z M 183.448 32.331 L 197.142 29.42 L 194.231 15.726 L 180.537 18.637 L 183.448 32.331 Z M 1.954 35.935 L 15.741 38.366 L 18.172 24.578 L 4.385 22.147 L 1.954 35.935 Z M 23.973 20.473 L 37.76 22.904 L 40.191 9.117 L 26.404 6.686 L 23.973 20.473 Z M 283.69 38.366 L 297.477 35.935 L 295.046 22.147 L 281.259 24.578 L 283.69 38.366 Z M 261.671 22.904 L 275.458 20.473 L 273.027 6.686 L 259.24 9.117 L 261.671 22.904 Z M 173.937 128.703 L 182.936 117.978 L 176.425 112.514 L 167.426 123.239 L 173.937 128.703 Z M 116.495 117.978 L 125.494 128.703 L 132.005 123.239 L 123.006 112.514 L 116.495 117.978 Z M 221.293 27.609 L 234.987 24.698 L 233.22 16.384 L 219.526 19.295 L 221.293 27.609 Z M 185.787 43.335 L 199.481 40.424 L 197.714 32.11 L 184.019 35.021 L 185.787 43.335 Z M 240.917 28.549 L 254.611 25.639 L 252.844 17.324 L 239.15 20.235 L 240.917 28.549 Z M 44.819 25.639 L 58.514 28.549 L 60.281 20.235 L 46.587 17.324 L 44.819 25.639 Z M 203.956 37.428 L 217.65 34.517 L 215.882 26.203 L 202.188 29.114 L 203.956 37.428 Z M 64.444 24.698 L 78.138 27.609 L 79.905 19.295 L 66.211 16.384 L 64.444 24.698 Z M 81.781 34.517 L 95.475 37.428 L 97.242 29.114 L 83.548 26.203 L 81.781 34.517 Z M 99.95 40.424 L 113.644 43.335 L 115.411 35.021 L 101.717 32.11 L 99.95 40.424 Z M 285.644 49.445 L 299.431 47.014 L 297.955 38.643 L 284.168 41.074 L 285.644 49.445 Z M 0 47.014 L 13.787 49.445 L 15.263 41.074 L 1.476 38.643 L 0 47.014 Z M 263.624 33.983 L 277.412 31.552 L 275.936 23.182 L 262.148 25.613 L 263.624 33.983 Z M 22.019 31.552 L 35.807 33.983 L 37.283 25.613 L 23.495 23.182 L 22.019 31.552 Z M 104.418 102.511 L 115.45 111.13 L 120.683 104.432 L 109.651 95.813 L 104.418 102.511 Z M 183.981 111.13 L 195.013 102.511 L 189.78 95.813 L 178.748 104.432 L 183.981 111.13 Z" vector-effect="non-scaling-stroke"/></g></svg>