<svg width="301.213mm" height="154.369mm" viewBox="0 0 301.213 154.369" xmlns="http://www.w3.org/2000/svg"><g id="svgGroup" stroke-linecap="round" fill-rule="evenodd" font-size="9pt" stroke="#000" stroke-width="0.25mm" fill="none" style="stroke:#000;stroke-width:0.25mm;fill:none"><path d="M 0 68.99 L 17.965 75.176 L 17.314 77.067 L 35.326 83.269 L 39.233 71.923 L 57.198 78.109 L 58.825 73.381 L 76.743 79.551 L 74.79 85.224 L 92.754 91.41 L 92.103 93.301 L 110.115 99.503 L 116.301 81.538 L 116.317 81.491 L 122.487 63.573 L 122.503 63.526 L 128.673 45.608 L 128.689 45.561 L 134.875 27.596 L 116.91 21.41 L 117.561 19.519 L 99.596 13.333 L 101.55 7.66 L 83.538 1.458 L 81.91 6.186 L 63.945 0 L 60.038 11.346 L 42.073 5.16 L 35.887 23.125 L 35.871 23.173 L 30.353 39.199 L 12.388 33.013 L 6.202 50.978 L 6.186 51.025 L 0 68.99 Z M 283.248 75.176 L 301.213 68.99 L 295.027 51.025 L 295.011 50.978 L 288.825 33.013 L 270.861 39.199 L 265.342 23.173 L 265.326 23.125 L 259.14 5.16 L 241.175 11.346 L 237.268 0 L 219.304 6.186 L 217.676 1.458 L 199.664 7.66 L 201.617 13.333 L 183.652 19.519 L 184.303 21.41 L 166.338 27.596 L 172.524 45.561 L 172.54 45.608 L 178.71 63.526 L 178.726 63.573 L 184.896 81.491 L 184.912 81.538 L 191.098 99.503 L 209.11 93.301 L 208.459 91.41 L 226.424 85.224 L 224.47 79.551 L 242.388 73.381 L 244.016 78.109 L 261.981 71.923 L 265.887 83.269 L 283.9 77.067 L 283.248 75.176 Z M 88.722 136.409 L 103.526 148.398 L 139.429 104.062 L 124.624 92.073 L 88.722 136.409 Z M 197.687 148.398 L 212.492 136.409 L 176.589 92.073 L 161.784 104.062 L 197.687 148.398 Z M 62.263 103.174 L 80.275 109.376 L 86.477 91.363 L 68.465 85.161 L 62.263 103.174 Z M 220.938 109.376 L 238.95 103.174 L 232.748 85.161 L 214.736 91.363 L 220.938 109.376 Z M 111.23 142.38 L 126.035 154.369 L 138.024 139.564 L 123.219 127.575 L 111.23 142.38 Z M 175.178 154.369 L 189.983 142.38 L 177.994 127.575 L 163.19 139.564 L 175.178 154.369 Z M 81.632 110.266 L 98.294 119.502 L 107.529 102.84 L 90.868 93.604 L 81.632 110.266 Z M 202.919 119.502 L 219.581 110.266 L 210.345 93.604 L 193.684 102.84 L 202.919 119.502 Z" vector-effect="non-scaling-stroke"/></g></svg>