<svg width="325.954mm" height="140.807mm" viewBox="0 0 325.954 140.807" xmlns="http://www.w3.org/2000/svg"><g id="svgGroup" stroke-linecap="round" fill-rule="evenodd" font-size="9pt" stroke="#000" stroke-width="0.25mm" fill="none" style="stroke:#000;stroke-width:0.25mm;fill:none"><path d="M 0 79.769 L 18.711 83.068 L 18.364 85.038 L 37.125 88.346 L 39.208 76.528 L 57.92 79.827 L 58.788 74.903 L 77.45 78.194 L 76.408 84.103 L 95.12 87.402 L 94.772 89.372 L 113.533 92.68 L 116.832 73.968 L 116.841 73.919 L 120.131 55.257 L 120.14 55.208 L 123.431 36.546 L 123.439 36.496 L 126.739 17.785 L 108.027 14.486 L 108.375 12.516 L 89.663 9.217 L 90.705 3.308 L 71.945 0 L 71.076 4.924 L 52.365 1.625 L 50.281 13.442 L 31.57 10.143 L 28.271 28.854 L 28.262 28.904 L 25.319 45.596 L 6.607 42.297 L 3.308 61.008 L 3.299 61.057 L 0 79.769 Z M 307.242 83.068 L 325.954 79.769 L 322.654 61.057 L 322.646 61.008 L 319.346 42.297 L 300.635 45.596 L 297.692 28.904 L 297.683 28.854 L 294.384 10.143 L 275.672 13.442 L 273.589 1.625 L 254.877 4.924 L 254.009 0 L 235.248 3.308 L 236.29 9.217 L 217.579 12.516 L 217.926 14.486 L 199.215 17.785 L 202.514 36.496 L 202.523 36.546 L 205.813 55.208 L 205.822 55.257 L 209.113 73.919 L 209.121 73.968 L 212.421 92.68 L 231.181 89.372 L 230.834 87.402 L 249.545 84.103 L 248.504 78.194 L 267.166 74.903 L 268.034 79.827 L 286.745 76.528 L 288.829 88.346 L 307.59 85.038 L 307.242 83.068 Z M 206.443 138.388 L 222.941 128.863 L 203.916 95.91 L 187.418 105.435 L 206.443 138.388 Z M 103.012 128.863 L 119.51 138.388 L 138.535 105.435 L 122.037 95.91 L 103.012 128.863 Z M 126.153 131.282 L 142.651 140.807 L 152.176 124.309 L 135.678 114.784 L 126.153 131.282 Z M 183.303 140.807 L 199.801 131.282 L 190.276 114.784 L 173.778 124.309 L 183.303 140.807 Z M 90.275 108.673 L 108.176 115.188 L 114.691 97.287 L 96.79 90.772 L 90.275 108.673 Z M 217.778 115.188 L 235.679 108.673 L 229.164 90.772 L 211.262 97.287 L 217.778 115.188 Z M 66.835 103.84 L 85.596 107.148 L 88.904 88.388 L 70.143 85.08 L 66.835 103.84 Z M 240.358 107.148 L 259.118 103.84 L 255.81 85.08 L 237.05 88.388 L 240.358 107.148 Z" vector-effect="non-scaling-stroke"/></g></svg>