<svg width="321.941mm" height="140.522mm" viewBox="0 0 321.941 140.522" xmlns="http://www.w3.org/2000/svg"><g id="svgGroup" stroke-linecap="round" fill-rule="evenodd" font-size="9pt" stroke="#000" stroke-width="0.25mm" fill="none" style="stroke:#000;stroke-width:0.25mm;fill:none"><path d="M 266.454 79.289 L 285.087 75.329 L 281.137 56.744 L 281.127 56.695 L 277.187 38.159 L 277.176 38.11 L 273.237 19.574 L 273.226 19.525 L 269.276 0.94 L 250.691 4.891 L 249.651 0 L 231.018 3.961 L 232.265 9.83 L 213.68 13.78 L 214.096 15.736 L 195.511 19.687 L 199.462 38.271 L 199.472 38.32 L 203.412 56.856 L 203.422 56.905 L 207.362 75.441 L 207.373 75.49 L 211.323 94.075 L 229.957 90.114 L 229.541 88.158 L 248.126 84.207 L 246.878 78.338 L 265.414 74.399 L 266.454 79.289 Z M 36.854 75.329 L 55.488 79.289 L 56.527 74.399 L 75.063 78.338 L 73.816 84.207 L 92.4 88.158 L 91.985 90.114 L 110.618 94.075 L 114.569 75.49 L 114.579 75.441 L 118.519 56.905 L 118.529 56.856 L 122.469 38.32 L 122.48 38.271 L 126.43 19.687 L 107.845 15.736 L 108.261 13.78 L 89.676 9.83 L 90.924 3.961 L 72.29 0 L 71.25 4.891 L 52.666 0.94 L 48.715 19.525 L 48.705 19.574 L 44.765 38.11 L 44.755 38.159 L 40.815 56.695 L 40.804 56.744 L 36.854 75.329 Z M 0 63.609 L 18.711 66.908 L 18.703 66.957 L 15.403 85.669 L 34.164 88.977 L 37.463 70.265 L 37.472 70.216 L 40.763 51.554 L 40.771 51.505 L 47.37 14.082 L 28.659 10.783 L 28.667 10.733 L 9.907 7.425 L 6.607 26.137 L 6.599 26.186 L 3.308 44.848 L 3.299 44.897 L 0 63.609 Z M 303.23 66.908 L 321.941 63.609 L 318.642 44.897 L 318.633 44.848 L 315.343 26.186 L 315.334 26.137 L 312.035 7.425 L 293.274 10.733 L 293.283 10.783 L 274.572 14.082 L 281.17 51.505 L 281.179 51.554 L 284.469 70.216 L 284.478 70.265 L 287.777 88.977 L 306.538 85.669 L 303.239 66.957 L 303.23 66.908 Z M 107.948 113.519 L 122.105 126.266 L 134.852 112.109 L 126.287 104.397 L 139 90.277 L 124.844 77.531 L 112.097 91.687 L 120.661 99.399 L 107.948 113.519 Z M 199.837 126.266 L 213.994 113.519 L 201.28 99.399 L 209.845 91.687 L 197.098 77.531 L 182.941 90.277 L 195.654 104.397 L 187.09 112.109 L 199.837 126.266 Z M 239.748 107.559 L 258.382 103.599 L 254.421 84.965 L 235.787 88.926 L 239.748 107.559 Z M 63.56 103.599 L 82.194 107.559 L 86.154 88.926 L 67.521 84.965 L 63.56 103.599 Z M 123.706 127.775 L 137.863 140.522 L 150.61 126.365 L 136.453 113.618 L 123.706 127.775 Z M 184.078 140.522 L 198.235 127.775 L 185.488 113.618 L 171.331 126.365 L 184.078 140.522 Z M 85.826 113.905 L 103.489 121.041 L 110.625 103.378 L 92.962 96.242 L 85.826 113.905 Z M 218.453 121.041 L 236.116 113.905 L 228.979 96.242 L 211.316 103.378 L 218.453 121.041 Z" vector-effect="non-scaling-stroke"/></g></svg>