0
SECTION
2
HEADER
9
$INSUNITS
70
4
0
ENDSEC
0
SECTION
2
TABLES
0
TABLE
2
LTYPE
0
LTYPE
72
65
70
64
2
CONTINUOUS
3
______
73
0
40
0
0
ENDTAB
0
TABLE
2
LAYER
0
ENDTAB
0
ENDSEC
0
SECTION
2
ENTITIES
0
LINE
8
0
10
-12.1071011
20
-5.9050278
11
5.8577518
21
-12.0908227
0
LINE
8
0
10
-5.9050278
20
12.1071011
11
-5.9213062
21
12.0598251
0
LINE
8
0
10
-5.9213062
20
12.0598251
11
-12.1071011
21
-5.9050278
0
LINE
8
0
10
18.2456201
20
23.8861591
11
0.2807671
21
30.071954
0
LINE
8
0
10
0.2807671
20
30.071954
11
-5.9050278
21
12.1071011
0
LINE
8
0
10
5.2066155
20
-13.9818599
11
23.2187444
21
-20.1839332
0
LINE
8
0
10
23.2187444
20
-20.1839332
11
27.1255623
21
-8.8377103
0
LINE
8
0
10
5.8577518
20
-12.0908227
11
5.2066155
21
-13.9818599
0
LINE
8
0
10
23.7802787
20
39.9599749
11
23.7640003
21
39.9126989
0
LINE
8
0
10
23.7640003
20
39.9126989
11
18.2456201
21
23.8861591
0
LINE
8
0
10
47.9309266
20
51.7390329
11
29.9660736
21
57.9248278
0
LINE
8
0
10
29.9660736
20
57.9248278
11
23.7802787
21
39.9599749
0
LINE
8
0
10
27.1255623
20
-8.8377103
11
45.0904152
21
-15.0235052
0
LINE
8
0
10
45.0904152
20
-15.0235052
11
46.718256
21
-10.2959124
0
LINE
8
0
10
69.8025974
20
56.8994609
11
51.8377444
21
63.0852558
0
LINE
8
0
10
51.8377444
20
63.0852558
11
47.9309266
21
51.7390329
0
LINE
8
0
10
46.718256
20
-10.2959124
11
64.6358329
21
-16.4654289
0
LINE
8
0
10
87.4891581
20
49.751869
11
89.442567
21
55.4249804
0
LINE
8
0
10
89.442567
20
55.4249804
11
71.4304381
21
61.6270537
0
LINE
8
0
10
71.4304381
20
61.6270537
11
69.8025974
21
56.8994609
0
LINE
8
0
10
62.682424
20
-22.1385404
11
80.647277
21
-28.3243353
0
LINE
8
0
10
64.6358329
20
-16.4654289
11
62.682424
21
-22.1385404
0
LINE
8
0
10
104.8028747
20
41.6750369
11
105.454011
21
43.5660741
0
LINE
8
0
10
105.454011
20
43.5660741
11
87.4891581
21
49.751869
0
LINE
8
0
10
79.9961407
20
-30.2153724
11
98.0082696
21
-36.4174457
0
LINE
8
0
10
98.0082696
20
-36.4174457
11
104.1940645
21
-18.4525928
0
LINE
8
0
10
104.1940645
20
-18.4525928
11
104.2103429
21
-18.4053168
0
LINE
8
0
10
80.647277
20
-28.3243353
11
79.9961407
21
-30.2153724
0
LINE
8
0
10
104.2103429
20
-18.4053168
11
110.3798594
21
-0.4877399
0
LINE
8
0
10
110.3798594
20
-0.4877399
11
110.3961378
21
-0.4404639
0
LINE
8
0
10
110.3961378
20
-0.4404639
11
116.5656544
21
17.4771131
0
LINE
8
0
10
116.5656544
20
17.4771131
11
116.5819327
21
17.524389
0
LINE
8
0
10
116.5819327
20
17.524389
11
122.7677277
21
35.489242
0
LINE
8
0
10
122.7677277
20
35.489242
11
104.8028747
21
41.6750369
0
LINE
8
0
10
50.1561029
20
-40.0882974
11
68.1682318
21
-46.2903707
0
LINE
8
0
10
68.1682318
20
-46.2903707
11
74.3703051
21
-28.2782418
0
LINE
8
0
10
74.3703051
20
-28.2782418
11
56.3581762
21
-22.0761685
0
LINE
8
0
10
56.3581762
20
-22.0761685
11
50.1561029
21
-40.0882974
0
LINE
8
0
10
69.525193
20
-47.1807403
11
86.1866984
21
-56.4163635
0
LINE
8
0
10
86.1866984
20
-56.4163635
11
95.4223216
21
-39.7548581
0
LINE
8
0
10
95.4223216
20
-39.7548581
11
78.7608162
21
-30.5192349
0
LINE
8
0
10
78.7608162
20
-30.5192349
11
69.525193
21
-47.1807403
0
LINE
8
0
10
76.6145969
20
-73.3239913
11
91.4192275
21
-85.3125447
0
LINE
8
0
10
91.4192275
20
-85.3125447
11
127.3219557
21
-40.9763675
0
LINE
8
0
10
76.6145969
20
-73.3239913
11
112.5173251
21
-28.9878141
0
LINE
8
0
10
127.3219557
20
-40.9763675
11
112.5173251
21
-28.9878141
0
LINE
8
0
10
99.1232253
20
-79.2947343
11
113.9278559
21
-91.2832877
0
LINE
8
0
10
113.9278559
20
-91.2832877
11
125.9164093
21
-76.4786571
0
LINE
8
0
10
125.9164093
20
-76.4786571
11
111.1117787
21
-64.4901037
0
LINE
8
0
10
111.1117787
20
-64.4901037
11
99.1232253
21
-79.2947343
0
LINE
8
0
10
271.1412714
20
-12.0908227
11
289.1061243
21
-5.9050278
0
LINE
8
0
10
289.1061243
20
-5.9050278
11
282.9203294
21
12.0598251
0
LINE
8
0
10
282.9203294
20
12.0598251
11
282.904051
21
12.1071011
0
LINE
8
0
10
282.904051
20
12.1071011
11
276.7182561
21
30.071954
0
LINE
8
0
10
276.7182561
20
30.071954
11
258.7534031
21
23.8861591
0
LINE
8
0
10
253.7802788
20
-20.1839332
11
271.7924077
21
-13.9818599
0
LINE
8
0
10
271.7924077
20
-13.9818599
11
271.1412714
21
-12.0908227
0
LINE
8
0
10
249.8734609
20
-8.8377103
11
253.7802788
21
-20.1839332
0
LINE
8
0
10
258.7534031
20
23.8861591
11
253.2350229
21
39.9126989
0
LINE
8
0
10
253.2350229
20
39.9126989
11
253.2187445
21
39.9599749
0
LINE
8
0
10
253.2187445
20
39.9599749
11
247.0329496
21
57.9248278
0
LINE
8
0
10
247.0329496
20
57.9248278
11
229.0680966
21
51.7390329
0
LINE
8
0
10
231.908608
20
-15.0235052
11
249.8734609
21
-8.8377103
0
LINE
8
0
10
230.2807672
20
-10.2959124
11
231.908608
21
-15.0235052
0
LINE
8
0
10
229.0680966
20
51.7390329
11
225.1612788
21
63.0852558
0
LINE
8
0
10
225.1612788
20
63.0852558
11
207.1964258
21
56.8994609
0
LINE
8
0
10
212.3631903
20
-16.4654289
11
230.2807672
21
-10.2959124
0
LINE
8
0
10
207.1964258
20
56.8994609
11
205.5685851
21
61.6270537
0
LINE
8
0
10
205.5685851
20
61.6270537
11
187.5564562
21
55.4249804
0
LINE
8
0
10
187.5564562
20
55.4249804
11
189.5098651
21
49.751869
0
LINE
8
0
10
196.3517462
20
-28.3243353
11
214.3165992
21
-22.1385404
0
LINE
8
0
10
214.3165992
20
-22.1385404
11
212.3631903
21
-16.4654289
0
LINE
8
0
10
189.5098651
20
49.751869
11
171.5450122
21
43.5660741
0
LINE
8
0
10
171.5450122
20
43.5660741
11
172.1961485
21
41.6750369
0
LINE
8
0
10
178.9907536
20
-36.4174457
11
197.0028825
21
-30.2153724
0
LINE
8
0
10
197.0028825
20
-30.2153724
11
196.3517462
21
-28.3243353
0
LINE
8
0
10
172.7886803
20
-18.4053168
11
172.8049587
21
-18.4525928
0
LINE
8
0
10
172.8049587
20
-18.4525928
11
178.9907536
21
-36.4174457
0
LINE
8
0
10
166.6028854
20
-0.4404639
11
166.6191638
21
-0.4877399
0
LINE
8
0
10
166.6191638
20
-0.4877399
11
172.7886803
21
-18.4053168
0
LINE
8
0
10
160.4170905
20
17.524389
11
160.4333688
21
17.4771131
0
LINE
8
0
10
160.4333688
20
17.4771131
11
166.6028854
21
-0.4404639
0
LINE
8
0
10
172.1961485
20
41.6750369
11
154.2312955
21
35.489242
0
LINE
8
0
10
154.2312955
20
35.489242
11
160.4170905
21
17.524389
0
LINE
8
0
10
208.8307914
20
-46.2903707
11
226.8429203
21
-40.0882974
0
LINE
8
0
10
226.8429203
20
-40.0882974
11
220.640847
21
-22.0761685
0
LINE
8
0
10
220.640847
20
-22.0761685
11
202.6287181
21
-28.2782418
0
LINE
8
0
10
202.6287181
20
-28.2782418
11
208.8307914
21
-46.2903707
0
LINE
8
0
10
190.8123248
20
-56.4163635
11
207.4738302
21
-47.1807403
0
LINE
8
0
10
207.4738302
20
-47.1807403
11
198.238207
21
-30.5192349
0
LINE
8
0
10
198.238207
20
-30.5192349
11
181.5767016
21
-39.7548581
0
LINE
8
0
10
181.5767016
20
-39.7548581
11
190.8123248
21
-56.4163635
0
LINE
8
0
10
185.5797957
20
-85.3125447
11
200.3844263
21
-73.3239913
0
LINE
8
0
10
164.4816981
20
-28.9878141
11
200.3844263
21
-73.3239913
0
LINE
8
0
10
149.6770675
20
-40.9763675
11
185.5797957
21
-85.3125447
0
LINE
8
0
10
164.4816981
20
-28.9878141
11
149.6770675
21
-40.9763675
0
LINE
8
0
10
163.0711673
20
-91.2832877
11
177.8757979
21
-79.2947343
0
LINE
8
0
10
177.8757979
20
-79.2947343
11
165.8872445
21
-64.4901037
0
LINE
8
0
10
165.8872445
20
-64.4901037
11
151.0826139
21
-76.4786571
0
LINE
8
0
10
151.0826139
20
-76.4786571
11
163.0711673
21
-91.2832877
0
ENDSEC
0
EOF