<svg width="317.642mm" height="143.189mm" viewBox="0 0 317.642 143.189" xmlns="http://www.w3.org/2000/svg"><g id="svgGroup" stroke-linecap="round" fill-rule="evenodd" font-size="9pt" stroke="#000" stroke-width="0.25mm" fill="none" style="stroke:#000;stroke-width:0.25mm;fill:none"><path d="M 36.854 75.329 L 55.488 79.289 L 56.527 74.399 L 75.063 78.338 L 73.816 84.207 L 92.4 88.158 L 91.985 90.114 L 110.618 94.075 L 114.569 75.49 L 114.579 75.441 L 118.519 56.905 L 118.529 56.856 L 122.469 38.32 L 122.48 38.271 L 126.43 19.687 L 107.845 15.736 L 108.261 13.78 L 89.676 9.83 L 90.924 3.961 L 72.29 0 L 71.25 4.891 L 52.666 0.94 L 48.715 19.525 L 48.705 19.574 L 44.765 38.11 L 44.755 38.159 L 40.815 56.695 L 40.804 56.744 L 36.854 75.329 Z M 262.155 79.289 L 280.788 75.329 L 276.838 56.744 L 276.828 56.695 L 272.888 38.159 L 272.877 38.11 L 268.937 19.574 L 268.927 19.525 L 264.977 0.94 L 246.392 4.891 L 245.352 0 L 226.719 3.961 L 227.966 9.83 L 209.381 13.78 L 209.797 15.736 L 191.212 19.687 L 195.163 38.271 L 195.173 38.32 L 199.113 56.856 L 199.123 56.905 L 203.063 75.441 L 203.074 75.49 L 207.024 94.075 L 225.658 90.114 L 225.242 88.158 L 243.827 84.207 L 242.579 78.338 L 261.115 74.399 L 262.155 79.289 Z M 0 63.609 L 18.711 66.908 L 18.703 66.957 L 15.403 85.669 L 34.164 88.977 L 37.463 70.265 L 37.472 70.216 L 40.763 51.554 L 40.771 51.505 L 47.37 14.082 L 28.609 10.774 L 25.319 29.436 L 6.607 26.137 L 3.308 44.848 L 3.299 44.897 L 0 63.609 Z M 298.931 66.908 L 317.642 63.609 L 314.343 44.897 L 314.334 44.848 L 311.035 26.137 L 292.324 29.436 L 289.033 10.774 L 270.272 14.082 L 276.871 51.505 L 276.88 51.554 L 280.17 70.216 L 280.179 70.265 L 283.478 88.977 L 302.239 85.669 L 298.94 66.957 L 298.931 66.908 Z M 202.645 139.963 L 218.801 129.868 L 198.637 97.6 L 182.482 107.695 L 202.645 139.963 Z M 98.841 129.868 L 114.997 139.963 L 135.16 107.695 L 119.005 97.6 L 98.841 129.868 Z M 235.449 107.559 L 254.082 103.599 L 250.122 84.965 L 231.488 88.926 L 235.449 107.559 Z M 63.56 103.599 L 82.194 107.559 L 86.154 88.926 L 67.521 84.965 L 63.56 103.599 Z M 179.603 143.189 L 195.759 133.094 L 185.664 116.939 L 169.509 127.034 L 179.603 143.189 Z M 121.884 133.094 L 138.039 143.189 L 148.134 127.034 L 131.978 116.939 L 121.884 133.094 Z M 86.816 109.246 L 104.479 116.382 L 111.615 98.72 L 93.952 91.583 L 86.816 109.246 Z M 213.163 116.382 L 230.826 109.246 L 223.69 91.583 L 206.027 98.72 L 213.163 116.382 Z" vector-effect="non-scaling-stroke"/></g></svg>