<svg width="336.456mm" height="145.909mm" viewBox="0 0 336.456 145.909" xmlns="http://www.w3.org/2000/svg"><g id="svgGroup" stroke-linecap="round" fill-rule="evenodd" font-size="9pt" stroke="#000" stroke-width="0.25mm" fill="none" style="stroke:#000;stroke-width:0.25mm;fill:none"><path d="M 36.854 75.329 L 55.488 79.289 L 56.527 74.399 L 75.063 78.338 L 73.816 84.207 L 92.4 88.158 L 91.985 90.114 L 78.009 87.143 L 74.049 105.777 L 92.682 109.738 L 96.643 91.104 L 110.618 94.075 L 114.569 75.49 L 114.579 75.441 L 118.519 56.905 L 118.529 56.856 L 122.469 38.32 L 122.48 38.271 L 126.43 19.687 L 107.845 15.736 L 108.261 13.78 L 89.676 9.83 L 90.924 3.961 L 72.29 0 L 71.25 4.891 L 52.666 0.94 L 48.715 19.525 L 48.705 19.574 L 44.765 38.11 L 44.755 38.159 L 40.815 56.695 L 40.804 56.744 L 36.854 75.329 Z M 280.969 79.289 L 299.602 75.329 L 295.652 56.744 L 295.642 56.695 L 291.702 38.159 L 291.691 38.11 L 287.751 19.574 L 287.741 19.525 L 283.791 0.94 L 265.206 4.891 L 264.166 0 L 245.533 3.961 L 246.78 9.83 L 228.195 13.78 L 228.611 15.736 L 210.026 19.687 L 213.977 38.271 L 213.987 38.32 L 217.927 56.856 L 217.937 56.905 L 221.877 75.441 L 221.888 75.49 L 225.838 94.075 L 239.813 91.104 L 243.774 109.738 L 262.408 105.777 L 258.447 87.143 L 244.472 90.114 L 244.056 88.158 L 262.641 84.207 L 261.393 78.338 L 279.929 74.399 L 280.969 79.289 Z M 0 63.609 L 18.711 66.908 L 18.703 66.957 L 15.403 85.669 L 34.164 88.977 L 37.463 70.265 L 37.472 70.216 L 40.763 51.554 L 40.771 51.505 L 47.37 14.082 L 28.659 10.783 L 28.667 10.733 L 9.907 7.425 L 6.607 26.137 L 6.599 26.186 L 3.308 44.848 L 3.299 44.897 L 0 63.609 Z M 317.745 66.908 L 336.456 63.609 L 333.157 44.897 L 333.148 44.848 L 329.858 26.186 L 329.849 26.137 L 326.55 7.425 L 307.789 10.733 L 307.798 10.783 L 289.086 14.082 L 295.685 51.505 L 295.694 51.554 L 298.984 70.216 L 298.993 70.265 L 302.292 88.977 L 321.053 85.669 L 317.754 66.957 L 317.745 66.908 Z M 131.15 134.982 L 146.755 145.909 L 157.681 130.304 L 142.076 119.377 L 131.15 134.982 Z M 189.701 145.909 L 205.306 134.982 L 194.38 119.377 L 178.775 130.304 L 189.701 145.909 Z M 207.217 130.737 L 222.822 119.811 L 211.895 104.206 L 196.29 115.132 L 207.217 130.737 Z M 113.634 119.811 L 129.239 130.737 L 140.166 115.132 L 124.561 104.206 L 113.634 119.811 Z M 93.352 112.337 L 110.617 120.388 L 118.668 103.123 L 101.402 95.072 L 93.352 112.337 Z M 207.308 105.438 L 224.573 97.387 L 216.522 80.122 L 199.257 88.173 L 207.308 105.438 Z M 111.884 97.387 L 129.149 105.438 L 137.2 88.173 L 119.934 80.122 L 111.884 97.387 Z M 225.839 120.388 L 243.105 112.337 L 235.054 95.072 L 217.789 103.123 L 225.839 120.388 Z" vector-effect="non-scaling-stroke"/></g></svg>