<svg width="97.732mm" height="79.417mm" viewBox="0 0 97.732 79.417" xmlns="http://www.w3.org/2000/svg"><g id="svgGroup" stroke-linecap="round" fill-rule="evenodd" font-size="9pt" stroke="#000" stroke-width="0.25mm" fill="none" style="stroke:#000;stroke-width:0.25mm;fill:none"><path d="M 4.792 9.576 L 0 32.122 L 22.218 44.53 L 59.019 66.196 L 77.901 79.417 L 97.732 51.095 L 79.256 17.807 L 49.619 0 L 4.792 9.576 Z M 51.111 45.193 L 62.579 53.223 L 70.609 41.755 L 59.141 33.725 L 51.111 45.193 Z M 68.627 60.365 L 80.095 68.395 L 88.125 56.926 L 76.657 48.896 L 68.627 60.365 Z M 11.003 29.835 L 24.698 32.746 L 27.608 19.051 L 13.914 16.141 L 11.003 29.835 Z M 48.896 21.177 L 60.897 28.388 L 68.107 16.388 L 56.107 9.177 L 48.896 21.177 Z M 30.667 37.118 L 43.355 43.035 L 49.272 30.347 L 36.584 24.43 L 30.667 37.118 Z" vector-effect="non-scaling-stroke"/></g></svg>