0
SECTION
2
HEADER
9
$INSUNITS
70
4
0
ENDSEC
0
SECTION
2
TABLES
0
TABLE
2
LTYPE
0
LTYPE
72
65
70
64
2
CONTINUOUS
3
______
73
0
40
0
0
ENDTAB
0
TABLE
2
LAYER
0
ENDTAB
0
ENDSEC
0
SECTION
2
ENTITIES
0
LINE
8
0
10
-5.5795538
20
11.4397806
11
11.4397806
21
5.5795538
0
LINE
8
0
10
11.4397806
20
5.5795538
11
5.5795538
21
-11.4397806
0
LINE
8
0
10
5.5795538
20
-11.4397806
11
-11.4397806
21
-5.5795538
0
LINE
8
0
10
-11.4397806
20
-5.5795538
11
-5.5795538
21
11.4397806
0
LINE
8
0
10
0.6062411
20
29.4046335
11
17.6255755
21
23.5444067
0
LINE
8
0
10
17.6255755
20
23.5444067
11
11.7653487
21
6.5250723
0
LINE
8
0
10
11.7653487
20
6.5250723
11
-5.2539857
21
12.3852991
0
LINE
8
0
10
-5.2539857
20
12.3852991
11
0.6062411
21
29.4046335
0
LINE
8
0
10
11.7341628
20
3.3629485
11
28.7534972
21
-2.4972783
0
LINE
8
0
10
28.7534972
20
-2.4972783
11
22.8932704
21
-19.5166127
0
LINE
8
0
10
22.8932704
20
-19.5166127
11
5.873936
21
-13.6563859
0
LINE
8
0
10
5.873936
20
-13.6563859
11
11.7341628
21
3.3629485
0
LINE
8
0
10
17.9199578
20
21.3278015
11
34.9392922
21
15.4675747
0
LINE
8
0
10
34.9392922
20
15.4675747
11
29.0790654
21
-1.5517597
0
LINE
8
0
10
29.0790654
20
-1.5517597
11
12.059731
21
4.3084671
0
LINE
8
0
10
12.059731
20
4.3084671
11
17.9199578
21
21.3278015
0
LINE
8
0
10
24.1057527
20
39.2926544
11
41.1250871
21
33.4324276
0
LINE
8
0
10
41.1250871
20
33.4324276
11
35.2648603
21
16.4130932
0
LINE
8
0
10
35.2648603
20
16.4130932
11
18.2455259
21
22.27332
0
LINE
8
0
10
18.2455259
20
22.27332
11
24.1057527
21
39.2926544
0
LINE
8
0
10
30.2915476
20
57.2575073
11
47.310882
21
51.3972805
0
LINE
8
0
10
47.310882
20
51.3972805
11
41.4506552
21
34.3779461
0
LINE
8
0
10
41.4506552
20
34.3779461
11
24.4313208
21
40.2381729
0
LINE
8
0
10
24.4313208
20
40.2381729
11
30.2915476
21
57.2575073
0
LINE
8
0
10
33.6058336
20
8.5233765
11
50.625168
21
2.6631497
0
LINE
8
0
10
50.625168
20
2.6631497
11
44.7649412
21
-14.3561847
0
LINE
8
0
10
44.7649412
20
-14.3561847
11
27.7456068
21
-8.4959579
0
LINE
8
0
10
27.7456068
20
-8.4959579
11
33.6058336
21
8.5233765
0
LINE
8
0
10
39.7916286
20
26.4882294
11
56.810963
21
20.6280026
0
LINE
8
0
10
56.810963
20
20.6280026
11
50.9507362
21
3.6086682
0
LINE
8
0
10
50.9507362
20
3.6086682
11
33.9314018
21
9.468895
0
LINE
8
0
10
33.9314018
20
9.468895
11
39.7916286
21
26.4882294
0
LINE
8
0
10
45.9774235
20
44.4530824
11
62.9967579
21
38.5928556
0
LINE
8
0
10
62.9967579
20
38.5928556
11
57.1365311
21
21.5735212
0
LINE
8
0
10
57.1365311
20
21.5735212
11
40.1171967
21
27.433748
0
LINE
8
0
10
40.1171967
20
27.433748
11
45.9774235
21
44.4530824
0
LINE
8
0
10
52.1632184
20
62.4179353
11
69.1825528
21
56.5577085
0
LINE
8
0
10
69.1825528
20
56.5577085
11
63.322326
21
39.5383741
0
LINE
8
0
10
63.322326
20
39.5383741
11
46.3029916
21
45.3986009
0
LINE
8
0
10
46.3029916
20
45.3986009
11
52.1632184
21
62.4179353
0
LINE
8
0
10
53.1985273
20
7.0651744
11
70.2178617
21
1.2049476
0
LINE
8
0
10
70.2178617
20
1.2049476
11
64.3576349
21
-15.8143868
0
LINE
8
0
10
64.3576349
20
-15.8143868
11
47.3383005
21
-9.95416
0
LINE
8
0
10
47.3383005
20
-9.95416
11
53.1985273
21
7.0651744
0
LINE
8
0
10
59.3843223
20
25.0300274
11
76.4036567
21
19.1698006
0
LINE
8
0
10
76.4036567
20
19.1698006
11
70.5434299
21
2.1504662
0
LINE
8
0
10
70.5434299
20
2.1504662
11
53.5240955
21
8.010693
0
LINE
8
0
10
53.5240955
20
8.010693
11
59.3843223
21
25.0300274
0
LINE
8
0
10
65.5701172
20
42.9948803
11
82.5894516
21
37.1346535
0
LINE
8
0
10
82.5894516
20
37.1346535
11
76.7292248
21
20.1153191
0
LINE
8
0
10
76.7292248
20
20.1153191
11
59.7098904
21
25.9755459
0
LINE
8
0
10
59.7098904
20
25.9755459
11
65.5701172
21
42.9948803
0
LINE
8
0
10
71.7559121
20
60.9597332
11
88.7752465
21
55.0995064
0
LINE
8
0
10
88.7752465
20
55.0995064
11
82.9150197
21
38.080172
0
LINE
8
0
10
82.9150197
20
38.080172
11
65.8956853
21
43.9403988
0
LINE
8
0
10
65.8956853
20
43.9403988
11
71.7559121
21
60.9597332
0
LINE
8
0
10
69.2099713
20
-4.793732
11
86.2293057
21
-10.6539588
0
LINE
8
0
10
86.2293057
20
-10.6539588
11
80.3690789
21
-27.6732932
0
LINE
8
0
10
80.3690789
20
-27.6732932
11
63.3497445
21
-21.8130664
0
LINE
8
0
10
63.3497445
20
-21.8130664
11
69.2099713
21
-4.793732
0
LINE
8
0
10
75.3957663
20
13.171121
11
92.4151007
21
7.3108942
0
LINE
8
0
10
92.4151007
20
7.3108942
11
86.5548739
21
-9.7084402
0
LINE
8
0
10
86.5548739
20
-9.7084402
11
69.5355395
21
-3.8482134
0
LINE
8
0
10
69.5355395
20
-3.8482134
11
75.3957663
21
13.171121
0
LINE
8
0
10
81.5815612
20
31.1359739
11
98.6008956
21
25.2757471
0
LINE
8
0
10
98.6008956
20
25.2757471
11
92.7406688
21
8.2564127
0
LINE
8
0
10
92.7406688
20
8.2564127
11
75.7213344
21
14.1166395
0
LINE
8
0
10
75.7213344
20
14.1166395
11
81.5815612
21
31.1359739
0
LINE
8
0
10
87.7673561
20
49.1008269
11
104.7866905
21
43.2406001
0
LINE
8
0
10
104.7866905
20
43.2406001
11
98.9264637
21
26.2212657
0
LINE
8
0
10
98.9264637
20
26.2212657
11
81.9071293
21
32.0814925
0
LINE
8
0
10
81.9071293
20
32.0814925
11
87.7673561
21
49.1008269
0
LINE
8
0
10
86.523688
20
-12.870564
11
103.5430224
21
-18.7307908
0
LINE
8
0
10
103.5430224
20
-18.7307908
11
97.6827956
21
-35.7501252
0
LINE
8
0
10
97.6827956
20
-35.7501252
11
80.6634612
21
-29.8898984
0
LINE
8
0
10
80.6634612
20
-29.8898984
11
86.523688
21
-12.870564
0
LINE
8
0
10
92.7094829
20
5.0942889
11
109.7288173
21
-0.7659379
0
LINE
8
0
10
109.7288173
20
-0.7659379
11
103.8685905
21
-17.7852723
0
LINE
8
0
10
103.8685905
20
-17.7852723
11
86.8492561
21
-11.9250455
0
LINE
8
0
10
86.8492561
20
-11.9250455
11
92.7094829
21
5.0942889
0
LINE
8
0
10
98.8952778
20
23.0591418
11
115.9146122
21
17.198915
0
LINE
8
0
10
115.9146122
20
17.198915
11
110.0543854
21
0.1795806
0
LINE
8
0
10
110.0543854
20
0.1795806
11
93.035051
21
6.0398074
0
LINE
8
0
10
93.035051
20
6.0398074
11
98.8952778
21
23.0591418
0
LINE
8
0
10
105.0810728
20
41.0239948
11
122.1004072
21
35.163768
0
LINE
8
0
10
122.1004072
20
35.163768
11
116.2401804
21
18.1444336
0
LINE
8
0
10
116.2401804
20
18.1444336
11
99.220846
21
24.0046604
0
LINE
8
0
10
99.220846
20
24.0046604
11
105.0810728
21
41.0239948
0
LINE
8
0
10
56.6836502
20
-22.743489
11
73.7029846
21
-28.6037158
0
LINE
8
0
10
73.7029846
20
-28.6037158
11
67.8427578
21
-45.6230502
0
LINE
8
0
10
67.8427578
20
-45.6230502
11
50.8234234
21
-39.7628234
0
LINE
8
0
10
50.8234234
20
-39.7628234
11
56.6836502
21
-22.743489
0
LINE
8
0
10
78.9654665
20
-31.2329353
11
94.7086212
21
-39.9595084
0
LINE
8
0
10
94.7086212
20
-39.9595084
11
85.9820481
21
-55.7026631
0
LINE
8
0
10
85.9820481
20
-55.7026631
11
70.2388934
21
-46.97609
0
LINE
8
0
10
70.2388934
20
-46.97609
11
78.9654665
21
-31.2329353
0
LINE
8
0
10
88.6807588
20
-59.2577555
11
102.6693861
21
-70.5855226
0
LINE
8
0
10
102.6693861
20
-70.5855226
11
91.341619
21
-84.5741499
0
LINE
8
0
10
91.341619
20
-84.5741499
11
77.3529917
21
-73.2463828
0
LINE
8
0
10
77.3529917
20
-73.2463828
11
88.6807588
21
-59.2577555
0
LINE
8
0
10
100.6378462
20
-44.4919822
11
114.6264735
21
-55.8197493
0
LINE
8
0
10
114.6264735
20
-55.8197493
11
103.2987064
21
-69.8083766
0
LINE
8
0
10
103.2987064
20
-69.8083766
11
89.3100791
21
-58.4806095
0
LINE
8
0
10
89.3100791
20
-58.4806095
11
100.6378462
21
-44.4919822
0
LINE
8
0
10
112.5949336
20
-29.7262089
11
126.5835609
21
-41.053976
0
LINE
8
0
10
126.5835609
20
-41.053976
11
115.2557938
21
-55.0426033
0
LINE
8
0
10
115.2557938
20
-55.0426033
11
101.2671665
21
-43.7148362
0
LINE
8
0
10
101.2671665
20
-43.7148362
11
112.5949336
21
-29.7262089
0
LINE
8
0
10
117.5140571
20
-57.4181816
11
131.5026844
21
-68.7459487
0
LINE
8
0
10
131.5026844
20
-68.7459487
11
107.5255775
21
-98.3552098
0
LINE
8
0
10
107.5255775
20
-98.3552098
11
93.5369502
21
-87.0274427
0
LINE
8
0
10
93.5369502
20
-87.0274427
11
117.5140571
21
-57.4181816
0
LINE
8
0
10
265.5592426
20
5.5795538
11
282.578577
21
11.4397806
0
LINE
8
0
10
282.578577
20
11.4397806
11
288.4388038
21
-5.5795538
0
LINE
8
0
10
288.4388038
20
-5.5795538
11
271.4194694
21
-11.4397806
0
LINE
8
0
10
271.4194694
20
-11.4397806
11
265.5592426
21
5.5795538
0
LINE
8
0
10
259.3734477
20
23.5444067
11
276.3927821
21
29.4046335
0
LINE
8
0
10
276.3927821
20
29.4046335
11
282.2530089
21
12.3852991
0
LINE
8
0
10
282.2530089
20
12.3852991
11
265.2336745
21
6.5250723
0
LINE
8
0
10
265.2336745
20
6.5250723
11
259.3734477
21
23.5444067
0
LINE
8
0
10
248.245526
20
-2.4972783
11
265.2648604
21
3.3629485
0
LINE
8
0
10
265.2648604
20
3.3629485
11
271.1250872
21
-13.6563859
0
LINE
8
0
10
271.1250872
20
-13.6563859
11
254.1057528
21
-19.5166127
0
LINE
8
0
10
254.1057528
20
-19.5166127
11
248.245526
21
-2.4972783
0
LINE
8
0
10
242.059731
20
15.4675747
11
259.0790654
21
21.3278015
0
LINE
8
0
10
259.0790654
20
21.3278015
11
264.9392922
21
4.3084671
0
LINE
8
0
10
264.9392922
20
4.3084671
11
247.9199578
21
-1.5517597
0
LINE
8
0
10
247.9199578
20
-1.5517597
11
242.059731
21
15.4675747
0
LINE
8
0
10
235.8739361
20
33.4324276
11
252.8932705
21
39.2926544
0
LINE
8
0
10
252.8932705
20
39.2926544
11
258.7534973
21
22.27332
0
LINE
8
0
10
258.7534973
20
22.27332
11
241.7341629
21
16.4130932
0
LINE
8
0
10
241.7341629
20
16.4130932
11
235.8739361
21
33.4324276
0
LINE
8
0
10
229.6881412
20
51.3972805
11
246.7074756
21
57.2575073
0
LINE
8
0
10
246.7074756
20
57.2575073
11
252.5677024
21
40.2381729
0
LINE
8
0
10
252.5677024
20
40.2381729
11
235.548368
21
34.3779461
0
LINE
8
0
10
235.548368
20
34.3779461
11
229.6881412
21
51.3972805
0
LINE
8
0
10
226.3738552
20
2.6631497
11
243.3931896
21
8.5233765
0
LINE
8
0
10
243.3931896
20
8.5233765
11
249.2534164
21
-8.4959579
0
LINE
8
0
10
249.2534164
20
-8.4959579
11
232.234082
21
-14.3561847
0
LINE
8
0
10
232.234082
20
-14.3561847
11
226.3738552
21
2.6631497
0
LINE
8
0
10
220.1880602
20
20.6280026
11
237.2073946
21
26.4882294
0
LINE
8
0
10
237.2073946
20
26.4882294
11
243.0676214
21
9.468895
0
LINE
8
0
10
243.0676214
20
9.468895
11
226.048287
21
3.6086682
0
LINE
8
0
10
226.048287
20
3.6086682
11
220.1880602
21
20.6280026
0
LINE
8
0
10
214.0022653
20
38.5928556
11
231.0215997
21
44.4530824
0
LINE
8
0
10
231.0215997
20
44.4530824
11
236.8818265
21
27.433748
0
LINE
8
0
10
236.8818265
20
27.433748
11
219.8624921
21
21.5735212
0
LINE
8
0
10
219.8624921
20
21.5735212
11
214.0022653
21
38.5928556
0
LINE
8
0
10
207.8164704
20
56.5577085
11
224.8358048
21
62.4179353
0
LINE
8
0
10
224.8358048
20
62.4179353
11
230.6960316
21
45.3986009
0
LINE
8
0
10
230.6960316
20
45.3986009
11
213.6766972
21
39.5383741
0
LINE
8
0
10
213.6766972
20
39.5383741
11
207.8164704
21
56.5577085
0
LINE
8
0
10
206.7811615
20
1.2049476
11
223.8004959
21
7.0651744
0
LINE
8
0
10
223.8004959
20
7.0651744
11
229.6607227
21
-9.95416
0
LINE
8
0
10
229.6607227
20
-9.95416
11
212.6413883
21
-15.8143868
0
LINE
8
0
10
212.6413883
20
-15.8143868
11
206.7811615
21
1.2049476
0
LINE
8
0
10
200.5953665
20
19.1698006
11
217.6147009
21
25.0300274
0
LINE
8
0
10
217.6147009
20
25.0300274
11
223.4749277
21
8.010693
0
LINE
8
0
10
223.4749277
20
8.010693
11
206.4555933
21
2.1504662
0
LINE
8
0
10
206.4555933
20
2.1504662
11
200.5953665
21
19.1698006
0
LINE
8
0
10
194.4095716
20
37.1346535
11
211.428906
21
42.9948803
0
LINE
8
0
10
211.428906
20
42.9948803
11
217.2891328
21
25.9755459
0
LINE
8
0
10
217.2891328
20
25.9755459
11
200.2697984
21
20.1153191
0
LINE
8
0
10
200.2697984
20
20.1153191
11
194.4095716
21
37.1346535
0
LINE
8
0
10
188.2237767
20
55.0995064
11
205.2431111
21
60.9597332
0
LINE
8
0
10
205.2431111
20
60.9597332
11
211.1033379
21
43.9403988
0
LINE
8
0
10
211.1033379
20
43.9403988
11
194.0840035
21
38.080172
0
LINE
8
0
10
194.0840035
20
38.080172
11
188.2237767
21
55.0995064
0
LINE
8
0
10
190.7697175
20
-10.6539588
11
207.7890519
21
-4.793732
0
LINE
8
0
10
207.7890519
20
-4.793732
11
213.6492787
21
-21.8130664
0
LINE
8
0
10
213.6492787
20
-21.8130664
11
196.6299443
21
-27.6732932
0
LINE
8
0
10
196.6299443
20
-27.6732932
11
190.7697175
21
-10.6539588
0
LINE
8
0
10
184.5839225
20
7.3108942
11
201.6032569
21
13.171121
0
LINE
8
0
10
201.6032569
20
13.171121
11
207.4634837
21
-3.8482134
0
LINE
8
0
10
207.4634837
20
-3.8482134
11
190.4441493
21
-9.7084402
0
LINE
8
0
10
190.4441493
20
-9.7084402
11
184.5839225
21
7.3108942
0
LINE
8
0
10
178.3981276
20
25.2757471
11
195.417462
21
31.1359739
0
LINE
8
0
10
195.417462
20
31.1359739
11
201.2776888
21
14.1166395
0
LINE
8
0
10
201.2776888
20
14.1166395
11
184.2583544
21
8.2564127
0
LINE
8
0
10
184.2583544
20
8.2564127
11
178.3981276
21
25.2757471
0
LINE
8
0
10
172.2123327
20
43.2406001
11
189.2316671
21
49.1008269
0
LINE
8
0
10
189.2316671
20
49.1008269
11
195.0918939
21
32.0814925
0
LINE
8
0
10
195.0918939
20
32.0814925
11
178.0725595
21
26.2212657
0
LINE
8
0
10
178.0725595
20
26.2212657
11
172.2123327
21
43.2406001
0
LINE
8
0
10
173.4560008
20
-18.7307908
11
190.4753352
21
-12.870564
0
LINE
8
0
10
190.4753352
20
-12.870564
11
196.335562
21
-29.8898984
0
LINE
8
0
10
196.335562
20
-29.8898984
11
179.3162276
21
-35.7501252
0
LINE
8
0
10
179.3162276
20
-35.7501252
11
173.4560008
21
-18.7307908
0
LINE
8
0
10
167.2702059
20
-0.7659379
11
184.2895403
21
5.0942889
0
LINE
8
0
10
184.2895403
20
5.0942889
11
190.1497671
21
-11.9250455
0
LINE
8
0
10
190.1497671
20
-11.9250455
11
173.1304327
21
-17.7852723
0
LINE
8
0
10
173.1304327
20
-17.7852723
11
167.2702059
21
-0.7659379
0
LINE
8
0
10
161.084411
20
17.198915
11
178.1037454
21
23.0591418
0
LINE
8
0
10
178.1037454
20
23.0591418
11
183.9639722
21
6.0398074
0
LINE
8
0
10
183.9639722
20
6.0398074
11
166.9446378
21
0.1795806
0
LINE
8
0
10
166.9446378
20
0.1795806
11
161.084411
21
17.198915
0
LINE
8
0
10
154.898616
20
35.163768
11
171.9179504
21
41.0239948
0
LINE
8
0
10
171.9179504
20
41.0239948
11
177.7781772
21
24.0046604
0
LINE
8
0
10
177.7781772
20
24.0046604
11
160.7588428
21
18.1444336
0
LINE
8
0
10
160.7588428
20
18.1444336
11
154.898616
21
35.163768
0
LINE
8
0
10
203.2960386
20
-28.6037158
11
220.315373
21
-22.743489
0
LINE
8
0
10
220.315373
20
-22.743489
11
226.1755998
21
-39.7628234
0
LINE
8
0
10
226.1755998
20
-39.7628234
11
209.1562654
21
-45.6230502
0
LINE
8
0
10
209.1562654
20
-45.6230502
11
203.2960386
21
-28.6037158
0
LINE
8
0
10
182.290402
20
-39.9595084
11
198.0335567
21
-31.2329353
0
LINE
8
0
10
198.0335567
20
-31.2329353
11
206.7601298
21
-46.97609
0
LINE
8
0
10
206.7601298
20
-46.97609
11
191.0169751
21
-55.7026631
0
LINE
8
0
10
191.0169751
20
-55.7026631
11
182.290402
21
-39.9595084
0
LINE
8
0
10
174.3296371
20
-70.5855226
11
188.3182644
21
-59.2577555
0
LINE
8
0
10
188.3182644
20
-59.2577555
11
199.6460315
21
-73.2463828
0
LINE
8
0
10
199.6460315
20
-73.2463828
11
185.6574042
21
-84.5741499
0
LINE
8
0
10
185.6574042
20
-84.5741499
11
174.3296371
21
-70.5855226
0
LINE
8
0
10
162.3725497
20
-55.8197493
11
176.361177
21
-44.4919822
0
LINE
8
0
10
176.361177
20
-44.4919822
11
187.6889441
21
-58.4806095
0
LINE
8
0
10
187.6889441
20
-58.4806095
11
173.7003168
21
-69.8083766
0
LINE
8
0
10
173.7003168
20
-69.8083766
11
162.3725497
21
-55.8197493
0
LINE
8
0
10
150.4154623
20
-41.053976
11
164.4040896
21
-29.7262089
0
LINE
8
0
10
164.4040896
20
-29.7262089
11
175.7318567
21
-43.7148362
0
LINE
8
0
10
175.7318567
20
-43.7148362
11
161.7432294
21
-55.0426033
0
LINE
8
0
10
161.7432294
20
-55.0426033
11
150.4154623
21
-41.053976
0
LINE
8
0
10
145.4963388
20
-68.7459487
11
159.4849661
21
-57.4181816
0
LINE
8
0
10
159.4849661
20
-57.4181816
11
183.462073
21
-87.0274427
0
LINE
8
0
10
183.462073
20
-87.0274427
11
169.4734457
21
-98.3552098
0
LINE
8
0
10
169.4734457
20
-98.3552098
11
145.4963388
21
-68.7459487
0
ENDSEC
0
EOF