<svg width="324.343mm" height="148.886mm" viewBox="0 0 324.343 148.886" xmlns="http://www.w3.org/2000/svg"><g id="svgGroup" stroke-linecap="round" fill-rule="evenodd" font-size="9pt" stroke="#000" stroke-width="0.25mm" fill="none" style="stroke:#000;stroke-width:0.25mm;fill:none"><path d="M 143.944 115.155 L 158.689 125.479 L 142.299 148.886 L 127.554 138.562 L 143.944 115.155 Z M 165.654 125.479 L 180.399 115.155 L 196.789 138.562 L 182.044 148.886 L 165.654 125.479 Z M 226.774 91.49 L 250.066 86.539 L 253.809 104.146 L 230.516 109.097 L 226.774 91.49 Z M 74.277 86.539 L 97.569 91.49 L 93.827 109.097 L 70.534 104.146 L 74.277 86.539 Z M 183.822 116.306 L 203.328 102.647 L 213.652 117.392 L 194.146 131.05 L 183.822 116.306 Z M 121.015 102.647 L 140.521 116.306 L 130.197 131.05 L 110.691 117.392 L 121.015 102.647 Z M 101.591 92.513 L 117.904 100.12 L 107.84 121.702 L 91.527 114.095 L 101.591 92.513 Z M 206.439 100.12 L 222.752 92.513 L 232.816 114.095 L 216.503 121.702 L 206.439 100.12 Z M 117.677 78.311 L 138.088 90.575 L 128.818 106.004 L 108.406 93.74 L 117.677 78.311 Z M 186.255 90.575 L 206.666 78.311 L 215.937 93.74 L 195.525 106.004 L 186.255 90.575 Z M 3.126 40.944 L 20.852 44.069 L 17.727 61.796 L 0 58.67 L 3.126 40.944 Z M 6.425 22.232 L 24.152 25.358 L 21.026 43.085 L 3.299 39.959 L 6.425 22.232 Z M 9.724 3.521 L 27.451 6.647 L 24.325 24.373 L 6.599 21.247 L 9.724 3.521 Z M 18.538 62.954 L 36.264 66.08 L 33.139 83.807 L 15.412 80.681 L 18.538 62.954 Z M 28.436 6.82 L 46.162 9.946 L 43.037 27.672 L 25.31 24.547 L 28.436 6.82 Z M 21.837 44.243 L 39.564 47.369 L 36.438 65.095 L 18.711 61.97 L 21.837 44.243 Z M 25.136 25.532 L 42.863 28.657 L 39.737 46.384 L 22.011 43.258 L 25.136 25.532 Z M 303.491 44.069 L 321.217 40.944 L 324.343 58.67 L 306.616 61.796 L 303.491 44.069 Z M 300.191 25.358 L 317.918 22.232 L 321.044 39.959 L 303.317 43.085 L 300.191 25.358 Z M 296.892 6.647 L 314.619 3.521 L 317.744 21.247 L 300.018 24.373 L 296.892 6.647 Z M 288.079 66.08 L 305.805 62.954 L 308.931 80.681 L 291.204 83.807 L 288.079 66.08 Z M 284.779 47.369 L 302.506 44.243 L 305.632 61.97 L 287.905 65.095 L 284.779 47.369 Z M 281.48 28.657 L 299.207 25.532 L 302.332 43.258 L 284.606 46.384 L 281.48 28.657 Z M 278.181 9.946 L 295.907 6.82 L 299.033 24.547 L 281.306 27.672 L 278.181 9.946 Z M 243.237 40.912 L 260.843 37.17 L 264.586 54.776 L 246.979 58.519 L 243.237 40.912 Z M 39.925 56.695 L 57.532 60.437 L 53.789 78.044 L 36.183 74.301 L 39.925 56.695 Z M 43.875 38.11 L 61.482 41.852 L 57.739 59.459 L 40.133 55.717 L 43.875 38.11 Z M 47.826 19.525 L 65.432 23.268 L 61.69 40.874 L 44.083 37.132 L 47.826 19.525 Z M 59.549 55.754 L 77.156 59.497 L 73.414 77.103 L 55.807 73.361 L 59.549 55.754 Z M 63.5 37.17 L 81.106 40.912 L 77.364 58.519 L 59.757 54.776 L 63.5 37.17 Z M 67.45 18.585 L 85.057 22.327 L 81.314 39.934 L 63.708 36.191 L 67.45 18.585 Z M 71.4 0 L 89.007 3.742 L 85.265 21.349 L 67.658 17.607 L 71.4 0 Z M 76.887 65.574 L 94.493 69.316 L 90.751 86.923 L 73.144 83.18 L 76.887 65.574 Z M 80.837 46.989 L 98.444 50.731 L 94.701 68.338 L 77.095 64.595 L 80.837 46.989 Z M 84.787 28.404 L 102.394 32.146 L 98.652 49.753 L 81.045 46.011 L 84.787 28.404 Z M 95.056 71.48 L 112.662 75.223 L 108.92 92.829 L 91.313 89.087 L 95.056 71.48 Z M 99.006 52.895 L 116.613 56.638 L 112.87 74.245 L 95.264 70.502 L 99.006 52.895 Z M 102.956 34.311 L 120.563 38.053 L 116.82 55.66 L 99.214 51.917 L 102.956 34.311 Z M 106.907 15.726 L 124.513 19.468 L 120.771 37.075 L 103.164 33.332 L 106.907 15.726 Z M 266.811 60.437 L 284.418 56.695 L 288.16 74.301 L 270.554 78.044 L 266.811 60.437 Z M 88.738 9.819 L 106.344 13.562 L 102.602 31.168 L 84.995 27.426 L 88.738 9.819 Z M 254.96 4.683 L 272.567 0.94 L 276.31 18.547 L 258.703 22.289 L 254.96 4.683 Z M 247.187 59.497 L 264.794 55.754 L 268.536 73.361 L 250.929 77.103 L 247.187 59.497 Z M 51.776 0.94 L 69.383 4.683 L 65.64 22.289 L 48.033 18.547 L 51.776 0.94 Z M 262.861 41.852 L 280.468 38.11 L 284.21 55.717 L 266.604 59.459 L 262.861 41.852 Z M 258.911 23.268 L 276.517 19.525 L 280.26 37.132 L 262.653 40.874 L 258.911 23.268 Z M 239.286 22.327 L 256.893 18.585 L 260.635 36.191 L 243.029 39.934 L 239.286 22.327 Z M 235.336 3.742 L 252.943 0 L 256.685 17.607 L 239.079 21.349 L 235.336 3.742 Z M 229.85 69.316 L 247.456 65.574 L 251.199 83.18 L 233.592 86.923 L 229.85 69.316 Z M 225.899 50.731 L 243.506 46.989 L 247.248 64.595 L 229.642 68.338 L 225.899 50.731 Z M 221.949 32.146 L 239.556 28.404 L 243.298 46.011 L 225.691 49.753 L 221.949 32.146 Z M 217.999 13.562 L 235.605 9.819 L 239.348 27.426 L 221.741 31.168 L 217.999 13.562 Z M 211.681 75.223 L 229.287 71.48 L 233.03 89.087 L 215.423 92.829 L 211.681 75.223 Z M 207.73 56.638 L 225.337 52.895 L 229.079 70.502 L 211.473 74.245 L 207.73 56.638 Z M 203.78 38.053 L 221.387 34.311 L 225.129 51.917 L 207.523 55.66 L 203.78 38.053 Z M 199.83 19.468 L 217.436 15.726 L 221.179 33.332 L 203.572 37.075 L 199.83 19.468 Z" vector-effect="non-scaling-stroke"/></g></svg>