<svg width="317.479mm" height="147.345mm" viewBox="0 0 317.479 147.345" xmlns="http://www.w3.org/2000/svg"><g id="svgGroup" stroke-linecap="round" fill-rule="evenodd" font-size="9pt" stroke="#000" stroke-width="0.25mm" fill="none" style="stroke:#000;stroke-width:0.25mm;fill:none"><path d="M 103.318 97.643 L 127.551 112.786 L 118.013 128.05 L 93.78 112.908 L 103.318 97.643 Z M 189.928 112.786 L 214.161 97.643 L 223.699 112.908 L 199.466 128.05 L 189.928 112.786 Z M 221.26 96.613 L 244.553 91.662 L 248.295 109.269 L 225.003 114.22 L 221.26 96.613 Z M 72.926 91.662 L 96.219 96.613 L 92.476 114.22 L 69.184 109.269 L 72.926 91.662 Z M 3.126 65.818 L 20.852 68.943 L 17.727 86.67 L 0 83.544 L 3.126 65.818 Z M 6.425 47.106 L 24.152 50.232 L 21.026 67.959 L 3.299 64.833 L 6.425 47.106 Z M 25.145 50.356 L 42.872 53.482 L 39.746 71.209 L 22.019 68.083 L 25.145 50.356 Z M 21.846 69.068 L 39.572 72.193 L 36.447 89.92 L 18.72 86.794 L 21.846 69.068 Z M 28.444 31.645 L 46.171 34.771 L 43.045 52.497 L 25.319 49.372 L 28.444 31.645 Z M 32.829 6.779 L 50.555 9.904 L 47.43 27.631 L 29.703 24.505 L 32.829 6.779 Z M 296.627 68.943 L 314.353 65.818 L 317.479 83.544 L 299.753 86.67 L 296.627 68.943 Z M 293.328 50.232 L 311.054 47.106 L 314.18 64.833 L 296.453 67.959 L 293.328 50.232 Z M 277.907 72.193 L 295.633 69.068 L 298.759 86.794 L 281.032 89.92 L 277.907 72.193 Z M 274.608 53.482 L 292.334 50.356 L 295.46 68.083 L 277.733 71.209 L 274.608 53.482 Z M 271.308 34.771 L 289.035 31.645 L 292.16 49.372 L 274.434 52.497 L 271.308 34.771 Z M 266.924 9.904 L 284.65 6.779 L 287.776 24.505 L 270.049 27.631 L 266.924 9.904 Z M 3.67 23.658 L 21.601 22.089 L 23.17 40.02 L 5.239 41.589 L 3.67 23.658 Z M 295.878 22.089 L 313.809 23.658 L 312.241 41.589 L 294.309 40.02 L 295.878 22.089 Z M 128.718 121.986 L 140.288 135.775 L 126.5 147.345 L 114.929 133.557 L 128.718 121.986 Z M 177.191 135.775 L 188.761 121.986 L 202.55 133.557 L 190.979 147.345 L 177.191 135.775 Z M 111.514 15.726 L 129.121 19.468 L 125.378 37.075 L 107.772 33.332 L 111.514 15.726 Z M 243.489 4.683 L 261.096 0.94 L 264.838 18.547 L 247.231 22.289 L 243.489 4.683 Z M 76.008 0 L 93.614 3.742 L 89.872 21.349 L 72.265 17.607 L 76.008 0 Z M 88.095 34.517 L 105.702 38.26 L 101.96 55.867 L 84.353 52.124 L 88.095 34.517 Z M 93.345 9.819 L 110.952 13.562 L 107.209 31.168 L 89.603 27.426 L 93.345 9.819 Z M 106.264 40.424 L 123.871 44.166 L 120.128 61.773 L 102.522 58.031 L 106.264 40.424 Z M 47.183 44.223 L 64.79 47.966 L 61.047 65.573 L 43.441 61.83 L 47.183 44.223 Z M 56.383 0.94 L 73.99 4.683 L 70.248 22.289 L 52.641 18.547 L 56.383 0.94 Z M 62.857 61.868 L 80.464 65.61 L 76.722 83.217 L 59.115 79.474 L 62.857 61.868 Z M 70.758 24.698 L 88.365 28.441 L 84.622 46.047 L 67.016 42.305 L 70.758 24.698 Z M 80.195 71.687 L 97.801 75.429 L 94.059 93.036 L 76.452 89.294 L 80.195 71.687 Z M 84.145 53.102 L 101.752 56.845 L 98.009 74.451 L 80.403 70.709 L 84.145 53.102 Z M 98.364 77.594 L 115.97 81.336 L 112.228 98.943 L 94.621 95.2 L 98.364 77.594 Z M 102.314 59.009 L 119.921 62.751 L 116.178 80.358 L 98.572 76.616 L 102.314 59.009 Z M 256.639 66.551 L 274.246 62.808 L 277.989 80.415 L 260.382 84.157 L 256.639 66.551 Z M 252.689 47.966 L 270.296 44.223 L 274.038 61.83 L 256.432 65.573 L 252.689 47.966 Z M 223.865 3.742 L 241.471 0 L 245.214 17.607 L 227.607 21.349 L 223.865 3.742 Z M 66.808 43.283 L 84.414 47.025 L 80.672 64.632 L 63.065 60.89 L 66.808 43.283 Z M 229.114 28.441 L 246.721 24.698 L 250.464 42.305 L 232.857 46.047 L 229.114 28.441 Z M 206.527 13.562 L 224.134 9.819 L 227.876 27.426 L 210.27 31.168 L 206.527 13.562 Z M 188.358 19.468 L 205.965 15.726 L 209.707 33.332 L 192.101 37.075 L 188.358 19.468 Z M 43.233 62.808 L 60.84 66.551 L 57.097 84.157 L 39.491 80.415 L 43.233 62.808 Z M 51.134 25.639 L 68.74 29.381 L 64.998 46.988 L 47.391 43.245 L 51.134 25.639 Z M 248.739 29.381 L 266.345 25.639 L 270.088 43.245 L 252.481 46.988 L 248.739 29.381 Z M 237.015 65.61 L 254.622 61.868 L 258.364 79.474 L 240.758 83.217 L 237.015 65.61 Z M 233.065 47.025 L 250.671 43.283 L 254.414 60.89 L 236.807 64.632 L 233.065 47.025 Z M 219.678 75.429 L 237.284 71.687 L 241.027 89.294 L 223.42 93.036 L 219.678 75.429 Z M 215.727 56.845 L 233.334 53.102 L 237.077 70.709 L 219.47 74.451 L 215.727 56.845 Z M 211.777 38.26 L 229.384 34.517 L 233.126 52.124 L 215.52 55.867 L 211.777 38.26 Z M 201.509 81.336 L 219.115 77.594 L 222.858 95.2 L 205.251 98.943 L 201.509 81.336 Z M 197.558 62.751 L 215.165 59.009 L 218.908 76.616 L 201.301 80.358 L 197.558 62.751 Z M 193.608 44.166 L 211.215 40.424 L 214.957 58.031 L 197.351 61.773 L 193.608 44.166 Z M 180.923 92.536 L 191.955 83.916 L 200.574 94.948 L 189.542 103.568 L 180.923 92.536 Z M 125.524 83.916 L 136.556 92.536 L 127.937 103.568 L 116.905 94.948 L 125.524 83.916 Z M 137.127 102.533 L 149.252 109.533 L 142.252 121.657 L 130.127 114.657 L 137.127 102.533 Z M 168.227 109.533 L 180.352 102.533 L 187.352 114.657 L 175.227 121.657 L 168.227 109.533 Z" vector-effect="non-scaling-stroke"/></g></svg>