<svg width="335.24mm" height="148.886mm" viewBox="0 0 335.24 148.886" xmlns="http://www.w3.org/2000/svg"><g id="svgGroup" stroke-linecap="round" fill-rule="evenodd" font-size="9pt" stroke="#000" stroke-width="0.25mm" fill="none" style="stroke:#000;stroke-width:0.25mm;fill:none"><path d="M 144.63 115.155 L 159.375 125.479 L 142.985 148.886 L 128.24 138.562 L 144.63 115.155 Z M 175.865 125.479 L 190.61 115.155 L 207 138.562 L 192.255 148.886 L 175.865 125.479 Z M 236.985 91.49 L 260.277 86.539 L 264.019 104.146 L 240.727 109.097 L 236.985 91.49 Z M 74.963 86.539 L 98.255 91.49 L 94.513 109.097 L 71.22 104.146 L 74.963 86.539 Z M 121.701 102.647 L 141.207 116.306 L 130.883 131.05 L 111.377 117.392 L 121.701 102.647 Z M 194.033 116.306 L 213.539 102.647 L 223.863 117.392 L 204.357 131.05 L 194.033 116.306 Z M 102.276 92.513 L 118.59 100.12 L 108.526 121.702 L 92.213 114.095 L 102.276 92.513 Z M 216.65 100.12 L 232.963 92.513 L 243.027 114.095 L 226.713 121.702 L 216.65 100.12 Z M 118.363 78.311 L 138.774 90.575 L 129.504 106.004 L 109.092 93.74 L 118.363 78.311 Z M 196.465 90.575 L 216.877 78.311 L 226.147 93.74 L 205.736 106.004 L 196.465 90.575 Z M 3.126 44.834 L 20.852 47.959 L 17.727 65.686 L 0 62.56 L 3.126 44.834 Z M 6.425 26.122 L 24.152 29.248 L 21.026 46.975 L 3.299 43.849 L 6.425 26.122 Z M 9.724 7.411 L 27.451 10.537 L 24.325 28.263 L 6.599 25.137 L 9.724 7.411 Z M 18.529 66.894 L 36.256 70.019 L 33.13 87.746 L 15.403 84.62 L 18.529 66.894 Z M 21.828 48.182 L 39.555 51.308 L 36.429 69.034 L 18.703 65.909 L 21.828 48.182 Z M 25.128 29.471 L 42.854 32.597 L 39.729 50.323 L 22.002 47.197 L 25.128 29.471 Z M 28.427 10.76 L 46.154 13.885 L 43.028 31.612 L 25.301 28.486 L 28.427 10.76 Z M 314.388 47.959 L 332.114 44.834 L 335.24 62.56 L 317.513 65.686 L 314.388 47.959 Z M 311.088 29.248 L 328.815 26.122 L 331.941 43.849 L 314.214 46.975 L 311.088 29.248 Z M 307.789 10.537 L 325.516 7.411 L 328.641 25.137 L 310.915 28.263 L 307.789 10.537 Z M 298.984 70.019 L 316.711 66.894 L 319.836 84.62 L 302.11 87.746 L 298.984 70.019 Z M 295.685 51.308 L 313.411 48.182 L 316.537 65.909 L 298.811 69.034 L 295.685 51.308 Z M 292.386 32.597 L 310.112 29.471 L 313.238 47.197 L 295.511 50.323 L 292.386 32.597 Z M 289.086 13.885 L 306.813 10.76 L 309.939 28.486 L 292.212 31.612 L 289.086 13.885 Z M 95.742 71.48 L 113.348 75.223 L 109.606 92.829 L 91.999 89.087 L 95.742 71.48 Z M 44.561 38.11 L 62.168 41.852 L 58.425 59.459 L 40.819 55.717 L 44.561 38.11 Z M 48.511 19.525 L 66.118 23.268 L 62.376 40.874 L 44.769 37.132 L 48.511 19.525 Z M 60.235 55.754 L 77.842 59.497 L 74.099 77.103 L 56.493 73.361 L 60.235 55.754 Z M 64.186 37.17 L 81.792 40.912 L 78.05 58.519 L 60.443 54.776 L 64.186 37.17 Z M 68.136 18.585 L 85.743 22.327 L 82 39.934 L 64.393 36.191 L 68.136 18.585 Z M 72.086 0 L 89.693 3.742 L 85.95 21.349 L 68.344 17.607 L 72.086 0 Z M 77.573 65.574 L 95.179 69.316 L 91.437 86.923 L 73.83 83.18 L 77.573 65.574 Z M 81.523 46.989 L 99.13 50.731 L 95.387 68.338 L 77.78 64.595 L 81.523 46.989 Z M 85.473 28.404 L 103.08 32.146 L 99.337 49.753 L 81.731 46.011 L 85.473 28.404 Z M 89.423 9.819 L 107.03 13.562 L 103.288 31.168 L 85.681 27.426 L 89.423 9.819 Z M 99.692 52.895 L 117.298 56.638 L 113.556 74.245 L 95.949 70.502 L 99.692 52.895 Z M 103.642 34.311 L 121.249 38.053 L 117.506 55.66 L 99.9 51.917 L 103.642 34.311 Z M 107.592 15.726 L 125.199 19.468 L 121.457 37.075 L 103.85 33.332 L 107.592 15.726 Z M 277.022 60.437 L 294.629 56.695 L 298.371 74.301 L 280.765 78.044 L 277.022 60.437 Z M 273.072 41.852 L 290.679 38.11 L 294.421 55.717 L 276.814 59.459 L 273.072 41.852 Z M 269.122 23.268 L 286.728 19.525 L 290.471 37.132 L 272.864 40.874 L 269.122 23.268 Z M 253.448 40.912 L 271.054 37.17 L 274.797 54.776 L 257.19 58.519 L 253.448 40.912 Z M 249.497 22.327 L 267.104 18.585 L 270.846 36.191 L 253.24 39.934 L 249.497 22.327 Z M 245.547 3.742 L 263.154 0 L 266.896 17.607 L 249.289 21.349 L 245.547 3.742 Z M 40.611 56.695 L 58.217 60.437 L 54.475 78.044 L 36.868 74.301 L 40.611 56.695 Z M 52.462 0.94 L 70.068 4.683 L 66.326 22.289 L 48.719 18.547 L 52.462 0.94 Z M 257.398 59.497 L 275.005 55.754 L 278.747 73.361 L 261.14 77.103 L 257.398 59.497 Z M 240.061 69.316 L 257.667 65.574 L 261.41 83.18 L 243.803 86.923 L 240.061 69.316 Z M 236.11 50.731 L 253.717 46.989 L 257.459 64.595 L 239.853 68.338 L 236.11 50.731 Z M 232.16 32.146 L 249.767 28.404 L 253.509 46.011 L 235.902 49.753 L 232.16 32.146 Z M 228.21 13.562 L 245.816 9.819 L 249.559 27.426 L 231.952 31.168 L 228.21 13.562 Z M 221.892 75.223 L 239.498 71.48 L 243.241 89.087 L 225.634 92.829 L 221.892 75.223 Z M 217.941 56.638 L 235.548 52.895 L 239.29 70.502 L 221.684 74.245 L 217.941 56.638 Z M 213.991 38.053 L 231.598 34.311 L 235.34 51.917 L 217.733 55.66 L 213.991 38.053 Z M 210.041 19.468 L 227.647 15.726 L 231.39 33.332 L 213.783 37.075 L 210.041 19.468 Z M 265.171 4.683 L 282.778 0.94 L 286.52 18.547 L 268.914 22.289 L 265.171 4.683 Z" vector-effect="non-scaling-stroke"/></g></svg>