<svg width="299.879mm" height="160.773mm" viewBox="0 0 299.879 160.773" xmlns="http://www.w3.org/2000/svg"><g id="svgGroup" stroke-linecap="round" fill-rule="evenodd" font-size="9pt" stroke="#000" stroke-width="0.25mm" fill="none" style="stroke:#000;stroke-width:0.25mm;fill:none"><path d="M 128.954 119.836 L 142.942 131.164 L 118.965 160.773 L 104.977 149.445 L 128.954 119.836 Z M 156.936 131.164 L 170.925 119.836 L 194.902 149.445 L 180.913 160.773 L 156.936 131.164 Z M 83.196 1.458 L 100.215 7.318 L 94.355 24.338 L 77.335 18.478 L 83.196 1.458 Z M 86.836 49.247 L 103.855 55.107 L 97.995 72.126 L 80.975 66.266 L 86.836 49.247 Z M 93.021 31.282 L 110.041 37.142 L 104.18 54.162 L 87.161 48.301 L 93.021 31.282 Z M 97.963 75.288 L 114.983 81.149 L 109.123 98.168 L 92.103 92.308 L 97.963 75.288 Z M 104.149 57.324 L 121.169 63.184 L 115.308 80.203 L 98.289 74.343 L 104.149 57.324 Z M 116.521 21.394 L 133.54 27.254 L 127.68 44.274 L 110.661 38.413 L 116.521 21.394 Z M 259.685 64.915 L 276.705 59.055 L 282.565 76.074 L 265.546 81.935 L 259.685 64.915 Z M 237.814 59.755 L 254.833 53.895 L 260.693 70.914 L 243.674 76.774 L 237.814 59.755 Z M 225.442 23.825 L 242.461 17.965 L 248.322 34.984 L 231.302 40.844 L 225.442 23.825 Z M 199.664 7.318 L 216.683 1.458 L 222.543 18.478 L 205.524 24.338 L 199.664 7.318 Z M 202.209 73.072 L 219.229 67.212 L 225.089 84.231 L 208.07 90.091 L 202.209 73.072 Z M 196.024 55.107 L 213.043 49.247 L 218.903 66.266 L 201.884 72.126 L 196.024 55.107 Z M 184.896 81.149 L 201.915 75.288 L 207.775 92.308 L 190.756 98.168 L 184.896 81.149 Z M 178.71 63.184 L 195.729 57.324 L 201.59 74.343 L 184.57 80.203 L 178.71 63.184 Z M 166.338 27.254 L 183.358 21.394 L 189.218 38.413 L 172.199 44.274 L 166.338 27.254 Z M 214.736 91.022 L 231.755 85.161 L 237.615 102.181 L 220.596 108.041 L 214.736 91.022 Z M 35.546 23.125 L 52.565 28.986 L 46.705 46.005 L 29.685 40.145 L 35.546 23.125 Z M 70.824 37.388 L 87.843 43.248 L 81.983 60.267 L 64.964 54.407 L 70.824 37.388 Z M 68.123 85.161 L 85.143 91.022 L 79.283 108.041 L 62.263 102.181 L 68.123 85.161 Z M 253.5 46.95 L 270.519 41.09 L 276.379 58.109 L 259.36 63.97 L 253.5 46.95 Z M 241.128 11.021 L 258.147 5.16 L 264.007 22.18 L 246.988 28.04 L 241.128 11.021 Z M 231.628 41.79 L 248.647 35.93 L 254.507 52.949 L 237.488 58.809 L 231.628 41.79 Z M 219.256 5.86 L 236.276 0 L 242.136 17.019 L 225.116 22.88 L 219.256 5.86 Z M 218.221 61.213 L 235.24 55.353 L 241.101 72.372 L 224.081 78.232 L 218.221 61.213 Z M 212.035 43.248 L 229.054 37.388 L 234.915 54.407 L 217.895 60.267 L 212.035 43.248 Z M 205.849 25.283 L 222.869 19.423 L 228.729 36.442 L 211.71 42.303 L 205.849 25.283 Z M 189.838 37.142 L 206.857 31.282 L 212.717 48.301 L 195.698 54.162 L 189.838 37.142 Z M 183.652 19.177 L 200.671 13.317 L 206.532 30.336 L 189.512 36.197 L 183.652 19.177 Z M 172.524 45.219 L 189.544 39.359 L 195.404 56.378 L 178.384 62.238 L 172.524 45.219 Z M 5.86 50.978 L 22.88 56.838 L 17.019 73.858 L 0 67.997 L 5.86 50.978 Z M 12.046 33.013 L 29.065 38.874 L 23.205 55.893 L 6.186 50.033 L 12.046 33.013 Z M 23.174 59.055 L 40.193 64.915 L 34.333 81.935 L 17.314 76.074 L 23.174 59.055 Z M 29.36 41.09 L 46.379 46.95 L 40.519 63.97 L 23.5 58.109 L 29.36 41.09 Z M 41.731 5.16 L 58.751 11.021 L 52.89 28.04 L 35.871 22.18 L 41.731 5.16 Z M 45.046 53.895 L 62.065 59.755 L 56.205 76.774 L 39.185 70.914 L 45.046 53.895 Z M 51.231 35.93 L 68.251 41.79 L 62.391 58.809 L 45.371 52.949 L 51.231 35.93 Z M 57.417 17.965 L 74.437 23.825 L 68.576 40.844 L 51.557 34.984 L 57.417 17.965 Z M 63.603 0 L 80.622 5.86 L 74.762 22.88 L 57.743 17.019 L 63.603 0 Z M 64.638 55.353 L 81.658 61.213 L 75.797 78.232 L 58.778 72.372 L 64.638 55.353 Z M 80.65 67.212 L 97.669 73.072 L 91.809 90.091 L 74.79 84.231 L 80.65 67.212 Z M 99.207 13.317 L 116.226 19.177 L 110.366 36.197 L 93.347 30.336 L 99.207 13.317 Z M 110.335 39.359 L 127.354 45.219 L 121.494 62.238 L 104.475 56.378 L 110.335 39.359 Z M 276.999 56.838 L 294.018 50.978 L 299.879 67.997 L 282.859 73.858 L 276.999 56.838 Z M 270.813 38.874 L 287.833 33.013 L 293.693 50.033 L 276.673 55.893 L 270.813 38.874 Z M 247.314 28.986 L 264.333 23.125 L 270.193 40.145 L 253.174 46.005 L 247.314 28.986 Z M 77.01 19.423 L 94.029 25.283 L 88.169 42.303 L 71.15 36.442 L 77.01 19.423 Z M 100.121 121.676 L 114.109 133.003 L 102.781 146.992 L 88.793 135.664 L 100.121 121.676 Z M 112.078 106.91 L 126.066 118.238 L 114.738 132.226 L 100.75 120.899 L 112.078 106.91 Z M 124.035 92.144 L 138.023 103.472 L 126.696 117.461 L 112.707 106.133 L 124.035 92.144 Z M 185.769 133.003 L 199.758 121.676 L 211.086 135.664 L 197.097 146.992 L 185.769 133.003 Z M 173.812 118.238 L 187.801 106.91 L 199.129 120.899 L 185.14 132.226 L 173.812 118.238 Z M 161.855 103.472 L 175.844 92.144 L 187.172 106.133 L 173.183 117.461 L 161.855 103.472 Z M 90.405 93.651 L 106.148 102.377 L 97.422 118.121 L 81.679 109.394 L 90.405 93.651 Z M 193.73 102.377 L 209.473 93.651 L 218.2 109.394 L 202.457 118.121 L 193.73 102.377 Z" vector-effect="non-scaling-stroke"/></g></svg>