<svg width="324.343mm" height="155.097mm" viewBox="0 0 324.343 155.097" xmlns="http://www.w3.org/2000/svg"><g id="svgGroup" stroke-linecap="round" fill-rule="evenodd" font-size="9pt" stroke="#000" stroke-width="0.25mm" fill="none" style="stroke:#000;stroke-width:0.25mm;fill:none"><path d="M 143.944 121.366 L 158.689 131.69 L 142.299 155.097 L 127.554 144.773 L 143.944 121.366 Z M 165.654 131.69 L 180.399 121.366 L 196.789 144.773 L 182.044 155.097 L 165.654 131.69 Z M 226.774 97.701 L 250.066 92.75 L 253.809 110.357 L 230.516 115.308 L 226.774 97.701 Z M 74.277 92.75 L 97.569 97.701 L 93.827 115.308 L 70.534 110.357 L 74.277 92.75 Z M 183.822 122.517 L 203.328 108.859 L 213.652 123.603 L 194.146 137.262 L 183.822 122.517 Z M 121.015 108.859 L 140.521 122.517 L 130.197 137.262 L 110.691 123.603 L 121.015 108.859 Z M 101.591 98.724 L 117.904 106.332 L 107.84 127.913 L 91.527 120.306 L 101.591 98.724 Z M 206.439 106.332 L 222.752 98.724 L 232.816 120.306 L 216.503 127.913 L 206.439 106.332 Z M 117.677 84.522 L 138.088 96.786 L 128.818 112.215 L 108.406 99.951 L 117.677 84.522 Z M 186.255 96.786 L 206.666 84.522 L 215.937 99.951 L 195.525 112.215 L 186.255 96.786 Z M 3.126 47.155 L 20.852 50.281 L 17.727 68.007 L 0 64.881 L 3.126 47.155 Z M 6.425 28.444 L 24.152 31.569 L 21.026 49.296 L 3.299 46.17 L 6.425 28.444 Z M 10.827 3.479 L 28.554 6.604 L 25.428 24.331 L 7.701 21.205 L 10.827 3.479 Z M 18.538 69.166 L 36.264 72.291 L 33.139 90.018 L 15.412 86.892 L 18.538 69.166 Z M 21.837 50.454 L 39.564 53.58 L 36.438 71.306 L 18.711 68.181 L 21.837 50.454 Z M 25.136 31.743 L 42.863 34.869 L 39.737 52.595 L 22.011 49.469 L 25.136 31.743 Z M 29.538 6.778 L 47.265 9.904 L 44.139 27.63 L 26.413 24.505 L 29.538 6.778 Z M 295.789 6.604 L 313.516 3.479 L 316.642 21.205 L 298.915 24.331 L 295.789 6.604 Z M 303.491 50.281 L 321.217 47.155 L 324.343 64.881 L 306.616 68.007 L 303.491 50.281 Z M 300.191 31.569 L 317.918 28.444 L 321.044 46.17 L 303.317 49.296 L 300.191 31.569 Z M 288.079 72.291 L 305.805 69.166 L 308.931 86.892 L 291.204 90.018 L 288.079 72.291 Z M 284.779 53.58 L 302.506 50.454 L 305.632 68.181 L 287.905 71.306 L 284.779 53.58 Z M 281.48 34.869 L 299.207 31.743 L 302.332 49.469 L 284.606 52.595 L 281.48 34.869 Z M 277.078 9.904 L 294.805 6.778 L 297.93 24.505 L 280.204 27.63 L 277.078 9.904 Z M 243.237 47.123 L 260.843 43.381 L 264.586 60.988 L 246.979 64.73 L 243.237 47.123 Z M 39.925 62.906 L 57.532 66.648 L 53.789 84.255 L 36.183 80.513 L 39.925 62.906 Z M 43.875 44.321 L 61.482 48.064 L 57.739 65.67 L 40.133 61.928 L 43.875 44.321 Z M 47.826 25.736 L 65.432 29.479 L 61.69 47.086 L 44.083 43.343 L 47.826 25.736 Z M 53.096 0.94 L 70.703 4.683 L 66.96 22.289 L 49.354 18.547 L 53.096 0.94 Z M 59.549 61.966 L 77.156 65.708 L 73.414 83.315 L 55.807 79.572 L 59.549 61.966 Z M 63.5 43.381 L 81.106 47.123 L 77.364 64.73 L 59.757 60.988 L 63.5 43.381 Z M 67.45 24.796 L 85.057 28.538 L 81.314 46.145 L 63.708 42.403 L 67.45 24.796 Z M 72.72 0 L 90.327 3.742 L 86.585 21.349 L 68.978 17.607 L 72.72 0 Z M 76.887 71.785 L 94.493 75.527 L 90.751 93.134 L 73.144 89.392 L 76.887 71.785 Z M 80.837 53.2 L 98.444 56.942 L 94.701 74.549 L 77.095 70.807 L 80.837 53.2 Z M 84.787 34.615 L 102.394 38.358 L 98.652 55.964 L 81.045 52.222 L 84.787 34.615 Z M 95.056 77.691 L 112.662 81.434 L 108.92 99.041 L 91.313 95.298 L 95.056 77.691 Z M 99.006 59.107 L 116.613 62.849 L 112.87 80.456 L 95.264 76.713 L 99.006 59.107 Z M 102.956 40.522 L 120.563 44.264 L 116.82 61.871 L 99.214 58.129 L 102.956 40.522 Z M 266.811 66.648 L 284.418 62.906 L 288.16 80.513 L 270.554 84.255 L 266.811 66.648 Z M 90.058 9.819 L 107.664 13.562 L 103.922 31.168 L 86.315 27.426 L 90.058 9.819 Z M 108.227 15.726 L 125.833 19.468 L 122.091 37.075 L 104.484 33.332 L 108.227 15.726 Z M 253.64 4.683 L 271.247 0.94 L 274.989 18.547 L 257.383 22.289 L 253.64 4.683 Z M 247.187 65.708 L 264.794 61.966 L 268.536 79.572 L 250.929 83.315 L 247.187 65.708 Z M 262.861 48.064 L 280.468 44.321 L 284.21 61.928 L 266.604 65.67 L 262.861 48.064 Z M 258.911 29.479 L 276.517 25.736 L 280.26 43.343 L 262.653 47.086 L 258.911 29.479 Z M 239.286 28.538 L 256.893 24.796 L 260.635 42.403 L 243.029 46.145 L 239.286 28.538 Z M 234.016 3.742 L 251.623 0 L 255.365 17.607 L 237.758 21.349 L 234.016 3.742 Z M 229.85 75.527 L 247.456 71.785 L 251.199 89.392 L 233.592 93.134 L 229.85 75.527 Z M 225.899 56.942 L 243.506 53.2 L 247.248 70.807 L 229.642 74.549 L 225.899 56.942 Z M 221.949 38.358 L 239.556 34.615 L 243.298 52.222 L 225.691 55.964 L 221.949 38.358 Z M 216.679 13.562 L 234.285 9.819 L 238.028 27.426 L 220.421 31.168 L 216.679 13.562 Z M 211.681 81.434 L 229.287 77.691 L 233.03 95.298 L 215.423 99.041 L 211.681 81.434 Z M 207.73 62.849 L 225.337 59.107 L 229.079 76.713 L 211.473 80.456 L 207.73 62.849 Z M 203.78 44.264 L 221.387 40.522 L 225.129 58.129 L 207.523 61.871 L 203.78 44.264 Z M 198.51 19.468 L 216.116 15.726 L 219.859 33.332 L 202.252 37.075 L 198.51 19.468 Z" vector-effect="non-scaling-stroke"/></g></svg>