<svg width="347.092mm" height="150.181mm" viewBox="0 0 347.092 150.181" xmlns="http://www.w3.org/2000/svg"><g id="svgGroup" stroke-linecap="round" fill-rule="evenodd" font-size="9pt" stroke="#000" stroke-width="0.25mm" fill="none" style="stroke:#000;stroke-width:0.25mm;fill:none"><path d="M 208.948 108.655 L 241.557 101.724 L 245.299 119.33 L 212.69 126.262 L 208.948 108.655 Z M 105.535 101.724 L 138.144 108.655 L 134.402 126.262 L 101.793 119.33 L 105.535 101.724 Z M 164.34 106.853 L 168.666 120.168 L 144.652 127.97 L 140.326 114.656 L 164.34 106.853 Z M 178.426 120.168 L 182.752 106.853 L 206.766 114.656 L 202.44 127.97 L 178.426 120.168 Z M 143.347 78.828 L 155.821 85.184 L 144.358 107.682 L 131.884 101.326 L 143.347 78.828 Z M 191.271 85.184 L 203.745 78.828 L 215.208 101.326 L 202.734 107.682 L 191.271 85.184 Z M 5.346 23.002 L 19.293 21.782 L 21.494 46.936 L 7.547 48.156 L 5.346 23.002 Z M 327.799 21.782 L 341.746 23.002 L 339.545 48.156 L 325.598 46.936 L 327.799 21.782 Z M 274.305 3.851 L 287.999 0.94 L 293.248 25.639 L 279.554 28.549 L 274.305 3.851 Z M 78.718 0 L 92.412 2.911 L 87.162 27.609 L 73.468 24.698 L 78.718 0 Z M 96.055 9.819 L 109.749 12.73 L 104.499 37.428 L 90.805 34.517 L 96.055 9.819 Z M 114.224 15.726 L 127.918 18.637 L 122.668 43.335 L 108.974 40.424 L 114.224 15.726 Z M 73.555 111.283 L 76.466 97.589 L 101.164 102.839 L 98.253 116.533 L 73.555 111.283 Z M 119.04 75.074 L 132.734 77.985 L 127.484 102.683 L 113.79 99.772 L 119.04 75.074 Z M 237.343 12.73 L 251.037 9.819 L 256.287 34.517 L 242.593 37.428 L 237.343 12.73 Z M 219.174 18.637 L 232.868 15.726 L 238.118 40.424 L 224.424 43.335 L 219.174 18.637 Z M 214.358 77.985 L 228.052 75.074 L 233.302 99.772 L 219.608 102.683 L 214.358 77.985 Z M 59.093 0.94 L 72.787 3.851 L 67.538 28.549 L 53.844 25.639 L 59.093 0.94 Z M 254.68 2.911 L 268.374 0 L 273.624 24.698 L 259.93 27.609 L 254.68 2.911 Z M 270.626 97.589 L 273.537 111.283 L 248.838 116.533 L 245.928 102.839 L 270.626 97.589 Z M 35.428 6.686 L 49.215 9.117 L 44.831 33.983 L 31.043 31.552 L 35.428 6.686 Z M 297.877 9.117 L 311.664 6.686 L 316.049 31.552 L 302.261 33.983 L 297.877 9.117 Z M 3.126 68.948 L 20.852 72.073 L 17.727 89.8 L 0 86.674 L 3.126 68.948 Z M 6.425 50.236 L 24.152 53.362 L 21.026 71.088 L 3.299 67.963 L 6.425 50.236 Z M 25.145 53.486 L 42.872 56.612 L 39.746 74.339 L 22.019 71.213 L 25.145 53.486 Z M 21.846 72.198 L 39.572 75.323 L 36.447 93.05 L 18.72 89.924 L 21.846 72.198 Z M 28.444 34.775 L 46.171 37.901 L 43.045 55.627 L 25.319 52.502 L 28.444 34.775 Z M 326.24 72.073 L 343.966 68.948 L 347.092 86.674 L 329.365 89.8 L 326.24 72.073 Z M 322.94 53.362 L 340.667 50.236 L 343.793 67.963 L 326.066 71.088 L 322.94 53.362 Z M 307.52 75.323 L 325.246 72.198 L 328.372 89.924 L 310.645 93.05 L 307.52 75.323 Z M 304.22 56.612 L 321.947 53.486 L 325.073 71.213 L 307.346 74.339 L 304.22 56.612 Z M 300.921 37.901 L 318.648 34.775 L 321.773 52.502 L 304.047 55.627 L 300.921 37.901 Z M 137.529 124.973 L 151.904 135.806 L 141.072 150.181 L 126.696 139.349 L 137.529 124.973 Z M 195.188 135.806 L 209.563 124.973 L 220.396 139.349 L 206.02 150.181 L 195.188 135.806 Z M 88.095 37.647 L 105.702 41.39 L 101.96 58.996 L 84.353 55.254 L 88.095 37.647 Z M 106.264 43.554 L 123.871 47.296 L 120.128 64.903 L 102.522 61.161 L 106.264 43.554 Z M 245.34 59.975 L 262.947 56.232 L 266.689 73.839 L 249.083 77.581 L 245.34 59.975 Z M 47.183 47.353 L 64.79 51.096 L 61.047 68.702 L 43.441 64.96 L 47.183 47.353 Z M 62.857 64.998 L 80.464 68.74 L 76.722 86.347 L 59.115 82.604 L 62.857 64.998 Z M 70.758 27.828 L 88.365 31.571 L 84.622 49.177 L 67.016 45.435 L 70.758 27.828 Z M 80.195 74.817 L 97.801 78.559 L 94.059 96.166 L 76.452 92.424 L 80.195 74.817 Z M 84.145 56.232 L 101.752 59.975 L 98.009 77.581 L 80.403 73.839 L 84.145 56.232 Z M 98.364 80.724 L 115.97 84.466 L 112.228 102.073 L 94.621 98.33 L 98.364 80.724 Z M 102.314 62.139 L 119.921 65.881 L 116.178 83.488 L 98.572 79.745 L 102.314 62.139 Z M 286.252 69.681 L 303.859 65.938 L 307.601 83.545 L 289.995 87.287 L 286.252 69.681 Z M 282.302 51.096 L 299.909 47.353 L 303.651 64.96 L 286.044 68.702 L 282.302 51.096 Z M 266.628 68.74 L 284.235 64.998 L 287.977 82.604 L 270.37 86.347 L 266.628 68.74 Z M 258.727 31.571 L 276.334 27.828 L 280.076 45.435 L 262.47 49.177 L 258.727 31.571 Z M 66.808 46.413 L 84.414 50.155 L 80.672 67.762 L 63.065 64.02 L 66.808 46.413 Z M 278.352 32.511 L 295.958 28.769 L 299.701 46.375 L 282.094 50.118 L 278.352 32.511 Z M 249.291 78.559 L 266.897 74.817 L 270.64 92.424 L 253.033 96.166 L 249.291 78.559 Z M 43.233 65.938 L 60.84 69.681 L 57.097 87.287 L 39.491 83.545 L 43.233 65.938 Z M 51.134 28.769 L 68.74 32.511 L 64.998 50.118 L 47.391 46.375 L 51.134 28.769 Z M 241.39 41.39 L 258.997 37.647 L 262.739 55.254 L 245.132 58.996 L 241.39 41.39 Z M 231.122 84.466 L 248.728 80.724 L 252.471 98.33 L 234.864 102.073 L 231.122 84.466 Z M 227.171 65.881 L 244.778 62.139 L 248.52 79.745 L 230.914 83.488 L 227.171 65.881 Z M 223.221 47.296 L 240.828 43.554 L 244.57 61.161 L 226.963 64.903 L 223.221 47.296 Z M 262.678 50.155 L 280.284 46.413 L 284.027 64.02 L 266.42 67.762 L 262.678 50.155 Z" vector-effect="non-scaling-stroke"/></g></svg>