<svg width="316.426mm" height="150.366mm" viewBox="0 0 316.426 150.366" xmlns="http://www.w3.org/2000/svg"><g id="svgGroup" stroke-linecap="round" fill-rule="evenodd" font-size="9pt" stroke="#000" stroke-width="0.25mm" fill="none" style="stroke:#000;stroke-width:0.25mm;fill:none"><path d="M 164.298 118.055 L 179.563 108.517 L 199.753 140.827 L 184.488 150.366 L 164.298 118.055 Z M 136.863 108.517 L 152.128 118.055 L 131.938 150.366 L 116.673 140.827 L 136.863 108.517 Z M 3.126 44.834 L 20.852 47.959 L 17.727 65.686 L 0 62.56 L 3.126 44.834 Z M 6.425 26.122 L 24.152 29.248 L 21.026 46.975 L 3.299 43.849 L 6.425 26.122 Z M 18.529 66.894 L 36.256 70.019 L 33.13 87.746 L 15.403 84.62 L 18.529 66.894 Z M 21.828 48.182 L 39.555 51.308 L 36.429 69.034 L 18.703 65.909 L 21.828 48.182 Z M 25.128 29.471 L 42.854 32.597 L 39.729 50.323 L 22.002 47.197 L 25.128 29.471 Z M 28.427 10.76 L 46.154 13.885 L 43.028 31.612 L 25.301 28.486 L 28.427 10.76 Z M 295.574 47.959 L 313.3 44.834 L 316.426 62.56 L 298.699 65.686 L 295.574 47.959 Z M 292.274 29.248 L 310.001 26.122 L 313.127 43.849 L 295.4 46.975 L 292.274 29.248 Z M 280.17 70.019 L 297.897 66.894 L 301.023 84.62 L 283.296 87.746 L 280.17 70.019 Z M 276.871 51.308 L 294.598 48.182 L 297.723 65.909 L 279.997 69.034 L 276.871 51.308 Z M 273.572 32.597 L 291.298 29.471 L 294.424 47.197 L 276.697 50.323 L 273.572 32.597 Z M 270.272 13.885 L 287.999 10.76 L 291.125 28.486 L 273.398 31.612 L 270.272 13.885 Z M 206.102 98.387 L 222.792 91.644 L 229.535 108.333 L 212.845 115.076 L 206.102 98.387 Z M 93.634 91.644 L 110.324 98.387 L 103.581 115.076 L 86.891 108.333 L 93.634 91.644 Z M 95.742 71.48 L 113.348 75.223 L 109.606 92.829 L 91.999 89.087 L 95.742 71.48 Z M 44.561 38.11 L 62.168 41.852 L 58.425 59.459 L 40.819 55.717 L 44.561 38.11 Z M 48.511 19.525 L 66.118 23.268 L 62.376 40.874 L 44.769 37.132 L 48.511 19.525 Z M 60.235 55.754 L 77.842 59.497 L 74.099 77.103 L 56.493 73.361 L 60.235 55.754 Z M 64.186 37.17 L 81.792 40.912 L 78.05 58.519 L 60.443 54.776 L 64.186 37.17 Z M 68.136 18.585 L 85.743 22.327 L 82 39.934 L 64.393 36.191 L 68.136 18.585 Z M 72.086 0 L 89.693 3.742 L 85.95 21.349 L 68.344 17.607 L 72.086 0 Z M 77.573 65.574 L 95.179 69.316 L 91.437 86.923 L 73.83 83.18 L 77.573 65.574 Z M 81.523 46.989 L 99.13 50.731 L 95.387 68.338 L 77.78 64.595 L 81.523 46.989 Z M 85.473 28.404 L 103.08 32.146 L 99.337 49.753 L 81.731 46.011 L 85.473 28.404 Z M 89.423 9.819 L 107.03 13.562 L 103.288 31.168 L 85.681 27.426 L 89.423 9.819 Z M 99.692 52.895 L 117.298 56.638 L 113.556 74.245 L 95.949 70.502 L 99.692 52.895 Z M 103.642 34.311 L 121.249 38.053 L 117.506 55.66 L 99.9 51.917 L 103.642 34.311 Z M 107.592 15.726 L 125.199 19.468 L 121.457 37.075 L 103.85 33.332 L 107.592 15.726 Z M 67.317 84.965 L 84.923 88.707 L 81.181 106.314 L 63.574 102.572 L 67.317 84.965 Z M 246.357 4.683 L 263.964 0.94 L 267.707 18.547 L 250.1 22.289 L 246.357 4.683 Z M 40.611 56.695 L 58.217 60.437 L 54.475 78.044 L 36.868 74.301 L 40.611 56.695 Z M 52.462 0.94 L 70.068 4.683 L 66.326 22.289 L 48.719 18.547 L 52.462 0.94 Z M 258.208 60.437 L 275.815 56.695 L 279.557 74.301 L 261.951 78.044 L 258.208 60.437 Z M 254.258 41.852 L 271.865 38.11 L 275.607 55.717 L 258 59.459 L 254.258 41.852 Z M 250.308 23.268 L 267.914 19.525 L 271.657 37.132 L 254.05 40.874 L 250.308 23.268 Z M 238.584 59.497 L 256.191 55.754 L 259.933 73.361 L 242.326 77.103 L 238.584 59.497 Z M 234.634 40.912 L 252.24 37.17 L 255.983 54.776 L 238.376 58.519 L 234.634 40.912 Z M 230.683 22.327 L 248.29 18.585 L 252.032 36.191 L 234.426 39.934 L 230.683 22.327 Z M 226.733 3.742 L 244.34 0 L 248.082 17.607 L 230.475 21.349 L 226.733 3.742 Z M 221.247 69.316 L 238.853 65.574 L 242.596 83.18 L 224.989 86.923 L 221.247 69.316 Z M 217.296 50.731 L 234.903 46.989 L 238.645 64.595 L 221.039 68.338 L 217.296 50.731 Z M 213.346 32.146 L 230.953 28.404 L 234.695 46.011 L 217.088 49.753 L 213.346 32.146 Z M 209.396 13.562 L 227.002 9.819 L 230.745 27.426 L 213.138 31.168 L 209.396 13.562 Z M 203.078 75.223 L 220.684 71.48 L 224.427 89.087 L 206.82 92.829 L 203.078 75.223 Z M 199.127 56.638 L 216.734 52.895 L 220.476 70.502 L 202.87 74.245 L 199.127 56.638 Z M 195.177 38.053 L 212.784 34.311 L 216.526 51.917 L 198.919 55.66 L 195.177 38.053 Z M 191.227 19.468 L 208.833 15.726 L 212.576 33.332 L 194.969 37.075 L 191.227 19.468 Z M 231.503 88.707 L 249.109 84.965 L 252.852 102.572 L 235.245 106.314 L 231.503 88.707 Z M 182.597 107.24 L 197.862 97.701 L 207.401 112.966 L 192.136 122.504 L 182.597 107.24 Z M 192.666 123.352 L 207.931 113.814 L 217.469 129.079 L 202.204 138.617 L 192.666 123.352 Z M 108.495 113.814 L 123.76 123.352 L 114.222 138.617 L 98.957 129.079 L 108.495 113.814 Z M 118.564 97.701 L 133.829 107.24 L 124.29 122.504 L 109.025 112.966 L 118.564 97.701 Z" vector-effect="non-scaling-stroke"/></g></svg>