<svg width="318.224mm" height="131.596mm" viewBox="0 0 318.224 131.596" xmlns="http://www.w3.org/2000/svg"><g id="svgGroup" stroke-linecap="round" fill-rule="evenodd" font-size="9pt" stroke="#000" stroke-width="0.25mm" fill="none" style="stroke:#000;stroke-width:0.25mm;fill:none"><path d="M 103.318 101.189 L 127.551 116.331 L 118.013 131.596 L 93.78 116.454 L 103.318 101.189 Z M 190.673 116.331 L 214.906 101.189 L 224.444 116.454 L 200.211 131.596 L 190.673 116.331 Z M 267.039 9.88 L 284.766 6.755 L 289.15 31.621 L 271.424 34.747 L 267.039 9.88 Z M 33.458 6.755 L 51.185 9.88 L 46.8 34.747 L 29.074 31.621 L 33.458 6.755 Z M 243.48 4.683 L 261.087 0.94 L 266.337 25.639 L 248.73 29.381 L 243.48 4.683 Z M 76.761 0 L 94.368 3.742 L 89.118 28.441 L 71.512 24.698 L 76.761 0 Z M 223.856 3.742 L 241.463 0 L 246.712 24.698 L 229.106 28.441 L 223.856 3.742 Z M 57.137 0.94 L 74.744 4.683 L 69.494 29.381 L 51.887 25.639 L 57.137 0.94 Z M 94.099 9.819 L 111.705 13.562 L 106.456 38.26 L 88.849 34.517 L 94.099 9.819 Z M 112.268 15.726 L 129.874 19.468 L 124.625 44.166 L 107.018 40.424 L 112.268 15.726 Z M 206.519 13.562 L 224.125 9.819 L 229.375 34.517 L 211.768 38.26 L 206.519 13.562 Z M 188.35 19.468 L 205.956 15.726 L 211.206 40.424 L 193.599 44.166 L 188.35 19.468 Z M 296.939 22.023 L 314.87 23.592 L 312.67 48.746 L 294.738 47.177 L 296.939 22.023 Z M 3.354 23.592 L 21.285 22.023 L 23.486 47.177 L 5.554 48.746 L 3.354 23.592 Z M 222.005 100.159 L 245.298 95.208 L 249.04 112.815 L 225.748 117.766 L 222.005 100.159 Z M 72.926 95.208 L 96.219 100.159 L 92.476 117.766 L 69.184 112.815 L 72.926 95.208 Z M 118.056 80.701 L 131.75 83.612 L 126.501 108.31 L 112.806 105.399 L 118.056 80.701 Z M 186.474 83.612 L 200.168 80.701 L 205.418 105.399 L 191.723 108.31 L 186.474 83.612 Z M 151.28 106.292 L 153.711 120.079 L 128.844 124.464 L 126.413 110.676 L 151.28 106.292 Z M 164.513 120.079 L 166.944 106.292 L 191.811 110.676 L 189.38 124.464 L 164.513 120.079 Z M 3.126 69.363 L 20.852 72.489 L 17.727 90.216 L 0 87.09 L 3.126 69.363 Z M 6.425 50.652 L 24.152 53.778 L 21.026 71.504 L 3.299 68.379 L 6.425 50.652 Z M 25.145 53.902 L 42.872 57.028 L 39.746 74.754 L 22.019 71.629 L 25.145 53.902 Z M 21.846 72.614 L 39.572 75.739 L 36.447 93.466 L 18.72 90.34 L 21.846 72.614 Z M 28.444 35.191 L 46.171 38.316 L 43.045 56.043 L 25.319 52.917 L 28.444 35.191 Z M 297.372 72.489 L 315.098 69.363 L 318.224 87.09 L 300.497 90.216 L 297.372 72.489 Z M 294.072 53.778 L 311.799 50.652 L 314.925 68.379 L 297.198 71.504 L 294.072 53.778 Z M 278.652 75.739 L 296.378 72.614 L 299.504 90.34 L 281.777 93.466 L 278.652 75.739 Z M 275.352 57.028 L 293.079 53.902 L 296.205 71.629 L 278.478 74.754 L 275.352 57.028 Z M 272.053 38.316 L 289.78 35.191 L 292.905 52.917 L 275.179 56.043 L 272.053 38.316 Z M 88.095 38.063 L 105.702 41.806 L 101.96 59.412 L 84.353 55.67 L 88.095 38.063 Z M 106.264 43.97 L 123.871 47.712 L 120.128 65.319 L 102.522 61.576 L 106.264 43.97 Z M 47.183 47.769 L 64.79 51.512 L 61.047 69.118 L 43.441 65.376 L 47.183 47.769 Z M 62.857 65.414 L 80.464 69.156 L 76.722 86.763 L 59.115 83.02 L 62.857 65.414 Z M 70.758 28.244 L 88.365 31.986 L 84.622 49.593 L 67.016 45.851 L 70.758 28.244 Z M 80.195 75.233 L 97.801 78.975 L 94.059 96.582 L 76.452 92.839 L 80.195 75.233 Z M 84.145 56.648 L 101.752 60.39 L 98.009 77.997 L 80.403 74.255 L 84.145 56.648 Z M 98.364 81.139 L 115.97 84.882 L 112.228 102.489 L 94.621 98.746 L 98.364 81.139 Z M 102.314 62.555 L 119.921 66.297 L 116.178 83.904 L 98.572 80.161 L 102.314 62.555 Z M 257.384 70.096 L 274.991 66.354 L 278.733 83.961 L 261.127 87.703 L 257.384 70.096 Z M 253.434 51.512 L 271.041 47.769 L 274.783 65.376 L 257.177 69.118 L 253.434 51.512 Z M 66.808 46.829 L 84.414 50.571 L 80.672 68.178 L 63.065 64.435 L 66.808 46.829 Z M 229.859 31.986 L 247.466 28.244 L 251.208 45.851 L 233.602 49.593 L 229.859 31.986 Z M 43.233 66.354 L 60.84 70.096 L 57.097 87.703 L 39.491 83.961 L 43.233 66.354 Z M 51.134 29.184 L 68.74 32.927 L 64.998 50.533 L 47.391 46.791 L 51.134 29.184 Z M 249.484 32.927 L 267.09 29.184 L 270.833 46.791 L 253.226 50.533 L 249.484 32.927 Z M 237.76 69.156 L 255.367 65.414 L 259.109 83.02 L 241.502 86.763 L 237.76 69.156 Z M 233.81 50.571 L 251.416 46.829 L 255.159 64.435 L 237.552 68.178 L 233.81 50.571 Z M 220.423 78.975 L 238.029 75.233 L 241.772 92.839 L 224.165 96.582 L 220.423 78.975 Z M 216.472 60.39 L 234.079 56.648 L 237.821 74.255 L 220.215 77.997 L 216.472 60.39 Z M 212.522 41.806 L 230.129 38.063 L 233.871 55.67 L 216.264 59.412 L 212.522 41.806 Z M 202.254 84.882 L 219.86 81.139 L 223.603 98.746 L 205.996 102.489 L 202.254 84.882 Z M 198.303 66.297 L 215.91 62.555 L 219.652 80.161 L 202.046 83.904 L 198.303 66.297 Z M 194.353 47.712 L 211.96 43.97 L 215.702 61.576 L 198.096 65.319 L 194.353 47.712 Z" vector-effect="non-scaling-stroke"/></g></svg>