0
SECTION
2
HEADER
9
$INSUNITS
70
4
0
ENDSEC
0
SECTION
2
TABLES
0
TABLE
2
LTYPE
0
LTYPE
72
65
70
64
2
CONTINUOUS
3
______
73
0
40
0
0
ENDTAB
0
TABLE
2
LAYER
0
ENDTAB
0
ENDSEC
0
SECTION
2
ENTITIES
0
LINE
8
0
10
-4.0011208
20
29.1374507
11
13.7254188
21
26.0117835
0
LINE
8
0
10
13.7254188
20
26.0117835
11
10.5997516
21
8.2852439
0
LINE
8
0
10
10.5997516
20
8.2852439
11
-7.126788
21
11.4109111
0
LINE
8
0
10
-7.126788
20
11.4109111
11
-4.0011208
21
29.1374507
0
LINE
8
0
10
-0.7018054
20
47.848798
11
17.0247342
21
44.7231308
0
LINE
8
0
10
17.0247342
20
44.7231308
11
13.899067
21
26.9965912
0
LINE
8
0
10
13.899067
20
26.9965912
11
-3.8274726
21
30.1222584
0
LINE
8
0
10
-3.8274726
20
30.1222584
11
-0.7018054
21
47.848798
0
LINE
8
0
10
-1.7806038
20
75.0829577
11
12.1661219
21
76.3031381
0
LINE
8
0
10
12.1661219
20
76.3031381
11
14.3668044
21
51.1492219
0
LINE
8
0
10
14.3668044
20
51.1492219
11
0.4200787
21
49.9290415
0
LINE
8
0
10
0.4200787
20
49.9290415
11
-1.7806038
21
75.0829577
0
LINE
8
0
10
14.7189089
20
25.8873757
11
32.4454485
21
22.7617085
0
LINE
8
0
10
32.4454485
20
22.7617085
11
29.3197813
21
5.0351689
0
LINE
8
0
10
29.3197813
20
5.0351689
11
11.5932417
21
8.1608361
0
LINE
8
0
10
11.5932417
20
8.1608361
11
14.7189089
21
25.8873757
0
LINE
8
0
10
18.0182243
20
44.598723
11
35.7447639
21
41.4730558
0
LINE
8
0
10
35.7447639
20
41.4730558
11
32.6190967
21
23.7465162
0
LINE
8
0
10
32.6190967
20
23.7465162
11
14.8925571
21
26.8721834
0
LINE
8
0
10
14.8925571
20
26.8721834
11
18.0182243
21
44.598723
0
LINE
8
0
10
21.3175396
20
63.3100703
11
39.0440792
21
60.1844031
0
LINE
8
0
10
39.0440792
20
60.1844031
11
35.918412
21
42.4578635
0
LINE
8
0
10
35.918412
20
42.4578635
11
18.1918724
21
45.5835307
0
LINE
8
0
10
18.1918724
20
45.5835307
11
21.3175396
21
63.3100703
0
LINE
8
0
10
28.3012463
20
91.3990978
11
42.0885548
21
88.9680233
0
LINE
8
0
10
42.0885548
20
88.9680233
11
37.7039383
21
64.1016276
0
LINE
8
0
10
37.7039383
20
64.1016276
11
23.9166298
21
66.5327021
0
LINE
8
0
10
23.9166298
20
66.5327021
11
28.3012463
21
91.3990978
0
LINE
8
0
10
36.1061359
20
32.1468631
11
53.7127927
21
28.4044527
0
LINE
8
0
10
53.7127927
20
28.4044527
11
49.9703823
21
10.7977959
0
LINE
8
0
10
49.9703823
20
10.7977959
11
32.3637255
21
14.5402063
0
LINE
8
0
10
32.3637255
20
14.5402063
11
36.1061359
21
32.1468631
0
LINE
8
0
10
40.056458
20
50.7316675
11
57.6631148
21
46.9892571
0
LINE
8
0
10
57.6631148
20
46.9892571
11
53.9207044
21
29.3826003
0
LINE
8
0
10
53.9207044
20
29.3826003
11
36.3140476
21
33.1250107
0
LINE
8
0
10
36.3140476
20
33.1250107
11
40.056458
21
50.7316675
0
LINE
8
0
10
44.0067801
20
69.3164719
11
61.6134369
21
65.5740615
0
LINE
8
0
10
61.6134369
20
65.5740615
11
57.8710265
21
47.9674047
0
LINE
8
0
10
57.8710265
20
47.9674047
11
40.2643697
21
51.7098151
0
LINE
8
0
10
40.2643697
20
51.7098151
11
44.0067801
21
69.3164719
0
LINE
8
0
10
51.9665254
20
97.1446605
11
65.6605918
21
94.2338968
0
LINE
8
0
10
65.6605918
20
94.2338968
11
60.4108216
21
69.5356699
0
LINE
8
0
10
60.4108216
20
69.5356699
11
46.7167552
21
72.4464336
0
LINE
8
0
10
46.7167552
20
72.4464336
11
51.9665254
21
97.1446605
0
LINE
8
0
10
55.7304988
20
33.0872789
11
73.3371556
21
29.3448685
0
LINE
8
0
10
73.3371556
20
29.3448685
11
69.5947452
21
11.7382117
0
LINE
8
0
10
69.5947452
20
11.7382117
11
51.9880884
21
15.4806221
0
LINE
8
0
10
51.9880884
20
15.4806221
11
55.7304988
21
33.0872789
0
LINE
8
0
10
59.6808209
20
51.6720833
11
77.2874777
21
47.9296729
0
LINE
8
0
10
77.2874777
20
47.9296729
11
73.5450673
21
30.3230161
0
LINE
8
0
10
73.5450673
20
30.3230161
11
55.9384105
21
34.0654265
0
LINE
8
0
10
55.9384105
20
34.0654265
11
59.6808209
21
51.6720833
0
LINE
8
0
10
63.631143
20
70.2568878
11
81.2377998
21
66.5144774
0
LINE
8
0
10
81.2377998
20
66.5144774
11
77.4953894
21
48.9078206
0
LINE
8
0
10
77.4953894
20
48.9078206
11
59.8887326
21
52.650231
0
LINE
8
0
10
59.8887326
20
52.650231
11
63.631143
21
70.2568878
0
LINE
8
0
10
71.5908883
20
98.0850764
11
85.2849547
21
95.1743127
0
LINE
8
0
10
85.2849547
20
95.1743127
11
80.0351845
21
70.4760858
0
LINE
8
0
10
80.0351845
20
70.4760858
11
66.3411181
21
73.3868495
0
LINE
8
0
10
66.3411181
20
73.3868495
11
71.5908883
21
98.0850764
0
LINE
8
0
10
73.0678331
20
23.2680712
11
90.6744899
21
19.5256608
0
LINE
8
0
10
90.6744899
20
19.5256608
11
86.9320795
21
1.919004
0
LINE
8
0
10
86.9320795
20
1.919004
11
69.3254227
21
5.6614144
0
LINE
8
0
10
69.3254227
20
5.6614144
11
73.0678331
21
23.2680712
0
LINE
8
0
10
77.0181551
20
41.8528756
11
94.6248119
21
38.1104652
0
LINE
8
0
10
94.6248119
20
38.1104652
11
90.8824015
21
20.5038084
0
LINE
8
0
10
90.8824015
20
20.5038084
11
73.2757447
21
24.2462188
0
LINE
8
0
10
73.2757447
20
24.2462188
11
77.0181551
21
41.8528756
0
LINE
8
0
10
80.9684772
20
60.43768
11
98.575134
21
56.6952696
0
LINE
8
0
10
98.575134
20
56.6952696
11
94.8327236
21
39.0886128
0
LINE
8
0
10
94.8327236
20
39.0886128
11
77.2260668
21
42.8310232
0
LINE
8
0
10
77.2260668
20
42.8310232
11
80.9684772
21
60.43768
0
LINE
8
0
10
88.9282225
20
88.2658687
11
102.6222889
21
85.355105
0
LINE
8
0
10
102.6222889
20
85.355105
11
97.3725187
21
60.6568781
0
LINE
8
0
10
97.3725187
20
60.6568781
11
83.6784523
21
63.5676418
0
LINE
8
0
10
83.6784523
20
63.5676418
11
88.9282225
21
88.2658687
0
LINE
8
0
10
91.2368141
20
17.3614539
11
108.8434709
21
13.6190435
0
LINE
8
0
10
108.8434709
20
13.6190435
11
105.1010605
21
-3.9876133
0
LINE
8
0
10
105.1010605
20
-3.9876133
11
87.4944037
21
-0.2452029
0
LINE
8
0
10
87.4944037
20
-0.2452029
11
91.2368141
21
17.3614539
0
LINE
8
0
10
95.1871361
20
35.9462583
11
112.7937929
21
32.2038479
0
LINE
8
0
10
112.7937929
20
32.2038479
11
109.0513825
21
14.5971911
0
LINE
8
0
10
109.0513825
20
14.5971911
11
91.4447257
21
18.3396015
0
LINE
8
0
10
91.4447257
20
18.3396015
11
95.1871361
21
35.9462583
0
LINE
8
0
10
99.1374582
20
54.5310627
11
116.744115
21
50.7886523
0
LINE
8
0
10
116.744115
20
50.7886523
11
113.0017046
21
33.1819955
0
LINE
8
0
10
113.0017046
20
33.1819955
11
95.3950478
21
36.9244059
0
LINE
8
0
10
95.3950478
20
36.9244059
11
99.1374582
21
54.5310627
0
LINE
8
0
10
107.0972035
20
82.3592513
11
120.7912699
21
79.4484876
0
LINE
8
0
10
120.7912699
20
79.4484876
11
115.5414997
21
54.7502607
0
LINE
8
0
10
115.5414997
20
54.7502607
11
101.8474333
21
57.6610244
0
LINE
8
0
10
101.8474333
20
57.6610244
11
107.0972035
21
82.3592513
0
LINE
8
0
10
66.4284404
20
-13.1984013
11
69.3392041
21
0.4956651
0
LINE
8
0
10
69.3392041
20
0.4956651
11
94.037431
21
-4.7541051
0
LINE
8
0
10
94.037431
20
-4.7541051
11
91.1266673
21
-18.4481715
0
LINE
8
0
10
91.1266673
20
-18.4481715
11
66.4284404
21
-13.1984013
0
LINE
8
0
10
98.4086387
20
-3.6385528
11
131.0176343
21
-10.5698088
0
LINE
8
0
10
131.0176343
20
-10.5698088
11
127.2752239
21
-28.1764656
0
LINE
8
0
10
127.2752239
20
-28.1764656
11
94.6662283
21
-21.2452096
0
LINE
8
0
10
94.6662283
20
-21.2452096
11
98.4086387
21
-3.6385528
0
LINE
8
0
10
111.9132582
20
23.0110364
11
125.6073246
21
20.1002727
0
LINE
8
0
10
125.6073246
20
20.1002727
11
120.3575544
21
-4.5979542
0
LINE
8
0
10
120.3575544
20
-4.5979542
11
106.663488
21
-1.6871905
0
LINE
8
0
10
106.663488
20
-1.6871905
11
111.9132582
21
23.0110364
0
LINE
8
0
10
136.2199977
20
19.2568909
11
148.694089
21
12.9010239
0
LINE
8
0
10
148.694089
20
12.9010239
11
137.2308289
21
-9.5968909
0
LINE
8
0
10
137.2308289
20
-9.5968909
11
124.7567376
21
-3.2410239
0
LINE
8
0
10
124.7567376
20
-3.2410239
11
136.2199977
21
19.2568909
0
LINE
8
0
10
130.401969
20
-26.8880634
11
144.7774082
21
-37.7207338
0
LINE
8
0
10
144.7774082
20
-37.7207338
11
133.9447378
21
-52.096173
0
LINE
8
0
10
133.9447378
20
-52.096173
11
119.5692986
21
-41.2635026
0
LINE
8
0
10
119.5692986
20
-41.2635026
11
130.401969
21
-26.8880634
0
LINE
8
0
10
157.2131523
20
-8.7678364
11
161.5393902
21
-22.0826277
0
LINE
8
0
10
161.5393902
20
-22.0826277
11
137.5252131
21
-29.8853068
0
LINE
8
0
10
137.5252131
20
-29.8853068
11
133.1989752
21
-16.5705155
0
LINE
8
0
10
133.1989752
20
-16.5705155
11
157.2131523
21
-8.7678364
0
LINE
8
0
10
319.1129466
20
26.0117835
11
336.8394862
21
29.1374507
0
LINE
8
0
10
336.8394862
20
29.1374507
11
339.9651534
21
11.4109111
0
LINE
8
0
10
339.9651534
20
11.4109111
11
322.2386138
21
8.2852439
0
LINE
8
0
10
322.2386138
20
8.2852439
11
319.1129466
21
26.0117835
0
LINE
8
0
10
315.8136312
20
44.7231308
11
333.5401708
21
47.848798
0
LINE
8
0
10
333.5401708
20
47.848798
11
336.665838
21
30.1222584
0
LINE
8
0
10
336.665838
20
30.1222584
11
318.9392984
21
26.9965912
0
LINE
8
0
10
318.9392984
20
26.9965912
11
315.8136312
21
44.7231308
0
LINE
8
0
10
320.6722435
20
76.3031381
11
334.6189692
21
75.0829577
0
LINE
8
0
10
334.6189692
20
75.0829577
11
332.4182867
21
49.9290415
0
LINE
8
0
10
332.4182867
20
49.9290415
11
318.471561
21
51.1492219
0
LINE
8
0
10
318.471561
20
51.1492219
11
320.6722435
21
76.3031381
0
LINE
8
0
10
300.3929169
20
22.7617085
11
318.1194565
21
25.8873757
0
LINE
8
0
10
318.1194565
20
25.8873757
11
321.2451237
21
8.1608361
0
LINE
8
0
10
321.2451237
20
8.1608361
11
303.5185841
21
5.0351689
0
LINE
8
0
10
303.5185841
20
5.0351689
11
300.3929169
21
22.7617085
0
LINE
8
0
10
297.0936015
20
41.4730558
11
314.8201411
21
44.598723
0
LINE
8
0
10
314.8201411
20
44.598723
11
317.9458083
21
26.8721834
0
LINE
8
0
10
317.9458083
20
26.8721834
11
300.2192687
21
23.7465162
0
LINE
8
0
10
300.2192687
20
23.7465162
11
297.0936015
21
41.4730558
0
LINE
8
0
10
293.7942862
20
60.1844031
11
311.5208258
21
63.3100703
0
LINE
8
0
10
311.5208258
20
63.3100703
11
314.646493
21
45.5835307
0
LINE
8
0
10
314.646493
20
45.5835307
11
296.9199534
21
42.4578635
0
LINE
8
0
10
296.9199534
20
42.4578635
11
293.7942862
21
60.1844031
0
LINE
8
0
10
290.7498106
20
88.9680233
11
304.5371191
21
91.3990978
0
LINE
8
0
10
304.5371191
20
91.3990978
11
308.9217356
21
66.5327021
0
LINE
8
0
10
308.9217356
20
66.5327021
11
295.1344271
21
64.1016276
0
LINE
8
0
10
295.1344271
20
64.1016276
11
290.7498106
21
88.9680233
0
LINE
8
0
10
279.1255727
20
28.4044527
11
296.7322295
21
32.1468631
0
LINE
8
0
10
296.7322295
20
32.1468631
11
300.4746399
21
14.5402063
0
LINE
8
0
10
300.4746399
20
14.5402063
11
282.8679831
21
10.7977959
0
LINE
8
0
10
282.8679831
20
10.7977959
11
279.1255727
21
28.4044527
0
LINE
8
0
10
275.1752506
20
46.9892571
11
292.7819074
21
50.7316675
0
LINE
8
0
10
292.7819074
20
50.7316675
11
296.5243178
21
33.1250107
0
LINE
8
0
10
296.5243178
20
33.1250107
11
278.917661
21
29.3826003
0
LINE
8
0
10
278.917661
20
29.3826003
11
275.1752506
21
46.9892571
0
LINE
8
0
10
271.2249285
20
65.5740615
11
288.8315853
21
69.3164719
0
LINE
8
0
10
288.8315853
20
69.3164719
11
292.5739957
21
51.7098151
0
LINE
8
0
10
292.5739957
20
51.7098151
11
274.9673389
21
47.9674047
0
LINE
8
0
10
274.9673389
20
47.9674047
11
271.2249285
21
65.5740615
0
LINE
8
0
10
267.1777736
20
94.2338968
11
280.87184
21
97.1446605
0
LINE
8
0
10
280.87184
20
97.1446605
11
286.1216102
21
72.4464336
0
LINE
8
0
10
286.1216102
20
72.4464336
11
272.4275438
21
69.5356699
0
LINE
8
0
10
272.4275438
20
69.5356699
11
267.1777736
21
94.2338968
0
LINE
8
0
10
259.5012098
20
29.3448685
11
277.1078666
21
33.0872789
0
LINE
8
0
10
277.1078666
20
33.0872789
11
280.850277
21
15.4806221
0
LINE
8
0
10
280.850277
20
15.4806221
11
263.2436202
21
11.7382117
0
LINE
8
0
10
263.2436202
20
11.7382117
11
259.5012098
21
29.3448685
0
LINE
8
0
10
255.5508877
20
47.9296729
11
273.1575445
21
51.6720833
0
LINE
8
0
10
273.1575445
20
51.6720833
11
276.8999549
21
34.0654265
0
LINE
8
0
10
276.8999549
20
34.0654265
11
259.2932981
21
30.3230161
0
LINE
8
0
10
259.2932981
20
30.3230161
11
255.5508877
21
47.9296729
0
LINE
8
0
10
251.6005656
20
66.5144774
11
269.2072224
21
70.2568878
0
LINE
8
0
10
269.2072224
20
70.2568878
11
272.9496328
21
52.650231
0
LINE
8
0
10
272.9496328
20
52.650231
11
255.342976
21
48.9078206
0
LINE
8
0
10
255.342976
20
48.9078206
11
251.6005656
21
66.5144774
0
LINE
8
0
10
247.5534107
20
95.1743127
11
261.2474771
21
98.0850764
0
LINE
8
0
10
261.2474771
20
98.0850764
11
266.4972473
21
73.3868495
0
LINE
8
0
10
266.4972473
20
73.3868495
11
252.8031809
21
70.4760858
0
LINE
8
0
10
252.8031809
20
70.4760858
11
247.5534107
21
95.1743127
0
LINE
8
0
10
242.1638755
20
19.5256608
11
259.7705323
21
23.2680712
0
LINE
8
0
10
259.7705323
20
23.2680712
11
263.5129427
21
5.6614144
0
LINE
8
0
10
263.5129427
20
5.6614144
11
245.9062859
21
1.919004
0
LINE
8
0
10
245.9062859
20
1.919004
11
242.1638755
21
19.5256608
0
LINE
8
0
10
238.2135535
20
38.1104652
11
255.8202103
21
41.8528756
0
LINE
8
0
10
255.8202103
20
41.8528756
11
259.5626207
21
24.2462188
0
LINE
8
0
10
259.5626207
20
24.2462188
11
241.9559639
21
20.5038084
0
LINE
8
0
10
241.9559639
20
20.5038084
11
238.2135535
21
38.1104652
0
LINE
8
0
10
234.2632314
20
56.6952696
11
251.8698882
21
60.43768
0
LINE
8
0
10
251.8698882
20
60.43768
11
255.6122986
21
42.8310232
0
LINE
8
0
10
255.6122986
20
42.8310232
11
238.0056418
21
39.0886128
0
LINE
8
0
10
238.0056418
20
39.0886128
11
234.2632314
21
56.6952696
0
LINE
8
0
10
230.2160765
20
85.355105
11
243.9101429
21
88.2658687
0
LINE
8
0
10
243.9101429
20
88.2658687
11
249.1599131
21
63.5676418
0
LINE
8
0
10
249.1599131
20
63.5676418
11
235.4658467
21
60.6568781
0
LINE
8
0
10
235.4658467
20
60.6568781
11
230.2160765
21
85.355105
0
LINE
8
0
10
223.9948945
20
13.6190435
11
241.6015513
21
17.3614539
0
LINE
8
0
10
241.6015513
20
17.3614539
11
245.3439617
21
-0.2452029
0
LINE
8
0
10
245.3439617
20
-0.2452029
11
227.7373049
21
-3.9876133
0
LINE
8
0
10
227.7373049
20
-3.9876133
11
223.9948945
21
13.6190435
0
LINE
8
0
10
220.0445725
20
32.2038479
11
237.6512293
21
35.9462583
0
LINE
8
0
10
237.6512293
20
35.9462583
11
241.3936397
21
18.3396015
0
LINE
8
0
10
241.3936397
20
18.3396015
11
223.7869829
21
14.5971911
0
LINE
8
0
10
223.7869829
20
14.5971911
11
220.0445725
21
32.2038479
0
LINE
8
0
10
216.0942504
20
50.7886523
11
233.7009072
21
54.5310627
0
LINE
8
0
10
233.7009072
20
54.5310627
11
237.4433176
21
36.9244059
0
LINE
8
0
10
237.4433176
20
36.9244059
11
219.8366608
21
33.1819955
0
LINE
8
0
10
219.8366608
20
33.1819955
11
216.0942504
21
50.7886523
0
LINE
8
0
10
212.0470955
20
79.4484876
11
225.7411619
21
82.3592513
0
LINE
8
0
10
225.7411619
20
82.3592513
11
230.9909321
21
57.6610244
0
LINE
8
0
10
230.9909321
20
57.6610244
11
217.2968657
21
54.7502607
0
LINE
8
0
10
217.2968657
20
54.7502607
11
212.0470955
21
79.4484876
0
LINE
8
0
10
263.4991613
20
0.4956651
11
266.409925
21
-13.1984013
0
LINE
8
0
10
266.409925
20
-13.1984013
11
241.7116981
21
-18.4481715
0
LINE
8
0
10
241.7116981
20
-18.4481715
11
238.8009344
21
-4.7541051
0
LINE
8
0
10
238.8009344
20
-4.7541051
11
263.4991613
21
0.4956651
0
LINE
8
0
10
201.8207311
20
-10.5698088
11
234.4297267
21
-3.6385528
0
LINE
8
0
10
234.4297267
20
-3.6385528
11
238.1721371
21
-21.2452096
0
LINE
8
0
10
238.1721371
20
-21.2452096
11
205.5631415
21
-28.1764656
0
LINE
8
0
10
205.5631415
20
-28.1764656
11
201.8207311
21
-10.5698088
0
LINE
8
0
10
207.2310408
20
20.1002727
11
220.9251072
21
23.0110364
0
LINE
8
0
10
220.9251072
20
23.0110364
11
226.1748774
21
-1.6871905
0
LINE
8
0
10
226.1748774
20
-1.6871905
11
212.480811
21
-4.5979542
0
LINE
8
0
10
212.480811
20
-4.5979542
11
207.2310408
21
20.1002727
0
LINE
8
0
10
184.1442764
20
12.9010239
11
196.6183677
21
19.2568909
0
LINE
8
0
10
196.6183677
20
19.2568909
11
208.0816278
21
-3.2410239
0
LINE
8
0
10
208.0816278
20
-3.2410239
11
195.6075365
21
-9.5968909
0
LINE
8
0
10
195.6075365
20
-9.5968909
11
184.1442764
21
12.9010239
0
LINE
8
0
10
188.0609572
20
-37.7207338
11
202.4363964
21
-26.8880634
0
LINE
8
0
10
202.4363964
20
-26.8880634
11
213.2690668
21
-41.2635026
0
LINE
8
0
10
213.2690668
20
-41.2635026
11
198.8936276
21
-52.096173
0
LINE
8
0
10
198.8936276
20
-52.096173
11
188.0609572
21
-37.7207338
0
LINE
8
0
10
171.2989752
20
-22.0826277
11
175.6252131
21
-8.7678364
0
LINE
8
0
10
175.6252131
20
-8.7678364
11
199.6393902
21
-16.5705155
0
LINE
8
0
10
199.6393902
20
-16.5705155
11
195.3131523
21
-29.8853068
0
LINE
8
0
10
195.3131523
20
-29.8853068
11
171.2989752
21
-22.0826277
0
ENDSEC
0
EOF