<svg width="315.767mm" height="145.909mm" viewBox="0 0 315.767 145.909" xmlns="http://www.w3.org/2000/svg"><g id="svgGroup" stroke-linecap="round" fill-rule="evenodd" font-size="9pt" stroke="#000" stroke-width="0.25mm" fill="none" style="stroke:#000;stroke-width:0.25mm;fill:none"><path d="M 161.604 121.944 L 176.7 112.14 L 192.263 136.105 L 177.167 145.909 L 161.604 121.944 Z M 139.067 112.14 L 154.163 121.944 L 138.6 145.909 L 123.504 136.105 L 139.067 112.14 Z M 203.249 98.024 L 219.818 90.991 L 229.122 112.91 L 212.553 119.944 L 203.249 98.024 Z M 95.949 90.991 L 112.518 98.024 L 103.214 119.944 L 86.645 112.91 L 95.949 90.991 Z M 223.873 90.109 L 247.324 85.974 L 250.449 103.7 L 226.999 107.835 L 223.873 90.109 Z M 68.444 85.974 L 91.894 90.109 L 88.769 107.835 L 65.318 103.7 L 68.444 85.974 Z M 111.53 76.236 L 132.357 87.78 L 123.631 103.523 L 102.804 91.979 L 111.53 76.236 Z M 183.41 87.78 L 204.237 76.236 L 212.964 91.979 L 192.137 103.523 L 183.41 87.78 Z M 115.716 100.441 L 135.686 113.41 L 125.883 128.506 L 105.912 115.537 L 115.716 100.441 Z M 180.081 113.41 L 200.052 100.441 L 209.855 115.537 L 189.884 128.506 L 180.081 113.41 Z M 75.23 9.947 L 92.956 13.073 L 89.831 30.799 L 72.104 27.674 L 75.23 9.947 Z M 77.962 49.015 L 95.689 52.141 L 92.563 69.867 L 74.837 66.742 L 77.962 49.015 Z M 93.941 13.247 L 111.668 16.372 L 108.542 34.099 L 90.816 30.973 L 93.941 13.247 Z M 96.674 52.315 L 114.4 55.44 L 111.275 73.167 L 93.548 70.041 L 96.674 52.315 Z M 112.653 16.546 L 130.379 19.671 L 127.254 37.398 L 109.527 34.272 L 112.653 16.546 Z M 241.522 9.774 L 259.249 6.648 L 262.374 24.374 L 244.648 27.5 L 241.522 9.774 Z M 222.811 13.073 L 240.537 9.947 L 243.663 27.674 L 225.937 30.799 L 222.811 13.073 Z M 204.1 16.372 L 221.826 13.247 L 224.952 30.973 L 207.225 34.099 L 204.1 16.372 Z M 201.367 55.44 L 219.094 52.315 L 222.219 70.041 L 204.493 73.167 L 201.367 55.44 Z M 185.388 19.671 L 203.115 16.546 L 206.24 34.272 L 188.514 37.398 L 185.388 19.671 Z M 3.126 35.769 L 20.852 38.894 L 17.727 56.621 L 0 53.495 L 3.126 35.769 Z M 11.115 17.884 L 28.842 21.01 L 25.716 38.737 L 7.989 35.611 L 11.115 17.884 Z M 19.105 0 L 36.831 3.126 L 33.705 20.852 L 15.979 17.727 L 19.105 0 Z M 13.839 57.002 L 31.565 60.127 L 28.44 77.854 L 10.713 74.728 L 13.839 57.002 Z M 21.828 39.117 L 39.555 42.243 L 36.429 59.969 L 18.703 56.844 L 21.828 39.117 Z M 29.818 21.233 L 47.544 24.359 L 44.419 42.085 L 26.692 38.959 L 29.818 21.233 Z M 32.55 60.301 L 50.277 63.427 L 47.151 81.153 L 29.425 78.027 L 32.55 60.301 Z M 56.519 6.648 L 74.245 9.774 L 71.119 27.5 L 53.393 24.374 L 56.519 6.648 Z M 51.262 63.6 L 68.988 66.726 L 65.862 84.452 L 48.136 81.327 L 51.262 63.6 Z M 37.807 3.349 L 55.534 6.474 L 52.408 24.201 L 34.682 21.075 L 37.807 3.349 Z M 40.54 42.417 L 58.266 45.542 L 55.141 63.269 L 37.414 60.143 L 40.54 42.417 Z M 48.529 24.532 L 66.256 27.658 L 63.13 45.384 L 45.403 42.259 L 48.529 24.532 Z M 59.251 45.716 L 76.978 48.842 L 73.852 66.568 L 56.125 63.442 L 59.251 45.716 Z M 67.24 27.832 L 84.967 30.957 L 81.841 48.684 L 64.115 45.558 L 67.24 27.832 Z M 69.973 66.9 L 87.699 70.025 L 84.574 87.752 L 66.847 84.626 L 69.973 66.9 Z M 85.952 31.131 L 103.678 34.257 L 100.553 51.983 L 82.826 48.857 L 85.952 31.131 Z M 88.684 70.199 L 106.411 73.325 L 103.285 91.051 L 85.559 87.925 L 88.684 70.199 Z M 104.663 34.43 L 122.39 37.556 L 119.264 55.282 L 101.538 52.157 L 104.663 34.43 Z M 238.79 48.842 L 256.516 45.716 L 259.642 63.442 L 241.915 66.568 L 238.79 48.842 Z M 230.8 30.957 L 248.527 27.832 L 251.653 45.558 L 233.926 48.684 L 230.8 30.957 Z M 228.068 70.025 L 245.794 66.9 L 248.92 84.626 L 231.194 87.752 L 228.068 70.025 Z M 220.078 52.141 L 237.805 49.015 L 240.931 66.742 L 223.204 69.867 L 220.078 52.141 Z M 212.089 34.257 L 229.816 31.131 L 232.941 48.857 L 215.215 51.983 L 212.089 34.257 Z M 209.357 73.325 L 227.083 70.199 L 230.209 87.925 L 212.482 91.051 L 209.357 73.325 Z M 193.378 37.556 L 211.104 34.43 L 214.23 52.157 L 196.503 55.282 L 193.378 37.556 Z M 257.501 45.542 L 275.228 42.417 L 278.353 60.143 L 260.627 63.269 L 257.501 45.542 Z M 249.512 27.658 L 267.238 24.532 L 270.364 42.259 L 252.637 45.384 L 249.512 27.658 Z M 246.779 66.726 L 264.506 63.6 L 267.631 81.327 L 249.905 84.452 L 246.779 66.726 Z M 260.234 6.474 L 277.96 3.349 L 281.086 21.075 L 263.359 24.201 L 260.234 6.474 Z M 294.915 38.894 L 312.642 35.769 L 315.767 53.495 L 298.041 56.621 L 294.915 38.894 Z M 286.926 21.01 L 304.652 17.884 L 307.778 35.611 L 290.051 38.737 L 286.926 21.01 Z M 278.936 3.126 L 296.663 0 L 299.788 17.727 L 282.062 20.852 L 278.936 3.126 Z M 284.202 60.127 L 301.929 57.002 L 305.054 74.728 L 287.328 77.854 L 284.202 60.127 Z M 276.213 42.243 L 293.939 39.117 L 297.065 56.844 L 279.338 59.969 L 276.213 42.243 Z M 268.223 24.359 L 285.95 21.233 L 289.075 38.959 L 271.349 42.085 L 268.223 24.359 Z M 265.491 63.427 L 283.217 60.301 L 286.343 78.027 L 268.616 81.153 L 265.491 63.427 Z" vector-effect="non-scaling-stroke"/></g></svg>