<svg width="355.394mm" height="135.547mm" viewBox="0 0 355.394 135.547" xmlns="http://www.w3.org/2000/svg"><g id="svgGroup" stroke-linecap="round" fill-rule="evenodd" font-size="9pt" stroke="#000" stroke-width="0.25mm" fill="none" style="stroke:#000;stroke-width:0.25mm;fill:none"><path d="M 121.903 105.139 L 146.136 120.282 L 136.598 135.547 L 112.365 120.404 L 121.903 105.139 Z M 209.258 120.282 L 233.491 105.139 L 243.029 120.404 L 218.796 135.547 L 209.258 120.282 Z M 304.209 9.88 L 321.935 6.755 L 326.32 31.621 L 308.593 34.747 L 304.209 9.88 Z M 33.458 6.755 L 51.185 9.88 L 46.8 34.747 L 29.074 31.621 L 33.458 6.755 Z M 280.65 4.683 L 298.257 0.94 L 303.506 25.639 L 285.9 29.381 L 280.65 4.683 Z M 261.026 3.742 L 278.632 0 L 283.882 24.698 L 266.275 28.441 L 261.026 3.742 Z M 76.761 0 L 94.368 3.742 L 89.118 28.441 L 71.512 24.698 L 76.761 0 Z M 57.137 0.94 L 74.744 4.683 L 69.494 29.381 L 51.887 25.639 L 57.137 0.94 Z M 94.099 9.819 L 111.705 13.562 L 106.456 38.26 L 88.849 34.517 L 94.099 9.819 Z M 112.268 15.726 L 129.874 19.468 L 124.625 44.166 L 107.018 40.424 L 112.268 15.726 Z M 243.688 13.562 L 261.295 9.819 L 266.545 34.517 L 248.938 38.26 L 243.688 13.562 Z M 225.519 19.468 L 243.126 15.726 L 248.376 40.424 L 230.769 44.166 L 225.519 19.468 Z M 334.108 22.023 L 352.04 23.592 L 349.839 48.746 L 331.908 47.177 L 334.108 22.023 Z M 3.354 23.592 L 21.285 22.023 L 23.486 47.177 L 5.554 48.746 L 3.354 23.592 Z M 91.511 99.159 L 114.803 104.109 L 111.061 121.716 L 87.769 116.765 L 91.511 99.159 Z M 240.59 104.109 L 263.882 99.159 L 267.625 116.765 L 244.333 121.716 L 240.59 104.109 Z M 136.641 84.652 L 150.335 87.562 L 145.085 112.261 L 131.391 109.35 L 136.641 84.652 Z M 205.059 87.562 L 218.753 84.652 L 224.002 109.35 L 210.308 112.261 L 205.059 87.562 Z M 169.864 110.242 L 172.296 124.029 L 147.429 128.414 L 144.998 114.627 L 169.864 110.242 Z M 183.098 124.029 L 185.529 110.242 L 210.396 114.627 L 207.964 128.414 L 183.098 124.029 Z M 3.126 69.363 L 20.852 72.489 L 17.727 90.216 L 0 87.09 L 3.126 69.363 Z M 6.425 50.652 L 24.152 53.778 L 21.026 71.504 L 3.299 68.379 L 6.425 50.652 Z M 25.145 53.902 L 42.872 57.028 L 39.746 74.754 L 22.019 71.629 L 25.145 53.902 Z M 21.846 72.614 L 39.572 75.739 L 36.447 93.466 L 18.72 90.34 L 21.846 72.614 Z M 28.444 35.191 L 46.171 38.316 L 43.045 56.043 L 25.319 52.917 L 28.444 35.191 Z M 334.541 72.489 L 352.268 69.363 L 355.394 87.09 L 337.667 90.216 L 334.541 72.489 Z M 331.242 53.778 L 348.969 50.652 L 352.094 68.379 L 334.368 71.504 L 331.242 53.778 Z M 315.821 75.739 L 333.548 72.614 L 336.674 90.34 L 318.947 93.466 L 315.821 75.739 Z M 312.522 57.028 L 330.249 53.902 L 333.374 71.629 L 315.648 74.754 L 312.522 57.028 Z M 309.223 38.316 L 326.949 35.191 L 330.075 52.917 L 312.348 56.043 L 309.223 38.316 Z M 88.095 38.063 L 105.702 41.806 L 101.96 59.412 L 84.353 55.67 L 88.095 38.063 Z M 106.264 43.97 L 123.871 47.712 L 120.128 65.319 L 102.522 61.576 L 106.264 43.97 Z M 47.183 47.769 L 64.79 51.512 L 61.047 69.118 L 43.441 65.376 L 47.183 47.769 Z M 62.857 65.414 L 80.464 69.156 L 76.722 86.763 L 59.115 83.02 L 62.857 65.414 Z M 70.758 28.244 L 88.365 31.986 L 84.622 49.593 L 67.016 45.851 L 70.758 28.244 Z M 80.195 75.233 L 97.801 78.975 L 94.059 96.582 L 76.452 92.839 L 80.195 75.233 Z M 84.145 56.648 L 101.752 60.39 L 98.009 77.997 L 80.403 74.255 L 84.145 56.648 Z M 98.364 81.139 L 115.97 84.882 L 112.228 102.489 L 94.621 98.746 L 98.364 81.139 Z M 102.314 62.555 L 119.921 66.297 L 116.178 83.904 L 98.572 80.161 L 102.314 62.555 Z M 74.717 113.991 L 78.459 96.384 L 96.066 100.127 L 92.323 117.733 L 74.717 113.991 Z M 294.554 70.096 L 312.161 66.354 L 315.903 83.961 L 298.296 87.703 L 294.554 70.096 Z M 290.604 51.512 L 308.21 47.769 L 311.953 65.376 L 294.346 69.118 L 290.604 51.512 Z M 274.93 69.156 L 292.536 65.414 L 296.279 83.02 L 278.672 86.763 L 274.93 69.156 Z M 270.979 50.571 L 288.586 46.829 L 292.328 64.435 L 274.722 68.178 L 270.979 50.571 Z M 267.029 31.986 L 284.636 28.244 L 288.378 45.851 L 270.771 49.593 L 267.029 31.986 Z M 253.642 60.39 L 271.249 56.648 L 274.991 74.255 L 257.384 77.997 L 253.642 60.39 Z M 66.808 46.829 L 84.414 50.571 L 80.672 68.178 L 63.065 64.435 L 66.808 46.829 Z M 286.653 32.927 L 304.26 29.184 L 308.002 46.791 L 290.396 50.533 L 286.653 32.927 Z M 257.592 78.975 L 275.199 75.233 L 278.941 92.839 L 261.335 96.582 L 257.592 78.975 Z M 276.935 96.384 L 280.677 113.991 L 263.07 117.733 L 259.328 100.127 L 276.935 96.384 Z M 43.233 66.354 L 60.84 70.096 L 57.097 87.703 L 39.491 83.961 L 43.233 66.354 Z M 51.134 29.184 L 68.74 32.927 L 64.998 50.533 L 47.391 46.791 L 51.134 29.184 Z M 249.692 41.806 L 267.298 38.063 L 271.041 55.67 L 253.434 59.412 L 249.692 41.806 Z M 239.423 84.882 L 257.03 81.139 L 260.772 98.746 L 243.166 102.489 L 239.423 84.882 Z M 235.473 66.297 L 253.08 62.555 L 256.822 80.161 L 239.215 83.904 L 235.473 66.297 Z M 231.523 47.712 L 249.129 43.97 L 252.872 61.576 L 235.265 65.319 L 231.523 47.712 Z" vector-effect="non-scaling-stroke"/></g></svg>