<svg width="317.479mm" height="147.443mm" viewBox="0 0 317.479 147.443" xmlns="http://www.w3.org/2000/svg"><g id="svgGroup" stroke-linecap="round" fill-rule="evenodd" font-size="9pt" stroke="#000" stroke-width="0.25mm" fill="none" style="stroke:#000;stroke-width:0.25mm;fill:none"><path d="M 103.318 97.741 L 127.551 112.883 L 118.013 128.148 L 93.78 113.006 L 103.318 97.741 Z M 189.928 112.883 L 214.161 97.741 L 223.699 113.006 L 199.466 128.148 L 189.928 112.883 Z M 221.26 96.711 L 244.553 91.76 L 248.295 109.367 L 225.003 114.318 L 221.26 96.711 Z M 72.926 91.76 L 96.219 96.711 L 92.476 114.318 L 69.184 109.367 L 72.926 91.76 Z M 3.126 65.915 L 20.852 69.041 L 17.727 86.768 L 0 83.642 L 3.126 65.915 Z M 6.425 47.204 L 24.152 50.33 L 21.026 68.056 L 3.299 64.931 L 6.425 47.204 Z M 10.827 22.239 L 28.554 25.365 L 25.428 43.091 L 7.701 39.966 L 10.827 22.239 Z M 25.145 50.454 L 42.872 53.58 L 39.746 71.306 L 22.019 68.181 L 25.145 50.454 Z M 21.846 69.166 L 39.572 72.291 L 36.447 90.018 L 18.72 86.892 L 21.846 69.166 Z M 28.444 31.743 L 46.171 34.869 L 43.045 52.595 L 25.319 49.469 L 28.444 31.743 Z M 32.846 6.778 L 50.573 9.904 L 47.447 27.63 L 29.721 24.505 L 32.846 6.778 Z M 288.926 25.365 L 306.652 22.239 L 309.778 39.966 L 292.051 43.091 L 288.926 25.365 Z M 296.627 69.041 L 314.353 65.915 L 317.479 83.642 L 299.753 86.768 L 296.627 69.041 Z M 293.328 50.33 L 311.054 47.204 L 314.18 64.931 L 296.453 68.056 L 293.328 50.33 Z M 277.907 72.291 L 295.633 69.166 L 298.759 86.892 L 281.032 90.018 L 277.907 72.291 Z M 274.608 53.58 L 292.334 50.454 L 295.46 68.181 L 277.733 71.306 L 274.608 53.58 Z M 271.308 34.869 L 289.035 31.743 L 292.16 49.469 L 274.434 52.595 L 271.308 34.869 Z M 266.906 9.904 L 284.633 6.778 L 287.758 24.505 L 270.032 27.63 L 266.906 9.904 Z M 128.718 122.084 L 140.288 135.873 L 126.5 147.443 L 114.929 133.654 L 128.718 122.084 Z M 177.191 135.873 L 188.761 122.084 L 202.55 133.654 L 190.979 147.443 L 177.191 135.873 Z M 93.366 9.819 L 110.972 13.562 L 107.23 31.168 L 89.623 27.426 L 93.366 9.819 Z M 111.535 15.726 L 129.141 19.468 L 125.399 37.075 L 107.792 33.332 L 111.535 15.726 Z M 88.095 34.615 L 105.702 38.358 L 101.96 55.964 L 84.353 52.222 L 88.095 34.615 Z M 106.264 40.522 L 123.871 44.264 L 120.128 61.871 L 102.522 58.129 L 106.264 40.522 Z M 243.468 4.683 L 261.075 0.94 L 264.817 18.547 L 247.211 22.289 L 243.468 4.683 Z M 47.183 44.321 L 64.79 48.064 L 61.047 65.67 L 43.441 61.928 L 47.183 44.321 Z M 62.857 61.966 L 80.464 65.708 L 76.722 83.315 L 59.115 79.572 L 62.857 61.966 Z M 70.758 24.796 L 88.365 28.538 L 84.622 46.145 L 67.016 42.403 L 70.758 24.796 Z M 76.028 0 L 93.635 3.742 L 89.893 21.349 L 72.286 17.607 L 76.028 0 Z M 80.195 71.785 L 97.801 75.527 L 94.059 93.134 L 76.452 89.392 L 80.195 71.785 Z M 84.145 53.2 L 101.752 56.942 L 98.009 74.549 L 80.403 70.807 L 84.145 53.2 Z M 98.364 77.691 L 115.97 81.434 L 112.228 99.041 L 94.621 95.298 L 98.364 77.691 Z M 102.314 59.107 L 119.921 62.849 L 116.178 80.456 L 98.572 76.713 L 102.314 59.107 Z M 256.639 66.648 L 274.246 62.906 L 277.989 80.513 L 260.382 84.255 L 256.639 66.648 Z M 252.689 48.064 L 270.296 44.321 L 274.038 61.928 L 256.432 65.67 L 252.689 48.064 Z M 206.507 13.562 L 224.113 9.819 L 227.856 27.426 L 210.249 31.168 L 206.507 13.562 Z M 56.404 0.94 L 74.011 4.683 L 70.268 22.289 L 52.662 18.547 L 56.404 0.94 Z M 66.808 43.381 L 84.414 47.123 L 80.672 64.73 L 63.065 60.988 L 66.808 43.381 Z M 229.114 28.538 L 246.721 24.796 L 250.464 42.403 L 232.857 46.145 L 229.114 28.538 Z M 223.844 3.742 L 241.451 0 L 245.193 17.607 L 227.586 21.349 L 223.844 3.742 Z M 188.338 19.468 L 205.944 15.726 L 209.687 33.332 L 192.08 37.075 L 188.338 19.468 Z M 43.233 62.906 L 60.84 66.648 L 57.097 84.255 L 39.491 80.513 L 43.233 62.906 Z M 51.134 25.736 L 68.74 29.479 L 64.998 47.086 L 47.391 43.343 L 51.134 25.736 Z M 248.739 29.479 L 266.345 25.736 L 270.088 43.343 L 252.481 47.086 L 248.739 29.479 Z M 237.015 65.708 L 254.622 61.966 L 258.364 79.572 L 240.758 83.315 L 237.015 65.708 Z M 233.065 47.123 L 250.671 43.381 L 254.414 60.988 L 236.807 64.73 L 233.065 47.123 Z M 219.678 75.527 L 237.284 71.785 L 241.027 89.392 L 223.42 93.134 L 219.678 75.527 Z M 215.727 56.942 L 233.334 53.2 L 237.077 70.807 L 219.47 74.549 L 215.727 56.942 Z M 211.777 38.358 L 229.384 34.615 L 233.126 52.222 L 215.52 55.964 L 211.777 38.358 Z M 201.509 81.434 L 219.115 77.691 L 222.858 95.298 L 205.251 99.041 L 201.509 81.434 Z M 197.558 62.849 L 215.165 59.107 L 218.908 76.713 L 201.301 80.456 L 197.558 62.849 Z M 193.608 44.264 L 211.215 40.522 L 214.957 58.129 L 197.351 61.871 L 193.608 44.264 Z M 140.552 102.331 L 149.551 113.056 L 138.827 122.055 L 129.828 111.33 L 140.552 102.331 Z M 167.928 113.056 L 176.927 102.331 L 187.651 111.33 L 178.652 122.055 L 167.928 113.056 Z M 180.923 92.633 L 191.955 84.014 L 200.574 95.046 L 189.542 103.666 L 180.923 92.633 Z M 125.524 84.014 L 136.556 92.633 L 127.937 103.666 L 116.905 95.046 L 125.524 84.014 Z" vector-effect="non-scaling-stroke"/></g></svg>