<svg width="320.725mm" height="146.626mm" viewBox="0 0 320.725 146.626" xmlns="http://www.w3.org/2000/svg"><g id="svgGroup" stroke-linecap="round" fill-rule="evenodd" font-size="9pt" stroke="#000" stroke-width="0.25mm" fill="none" style="stroke:#000;stroke-width:0.25mm;fill:none"><path d="M 142.609 106.268 L 155.985 118.313 L 130.491 146.626 L 117.115 134.582 L 142.609 106.268 Z M 164.74 118.313 L 178.116 106.268 L 203.61 134.582 L 190.234 146.626 L 164.74 118.313 Z M 94.625 91.4 L 111.314 98.143 L 100.61 124.637 L 83.92 117.894 L 94.625 91.4 Z M 209.411 98.143 L 226.1 91.4 L 236.805 117.894 L 220.115 124.637 L 209.411 98.143 Z M 3.126 44.834 L 20.852 47.959 L 17.727 65.686 L 0 62.56 L 3.126 44.834 Z M 6.425 26.122 L 24.152 29.248 L 21.026 46.975 L 3.299 43.849 L 6.425 26.122 Z M 18.529 66.894 L 36.256 70.019 L 33.13 87.746 L 15.403 84.62 L 18.529 66.894 Z M 21.828 48.182 L 39.555 51.308 L 36.429 69.034 L 18.703 65.909 L 21.828 48.182 Z M 25.128 29.471 L 42.854 32.597 L 39.729 50.323 L 22.002 47.197 L 25.128 29.471 Z M 28.427 10.76 L 46.154 13.885 L 43.028 31.612 L 25.301 28.486 L 28.427 10.76 Z M 299.873 47.959 L 317.599 44.834 L 320.725 62.56 L 302.998 65.686 L 299.873 47.959 Z M 296.574 29.248 L 314.3 26.122 L 317.426 43.849 L 299.699 46.975 L 296.574 29.248 Z M 284.469 70.019 L 302.196 66.894 L 305.322 84.62 L 287.595 87.746 L 284.469 70.019 Z M 281.17 51.308 L 298.897 48.182 L 302.022 65.909 L 284.296 69.034 L 281.17 51.308 Z M 277.871 32.597 L 295.597 29.471 L 298.723 47.197 L 280.997 50.323 L 277.871 32.597 Z M 274.572 13.885 L 292.298 10.76 L 295.424 28.486 L 277.697 31.612 L 274.572 13.885 Z M 120.126 99.481 L 133.502 111.525 L 121.458 124.902 L 108.081 112.857 L 120.126 99.481 Z M 124.274 77.649 L 137.651 89.694 L 125.607 103.07 L 112.23 91.026 L 124.274 77.649 Z M 187.223 111.525 L 200.6 99.481 L 212.644 112.857 L 199.267 124.902 L 187.223 111.525 Z M 183.074 89.694 L 196.451 77.649 L 208.495 91.026 L 195.119 103.07 L 183.074 89.694 Z M 95.742 71.48 L 113.348 75.223 L 109.606 92.829 L 91.999 89.087 L 95.742 71.48 Z M 44.561 38.11 L 62.168 41.852 L 58.425 59.459 L 40.819 55.717 L 44.561 38.11 Z M 48.511 19.525 L 66.118 23.268 L 62.376 40.874 L 44.769 37.132 L 48.511 19.525 Z M 60.235 55.754 L 77.842 59.497 L 74.099 77.103 L 56.493 73.361 L 60.235 55.754 Z M 64.186 37.17 L 81.792 40.912 L 78.05 58.519 L 60.443 54.776 L 64.186 37.17 Z M 68.136 18.585 L 85.743 22.327 L 82 39.934 L 64.393 36.191 L 68.136 18.585 Z M 72.086 0 L 89.693 3.742 L 85.95 21.349 L 68.344 17.607 L 72.086 0 Z M 77.573 65.574 L 95.179 69.316 L 91.437 86.923 L 73.83 83.18 L 77.573 65.574 Z M 81.523 46.989 L 99.13 50.731 L 95.387 68.338 L 77.78 64.595 L 81.523 46.989 Z M 85.473 28.404 L 103.08 32.146 L 99.337 49.753 L 81.731 46.011 L 85.473 28.404 Z M 89.423 9.819 L 107.03 13.562 L 103.288 31.168 L 85.681 27.426 L 89.423 9.819 Z M 99.692 52.895 L 117.298 56.638 L 113.556 74.245 L 95.949 70.502 L 99.692 52.895 Z M 103.642 34.311 L 121.249 38.053 L 117.506 55.66 L 99.9 51.917 L 103.642 34.311 Z M 107.592 15.726 L 125.199 19.468 L 121.457 37.075 L 103.85 33.332 L 107.592 15.726 Z M 67.317 84.965 L 84.923 88.707 L 81.181 106.314 L 63.574 102.572 L 67.317 84.965 Z M 40.611 56.695 L 58.217 60.437 L 54.475 78.044 L 36.868 74.301 L 40.611 56.695 Z M 52.462 0.94 L 70.068 4.683 L 66.326 22.289 L 48.719 18.547 L 52.462 0.94 Z M 262.508 60.437 L 280.114 56.695 L 283.857 74.301 L 266.25 78.044 L 262.508 60.437 Z M 258.557 41.852 L 276.164 38.11 L 279.906 55.717 L 262.3 59.459 L 258.557 41.852 Z M 254.607 23.268 L 272.214 19.525 L 275.956 37.132 L 258.349 40.874 L 254.607 23.268 Z M 250.657 4.683 L 268.263 0.94 L 272.006 18.547 L 254.399 22.289 L 250.657 4.683 Z M 242.883 59.497 L 260.49 55.754 L 264.232 73.361 L 246.626 77.103 L 242.883 59.497 Z M 238.933 40.912 L 256.54 37.17 L 260.282 54.776 L 242.675 58.519 L 238.933 40.912 Z M 234.983 22.327 L 252.589 18.585 L 256.332 36.191 L 238.725 39.934 L 234.983 22.327 Z M 231.032 3.742 L 248.639 0 L 252.381 17.607 L 234.775 21.349 L 231.032 3.742 Z M 225.546 69.316 L 243.153 65.574 L 246.895 83.18 L 229.288 86.923 L 225.546 69.316 Z M 221.596 50.731 L 239.202 46.989 L 242.945 64.595 L 225.338 68.338 L 221.596 50.731 Z M 217.645 32.146 L 235.252 28.404 L 238.994 46.011 L 221.388 49.753 L 217.645 32.146 Z M 213.695 13.562 L 231.302 9.819 L 235.044 27.426 L 217.437 31.168 L 213.695 13.562 Z M 207.377 75.223 L 224.984 71.48 L 228.726 89.087 L 211.119 92.829 L 207.377 75.223 Z M 203.427 56.638 L 221.033 52.895 L 224.776 70.502 L 207.169 74.245 L 203.427 56.638 Z M 199.476 38.053 L 217.083 34.311 L 220.825 51.917 L 203.219 55.66 L 199.476 38.053 Z M 195.526 19.468 L 213.133 15.726 L 216.875 33.332 L 199.268 37.075 L 195.526 19.468 Z M 235.802 88.707 L 253.408 84.965 L 257.151 102.572 L 239.544 106.314 L 235.802 88.707 Z" vector-effect="non-scaling-stroke"/></g></svg>