<svg width="325.715mm" height="148.886mm" viewBox="0 0 325.715 148.886" xmlns="http://www.w3.org/2000/svg"><g id="svgGroup" stroke-linecap="round" fill-rule="evenodd" font-size="9pt" stroke="#000" stroke-width="0.25mm" fill="none" style="stroke:#000;stroke-width:0.25mm;fill:none"><path d="M 144.63 115.155 L 159.375 125.479 L 142.985 148.886 L 128.24 138.562 L 144.63 115.155 Z M 166.34 125.479 L 181.085 115.155 L 197.475 138.562 L 182.73 148.886 L 166.34 125.479 Z M 227.46 91.49 L 250.752 86.539 L 254.494 104.146 L 231.202 109.097 L 227.46 91.49 Z M 74.963 86.539 L 98.255 91.49 L 94.513 109.097 L 71.22 104.146 L 74.963 86.539 Z M 121.701 102.647 L 141.207 116.306 L 130.883 131.05 L 111.377 117.392 L 121.701 102.647 Z M 184.508 116.306 L 204.014 102.647 L 214.338 117.392 L 194.832 131.05 L 184.508 116.306 Z M 102.276 92.513 L 118.59 100.12 L 108.526 121.702 L 92.213 114.095 L 102.276 92.513 Z M 207.125 100.12 L 223.438 92.513 L 233.502 114.095 L 217.188 121.702 L 207.125 100.12 Z M 118.363 78.311 L 138.774 90.575 L 129.504 106.004 L 109.092 93.74 L 118.363 78.311 Z M 186.94 90.575 L 207.352 78.311 L 216.622 93.74 L 196.211 106.004 L 186.94 90.575 Z M 3.126 44.834 L 20.852 47.959 L 17.727 65.686 L 0 62.56 L 3.126 44.834 Z M 6.425 26.122 L 24.152 29.248 L 21.026 46.975 L 3.299 43.849 L 6.425 26.122 Z M 9.724 7.411 L 27.451 10.537 L 24.325 28.263 L 6.599 25.137 L 9.724 7.411 Z M 18.529 66.894 L 36.256 70.019 L 33.13 87.746 L 15.403 84.62 L 18.529 66.894 Z M 21.828 48.182 L 39.555 51.308 L 36.429 69.034 L 18.703 65.909 L 21.828 48.182 Z M 25.128 29.471 L 42.854 32.597 L 39.729 50.323 L 22.002 47.197 L 25.128 29.471 Z M 28.427 10.76 L 46.154 13.885 L 43.028 31.612 L 25.301 28.486 L 28.427 10.76 Z M 304.863 47.959 L 322.589 44.834 L 325.715 62.56 L 307.988 65.686 L 304.863 47.959 Z M 301.563 29.248 L 319.29 26.122 L 322.416 43.849 L 304.689 46.975 L 301.563 29.248 Z M 298.264 10.537 L 315.991 7.411 L 319.116 25.137 L 301.39 28.263 L 298.264 10.537 Z M 289.459 70.019 L 307.186 66.894 L 310.311 84.62 L 292.585 87.746 L 289.459 70.019 Z M 286.16 51.308 L 303.886 48.182 L 307.012 65.909 L 289.286 69.034 L 286.16 51.308 Z M 282.861 32.597 L 300.587 29.471 L 303.713 47.197 L 285.986 50.323 L 282.861 32.597 Z M 279.561 13.885 L 297.288 10.76 L 300.414 28.486 L 282.687 31.612 L 279.561 13.885 Z M 95.742 71.48 L 113.348 75.223 L 109.606 92.829 L 91.999 89.087 L 95.742 71.48 Z M 44.561 38.11 L 62.168 41.852 L 58.425 59.459 L 40.819 55.717 L 44.561 38.11 Z M 48.511 19.525 L 66.118 23.268 L 62.376 40.874 L 44.769 37.132 L 48.511 19.525 Z M 60.235 55.754 L 77.842 59.497 L 74.099 77.103 L 56.493 73.361 L 60.235 55.754 Z M 64.186 37.17 L 81.792 40.912 L 78.05 58.519 L 60.443 54.776 L 64.186 37.17 Z M 68.136 18.585 L 85.743 22.327 L 82 39.934 L 64.393 36.191 L 68.136 18.585 Z M 72.086 0 L 89.693 3.742 L 85.95 21.349 L 68.344 17.607 L 72.086 0 Z M 77.573 65.574 L 95.179 69.316 L 91.437 86.923 L 73.83 83.18 L 77.573 65.574 Z M 81.523 46.989 L 99.13 50.731 L 95.387 68.338 L 77.78 64.595 L 81.523 46.989 Z M 85.473 28.404 L 103.08 32.146 L 99.337 49.753 L 81.731 46.011 L 85.473 28.404 Z M 89.423 9.819 L 107.03 13.562 L 103.288 31.168 L 85.681 27.426 L 89.423 9.819 Z M 99.692 52.895 L 117.298 56.638 L 113.556 74.245 L 95.949 70.502 L 99.692 52.895 Z M 103.642 34.311 L 121.249 38.053 L 117.506 55.66 L 99.9 51.917 L 103.642 34.311 Z M 107.592 15.726 L 125.199 19.468 L 121.457 37.075 L 103.85 33.332 L 107.592 15.726 Z M 267.497 60.437 L 285.104 56.695 L 288.846 74.301 L 271.24 78.044 L 267.497 60.437 Z M 247.873 59.497 L 265.48 55.754 L 269.222 73.361 L 251.615 77.103 L 247.873 59.497 Z M 40.611 56.695 L 58.217 60.437 L 54.475 78.044 L 36.868 74.301 L 40.611 56.695 Z M 52.462 0.94 L 70.068 4.683 L 66.326 22.289 L 48.719 18.547 L 52.462 0.94 Z M 259.597 23.268 L 277.203 19.525 L 280.946 37.132 L 263.339 40.874 L 259.597 23.268 Z M 263.547 41.852 L 281.154 38.11 L 284.896 55.717 L 267.289 59.459 L 263.547 41.852 Z M 255.646 4.683 L 273.253 0.94 L 276.995 18.547 L 259.389 22.289 L 255.646 4.683 Z M 243.923 40.912 L 261.529 37.17 L 265.272 54.776 L 247.665 58.519 L 243.923 40.912 Z M 239.972 22.327 L 257.579 18.585 L 261.321 36.191 L 243.715 39.934 L 239.972 22.327 Z M 236.022 3.742 L 253.629 0 L 257.371 17.607 L 239.764 21.349 L 236.022 3.742 Z M 230.536 69.316 L 248.142 65.574 L 251.885 83.18 L 234.278 86.923 L 230.536 69.316 Z M 226.585 50.731 L 244.192 46.989 L 247.934 64.595 L 230.328 68.338 L 226.585 50.731 Z M 222.635 32.146 L 240.242 28.404 L 243.984 46.011 L 226.377 49.753 L 222.635 32.146 Z M 218.685 13.562 L 236.291 9.819 L 240.034 27.426 L 222.427 31.168 L 218.685 13.562 Z M 212.367 75.223 L 229.973 71.48 L 233.716 89.087 L 216.109 92.829 L 212.367 75.223 Z M 208.416 56.638 L 226.023 52.895 L 229.765 70.502 L 212.159 74.245 L 208.416 56.638 Z M 204.466 38.053 L 222.073 34.311 L 225.815 51.917 L 208.208 55.66 L 204.466 38.053 Z M 200.516 19.468 L 218.122 15.726 L 221.865 33.332 L 204.258 37.075 L 200.516 19.468 Z" vector-effect="non-scaling-stroke"/></g></svg>